<svg xmlns="http://www.w3.org/2000/svg" viewBox="0 0 512 512">
  <defs>
    <symbol id="sign-0">
      <path d="M99.67 218.8 98 208.2a142.18 142.18 0 0 0-.29-46.2l1.27-10.56c15.45-25.28 25.75-53.92 51.14-72.51 55.64-40.73 116.1-46.48 177.51-19.22 62.16 27.59 89.34 80 86.45 147.14-2 47.09-26.81 84.51-68 102C301.16 328 282.25 354.34 290 402c2.83 17.36 1.18 35.45 1.58 53.21l-6.79 10.56c-46.18 7.62-49.63 4.78-51-42-.16-5.59-.93-11.25-.33-16.75 4.52-41.22-1.3-71.85-50.58-85.86-38.71-11-61.63-46.15-74.11-85.5-1.86-5.93-6-11.23-9.1-16.86Zm163.1-117.51a110.34 110.34 0 0 0-46.41 9.36c-32.92 14.77-54.65 39.4-58 76.33-3 32.2 9.55 58.6 36.34 77.17 22.25 15.42 31.38 10.92 33.24-15.7.92-13 .93-26.14 1.62-39.21.83-15.88 7.59-26.73 24.87-28.33 17.79-1.63 29.16 6.91 33 23.52 2.68 11.69 1.93 24.13 3.26 36.17 1.17 10.64-4.43 25 8.12 30.36s23-5.13 32.16-12.7c25.15-20.77 31-54.64 16.92-92.69-16.09-43.27-43.89-64.31-85.12-64.28Z"/>
    </symbol>

    <symbol id="sign-1">
      <path d="M295 248.7a115 115 0 0 1 18 6.8 101.6 101.6 0 0 1 16.6 10.2 90.5 90.5 0 0 1 14.3 13.6l3 3.9 1.5 2 1.3 2 2.6 4.3a205 205 0 0 1 2.2 4.3 79.2 79.2 0 0 1 6.3 18 86.5 86.5 0 0 1 2 17.6 100.7 100.7 0 0 1-5 31l-1.6 5a53 53 0 0 1-1.8 5 21.8 21.8 0 0 1-5.5 8.5 13.8 13.8 0 0 1-2 1.4 13.5 13.5 0 0 1-2.3 1.1 16 16 0 0 1-5.7.9c-4.2 0-9.5-1.5-16.4-4.7a69.7 69.7 0 0 1-15.4-9.6 24.6 24.6 0 0 1-6.8-8.4 15.8 15.8 0 0 1-1.3-3.9 36.4 36.4 0 0 1-.4-3.6 28.2 28.2 0 0 1 .1-3.4v-3.3a59.5 59.5 0 0 0-1.6-13.7 11.3 11.3 0 0 1-.3-1.3 9.7 9.7 0 0 1-.4-1l-.1-.6-.2-.4c-.2-.3-.2-.6-.3-1l-1.6-3a28.1 28.1 0 0 0-2-2.8 26.8 26.8 0 0 0-3.4-3.1 33.4 33.4 0 0 0-11.4-5.4 52.4 52.4 0 0 0-11.3-1.7h-6l-3.5.3c-1.2 0-2.4.3-3.6.4a79 79 0 0 0-12.9 2.7c-1 .2-1.9.5-2.7.9l-2.5 1a34.8 34.8 0 0 0-4 2 15.4 15.4 0 0 0-4.3 3.7 11.4 11.4 0 0 0-2 4.4 28.5 28.5 0 0 0-.3 8.5 60.4 60.4 0 0 0 2.2 11.7c1 3.7 1.9 7.6-.5 12s-8 9.3-19.8 15.6-20.8 7.4-27.6 4.8-11.2-8.6-13.5-16a129.6 129.6 0 0 1-5.4-25.5 99.7 99.7 0 0 1-.4-14.4 85 85 0 0 1 2.1-15.4 78.2 78.2 0 0 1 5.4-15.6 76.5 76.5 0 0 1 8.9-14.4 82.8 82.8 0 0 1 11.3-11.8 89.8 89.8 0 0 1 12.4-9 109 109 0 0 1 24.8-10.7 133.2 133.2 0 0 1 23.1-4.7l2.8-.3 1.3-.1 1.5-.1 6.2-.4h6c2 0 4.2.3 6.2.4a98 98 0 0 1 23.7 5.3Zm-16.1-136-6.4-.6-3.1-.2-1.6-.2h-1.6l-6.4-.3h-13.2c-1.1 0-2.2 0-3.3.2l-3.3.2-6.7.6-6.7.9-3.3.4-3.4.6-6.6 1.3-6.6 1.5c-2.2.5-4.4 1-6.6 1.7-4.3 1.4-8.7 2.6-13 4.2l-6.3 2.4-6.3 2.6-3 1.4-3.1 1.4-6.2 3c-4 2.2-8 4.2-11.8 6.6a226 226 0 0 0-22.5 15.1l-5.3 4.2-5.2 4.3-2.6 2.2-2.5 2.2-5 4.6a261.9 261.9 0 0 0-18.5 19.6A246.2 246.2 0 0 0 72.3 214 226.3 226.3 0 0 0 58 238a162.6 162.6 0 0 0-11.4 27.7l-1.1 4.1-.5 2-.4 2-1.4 7.4c-.4 2.5-.8 5-1 7.4s-.5 5-.6 7.5a178.8 178.8 0 0 0 6 57.4c4.5 17 12.6 31.3 22.4 39.4s21.2 10.1 32.3 2.9c11.3-7.1 14.6-15.4 14.3-24.9s-3.9-20-6.7-30.6a116.5 116.5 0 0 1-4.2-35 86.2 86.2 0 0 1 2.2-16.4l.2-1 .2-.7.5-1.5.5-1.7c.1-.6.4-1.1.7-1.8l1.5-3.7 1.9-3.9a144.8 144.8 0 0 1 9.3-15.9 172.4 172.4 0 0 1 11.5-15.4 186.2 186.2 0 0 1 13.3-14.3A182.2 182.2 0 0 1 162 216c2.5-2.1 5.1-4 7.7-5.9 2.7-1.7 5.2-3.6 8-5.3a161.2 161.2 0 0 1 16.6-9.1 144.3 144.3 0 0 1 35.1-11.6l4.5-.9 4.6-.6c3-.5 6.1-.5 9.2-.8 1.5-.2 3-.1 4.6-.2h4.6l4.8.1c1.6 0 3.2 0 4.8.2 3.1.3 6.3.5 9.4 1 1.6.1 3.2.2 4.7.5l4.7.8 2.3.4 2.3.5 4.6 1 4.5 1.2 2.3.6 2.2.7a148.4 148.4 0 0 1 77.3 56.8 151.5 151.5 0 0 1 21.1 42.7c.7 1.9 1.1 3.7 1.6 5.6l.8 2.8.6 3a132 132 0 0 1 2 11.6 128.5 128.5 0 0 1 1.1 23.2 139 139 0 0 1-2 17 129.6 129.6 0 0 0-2.1 15.7c-.4 10 2.2 19 14.2 28.8a20 20 0 0 0 18.1 4 25.4 25.4 0 0 0 8.5-4.4 41.2 41.2 0 0 0 7.4-7.7 75.6 75.6 0 0 0 10.8-21.6 161.8 161.8 0 0 0 5.7-24.2 168.8 168.8 0 0 0 2-33.3v-4.2l-.4-4.1c0-1.4-.2-2.8-.4-4.1l-.4-4.1a189 189 0 0 0-2.8-16.5 196.4 196.4 0 0 0-25.7-62.2 214.6 214.6 0 0 0-113-89.1 209.7 209.7 0 0 0-49-11.7Z"/>
    </symbol>

    <symbol id="sign-2">
      <path d="m289.6 306.3 1.3 50.2.3 11.6.1 5.6v4.1a1.2 1.2 0 0 1 0 .2v.1l-.3 2.7-.1 1a.8.8 0 0 0 .4.8 2 2 0 0 0 .8.3l1 .1 1.8.3H298.3l6.4.2 49.2 1c10.7.1 23.1-1 33 1.6 5 1.3 9.3 3.4 12.4 7.2a20.7 20.7 0 0 1 3.8 6.8 21.9 21.9 0 0 1 .6 2l.5 2.4v.8a26.7 26.7 0 0 0 .9 3.8l.1.5v.3a3 3 0 0 0 0 .4 2.7 2.7 0 0 0 .4.7 1.8 1.8 0 0 0 .2.3l.2.4.4.5a4.7 4.7 0 0 1 1 2.6 3.4 3.4 0 0 1-.4 1.4v1.3c0 .8-.5 1.7-.6 2.5a28.2 28.2 0 0 1-3.2 8.1 26.5 26.5 0 0 1-11.8 10.2c-9.8 4.7-23 5.7-35.5 7-17.6 2-35.1 3.3-52.7 4l-6.5.3-12.5.3-13 .2h-6.6l-3.1-.3-3-.5a43.1 43.1 0 0 1-10.4-3.6 44 44 0 0 1-4.2-2.4 43.4 43.4 0 0 1-8.6-7.2l-1-1-.7-.9-1.5-1.8a40.2 40.2 0 0 1-5-9.1c-.8-3.5-2-7-2.4-11s-.5-8-.7-12l-.5-12-.4-9.6-.8-24.3-1.6-48.5q-2-54.2-4.6-108.3l-2.9-54-.8-13.2v-2.2a4 4 0 0 0 0-.5 1.1 1.1 0 0 0-.5 0H210l-5.3.2-10.9.3-43.6 1.4c-22.5.7-45-1-45.7-27.6s21-34.7 46-36l42.7-2.5L204 63l2.7-.1 1.3-.1 2.2-.1 10-.4c6.6-.2 13.3-.5 19.9-.4l4.8.2c.8 0 1.5.3 2.2.4a16.2 16.2 0 0 1 2.2.4l8 2.4a34.4 34.4 0 0 1 4.6 2.4 24.4 24.4 0 0 1 3 2.2l.1.1-.9 1.1h.1l.3.3.4.5c2.3 2.3 4.6 4.5 7 7.1a23.3 23.3 0 0 1 2.5 5.2l.6 1.4.4 1.5a31.7 31.7 0 0 1 .8 3c.8 4.3 1.3 8.8 1.8 13.3l1.3 13.7.6 6.8.1 1.6V126.6l.3 1.8 1.3 14.4q2.7 28.6 4.6 56.3c2.7 37 4 72.9 3.4 107.2Z"/>
    </symbol>

    <symbol id="sign-3">
     <path d="M461.75 244.9c-1.21 11.1-6.12 22-13.49 32-45.88 61.71-99.74 116.1-156.35 167.75-24.23 22.1-48.18 20.91-72.59-1.26q-74.65-67.8-147.89-137.16c-26.93-25.41-27.31-35.92-6.05-67.31 27.42-40.48 62.39-74.34 96.12-109.26 20.12-20.83 41.23-40.71 61.14-61.74 18.71-19.76 39.66-22.15 59.7-5.43 59.54 49.67 115.47 103.4 170.4 158.1 5.98 5.96 9.11 14.1 9.01 24.31ZM259.38 380.45c3.9-1.64 12.11-2.91 17.21-7.58C312.36 340.05 346.94 306 374.88 266c7.69-11 8.95-23.6-1.46-33.31-32-29.9-64.39-59.48-97.47-88.21C262.73 133 248.39 135.19 236 148c-30.51 31.55-61.28 62.84-91.55 94.6-15.62 16.4-15.67 32.45 2.11 48.26 28.6 25.41 56.64 51.46 84.82 77.34 7.08 6.45 14.62 11.63 28 12.25Z"/>
    </symbol>

    <symbol id="sign-4">
     <path d="m219 457.88-10.83.1c-18.18-16.71-30.22-37.62-41-59.45C145.22 354.17 123 310 101.2 265.57c-25-51-51.29-101.58-74-153.64C14 81.81 25.05 66.41 55.89 63.86 187.36 53 319.09 53 450.85 55.12c5.58.09 11.33.37 16.68 1.79 13.8 3.65 24 11.06 22.64 27.28-1.28 15.32-10.21 24-25.32 24.82-17.71 1-35.7 2.6-53.2.65-29.53-3.27-44.51 10.85-54.58 36.58-19.4 49.54-39.08 99-61 147.5-24.85 55.08-40.95 114.35-77.07 164.14Zm-39.1-347.69c-18.24-8.16-36.91-1-55.28-.92-26.13.16-29.76 8.07-21.86 33.72 19.43 63 55.31 118 84.63 176.22 4.47 8.86 10.09 19.63 22.08 19.09s16.49-11.23 20.43-20.69q37.17-89.08 73.8-178.37c7.36-17.94.85-30.38-18.16-32.17-25.82-2.42-52.06-6-77.57 3.15Z"/>
    </symbol>

    <symbol id="sign-5">
      <path d="M482.79 96.17c-.13 3-.38 6-.65 8.93l-.64 6.47-.15 1.67v1.13l-.17 4.61-.32 9.23-.66 18.46-2.59 73.85-5.05 147.7-1.25 36.93-.06 2v4.2l.13 4.46c.1 3 .15 5.95.1 8.88a80.48 80.48 0 0 1-.66 8.61 51.84 51.84 0 0 1-4.63 15.59 44.36 44.36 0 0 1-9.59 13 48.49 48.49 0 0 1-13.55 8.79 64 64 0 0 1-16.12 4.41 110.47 110.47 0 0 1-17.53 1c-1.48 0-3 0-4.45-.11l-3.48-.18-5.2-.34-8.89-.64-2-.11-1.88-.09-4.06-.1-18.47-.37-147.76-3c-52.25-1.07-104.56-4.49-103-29.32s52.45-30.56 110-29.85c50.15.62 100.3 1 150.19 1.25h14.35l2.78.08 2.68.11c3.51.16 6.76.37 9.75.54l4.23.22h1.76a6.9 6.9 0 0 0 1.83-.4 1.52 1.52 0 0 0 1.06-1.31 7.09 7.09 0 0 0-.21-1.71v-.2l-.05-1.92v-5.67l.17-9.25.68-36.92q1.39-73.67 3.15-145.5.92-35.85 2-71.09.28-8.81.58-17.57l.29-8.75.08-2.27c.05-1.28.12-2.41.19-3.41.15-2 .32-3.71.47-5.21v-.13a.27.27 0 0 0 .07-.12.32.32 0 0 0-.19-.3h-.41l-1.82.17-3.91.37c-2.75.25-5.78.54-9.5.72l-1.47.05h-4.2l-3.9-.05-7.77-.12q-31-.51-61.28-1.33l-124.22-.93-58.81-.52-14.41-.13-4.07-.05c-1.6 0-3.08-.1-4.46-.18-2.76-.15-5.23-.33-7.6-.49l-6.71-.45-3.12-.17-1.5-.06h-.24a12.47 12.47 0 0 0-1.84 0 4 4 0 0 0-1.81.5 2.43 2.43 0 0 0-.86 1.61 10.73 10.73 0 0 0-.2 1.9v1.47l.08 1.51c.13 2 .28 4.13.46 6.32l.56 6.88.29 3.87.13 2.18v2.49l.19 13.84.36 27.16 1.2 107.29c.47 49.76 6 116.39-22.21 120.3-29 4-31-58.5-34.61-116.47q-3.69-58.49-5.87-117l-1.07-29.26-.12-3.66v-.89l-.1-1.19c-.15-1.8-.39-4.12-.63-6.54l-.74-7.68-.34-4.09-.14-2.11-.21-3.56c-.42-9.7-.17-19.52 2-28.46A48.61 48.61 0 0 1 43.67 52.3a38.94 38.94 0 0 1 5-4.4 49.1 49.1 0 0 1 5.6-3.62 57.7 57.7 0 0 1 12.53-5.15c8.9-2.54 18.69-3.28 28.43-3.18h3.45l2.14.07 4.14.18 7.7.46c2.42.16 4.72.3 6.61.39l1.33.05h4.6l29.29.12 58.57.36 117.18.78 57.88.25h8.98l1.18-.08 1.37-.11c1.92-.16 4.23-.41 6.69-.66l4.37-.45c2.34-.22 4.69-.4 7-.54 9.35-.57 18.68-.2 27.14 2a53 53 0 0 1 22.47 11.69 43 43 0 0 1 5.49 6 44.9 44.9 0 0 1 4.22 6.85 53.16 53.16 0 0 1 4.83 15.51 85.38 85.38 0 0 1 .93 17.35ZM205.61 282.98a55.82 55.82 0 0 1-7.44-23.65c-.08-1.1-.14-2.2-.17-3.3s0-2.06.06-3.09.09-2 .17-3.05.24-2 .38-3 .32-2 .5-3 .44-1.93.68-2.88.51-1.91.79-2.85.61-1.79.93-2.68a63.38 63.38 0 0 1 9.89-17.5 79.72 79.72 0 0 1 11.11-11.41c3.25-2.76 6.93-4.59 11.55-2.63 3.33 1.38 13.42 3 15.75.62a16.36 16.36 0 0 1 9.26-4.43 39.56 39.56 0 0 1 10.92.05 48.44 48.44 0 0 1 27.55 13.15 52 52 0 0 1 10.18 13.63 54 54 0 0 1 5.28 15.61 57.84 57.84 0 0 1 .56 15.74 57.61 57.61 0 0 1-3.68 15.3 59.31 59.31 0 0 1-8 14.34 56.55 56.55 0 0 1-8.68 9.18c-1.07.91-2.13 1.72-3.21 2.55a59.42 59.42 0 0 1-21.35 10 58.18 58.18 0 0 1-23.94.81 56.93 56.93 0 0 1-12.3-3.65 58.06 58.06 0 0 1-10.88-6.2 57.75 57.75 0 0 1-15.91-17.66Z"/>
    </symbol>

    <symbol id="sign-6">
      <path d="M237.77 57.25c20.09-8.42 36.46-1.09 51 12.48 39.84 37.07 72.9 80.15 107.41 121.92 8.85 10.72 10.55 21.83-.39 32.43-11.5 11.13-24.21 10.39-35.19.52-13.16-11.84-24.77-25.41-37.06-38.21-6.14-6.39-10.54-18.23-21.7-13.55-9.88 4.13-9 15.8-9.1 24.88-.38 33.66-1.79 67.45.49 101 2.79 41.24-1.48 82.25-.4 123.37.53 19.92-4.71 36.28-28.57 36.28-22.88 0-26.41-16.61-27.1-34.83-2.84-74.74-5.51-149.49-8.93-224.2-.43-9.41 3.11-23.35-9.69-26.56-9.84-2.47-15.42 8.95-21.78 15.48-8.47 8.7-15.8 18.56-24.55 27-24.22 23.24-40.71 22.61-63.66-1.56l.38-11q64.26-72.76 128.54-145.4Z"/>
    </symbol>

    <symbol id="sign-7">
      <path d="m246.35 42.82 10.91-.29c11.43 12.37 23.26 24.6 29.57 40.55q68.06 172.1 135.76 344.34c4 10.18 5.09 20.46-4.74 28.06-10.14 7.84-21.11 5.95-31.71.53-10.95-5.6-14.95-16.23-18.79-26.87-17.77-49.24-35.29-98.58-53.35-147.72a6460.88 6460.88 0 0 0-41.8-110.06c-3.09-8-8.22-15.4-18-15.63-9.94-.24-14.46 7.3-18.15 15.17-2.78 5.93-6 11.72-8.06 17.9-16.33 48.74-32 97.71-48.73 146.31-13.09 38-27.09 75.64-41.36 113.18-7.25 19.08-23 25.4-41 18.43-17.64-6.83-8-22.09-6-34.17.91-5.47 3.29-10.71 5.23-16 29.1-78.92 56.63-158.48 88-236.5 18.65-46.5 30.53-96.48 62.22-137.23Z"/>
    </symbol>

    <symbol id="sign-8">
      <path d="M110.14 235.27c0-62.18-.26-107.1.07-152C110.5 43.89 135 30.71 170.07 52c40.14 24.4 73.15 58.11 109.77 87.13 33.71 26.72 67.74 53 101.21 80 25.65 20.71 27.65 31.61 7.3 56-59.19 70.86-131.64 127.35-205.11 182-35 26-59.19 11.76-64.59-31.7-8.56-68.92-9.36-138.12-8.51-190.16Zm133 103.5c32.42-16.57 53.55-45.71 78-71 9.14-9.44 7.53-21.88-2.12-30.16-37.59-32.24-75.63-64.25-119.26-88-16.81-9.16-32.76-3.51-33.67 18.58-2.7 65.52 1.61 130.84 8.59 196 1.58 14.76 8.93 21.06 22.52 12.22 15.47-10.06 33.1-17.86 42.47-35.37a12 12 0 0 0 3.49-2.27Z"/>
    </symbol>

    <symbol id="sign-9">
      <path d="M241 252a32 32 0 0 0 10-2 41 41 0 0 0 15 3c12 0 26-4 33-15 6-10 3-22-2-31-8-16-24-30-41-36a35 35 0 0 0-34 7c-10 8-14 22-12 35 2 17 10 38 31 39ZM493 312c-2-25-24-22-41-22l-155-5c-73-5-157 2-241 4-19 0-36 6-37 28s18 24 35 24l240 1c53 1 106 3 159-2 20-2 41-3 40-28Z"/>
    </symbol>

    <symbol id="sign-10">
      <path d="M429.2 174.7c-30.3 20.5-57.1 46.6-87.8 57.7-17.4 9-32.3 17-47 24.2q4.4 8.2 8.5 16.4c29.3 51.8 54 94.4 77.5 137.5 8.2 15 23.8 32.6-1.6 49.2-26 17.2-37.6-1-50-16.9-33.6-42.6-58.9-90.2-86.1-136.7C201.6 236 159.3 166.6 117.4 97c-9.3-15.4-16.5-32.2 6.5-45.7s38.2-2.2 48.9 14.5c29.2 46 60.8 90.6 88.5 134.3 14-10.9 30.1-18.4 45.5-27 30.5-17.1 60.2-35.3 90.2-53.2 6.6-4 14.6-5.8 28.3 17s11 33 3.9 37.8ZM126 255.4a49 49 0 0 0-36.6 16.8A41.6 41.6 0 0 0 77.1 298a30.4 30.4 0 0 0 8.4 22.5l1 1c2 7.7 6.5 15 12 21.3 8 9.2 20.3 14.2 32.4 10.6 9.8-2.9 17.6-11 22-20 7.3-15.5 11.7-35.3 6.6-52.1a36.5 36.5 0 0 0-33.5-25.8Z"/>
    </symbol>

    <symbol id="sign-11">
      <path d="M410.7 193.4a41.4 41.4 0 0 0-1.4-10.3l-1.3-4-.4-1-.4-.9-.7-1.6-.8-1.5-.8-1.4-1.5-2.5-1.5-2-.7-1-.7-1-2.6-3-1.2-1.3-1-1.1-2.1-2-3.2-2.9-.9-.8-3.2 3.3-1.8 1.9-1 .9 6-6.1-.1-.2-.4-.3-5-5-10-10-40.4-40.2-45-44.9a133.7 133.7 0 0 0-9.9-9.3 73.3 73.3 0 0 0-10.4-7.3 49.6 49.6 0 0 0-22.3-6.4 49 49 0 0 0-6 .2 49.8 49.8 0 0 0-6 1 45.2 45.2 0 0 0-10.5 4l-2.4 1.5-2.3 1.6a51.5 51.5 0 0 0-4.7 3.6 63.6 63.6 0 0 0-8.9 9.8l-23.2 32-16.4 22.5-48.3 65.9-.2.3-1.2 1.4-4 5a60.2 60.2 0 0 0-5.7 9 41.7 41.7 0 0 0-3.4 8.7l-.4 1.4-.1.7-.2.8-.6 3.5c-.2 1.1-.2 2-.2 3v2.8l.1 2.9.3 2.6a48.5 48.5 0 0 0 3.1 11.5l.8 1.8 1.7 3.4c.6 1.2 1.1 1.8 1.7 2.8a54.4 54.4 0 0 0 3.3 4.7l1.6 2 1.5 1.7 1.4 1.5 1.4 1.5 4.8 4.5 3.7 3.3 1.2 1.1.4.4 5.5 5.8 12.4 13.2q24.8 26.4 50 52.5l11.3 11.7-21.3 24.5-22.5 25.9-5 5.5-5.4 6c-3.6 4-7 8-10.2 12a142.5 142.5 0 0 0-15.5 23.4c-3.8 7.5-6 14.6-6.1 21.1a24 24 0 0 0 1.6 9.2 21.6 21.6 0 0 0 5.3 7.6 23.2 23.2 0 0 0 7.6 5 19.5 19.5 0 0 0 4 1 23 23 0 0 0 4.2.2 43 43 0 0 0 19-6.8 148.8 148.8 0 0 0 21.4-16q5.5-4.8 11-10.2a364 364 0 0 0 11.5-11.5l45.8-51q22.8 22.6 46 44.6l3.4 3.1 2 2 .9.8.9.8 1.8 1.6 1.7 1.5 3.5 3c4.5 3.9 9 7.5 13.4 11 8.7 7 17.3 13 25.2 17.5s15.3 7.1 21.8 7.2a24.2 24.2 0 0 0 4.8-.4 21.3 21.3 0 0 0 4.5-1.4 24.5 24.5 0 0 0 8.3-6.3 18.9 18.9 0 0 0 4.6-9.3 23.7 23.7 0 0 0-.4-10.2c-1.8-7-6.2-14.4-12-21.7a235.4 235.4 0 0 0-20.7-22L351.5 396c-3.8-3.6-6.1-6-9.8-10-15-16.5-30.2-32.9-45.5-49.5L392.6 229l1-.9 3.3-3.2a65.2 65.2 0 0 0 5-5.8l.7-1 .9-1.2.8-1.3 1-1.6.5-.8.2-.4.3-.5 1-2.1.5-1.1a45.4 45.4 0 0 0 1.4-4.3 40.7 40.7 0 0 0 1.5-11.4Zm-62.9-16.6Zm-202 32.7Zm-2.7-.2h.3-.3Zm110.3 76.4-2 2.4-2.4-2.5-49.6-53.4-13-14-6.5-7-1.7-1.7-.4-.5-.2-.2-.4-.4-.3-.3 40.5-54.8q9.4-12 18.9-24.5l9.4-12.5 1.2-1.5.6-.8.3-.4H248.1a.4.4 0 0 1 .4.2.5.5 0 0 1 0 .3l.2.2 1.3 1.2 2.5 2.5 10 10 20.2 19.8q20.3 20 41.2 40.2l7.5 7.2-33.7 39Zm93.5-76Zm24.9-15.6H371.4Z"/>
    </symbol>

    <symbol id="sign-12">
      <path d="M222.05 181.78c0-29.93-.38-59.87.13-89.79.33-19.95 8.32-34.92 30.64-36.37 23.44-1.52 28.05 15.11 28.63 33.09 1.78 55.19 3.4 110.39 3.82 165.6.17 22.73 6.41 40.75 22.37 58 29.2 31.52 55.68 65.56 83.29 98.56 10.43 12.47 17.94 27.13 3 39.32-12.93 10.57-28.69 7.19-40.45-5.3q-35.58-37.8-70.36-76.36c-16.8-18.55-32.69-18.81-49.59.08-21.2 23.7-43 46.92-64.74 70.11-7 7.49-14.41 15-25.4 16.49-11.92 1.66-22.58-.69-29.69-11.3-7.56-11.31-3.73-21.28 4.56-30.42 27-29.81 53-60.64 81.38-89.12 22.2-22.3 32.35-46.32 28.1-78.09-2.82-21.14-.53-43-.53-64.47Z"/>
    </symbol>

    <symbol id="sign-13">
      <path d="m351 318.55-3.44 16.14c-5.86 4.72-8 10.74-6.27 18.07L337 367.94c-4.29 2-5.15 5.83-5.31 10L287.71 430l-16.58 10.84c-12.59 3.55-25 7.73-37.78 10.54C138.52 472.3 61.4 425.48 41.7 330.9 25 250.61 35.76 168.65 34.61 87.43c-.25-18.05 11.48-27 29.46-26.27 18.59.71 26.58 12 26.71 29.39.44 58 .51 116.05.85 174.07.17 30.33 5 59.92 19.3 86.88 16 30.3 41.84 48.75 76.45 48.84 38.52.1 68.15-16.88 84.83-53.57 16.47-36.23 18.46-74.21 14.7-112.79-4.29-43.93-2.57-87.91-2.23-131.85.25-32.94 13.9-45.81 46.5-46.26 34.61-.48 69.24.09 103.86.16 38.95.07 42.49 3.47 44.72 43.21l-21.86 14c-29-5-57.58 2.12-86.37 3.12-11.68.41-21.81 6.79-18.18 22.11-1.62 18.63-5.63 37.29.5 55.85q-1 5.74-1.92 11.49c-3.39 26.4-5.64 52.78 1.3 79l-.82 22q-.69 5.89-1.41 11.74Z"/>
    </symbol>

    <symbol id="sign-14">
      <path d="m405 156 2 6 2 7v3l1 3 2 6 2 13v6l1 7a170 170 0 0 1 0 26 110 110 0 0 1-5 28l-3 7-4 7c-2 2-2 4-3 7l-5 5a114 114 0 0 1-18 19l-1 1h-1l-1 1h-1l-1 1a15 15 0 0 1 2 2v2h1v1l2 3 16 32 27 57 12 21a211 211 0 0 1 11 20c3 6 5 12 5 18s-3 12-8 18-11 8-17 8-13-4-20-9-13-12-19-19l-17-25a831 831 0 0 1-51-90l-1-3-2-3-5-8a66 66 0 0 0-6-7l-3-3c0-2-2-3-3-4l-25-29 37-22 18-11 4-3 2-1 1-1 1-1 1-1a37 37 0 0 0 7-8 28 28 0 0 0 2-3 36 36 0 0 0 1-5 58 58 0 0 0 1-12 132 132 0 0 0-1-16v-3l-1-2v-4l-1-2v-2l-1-4v-2l-1-2-1-4-3-7-1-3-1-3-2-5-3-5-1-3-1-2-3-5-3-5a56 56 0 0 0-4-4l-1-3-2-2-8-8-2-2-1-1-1-1-4-4a114 114 0 0 0-18-13l-2-1-2-1-5-3a95 95 0 0 0-10-4l-5-1-3-1h-2a108 108 0 0 0-11-2 110 110 0 0 0-43 3 93 93 0 0 0-36 20l-2 2-1 2-2 1-2 2a92 92 0 0 0-6 9 106 106 0 0 0-10 19l-2 5-2 5-1 3v1l-1 1-1 6a52 52 0 0 0-1 5v3a23 23 0 0 0-1 2v12a127 127 0 0 0 1 22l3 11v3a25 25 0 0 0 1 2l2 6 1 2 1 2 1 5 2 4 2 5 2 4 1 2v2a63 63 0 0 1 2 6l1 2a35 35 0 0 1 1 8v4a25 25 0 0 1 0 4 27 27 0 0 1-8 14c-5 5-11 7-17 7a29 29 0 0 1-4 0 26 26 0 0 1-5-2 50 50 0 0 1-10-5 87 87 0 0 1-10-8 115 115 0 0 1-6-8l-2-3-4-6-2-4-2-3-4-8-2-7-2-4-1-5-2-8-2-9-1-4-1-5-1-8v-9l-1-9v-9l1-9v-5l1-4 3-18 1-4 2-5 1-4 1-4a179 179 0 0 1 7-17 168 168 0 0 1 19-31l6-8 3-3 3-4 4-3 3-3 4-3 4-3a165 165 0 0 1 15-11 166 166 0 0 1 33-15l9-3 4-1 3-1h2a176 176 0 0 1 88 3 167 167 0 0 1 17 6l2 1 2 1 4 2 4 2 2 1 2 1 8 4 2 1 1 1 4 3 4 2 1 1 2 2 7 5 1 1 2 2 3 3 3 3 2 1 1 1 6 6 2 2 1 2 3 3 2 3 3 3 5 7 4 7c1 3 3 4 5 6l3 7 2 4 2 3 3 8c2 2 2 5 3 7l6 15Z"/>
    </symbol>

    <symbol id="sign-15">
     <path d="M317.08 302c0-41.12 2.46-82.41-.58-123.3-4.47-60.06-50.76-86.37-98.66-59.06-17.64 10.06-25 27-31.69 44.65-4.72 12.45-12.49 23-27.12 16s-9.18-17.6-1.23-27.45c2-2.47 2.9-6.78 2.55-10-4.32-40.05 11.21-64.46 48.74-76 70.4-21.61 133.39 19 143.47 91.52 7.76 55.86 5.15 112 5.19 168 0 32.56 9.05 64.93 1.18 97.71-3.17 13.2-4.61 27.51-22.05 27.07-17.94-.45-19.31-15.12-19.44-28.51-.37-40.18-.13-80.37-.13-120.55Z"/>
    </symbol>

    <symbol id="sign-16">
      <path d="M182.1 229.86c0 43.91.15 87.82 0 131.73-.14 30.88 6.27 39 36.41 40.25 42.92 1.72 85.89 2.32 128.85 3.12 12.19.23 24.34-.16 35.71 5.26 12.87 6.14 16.36 17.57 15.55 30.31s-10.46 16.83-21.38 18.22c-74.6 9.5-149.18 7.16-223.64-1.4-19.23-2.21-29.71-14.34-31-33.92-7.43-113.78-11.74-227.65-7.68-341.68.72-20.16 10.22-34.2 32.38-34.63 22.77-.45 31.84 14.25 32.15 34.19.75 49.51.25 99 .25 148.55Z"/>
    </symbol>

    <symbol id="sign-17">
      <path d="m155.4 257.39.13 16.65c-1.64 32.57-3.87 65.12-4.7 97.7-.45 17.62 7.22 32.67 26.55 33.49 52.13 2.23 104.42 5.79 156.34-3.77 23.1-4.25 33.35-17.77 32.42-41.24-1.47-37.3-1.76-74.64-3.19-111.93-1.7-44.76-4.17-89.5-6.12-134.25-.91-20.92 8.71-34.6 29.91-36.66 20.34-2 31 9.31 33.38 29.32.65 5.42 3.14 10.62 4.78 15.93l.89 16.28c-.56 12.06-1.66 24.13-1.59 36.19.39 74.58 1.85 149.16 1.3 223.72-.34 46.31-10.69 55.37-56.67 55.82-75.46.75-150.91 1.19-226.37 1.75l-10.82-.8c-30.37-9.37-38.74-31.68-41.55-61.44C85.69 347.52 87 301 86.51 254.4c-.56-55-.38-110.06.89-165 .65-27.9 24.73-42 45.43-28.7 12.45 8 10.58 20.68 11.89 32.49 6.07 54.54 1.28 109.81 10.68 164.2Z"/>
    </symbol>

    <symbol id="sign-18">
      <path d="M231.36 224.22c0-46.41-.32-84.69.17-123 .18-13.38-3.09-31.23 17.09-32.61 20.73-1.43 21.5 15.35 23.52 30.9 5.44 41.81 4.48 83.78 5 125.76.83 63.28 2.58 126.56 4.05 189.84.33 14-1 28.13-18.79 28.29s-22.9-13.34-23.59-28.8c-2.92-66.13-10.23-132.12-7.45-190.38Z"/>
    </symbol>

    <symbol id="sign-19">
      <path d="M435 416 324 275l-23-30c42-48 84-102 128-153 15-18 23-37 6-53s-33-2-47 14L260 196 143 64c-15-17-33-28-51-14s-7 33 6 48l120 145-20 22c-42 46-85 91-123 142-13 19-30 38-8 56l3 2c5 7 14 8 23 8l193 5c42 1 85 5 127 0 6-1 12-1 17-3 5 0 11-2 17-8 20-18 0-36-12-51Zm-293 0 100-108 16-16 17 20c29 36 58 74 90 108l-76-3c-45-6-96-3-147-1Z"/>
    </symbol>

    <symbol id="sign-20">
      <path d="m77.78 247.2 1.62-22.11c11.11-20.59 11.47-44.48 23.13-65.59C152 69.81 274.8 42.92 356.94 105.27c7.38 5.61 15.6 10.1 23.43 15.11a9.55 9.55 0 0 0 2.13 3.46c11.61 26.29 30.24 49.23 35.32 78.69 6 34.56 7.51 68.74-1.34 103-1.77 6.86-5.8 15.13 2.23 20.56 6.35 4.3 12.52-.48 18.39-3.13 7.67-3.47 15.07-7.65 23-10.45 11.9-4.23 24.86-6.92 32.12 6.91 6.66 12.68 5.91 27.46-6.56 35.47-47.22 30.3-95.88 58.26-149.14 76.83-14.47 5-28.65.88-37.11-12.5-10.07-15.93 3.78-25 13.73-32 65.58-45.75 63.63-191.11 12.58-233.83-50.85-42.57-139.33-28.31-168.41 31.66-27.31 56.22-22.26 146.21 33.74 193.89a169.89 169.89 0 0 1 14.11 13.65c9.22 9.92 11.75 21.65 5.46 33.61-6.48 12.34-19 17.32-31.18 12.77C127.82 419.73 77 398.47 31.28 367c-13.46-9.26-21.1-23.73-11-38.71 9.29-13.75 25-9.13 38.59-5.46 4.45 1.2 8.62 3.61 12.76 5.77 18.71 9.81 21.92.36 18.33-15.4-4.96-21.82-10.96-43.44-12.18-66Z"/>
    </symbol>

    <symbol id="sign-21">
      <path d="m292.7 429.69-2 10.95c-37.58 16.08-56.82 7.7-57.62-29.9-2.2-103.49-7-207-1.82-310.55.84-16.7 6.71-29.51 25.65-30.49 18.64-1 27.51 10.64 29.19 27.25a809.1 809.1 0 0 1 3.79 67c1.57 88.55-2.18 177.19 2.81 265.74ZM157.1 103.53c-1.44-18-4.91-35.13-27.28-35.32-21.4-.17-27.46 16.46-30.35 34-1 6.35-.28 13 0 19.58 3.12 64.46 8.25 128.82 7.53 193.46-.41 36.48.55 73 1 109.47.29 22.72 13.73 29.88 33.56 25.42 18-4 21.06-19.24 21.07-35.18V280.2c.15-58.94-.86-117.85-5.53-176.67Zm255 196.25c0-28.95 1.82-58-.43-86.83-3.35-42.77-.56-86-9-128.38C399.82 70 392 60.2 376.48 60.59S353.6 72.11 351.09 86c-1.65 9.11-1.75 18.59-1.69 27.9.36 63.52.6 127 1.59 190.55.61 39.2 2.32 78.4 3.85 117.58.53 13.47 6.21 23.36 21.06 25.31 14.59 1.92 25.61-3 32.29-16.51 4.73-9.57 4.77-19.9 4.81-30.16.11-33.63 0-67.26 0-100.89Z"/>
    </symbol>

    <symbol id="sign-22">
      <path d="m210 457.88-45.3-2.28-10.28-1.22c-11.79-14.45-29.21-10-44.22-12.2-19.23-2.83-24.79-13.93-24.45-31 .36-18.49 10-27.73 28.14-27.13 19.59.65 39.27 1.25 58.69 3.66 49.66 6.15 99 3.45 147.93-5.12 13.32-2.32 30-6.76 30.85-23.71.74-14.66-14.55-17.26-25.62-21.95-20.49-8.69-42.26-6.12-63.56-8.13-49.07-4.64-99.09-5.44-144-30.17C96 286.34 83.34 269.09 85.35 241.9c2-26.22 17.32-39.73 39.24-49.45 14.7-6.51 30.13-9 45.68-12.33 46.76-10.12 95.26-4.48 141.58-17 12.12-3.27 25-7.94 23.5-23.23s-14.17-21.68-27.79-23.32c-20.34-2.45-40.66-4.64-61.44-3.51-43.85 2.39-87.78 3.29-131.7 4.06-13.58.24-26.42-2.72-28.64-20.12-2.14-17.11 5.35-26.16 22-29.67 8-1.7 15.51-6 23.24-9.17l11.11-1.24c27.13 2.9 54.07-.72 81.11-1.92 46.7-2.07 93.46-1.79 137.62 16.93 32.29 13.68 47.66 38.07 45.35 69.88-2.22 30.63-23.12 53.76-54.06 64.33-33.56 11.45-68 11.41-102.48 11.32a223.22 223.22 0 0 0-71.63 11.5c-8.49 2.82-15.46 7.92-15.65 17.59-.16 8.84 7 12.53 14.17 15.37 6.08 2.4 12.11 6.44 18.32 6.76 46.63 2.38 92.17 15.89 139.23 13.54l10.7 1.78c4.77 2.8 9.23 6.49 14.36 8.26 64.27 22.18 75.75 41.7 63.17 108.23l-.13.2c-8.44 2.59-14.32 7.91-17.37 16.25L390.35 425l-86.88 25.31-9.12 2.51-11.35 1.43-10.87 1.11c-20.78-1.36-41.66-4.25-62.13 2.52Z"/>
    </symbol>

    <symbol id="sign-23">
      <path d="M240 61.55c29.53 0 53.84-.58 78.12.15 33.71 1 41.14 12.86 27.06 44.7-15.48 35-31.32 69.94-49.11 103.8-11.4 21.7-10.68 38.5 4.76 58.57 33 42.92 63.51 87.81 94.93 132 7.7 10.83 15.69 22.55 8.49 36.07-7 13.11-21.15 9.76-32.86 10.05q-91.05 2.29-182.13 3.75a269.3 269.3 0 0 1-33.61-1.29c-35.65-3.87-44.47-17.64-28.65-50.52 18.56-38.71 38.31-77.1 61-113.48 17.22-27.62 18.32-48.2-3.67-74.89-26.53-32.21-53.53-65-71.91-103.25-12.8-26.63-10.69-30.29 18.47-38.31 37.61-10.36 76.24-4.73 109.11-7.35Zm15 337.86c12.14 0 24.3.27 36.44-.1 8.32-.25 17.54.06 21.43-9.66 3.38-8.45-2.84-14.12-7.37-19.87-12.13-15.41-25.54-29.92-36.5-46.1-12.17-18-22.43-17.35-33.61-.08a298.38 298.38 0 0 0-11.49 19.23c-9.08 16.69-31.7 33.23-21.68 50.84 8.93 15.81 34.56 4.78 52.78 5.74ZM247.36 102c-14.51 9.35-43.15-7.35-50.82 21.71-3.5 13.22 35.78 59 46.57 58.65 11.31-.4 39.72-45.11 38.39-61.14-1.7-20.34-17.59-17.91-34.14-19.22Z"/>
    </symbol>

    <symbol id="sign-24">
      <path d="M207 242a48 48 0 0 0-1 20 50 50 0 0 0 9 20 51 51 0 0 0 75 8 52 52 0 0 0 12-16 20 20 0 0 0 2-5 16 16 0 0 0 0-4 13 13 0 0 0-4-8c-2-2-5-4-10-5l-16-1h-14a2 2 0 0 1 0-1 1 1 0 0 1 0 1h20l17-2c4-1 6-4 7-7a13 13 0 0 0 0-8 26 26 0 0 0-2-4l-1-2-1-1a46 46 0 0 0-15-18 48 48 0 0 0-10-5 49 49 0 0 0-13-3 51 51 0 0 0-37 12 52 52 0 0 0-5 5 53 53 0 0 0-5 6 45 45 0 0 0-8 18Zm5-127a179 179 0 0 0-20 6l-4 2-3 1-2 1-5 3-4 2-2 1-2 1-5 3-4 2-2 2-2 1-4 3-4 3-2 1-1 2-4 3a198 198 0 0 0-26 27 207 207 0 0 0-20 31l-3 6-1 3-1 3-2 3-1 3a43 43 0 0 1-3 6 23 23 0 0 1-5 5 21 21 0 0 1-6 3c-4 2-10 2-17 1-8-1-13-4-17-8a21 21 0 0 1-4-6 26 26 0 0 1-2-7 40 40 0 0 1-1-5 42 42 0 0 1 1-4v-7l1-2 2-9 4-10 4-12 3-6 3-6 3-6 4-6 3-6 2-3 2-3 4-5 4-5 2-3 2-3 5-5 4-5 3-2 2-2 5-5 5-5 3-2 2-2 6-4 5-4 3-2 3-2 6-4 5-4 3-1 3-2 6-3 6-3 4-2 3-1 6-3 6-2 4-1 3-1 6-2 7-2 3-1 3-1a237 237 0 0 1 82-6 234 234 0 0 1 79 22 242 242 0 0 1 66 48 251 251 0 0 1 46 65l4 8 3 9a64 64 0 0 1 1 8 34 34 0 0 1 1 7 21 21 0 0 1-6 12c-3 4-7 7-14 8a40 40 0 0 1-17 1 30 30 0 0 1-7-2 32 32 0 0 1-5-3c-8-5-13-13-18-21a176 176 0 0 0-63-67 178 178 0 0 0-27-13 185 185 0 0 0-55-12 222 222 0 0 0-55 3Zm-6 349a230 230 0 0 1-55-20l-3-2-3-2-6-3-11-7-11-8-5-4-5-5-5-4-5-4-9-9a244 244 0 0 1-16-19 257 257 0 0 1-27-46l-2-4-3-8a59 59 0 0 1-5-17c0-5 1-10 3-14s8-8 15-10c7-3 13-3 18-2a23 23 0 0 1 7 2 27 27 0 0 1 6 4c6 6 11 16 17 24 15 22 32 42 53 58a186 186 0 0 0 32 21l9 4 5 2 4 1 5 2 4 1 5 2 5 1a158 158 0 0 0 29 3h14l4-1h7l4-1a160 160 0 0 0 55-20 178 178 0 0 0 45-38 194 194 0 0 0 32-51c4-8 7-16 13-22a23 23 0 0 1 10-6c5-1 10-1 16 1s12 4 16 7a25 25 0 0 1 7 13 35 35 0 0 1 1 8 58 58 0 0 1 0 8 78 78 0 0 1-2 9l-2 5-1 4a272 272 0 0 1-44 72 240 240 0 0 1-64 54 213 213 0 0 1-79 27h-7l-3 1h-30a192 192 0 0 1-38-7Z"/>
    </symbol>

    <symbol id="sign-25">
      <path d="M318.72 322.4a7.89 7.89 0 0 0-3.41 2.88l-10.56 1.53c-24.59 5.27-18.3 24.8-17.63 40.51.71 16.95 14 20.19 28 20.79 16.78.71 33.64.6 50.33 2.2 14.08 1.34 21.65 10 21.15 24.67-.52 14.93-8.61 21.94-23.24 22-73.82.13-147.64.41-221.45.24-13.34 0-24.37-5.56-25.24-20.71-.92-16 9.26-24.31 23.81-25.83a473.78 473.78 0 0 1 53.15-2.34c18.68.15 33.28-3.45 36.65-25.39 3.22-20.95-4.2-33.15-24.94-40-55.92-18.5-80-62.41-85.12-117.12-5-53.51 16.47-94.55 67.06-117.88 4-1.83 6.85-6 10.24-9.11l10.29-2.2c26.84.24 53.37-4.67 80.63.61 49.36 9.56 92.42 51.4 104 105 10.8 50.23-8.64 94.44-54.52 124.58-6.92 4.5-15.42 7.17-19.2 15.57ZM255.09 281c49.47.65 88.46-30.55 88.22-70.6-.28-48-36.44-86.89-80.91-87-50.67-.09-90.89 36.35-91.47 82.84-.52 42.53 35.07 74.12 84.16 74.76Z"/>
    </symbol>

    <symbol id="sign-26">
      <path d="M214.2 266h-13.6l-15.9-.2c-10.4-.2-20.7-.4-30.4-1a83.4 83.4 0 0 1-13.4-2 41.3 41.3 0 0 1-10.2-3.8 35.6 35.6 0 0 1-12-10.3l-1.7-3.2-.5-1v-.1c.2-.1-1.2.6-.7.2v-.1l-.1-.3-.2-.4a30 30 0 0 1-.6-1.7 30.2 30.2 0 0 1-1.3-6.8 28.9 28.9 0 0 1 .1-3.9l.2-4.2.1-2.2.3-2.3c0-.8.4-1.6.6-2.4l.7-2.5A57 57 0 0 1 121 207c2.2-3.7 4.7-7.5 7.3-11.3 5.1-7.6 10.5-15 15.8-22.4l8-11 4-5.5 2.1-3 8.7-11.5 17.3-22.7c11.4-15 22.9-29.6 34.5-44.2 8.2-10.2 16.8-22.8 26.7-30.9 5-4 10.4-6.8 16.1-7.6a22.8 22.8 0 0 1 9 .6 17.7 17.7 0 0 1 8.9 5.2c1.2 1.5 2.2 3 3.2 4.5l1.5 2 1.4 1.8a23.5 23.5 0 0 1 3.9 7.3 27 27 0 0 1-.8 16c-3.6 11.5-12.4 24.2-20.4 36.8q-16.2 25.5-33.3 50.3l-17.1 24.8-4.4 6.1-2.1 3.1-.3.4-.1.1a.8.8 0 0 0-.3.1 3.3 3.3 0 0 0-.4.3.6.6 0 0 0-.1.2c-.1.2 0 .3.1.5a2.3 2.3 0 0 0 .4.2h7.3l45.8-.2 22.9-.3 28.7-.5 22.3-.4 11-.1h11a46 46 0 0 1 17.3 4.2 41.9 41.9 0 0 1 10.8 7.1 35.9 35.9 0 0 1 3.8 4 32.2 32.2 0 0 1 2.2 3 30.8 30.8 0 0 1 1.9 3.7 31.7 31.7 0 0 1 1.9 5.6 39.7 39.7 0 0 1 .8 5l.3 3.2v3.5a28.9 28.9 0 0 1-.3 3.8 36.4 36.4 0 0 1-.7 4 47 47 0 0 1-3 9q-1 2.4-2.3 4.9l-1.5 2.4a9 9 0 0 1-1.9 2.4L286 439.2c-13.6 23.4-29.4 45.7-52.2 31.9s-15.8-40.3-1.3-66.3c14.7-26.5 29.1-53 43.4-79.5l21.2-39.5 5.3-9.8 2.6-5 1.3-2.4.3-.6.1-.1v-.1a3 3 0 0 0 0-1 .6.6 0 0 0-.5-.5 1 1 0 0 0-.3 0 2.3 2.3 0 0 0-1 .4v.1l-10.3.2-11.7.2h-23.2c-15.4-.2-30.5-.5-45.5-1.2Z"/>
    </symbol>

    <symbol id="sign-27">
      <path d="M445.85 249c5.24 99.55-82 211.12-187.87 207.83-104.93-3.26-191.44-92.24-192-204.87C65.34 143 154.19 55.13 265 55.13c99.55-.01 180.15 86.4 180.85 193.87Zm-316.65.87c-.19 73.8 57.93 138 126.28 138.6 78.58.7 126.61-65.55 128-139.39 1.32-73.45-58.08-132.38-125.23-132.22-74.87.14-128.86 55.5-129.05 132.98Z"/>
    </symbol>

    <symbol id="sign-28">
      <path d="M228 91c13.77-9.36 27.1-22.35 45.51-13.09 19.42 9.77 17.55 28.77 17.66 46.65.4 68.19.73 136.39 1.61 204.58.51 40 4.81 43.8 46 45 5.61.16 11.22.16 16.82.4 18.59.8 37.68 3 38.72 26.82 1.08 24.6-16.33 30.85-37.33 31.41-40.15 1.09-80.28 2.63-120.43 3.58-27.08.64-54.19 1.29-81.26.64-25.33-.61-39.3-14.2-37.38-35.34 2.13-23.45 20.12-23.58 37.42-23.8 81.42-1.06 73.1 7.85 72.94-74.4-.12-67.21-1-134.43-1.51-201.64q.57-5.39 1.23-10.81Z"/>
    </symbol>

    <symbol id="sign-29">
      <path d="M407.19 279.8a10.69 10.69 0 0 0 3.63 2.19c11.17 41.39-2.65 76.52-31.37 104.79C324.86 440.51 258 449.33 187 430c-26.23-7.14-48.1-24.36-63.05-48.65-32.37-52.58-24.46-132.92 18.71-177.21 15-15.35 32.21-28.43 47.8-43.19 6.54-6.2 16.92-12.78 13.69-22.78-3.65-11.3-16-6.8-24.72-7.13-17.75-.66-35.57.28-53.32-.51-13.5-.59-28-3.33-28.75-20.33-.81-18.77 12.59-26.13 29.3-26.92q120.47-5.69 241-10.55c15.24-.6 32.11.66 34.48 20.47 2.07 17.32-11.87 22.18-25.5 28.27C323.92 145 267 159.51 220 195.35c-39.25 30-65.68 65.92-59.8 118.66 3.84 34.38 22.5 59.73 55.25 66.09 34.44 6.69 69 5.46 100.24-14.61 16.36-10.52 27.47-24.09 32.2-43.85 10.65-44.4 13.38-45.72 59.3-41.84Z"/>
    </symbol>

    <symbol id="sign-30">
      <path d="M439.6 255.06c0 50.51.08 101-.08 151.51 0 8.38.05 17-1.85 25.06-3.81 16.06-13.18 26.82-31.33 26.19-18.5-.64-26.57-12.13-28-28.92-2.29-26.16-5.15-51.93-15.88-76.47-19.73-45.13-64.62-72.82-111.94-67.85-56.48 5.93-100.25 43.6-108.66 93.93a275.57 275.57 0 0 0-4 36.21c-.75 22.17-7.9 40.66-32.84 40.14s-30.8-20.18-32.21-41.55C67.2 328 118.16 255.63 200.55 231.15c49.21-14.63 96-10 140.9 14.94 27 15 30.61 13 30.79-19 .24-44-.22-87.9-.17-131.85 0-21.2 3.93-41.35 30.67-41.08 25.83.25 31.49 19.6 31.59 41.05.24 53.28.08 106.57.08 159.85Z"/>
    </symbol>

    <symbol id="sign-31">
      <path d="M385 254a70 70 0 0 0-13-34l-3-3-2-4-3-2-3-3a103 103 0 0 0-11-9 131 131 0 0 0-22-13 163 163 0 0 0-23-8 180 180 0 0 0-23-5 169 169 0 0 0-28-1 129 129 0 0 0-29 4 96 96 0 0 0-16 6l-5 2a134 134 0 0 1 4-16 127 127 0 0 1 8-20l2-5 1-1v-1h1l1-2v-1l1-1 1-1 1-2 2-2a99 99 0 0 1 15-13 171 171 0 0 1 20-12l24-13a158 158 0 0 0 21-13c12-9 19-20 16-33s-14-18-30-17a110 110 0 0 0-26 5 197 197 0 0 0-30 12 254 254 0 0 0-27 15 169 169 0 0 0-26 22l-4 3-3 3-3 4-3 3-1 2-1 2-3 4-1 1v1l-1 2-2 4a195 195 0 0 0-14 30 207 207 0 0 0-12 64 172 172 0 0 0 3 33 125 125 0 0 0 4 19l1 1a201 201 0 0 0-14 46 165 165 0 0 0 0 55v4l1 3 1 4 1 3 1 4 1 3 1 2v2l2 3a197 197 0 0 0 10 23 150 150 0 0 0 16 24 125 125 0 0 0 21 20 115 115 0 0 0 27 15 122 122 0 0 0 28 8 145 145 0 0 0 40 0 110 110 0 0 0 31-10l6-3a47 47 0 0 0 5-3 39 39 0 0 0 5-4 26 26 0 0 0 3-4c3-6 4-12 0-20a23 23 0 0 0-13-13 37 37 0 0 0-10-2 53 53 0 0 0-6-1h-5l-24 1c-8 0-16 0-22-2a60 60 0 0 1-13-4 55 55 0 0 1-11-7c-7-5-12-12-17-21a122 122 0 0 1-7-15l-2-4-1-4-1-3-1-4a93 93 0 0 1-1-30 121 121 0 0 1 2-13 258 258 0 0 0 39 16 206 206 0 0 0 44 9l12 1a123 123 0 0 0 13 0 104 104 0 0 0 28-7 84 84 0 0 0 27-17 82 82 0 0 0 11-12 89 89 0 0 0 8-14l1-4 2-4 1-5 1-2v-2a68 68 0 0 0 1-19Zm-70 7-1 1v1l-1 1a10 10 0 0 1-3 3 24 24 0 0 1-8 2 57 57 0 0 1-12 1c-9 0-19-2-30-5a194 194 0 0 1-32-12l3-4 3-2 1-2h1a14 14 0 0 1 3-2 44 44 0 0 1 12-2 88 88 0 0 1 17 0 113 113 0 0 1 27 7 74 74 0 0 1 11 5 38 38 0 0 1 8 6v1h1v1Z"/>
    </symbol>

    <symbol id="sign-32">
      <path d="M442.32 110.46c-9.56 60.93-48.09 112.43-113.13 141.27-26.64 11.81-37.1 25.47-35.24 54.37 2.45 38.23.65 76.73.48 115.11-.1 22.53-5.52 42.74-32.79 43.11-26.39.35-27.35-21.17-28.56-40.07-2.7-42-5.77-84.08-6.47-126.16-.34-20.71-6.91-31.78-27.18-39.12-61.38-22.24-105-63.22-124.82-127-5.69-18.33-5.94-37.06-3.43-55.64C74.06 55 87.76 46.69 108.9 47.77c21.83 1.13 22.12 16 22 31.71-.31 50.57 18.48 91.13 62.83 117.64 21.94 13.11 30.63 8.34 31.4-16.85.88-29 .78-58 1.32-87.05.36-19.45 8.75-32.74 29.63-33.57 21.54-.85 29.52 12.39 30.46 32 1.39 29 3.32 57.93 4.43 86.92.88 23 10.56 25.32 27.93 13.31 35.14-24.31 54.35-58.81 62-99.76 3.78-19.83 7.1-38.12 32.84-36.37 18.82 1.25 29.11 17.88 28.58 54.71Z"/>
    </symbol>

     <symbol id="sign-33">
      <path d="m308.35 233-8 .48q-6.35-3.92-11.59 1.52l-92.57-2c-5-6.74-11.67-9.2-19.84-8.06-9.54-3.4-17.08-11.61-28-11.64l-9-5.39c-4.56-12.76-17-18.7-24.79-28.71-.74-6.32-4.43-10.28-10.12-12.65a9.51 9.51 0 0 0-1.72-4c0-6.49-3.13-11-8.84-13.82l-3.2-8.6c1.82-9.68.58-18.53-6.93-25.69L83.09 101c4.38-16.22 7.4-33 20.39-45.4l22.74-.87a7 7 0 0 0 2.85 3c4.16 29.79 1.41 62 29 83.64l17.44 16.51c2.83 9.15 10.84 12.87 18.51 15.68 45.84 16.83 92 16.72 135-6.47 27-14.55 46.72-37.88 44.13-72-2.15-29.36 11.61-41.25 39.53-39.83l6.32 5.31c12.88 54.43-2.89 98.69-46.67 133.43-8.63 6.85-16 15.34-23.88 23.07a6 6 0 0 0-3.45 1.63c-13.91.3-26.85 3.3-36.65 14.3ZM116.3 338.3c-25 27.11-34.71 59.46-26 96 3.35 14.19 12.42 23.33 27.78 22.93 16.46-.42 21.58-11.76 23.6-26.17 1.81-12.9 3.13-26.27 7.65-38.31 20.56-54.7 106.35-79.78 166.94-50.2 36.16 17.71 53.73 47.28 59.73 85.84 2.51 16.19 11 29.08 29.75 26.73 16.81-2.1 22.16-15.09 23-30.57 1.22-22.9-2.81-44.1-14.23-64.67-33.41-60.2-86.25-82.24-155.76-80.55-53.56-1.46-103.26 16.49-142.46 58.97Z"/>
    </symbol>

    <symbol id="sign-34">
      <path d="M254 262.33c59.94.29 115 54.83 114.93 113.94 0 51.26-45.61 98.86-94.88 99.06-59.51.24-117.34-56.18-116.42-113.58.84-55.6 43.57-99.67 96.37-99.42Zm3.73 53.08c-25.77.18-47 23.86-46.79 52.22.18 27.32 25.77 51.15 55.35 51.56 29.21.41 49.33-17.73 49.69-44.8.37-31.39-27.04-59.19-58.3-58.98ZM113.34 69.93c37.7 50 74.13 101.44 123.25 141.42 13.48 11 30.39 13.61 43.25-.61 40.16-44.4 79.8-89.3 118.47-135 13.52-16 3.59-35.81-17.37-38.74-13.51-1.89-23.31 4.62-32 14-18.37 20-37.13 39.57-55.24 59.76-34.08 38-47.08 38.33-80.86 1-18.23-20.12-36.52-40.19-54.34-60.66-7.83-9-16.44-15.2-27.06-14.34-21.66.89-30.9 16.24-18.1 33.17Z"/>
    </symbol>

    <symbol id="sign-35">
      <path d="m456 224-166-1v-5c0-52 3-104-3-157-2-19-3-40-33-39-29 1-25 23-26 40l-5 154v6h-5c-52 0-104-3-157 3-19 2-40 3-39 33 1 29 23 25 40 26l154 5h5c1 53 5 109 6 165 0 19 7 36 33 36s28-17 29-35V292c53-1 109-5 165-6 19 0 36-7 36-33s-17-28-34-28Z"/>
    </symbol>

    <symbol id="sign-36">
      <path d="M206.67 122.81c-14.52.92-34.09 2.33-53.67 3.36-15.62.82-28.63-3.46-30.14-21.54-1.59-19 10.19-27.57 27.34-28.14 71.78-2.38 143.56-4.64 215.36-5.83 24.24-.4 26.88 15.86 21.21 35-8.39 28.29-27.74 50.68-42 75.8-43.72 77.2-88.5 153.81-133 230.59a134 134 0 0 1-11 16.22c-9 11.38-20.66 17.43-34.25 9.45s-18.19-20.28-11.46-36c15.93-37.16 40.6-69.21 60.34-104.14 25.27-44.71 51.6-88.83 76.46-133.77 16.21-29.3 9-40.69-24.09-41-18.62-.13-37.31 0-61.1 0Z"/>
    </symbol>
  </defs>
</svg>
