<svg xmlns="http://www.w3.org/2000/svg" viewBox="0 0 512 512">
  <defs>
    <symbol id="item-2369">
      <title>argentinian sombrero</title>
      <path fill="#756e78" d="m375.44 110.92 9.23 51.42c-7.82 27.16-62.44 48.19-128.67 48.19s-120.85-21-128.67-48.19l9.23-51.42C59.64 128.81 7.5 163.45 7.5 203.24 7.5 261.38 118.76 308.5 256 308.5s248.5-47.12 248.5-105.26c0-39.79-52.14-74.43-129.06-92.32Z"/>
      <ellipse cx="256" cy="84.99" fill="#665e66" rx="114.78" ry="48.62"/>
      <path fill="#665e66" d="M7.5 228.24C7.5 286.38 118.76 333.5 256 333.5s248.5-47.12 248.5-105.26v-25c0 58.14-111.26 105.26-248.5 105.26S7.5 261.38 7.5 203.24Z"/>
      <path fill="#756e78" d="M256 65.65c-50.17 0-90.83 20-90.83 44.74a22 22 0 0 0 .47 4.58c21 11.35 53.67 18.64 90.36 18.64s69.35-7.29 90.37-18.64a22.67 22.67 0 0 0 .47-4.58c0-24.71-40.67-44.74-90.84-44.74Z"/>
      <path fill="#8b818e" d="M256 210.53c66.23 0 120.85-21 128.67-48.19L370.78 85c0 26.85-51.39 48.62-114.78 48.62S141.22 111.84 141.22 85l-13.89 77.35c7.82 27.16 62.45 48.19 128.67 48.19Z"/>
      <path fill="#eab14d" d="M127.33 162.34 121.48 195c0 11.78 8.43 22.72 22.88 31.8l7-38.76c-12.78-7.4-21.28-16.17-24.03-25.7Z"/>
      <path fill="#ecbe6b" d="m151.32 188-7 38.76a131.07 131.07 0 0 0 27.6 12.7l4.65-40.46a134.28 134.28 0 0 1-25.25-11ZM360.69 188l6.95 38.76a131.07 131.07 0 0 1-27.6 12.7L335.43 199a134.68 134.68 0 0 0 25.26-11Z"/>
      <path fill="#eab14d" d="M384.67 162.34c-2.74 9.53-11.24 18.3-24 25.67l6.95 38.76-.3.2c14.63-9.12 23.18-20.14 23.18-32ZM340 239.47 335.43 199c-21.94 7.22-49.5 11.51-79.43 11.51s-57.49-4.29-79.43-11.51L172 239.47c23 7.81 52.2 12.53 84 12.53 32 0 61.44-4.74 84.54-12.65l-.5.17Z"/>
      <path d="M473.12 142.72c-22.5-15.76-53.94-28.84-91.17-38l-3.68-20.49c-.39-15.87-13.91-30.23-38.18-40.53-22.58-9.56-52.45-14.83-84.09-14.83-27.81 0-54.91 4.19-76.31 11.81a7.5 7.5 0 1 0 5 14.13c19.83-7.06 45.14-10.94 71.28-10.94 63.16 0 107.2 21.63 107.28 41.06 0 6.73-5 12.48-10.22 16.73-3.42-11.49-13.6-21.79-29.51-29.63-18.17-9-42.16-13.88-67.55-13.88S206.62 63.08 188.46 72c-15.92 7.84-26.1 18.14-29.52 29.63-5.25-4.25-10.18-10-10.22-16.73 0-4.83 2.66-9.73 7.86-14.57a7.5 7.5 0 0 0-10.22-11c-8.05 7.49-12.41 16.08-12.63 24.88l-3.68 20.5c-37.23 9.11-68.67 22.2-91.17 38C13.45 160.55 0 181.47 0 203.24v25c0 31.32 27.47 60.21 77.36 81.34q2.3 1 4.65 1.92a252.13 252.13 0 0 0 13.38 47.74 7.5 7.5 0 1 0 14-5.47 236.18 236.18 0 0 1-10.9-36.17c91.92 31.21 223 31.24 315 0-18.95 88-83.58 150.53-157.51 150.53-51.72 0-100.92-31.14-131.6-83.31a7.5 7.5 0 1 0-12.93 7.6c16.1 27.38 37.47 50.13 61.78 65.79 25.32 16.3 53.94 24.92 82.75 24.92 41.74 0 82.31-18 114.23-50.78 30.27-31.06 51.4-73.84 59.76-120.85q2.36-.94 4.65-1.92c49.89-21.13 77.36-50 77.36-81.34v-25c0-21.76-13.45-42.69-38.88-60.51Zm-100.23 70.82L369 191.72a73.48 73.48 0 0 0 11.67-9.35l2.33 13.21c-.23 6.94-4.65 13.03-10.11 17.96Zm-26.48 15.56-2.85-25q6.09-2.24 11.54-4.78l4.24 23.68a118.94 118.94 0 0 1-12.93 6.13ZM195.08 85.49C228.5 69 283.5 69 316.92 85.49c14.12 7 22.27 15.93 22.41 24.66-19 9.27-48.22 16-83.33 16s-64.31-6.68-83.33-16c.14-8.73 8.3-17.71 22.41-24.66ZM256 141.11c34.66 0 87.3-7.61 111.44-32.29l9.51 53C364.89 193.44 289.89 203 256 203c-38 0-109.47-11.12-120.95-41.24l9.51-53c24.05 24.58 76.07 32.29 111.44 32.29Zm-127 54.47 2.37-13.21a73.48 73.48 0 0 0 11.63 9.35l-3.92 21.82c-5.45-4.92-9.88-11-10.12-18Zm27.91 3.77q5.44 2.53 11.54 4.78l-2.85 25a117.1 117.1 0 0 1-12.94-6.13ZM47.49 155c19.7-13.8 47.07-25.48 79.65-34-13.93 77.58-13.16 73-13.16 74 0 45.68 84.43 64.48 142 64.48 9.18 0 18.35-.38 27.27-1.14a7.5 7.5 0 1 0-1.25-14.97c-8.5.72-17.25 1.08-26 1.08-27.25 0-53.93-3.62-75.9-10.25l2.9-25.4c21.74 6.06 46.76 9.23 73 9.23s51.26-3.17 73-9.23l2.9 25.4c-5 1.53-10.34 2.9-15.83 4.1a7.5 7.5 0 0 0 3.2 14.7c32.09-7 78.75-25 78.75-58a7.37 7.37 0 0 0-.12-1.32c-7-38.79-4.38-24.45-13-72.68 32.57 8.56 59.95 20.23 79.65 34 14.78 10.39 32.45 27.19 32.45 48.24 0 24.56-24.86 49.17-68.21 67.53C382.76 290.27 321.4 301 256 301s-126.76-10.73-172.79-30.23C39.86 252.41 15 227.8 15 203.24c0-21.05 17.67-37.85 32.49-48.23Zm373.26 144-.29.12C325 336 175.94 335.05 83.21 295.77c-31.55-13.37-53.31-30-62.81-47.59 13.09 13.6 32.28 25.95 57 36.4 99 41.92 258.29 41.93 357.28 0 24.68-10.45 43.87-22.8 57-36.4-13 24.05-45.33 41-70.86 50.84Z"/>
    </symbol>
    <symbol id="item-2370">
      <title>capuccino</title>
      <path fill="#fff3de" d="M45.67 196.61h328.87l5-.92c-5.45-75.82-110.61-47.2-106-91.3 3-28.83-17.23-49.72-31.64-60.74a10 10 0 0 0-15.33 4.13c-5.46 13-22.72 37.59-83 57.77-104.65 35-103.11 90.14-103.11 90.14Z"/>
      <path fill="#ffe5c2" d="M242.1 114.7c-4.42 42 92 18.09 106 81h31.45c-5.46-75.82-110.61-47.2-106-91.3 3-28.83-17.24-49.73-31.64-60.74a10 10 0 0 0-15.33 4.13 56.61 56.61 0 0 1-7.91 13.11c12.76 11.9 25.92 30.19 23.43 53.81Z"/>
      <path fill="#d4f2f6" d="M455.29 222.84h-44.88a309.25 309.25 0 0 1-5 35h49.87a14.21 14.21 0 0 1 4.95 27.52l-71.19 26.46a263.79 263.79 0 0 1-24.92 46.61l108.3-40.26a49.21 49.21 0 0 0-17.14-95.34Z"/>
      <path fill="#eaf9fa" d="M100.59 409.11h218.79c54.35-43.74 90.91-119.1 93.09-205.34a8 8 0 0 0-8-8.16h-389a8 8 0 0 0-8 8.16c2.21 86.23 38.78 161.6 93.12 205.34Z"/>
      <path fill="#ffe5c2" d="M371.77 261.71a281.58 281.58 0 0 0 7.75-66.1H40.45a281.58 281.58 0 0 0 7.75 66.1Z"/>
      <path fill="#fed2a4" d="M348.07 195.61a281.58 281.58 0 0 1-7.75 66.1h31.45a281.58 281.58 0 0 0 7.75-66.1Z"/>
      <path fill="#a44f3e" d="M48 260.71c8.35 35.14 23.5 67.21 44.6 93.63 21.31 26.69 47 45.34 74.84 54.77h85.17c27.81-9.43 53.53-28.08 74.84-54.77 21.1-26.42 36.25-58.49 44.6-93.63Z"/>
      <path fill="#883f2e" d="M340.56 260.71c-8.35 35.14-23.5 67.21-44.6 93.63-21.31 26.69-47 45.34-74.84 54.77h31.45c27.81-9.43 53.53-28.08 74.84-54.77 21.1-26.42 36.25-58.49 44.6-93.63Z"/>
      <path fill="#dcf5f8" d="M352.86 470.42H67.11a59.23 59.23 0 0 1-59.23-59.23 3.08 3.08 0 0 1 3.12-3.08h398a3.08 3.08 0 0 1 3.08 3.08 59.23 59.23 0 0 1-59.22 59.23Z"/>
      <path fill="#d4f2f6" d="M314.4 470.42h38.46a59.23 59.23 0 0 0 59.23-59.23 3.08 3.08 0 0 0-3.08-3.08h-59.17c-1.37 19.93-16.53 46-35.44 62.31Z"/>
      <path d="M169.93 132.06h2a7.5 7.5 0 0 0 0-15h-2a7.5 7.5 0 0 0 0 15ZM139.93 150.06h2a7.5 7.5 0 0 0 0-15h-2a7.5 7.5 0 0 0 0 15ZM201.23 148.77h2a7.5 7.5 0 0 0 0-15h-2a7.5 7.5 0 0 0 0 15ZM258 150.06h2a7.5 7.5 0 0 0 0-15h-2a7.5 7.5 0 0 0 0 15ZM204.94 112.05h2a7.5 7.5 0 0 0 0-15h-2a7.5 7.5 0 0 0 0 15ZM235 92.05h2a7.5 7.5 0 0 0 0-15h-2a7.5 7.5 0 0 0 0 15ZM233 128.06h2a7.5 7.5 0 0 0 0-15h-2a7.5 7.5 0 0 0 0 15Z"/>
      <path d="M455.29 215.34h-35.83c.23-3.78.41-7.57.51-11.38a15.5 15.5 0 0 0-15.5-15.86h-18.3c-6.66-41.87-43.61-52.25-71-59.92-25.26-7.08-35.42-11.14-34.17-23 3.48-33.07-20.15-56.47-34.55-67.48a17.51 17.51 0 0 0-26.79 7.18c-5 11.87-21.83 34.61-78.49 53.56-86.64 29-104 72.12-107.39 89.68H15.51A15.47 15.47 0 0 0 0 204c2 77.15 31.49 149.1 79.87 196.62H11A10.59 10.59 0 0 0 .38 411.19a66.81 66.81 0 0 0 66.73 66.73H266a7.5 7.5 0 0 0 0-15H67.11a51.8 51.8 0 0 1-51.54-47.3H404.4a51.8 51.8 0 0 1-51.54 47.3H301a7.5 7.5 0 0 0 0 15h51.86a66.81 66.81 0 0 0 66.73-66.73A10.58 10.58 0 0 0 409 400.62h-68.9a240.44 240.44 0 0 0 30.32-36.52l104.63-38.89a56.71 56.71 0 0 0-19.76-109.87ZM92 188.11H49.21a65.38 65.38 0 0 1 10.51-21.21c11.08-15.29 35-37.12 86.22-54.24 59.13-19.78 80.25-44.62 87.55-62a2.55 2.55 0 0 1 1.72-1.51 2.35 2.35 0 0 1 2.14.43c26.33 20.13 30.17 40.47 28.74 54-1.23 11.73 3.51 21 14.1 27.56 8.24 5.1 19.27 8.19 30.94 11.47 26.41 7.39 53.62 15.05 59.79 45.48H127a7.5 7.5 0 0 0 0 15h244.92a273.7 273.7 0 0 1-6.12 51.1H54.17a273.7 273.7 0 0 1-6.12-51.1H92a7.5 7.5 0 0 0 0-15Zm10.09 212.5C49.51 356.44 17 283 15 203.58a.44.44 0 0 1 .13-.32.52.52 0 0 1 .38-.15h17.55C34.53 262.26 53.44 317.38 86.7 359a186.55 186.55 0 0 0 45.84 41.59Zm63.89 0c-25.08-9.4-48.37-26.93-67.56-50.95-18.35-23-32-50.4-40.51-80.45h304.15c-8.46 30.05-22.16 57.47-40.51 80.45-19.18 24-42.47 41.55-67.55 50.95Zm151.9 0h-30.45A186.55 186.55 0 0 0 333.27 359c33.26-41.64 52.17-96.76 53.64-155.91h17.55a.49.49 0 0 1 .38.16.41.41 0 0 1 .13.31c-2 79.44-34.51 152.86-87.09 197Zm151.94-89.46-86.66 32.21a279.55 279.55 0 0 0 12.64-26l21.92-8.15a7.5 7.5 0 0 0-5.22-14.06l-9.5 3.5a306.66 306.66 0 0 0 9.43-33.3h42.87a6.71 6.71 0 0 1 2.34 13l-12.32 4.57a7.5 7.5 0 1 0 5.22 14.08l12.31-4.57a21.71 21.71 0 0 0-7.56-42h-39.9q1.71-9.9 2.8-20h37.1a41.71 41.71 0 0 1 14.53 80.81Z"/>
    </symbol>
    <symbol id="item-2371">
      <title>shirt</title>
      <path fill="#bed8fb" d="M361.06 39.82H256V450l32.32 54.55h113.14V80.23a40.4 40.4 0 0 0-40.4-40.4ZM150.94 39.82H256V450l-32.33 54.5H110.54V80.23a40.4 40.4 0 0 1 40.4-40.4Z"/>
      <path fill="#9dc6fb" d="M110.54 479.91V252.72l50.89 193A20.2 20.2 0 0 1 147 470.4Z"/>
      <path fill="#bed8fb" d="M135.42 39.82H159V229h-48.46L97.4 256l47.08 194.89-82.43 21.25-51.11-213.55A40.44 40.44 0 0 1 14.16 231L99.34 62a40.39 40.39 0 0 1 36.08-22.21Z"/>
      <path fill="#80b4fb" d="M191.35 7.5 256 39.82 320.65 7.5Z"/>
      <path fill="#9dc6fb" d="m256 39.82-42.43 54.55-44.44-54.55L191.35 7.5ZM256 39.82l42.43 54.55 44.44-54.55L320.65 7.5ZM401.46 479.91V252.72l-50.89 193A20.2 20.2 0 0 0 365 470.4Z"/>
      <path fill="#bed8fb" d="M376.58 39.82H353V229h48.49l13.14 27-47.11 194.89L450 472.14l51.11-213.55a40.44 40.44 0 0 0-3.22-27.6L412.66 62a40.39 40.39 0 0 0-36.08-22.21Z"/>
      <path fill="#9dc6fb" d="M497.84 231 412.66 62a40.39 40.39 0 0 0-36.08-22.21H353A40.39 40.39 0 0 1 388.42 62l88.51 175.6a20.13 20.13 0 0 1 1.6 13.79l-51.42 214.86 22.89 5.89 51.11-213.55a40.44 40.44 0 0 0-3.22-27.6ZM369.14 239.59l-32.33 10.1-32.32-10.1v-67.68h64.65Z"/>
      <path d="m504.54 227.62-43.21-85.71a7.5 7.5 0 1 0-13.39 6.76l43.2 85.7a32.92 32.92 0 0 1 2.62 22.47L444.43 463l-67.89-17.5 45.35-187.71a7.56 7.56 0 0 0-.55-5L409 227.29v-48.53a7.5 7.5 0 0 0-15 0v130.71l-33.77 139.66a7.49 7.49 0 0 0 5.41 9l28.32 7.3V497h-37.32a7.5 7.5 0 0 0 0 15h44.82a7.5 7.5 0 0 0 7.5-7.5v-35.18l39.12 10.08a7.51 7.51 0 0 0 9.17-5.52l51.1-213.55a48 48 0 0 0-3.81-32.71Z"/>
      <path d="M321.55 497H292.6l-29.1-49.1V409h6.85a7.5 7.5 0 0 0 0-15h-6.85v-29.41h6.85a7.5 7.5 0 0 0 0-15h-6.85v-29.45h6.85a7.5 7.5 0 0 0 0-15h-6.85V275.7h6.85a7.5 7.5 0 0 0 0-15h-6.85v-29.45h6.85a7.5 7.5 0 0 0 0-15h-6.85V186.8h6.85a7.5 7.5 0 0 0 0-15h-6.85v-29.45h6.85a7.5 7.5 0 0 0 0-15h-6.85V61.68l29 37.3a7.48 7.48 0 0 0 5.83 2.89h.09a7.48 7.48 0 0 0 5.81-2.76l42.2-51.78h30.14A32.75 32.75 0 0 1 406 65.42l26.13 51.84a7.5 7.5 0 0 0 13.4-6.75l-26.17-51.84a47.66 47.66 0 0 0-42.78-26.34h-29.76l-20-29.08A7.51 7.51 0 0 0 320.65 0h-129.3a7.51 7.51 0 0 0-6.18 3.25l-20 29.08h-29.75a47.66 47.66 0 0 0-42.78 26.34l-85.18 169a48 48 0 0 0-3.81 32.71l26.56 111a7.5 7.5 0 0 0 7.29 5.76 7.6 7.6 0 0 0 1.75-.21 7.5 7.5 0 0 0 5.55-9l-26.56-111a32.91 32.91 0 0 1 2.62-22.47L106 65.42a32.76 32.76 0 0 1 29.39-18.1h30.14l42.2 51.79a7.48 7.48 0 0 0 5.81 2.76h.09a7.48 7.48 0 0 0 5.86-2.87l29-37.3v386.2L219.4 497H118v-31.55l28.32-7.3a7.49 7.49 0 0 0 5.41-9L118 309.47V178.76a7.5 7.5 0 0 0-15 0v48.53l-12.34 25.43a7.51 7.51 0 0 0-.55 5l45.35 187.71L67.57 463 53 401.91a7.5 7.5 0 1 0-14.58 3.49l16.38 68.49a7.49 7.49 0 0 0 9.17 5.51L103 469.32v35.18a7.5 7.5 0 0 0 7.5 7.5h113.17a7.51 7.51 0 0 0 6.46-3.68L256 464.66l25.87 43.66a7.51 7.51 0 0 0 6.45 3.68h33.23a7.5 7.5 0 0 0 0-15ZM256 31.44 223.12 15h65.76Zm77.51 8-34.95 42.89-31-39.89 50.63-25.31ZM213.44 82.33l-34.95-42.89 15.34-22.31 50.63 25.31Z"/>
      <path d="M376.64 239.59v-67.68a7.5 7.5 0 0 0-7.5-7.5h-64.65a7.5 7.5 0 0 0-7.5 7.5v67.68a7.5 7.5 0 0 0 5.26 7.16l32.33 10.1a7.36 7.36 0 0 0 2.23.34 7.75 7.75 0 0 0 2.24-.34l32.32-10.1a7.5 7.5 0 0 0 5.27-7.16Zm-15-5.52-24.83 7.76-24.81-7.76v-54.66h49.65Z"/>
    </symbol>
    <symbol id="item-2372">
      <title>ddd</title>

    </symbol>
    <symbol id="item-2373">
      <title>eee</title>

    </symbol>
    <symbol id="item-2374">
      <title>fff</title>

    </symbol>
    <symbol id="item-2375">
      <title>ggg</title>

    </symbol>
    <symbol id="item-2376">
      <title>hhh</title>

    </symbol>
    <symbol id="item-2377">
      <title>iii</title>

    </symbol>
    <symbol id="item-2378">
      <title>jjj</title>

    </symbol>
    <symbol id="item-2379">
      <title>kkk</title>

    </symbol>
    <symbol id="item-2380">
      <title>lll</title>

    </symbol>
    <symbol id="item-2381">
      <title>mmm</title>

    </symbol>
    <symbol id="item-2382">
      <title>nnn</title>

    </symbol>
    <symbol id="item-2383">
      <title>ooo</title>

    </symbol>
    <symbol id="item-2384">
      <title>ppp</title>

    </symbol>
    <symbol id="item-2385">
      <title>qqq</title>

    </symbol>
    <symbol id="item-2386">
      <title>rrr</title>

    </symbol>
    <symbol id="item-2387">
      <title>sss</title>

    </symbol>
    <symbol id="item-2388">
      <title>ttt</title>

    </symbol>
    <symbol id="item-2389">
      <title>uuu</title>

    </symbol>
    <symbol id="item-2390">
      <title>vvv</title>

    </symbol>
    <symbol id="item-2391">
      <title>www</title>

    </symbol>
    <symbol id="item-2392">
      <title>xxx</title>

    </symbol>
    <symbol id="item-2393">
      <title>yyy</title>

    </symbol>
    <symbol id="item-2394">
      <title>zzz</title>

    </symbol>
    <symbol id="item-2395">
      <title>aaa</title>

    </symbol>
    <symbol id="item-2396">
      <title>bbb</title>

    </symbol>
    <symbol id="item-2397">
      <title>ccc</title>

    </symbol>
    <symbol id="item-2398">
      <title>ddd</title>

    </symbol>
    <symbol id="item-2399">
      <title>eee</title>

    </symbol>
    <symbol id="item-2400">
      <title>fff</title>

    </symbol>
    <symbol id="item-2401">
      <title>ggg</title>

    </symbol>
    <symbol id="item-2402">
      <title>hhh</title>

    </symbol>
    <symbol id="item-2403">
      <title>iii</title>

    </symbol>
    <symbol id="item-2404">
      <title>jjj</title>

    </symbol>
    <symbol id="item-2405">
      <title>kkk</title>

    </symbol>
    <symbol id="item-2406">
      <title>lll</title>

    </symbol>
    <symbol id="item-2407">
      <title>mmm</title>

    </symbol>
    <symbol id="item-2408">
      <title>nnn</title>

    </symbol>
    <symbol id="item-2409">
      <title>ooo</title>

    </symbol>
    <symbol id="item-2410">
      <title>ppp</title>

    </symbol>
    <symbol id="item-2411">
      <title>qqq</title>

    </symbol>
    <symbol id="item-2412">
      <title>rrr</title>

    </symbol>
    <symbol id="item-2413">
      <title>sss</title>

    </symbol>
    <symbol id="item-2414">
      <title>ttt</title>

    </symbol>
    <symbol id="item-2415">
      <title>uuu</title>

    </symbol>
    <symbol id="item-2416">
      <title>vvv</title>

    </symbol>
    <symbol id="item-2417">
      <title>www</title>

    </symbol>
    <symbol id="item-2418">
      <title>xxx</title>

    </symbol>
    <symbol id="item-2419">
      <title>yyy</title>

    </symbol>
    <symbol id="item-2420">
      <title>zzz</title>

    </symbol>
    <symbol id="item-2421">
      <title>aaa</title>

    </symbol>
    <symbol id="item-2422">
      <title>bbb</title>

    </symbol>
    <symbol id="item-2423">
      <title>ccc</title>

    </symbol>
    <symbol id="item-2424">
      <title>ddd</title>

    </symbol>
    <symbol id="item-2425">
      <title>eee</title>

    </symbol>
    <symbol id="item-2426">
      <title>fff</title>

    </symbol>
    <symbol id="item-2427">
      <title>ggg</title>

    </symbol>
    <symbol id="item-2428">
      <title>hhh</title>

    </symbol>
    <symbol id="item-2429">
      <title>iii</title>

    </symbol>
    <symbol id="item-2430">
      <title>jjj</title>

    </symbol>
    <symbol id="item-2431">
      <title>kkk</title>

    </symbol>
    <symbol id="item-2432">
      <title>lll</title>

    </symbol>
  </defs>
</svg>
