<svg xmlns="http://www.w3.org/2000/svg" viewBox="0 0 512 512">
  <defs>
    <symbol id="item-1409">
      <title>tango</title>
<path fill="#ffa78f" d="m313.87 80.63 9.13 24.52 28.69-9.14L341 67.46Z"/>
  <path fill="#ffcebf" d="m132.13 434.82-.23.28-28.7 29.13-9.76 23.64a17.91 17.91 0 0 1-13.85 10.88l-37.18 5.75L50 467.74a23.8 23.8 0 0 1 7.54-13l18.78-16.73 14-22.61a316.73 316.73 0 0 0 41.82 19.38Z"/>
  <path fill="#ffb09e" d="M115.28 427.89 77 467.77l-7.47 20.1a17.91 17.91 0 0 1-13.83 10.88l-12.51 1.93-.78 3.82 37.18-5.75a17.91 17.91 0 0 0 13.85-10.88l9.76-23.64 28.7-29.13.23-.28q-8.38-3.17-16.85-6.93Z"/>
  <path fill="#ffcebf" d="m320.65 79.38 10.66-4.15c11-4.28 17-16.63 13.32-27.58l-5.74-13.64c-3.47-10.41-14.76-15.54-25.22-11.47l-14.48 5.64c-9.44 3.67-14.56 14.26-11.43 23.65l6.35 15.45c3.65 10.98 15.53 16.39 26.54 12.1Z"/>
  <path fill="#ffb09e" d="m344.63 47.65-5.74-13.64c-3.47-10.41-14.76-15.54-25.22-11.47l-5.36 2.08a18.73 18.73 0 0 1 6.87 9.39l5.74 13.61c3.65 11-2.31 23.29-13.32 27.58l-5.8 2.25a20.33 20.33 0 0 0 18.84 1.92l10.66-4.15c11.01-4.27 16.98-16.62 13.33-27.57Z"/>
  <path fill="#ffa78f" d="M211.83 79.34h27.62v30.29h-27.62Z"/>
  <path fill="#ffcebf" d="M253.19 46.46v16.3a21.13 21.13 0 0 1-21.13 21.13h-11.3a21.13 21.13 0 0 1-21.12-21.13v-16.3a18.12 18.12 0 0 1 18.12-18.12h17.31a18.12 18.12 0 0 1 18.12 18.12Z"/>
  <path fill="#ffb09e" d="M235.07 28.34h-17.31a17.82 17.82 0 0 0-3.29.31 18.12 18.12 0 0 1 14.83 17.81v16.3a21.14 21.14 0 0 1-14.83 20.17 21.05 21.05 0 0 0 6.29 1h11.3a21.13 21.13 0 0 0 21.13-21.13V46.46a18.12 18.12 0 0 0-18.12-18.12Z"/>
  <path fill="#ffbee7" d="M211.83 109.63h57.58l17.3 34.62-14.06 85.55h-50.82l-13.53-73.27a87.11 87.11 0 0 1 .95-36.16Z"/>
  <path fill="#feaee1" d="M269.41 109.63h-23.89l14.81 29.64a17.14 17.14 0 0 1 1.58 10.47l-13.15 80.06h23.89l14.06-85.55Z"/>
  <path fill="#fe5694" d="m272.65 229.8 31 61.09 47.57 89.45-14.89 65.2s-123 38.13-246-30.1L177.2 273.7a129.47 129.47 0 0 1 44.65-43.9Z"/>
  <path fill="#fd3581" d="m351.19 380.34-47.57-89.45-31-61.09h-23.86l95.89 179.21Z"/>
  <path fill="#8795de" d="m103.2 464.23-9.76 23.64a17.91 17.91 0 0 1-13.85 10.88l-37.18 5.75L50 467.74a23.8 23.8 0 0 1 7.54-13l18.78-16.73.7 29.72Z"/>
  <path fill="#6c7fd8" d="M69.55 487.87a17.91 17.91 0 0 1-13.85 10.88l-12.51 1.93-.78 3.82 37.18-5.75a17.91 17.91 0 0 0 13.85-10.88l9.76-23.64-26.2 3.54Z"/>
  <path fill="#8d9ca8" d="m302 106.01 83.1-26.6 5.17 133.09-65.72 8.65Z"/>
  <path fill="#7a8c98" d="m367.15 215.54 23.12-3-5.17-133.13-23.56 7.53Z"/>
  <path fill="#7a8c98" d="m386.41 292.01-9.92 13.33L309 396.01l-60.63 81.44v13.61a13.41 13.41 0 0 1-13.41 13.42h-49.12a9.24 9.24 0 0 1-6-16.28l20.24-17.19 124.47-217.42v-32.44l65.72-8.65 6.73 26.74a62.81 62.81 0 0 1-10.59 52.77Z"/>
  <path fill="#6d7f89" d="m397 239.24-6.69-26.74-23.13 3 5.93 23.7a62.81 62.81 0 0 1-10.59 52.81l-9.92 13.33-67.54 90.67-58.46 78.54-2.17 16.53A13.41 13.41 0 0 1 211 504.5h23.89a13.41 13.41 0 0 0 13.41-13.42v-13.61l60.7-81.46 67.54-90.71 9.87-13.29A62.81 62.81 0 0 0 397 239.24Z"/>
  <path fill="#8d9ca8" d="M410.88 489.4a15.09 15.09 0 0 1-15.1 15.1h-54.85a5.84 5.84 0 0 1-4-10.07l22.44-21.32-50.37-77.1 67.54-90.71-17.57 66.62L405 473.11l4.56 10a15.16 15.16 0 0 1 1.32 6.29Z"/>
  <path fill="#7a8c98" d="m409.53 483.14-4.56-10-46.05-101.2 17.57-66.62-36.99 49.69-2.94 11.13a16.83 16.83 0 0 0 1 11.27l43.56 95.71 4.56 10a15.1 15.1 0 0 1-13.75 21.36h23.89a15.12 15.12 0 0 0 13.75-21.36Z"/>
  <path fill="#8d9ca8" d="M445 169.52a32.79 32.79 0 0 1-32.71-9.87l-25.21-28.19-2-52h11a19.15 19.15 0 0 1 17 10.3l25.85 49.56-.22-32.31-.14-22.53a14.08 14.08 0 0 1 11.34-13.89 14.47 14.47 0 0 1 2.75-.27 14.07 14.07 0 0 1 14 13.31l1.34 23.38 1.57 29A32.8 32.8 0 0 1 445 169.52Z"/>
  <path fill="#7a8c98" d="m469.52 136.01-1.52-29-1.31-23.4a14.07 14.07 0 0 0-14-13.31 14.47 14.47 0 0 0-2.75.27 14.06 14.06 0 0 0-7.22 3.86 14 14 0 0 1 4.11 9.18l1.23 23.4 1.57 29a32.79 32.79 0 0 1-22.81 33 32.79 32.79 0 0 0 42.7-33Z"/>
  <path fill="#7a8c98" d="m393.18 89.72 23.51 45.07a8.35 8.35 0 0 0 7.4 4.49h14.83l-25.85-49.56a19.15 19.15 0 0 0-17-10.3h-11l.08 2.25a19.12 19.12 0 0 1 8 8Z"/>
  <path fill="#ffcebf" d="m218 212.36-1.05.1a15.51 15.51 0 0 1-16.89-14l-.75-8a15.5 15.5 0 0 1 14-16.88l1-.1a15.5 15.5 0 0 1 16.89 14l.75 8a15.5 15.5 0 0 1-14 16.89ZM269.41 109.63l68.45-7.72 60.63-28.68a11.72 11.72 0 0 1 10.44 20.89l-61.11 39-61.11 11.17Z"/>
  <path fill="#ffb09e" d="M414.53 84.12a11.71 11.71 0 0 1-5.6 10l-61.1 39-26.36 4.81L385 94.12a11.7 11.7 0 0 0 4.55-14.83 10.37 10.37 0 0 0-.8-1.47l9.7-4.59a11.73 11.73 0 0 1 16 10.89Z"/>
  <path fill="#b98080" d="M248.32 477.47v13.61a13.41 13.41 0 0 1-13.41 13.42h-49.07a9.24 9.24 0 0 1-6-16.28l20.24-17.21ZM410.88 489.4a15.09 15.09 0 0 1-15.1 15.1h-54.85a5.84 5.84 0 0 1-4-10.07l22.44-21.32H405l4.56 10a15.16 15.16 0 0 1 1.32 6.29Z"/>
  <path fill="#ae6c6c" d="m226.6 474.55-2.17 16.53A13.41 13.41 0 0 1 211 504.5h23.89a13.41 13.41 0 0 0 13.41-13.42v-13.61ZM409.53 483.14l-4.56-10h-23.89l4.56 10a15.1 15.1 0 0 1-13.75 21.36h23.89a15.12 15.12 0 0 0 13.75-21.36Z"/>
  <path fill="#ffcebf" d="M468 107.01h-29.29l-.14-22.53a14.08 14.08 0 0 1 11.34-13.89 14.47 14.47 0 0 1 2.75-.27 14.07 14.07 0 0 1 14 13.31Z"/>
  <path fill="#ffb09e" d="m446.8 83.61 1.26 23.4H468l-1.31-23.4a14.07 14.07 0 0 0-14-13.31 14.47 14.47 0 0 0-2.75.27 14.06 14.06 0 0 0-7.22 3.86 14 14 0 0 1 4.08 9.18Z"/>
  <path fill="#7a8c98" d="M253.19 46.46v9.65h-53.55v-9.65a18.12 18.12 0 0 1 18.12-18.12h17.31a18.12 18.12 0 0 1 18.12 18.12Z"/>
  <path fill="#6d7f89" d="M235.07 28.34h-17.31a17.82 17.82 0 0 0-3.29.31 18.12 18.12 0 0 1 14.83 17.81v9.65h23.89v-9.65a18.12 18.12 0 0 0-18.12-18.12Z"/>
  <circle cx="187.38" cy="31.96" r="24.46" fill="#6d7f89"/>
  <path d="m477 135.61-2.81-52c-.07-15.16-17.63-25.75-31.12-18.61a21.63 21.63 0 0 0-12 19.47l.14 22.5v1.27l-9.92-19a19.19 19.19 0 0 0-25.57-23l-.45.19-39.62 18.77-6.2-16.61a29.29 29.29 0 0 0 2.29-23.31l-.2-.54-5.64-13.36a26 26 0 0 0-13.6-15.19 26.88 26.88 0 0 0-21.35-.6l-14.48 5.64c-13.25 5.14-20.39 20.32-15.65 33.5l6.26 15.22a27 27 0 0 0 14.13 15.8 27.3 27.3 0 0 0 7.4 2.27l3.45 9.25-43.06 4.86h-22V87.2a28.64 28.64 0 0 0 13.74-24.44v-16.3a25.65 25.65 0 0 0-25.62-25.62h-17.78a32 32 0 0 0-61.92 11.09c-.17 19.34 17.67 34.64 36.74 31.6a28.61 28.61 0 0 0 12.18 22.63v22.56a113 113 0 0 0-1.34 60.54 23.05 23.05 0 0 0-11.16 21.93l.76 8a23 23 0 0 0 19.74 20.61l1.16 6.33a137.6 137.6 0 0 0-42.74 43.66L70.53 433.16l-18 15.93a31.22 31.22 0 0 0-9.91 17.14l-7.56 36.78a7.56 7.56 0 0 0 8.5 8.92l37.18-5.74a25.73 25.73 0 0 0 19.63-15.44l9.2-22.29 24.55-24.91a335.89 335.89 0 0 0 63.81 16.11l-3.72 6.48L175 482.51a16.59 16.59 0 0 0-4.87 18.5 17.84 17.84 0 0 0 1.09 2.39 16.56 16.56 0 0 0 14.62 8.61h49.07a21 21 0 0 0 20.91-20.92v-11.14l12.41-16.67a358.44 358.44 0 0 0 69.2-10l12.22 18.73-17.91 17a13.34 13.34 0 0 0 9.19 23h54.85c15.9.47 27.61-17.68 20.58-32L396 435.29a7.5 7.5 0 1 0-13.65 6.22l11 24.1H363.4l-45.31-69.3 23.82-32 17.44-23.41-7.68 29.11a7.43 7.43 0 0 0 .42 5l15.76 34.62a7.5 7.5 0 0 0 13.65-6.21l-14.65-32.19 16.52-62.64 9.05-12.16a70 70 0 0 0 11.81-59l-6.49-26-2.32-59.42 11.32 12.65c24.25 28.29 73 8.12 70.27-29Zm-30.84-52.36c1.29-8 13.71-6.52 13.09 1.67l.75 14.57h-13.84l-.09-15.08a7.46 7.46 0 0 1 .09-1.16Zm-44.74-3.11a4.22 4.22 0 0 1 3.58 7.59.41.41 0 0 0-.11.07L345 126.01l-54.13 9.89-10-20 57.78-6.52a7.56 7.56 0 0 0 2.37-.67Zm-18.91 125.81-52 6.84-13.01-66.54 31.67-5.79a7.44 7.44 0 0 0 2.69-1l27.38-17.47Zm-78.69 68.74-24.48-48.28a7.56 7.56 0 0 0-6.69-4.11h-44.58l-.91-5a23 23 0 0 0 12.31-22.57l-.75-8a23 23 0 0 0-21.05-20.72c-3.73-16-4.8-33 .08-48.88h47l14.14 28.3-7.89 48.35a7.5 7.5 0 0 0 6.18 8.62 7.29 7.29 0 0 0 1.23.1 7.5 7.5 0 0 0 7.39-6.28l7.48-45.54 9.5-1.74 14.3 72.94v29.71Zm-2.59-209.75-.18-.48-6.24-15.17a11.69 11.69 0 0 1 7.1-14.08l14.48-5.64a12 12 0 0 1 9.53.2 11.09 11.09 0 0 1 5.85 6.65l.21.54 5.61 13.31a14.46 14.46 0 0 1-2.29 12.79 3.68 3.68 0 0 0-.3.39 15.08 15.08 0 0 1-6.42 4.79l-10.66 4.15a13 13 0 0 1-10.33-.22 12.1 12.1 0 0 1-6.36-7.23Zm22.69 21.22L334 82.22a29.71 29.71 0 0 0 3.82-1.81L342 91.64l-6.26 3-8.36.94ZM207.18 63.61h38.47a13.64 13.64 0 0 1-13.59 12.78h-11.3a13.63 13.63 0 0 1-13.58-12.78Zm38.51-17.15v2.15h-31.05a31.76 31.76 0 0 0 4.45-12.77h16a10.63 10.63 0 0 1 10.6 10.62Zm-75.27-14.51a17 17 0 1 1 17 17 17 17 0 0 1-17-17Zm50.34 59.44H232v10.74h-12.66V91.35c.47.02.94.04 1.42.04Zm-13.21 106.38-.75-8c-.6-5.11 4.08-9.19 9-8.85a8 8 0 0 1 8 7.25l.76 8a8.17 8.17 0 0 1-8.27 8.82 8 8 0 0 1-8.72-7.22Zm-24 79.85a122.43 122.43 0 0 1 40.34-40.32H268l26.86 53L228 407.01l7.22-32.39a7.5 7.5 0 0 0-14.64-3.26l-16.48 74q-11.69-1.63-23.08-4.05l23.78-72.15a7.5 7.5 0 1 0-14.25-4.69l-24.15 73.4q-12.24-3.21-24.1-7.35l43.36-93.33a7.5 7.5 0 0 0-13.61-6.32l-43.83 94.35q-14-5.62-27.36-12.63ZM86.51 485.01a10.56 10.56 0 0 1-8.07 6.33l-26.51 4.1 5.39-26.19a16.41 16.41 0 0 1 5.16-8.92l6.72-5.95.32 13.57a7.5 7.5 0 0 0 8.5 7.26l13.27-1.79Zm13.14-27.86-15.33 2.06-.45-19.11 9.1-14.7q12.7 6.64 25.92 12.22Zm86.19 39.86a1.75 1.75 0 0 1-1.13-3.07l17.69-15.07 38.42 5.14v7.05a5.94 5.94 0 0 1-5.91 5.92Zm216.86-10.77a7.67 7.67 0 0 1-6.92 10.77h-50.69l17.26-16.39h37.78Zm-74-46.3a352.28 352.28 0 0 1-48.7 7.55l28.56-38.37Zm51.69-152.43L245 469.45l-32.88-4.44 118.94-207.7a7.51 7.51 0 0 0 1-3.73v-25.85l52.56-6.92 5.07 20.25a55.1 55.1 0 0 1-9.29 46.45Zm62.76-125.25a25.34 25.34 0 0 1-25.23-7.61l-23.41-26.18-.62-15.87 17-10.84 21.37 41a7.5 7.5 0 0 0 14.15-3.52l-.16-24.74h14.59l1.16 21.92a25.39 25.39 0 0 1-18.88 25.84ZM73.78 226.31h3.93v3.93a7.5 7.5 0 0 0 15 0v-3.93h3.92a7.5 7.5 0 0 0 0-15h-3.92v-3.92a7.5 7.5 0 0 0-15 0v3.92h-3.93a7.5 7.5 0 0 0 0 15Z"/>
  <circle cx="120.44" cy="178.08" r="7.5"/>
    </symbol>
    <symbol id="item-1410">
      <title>salsa</title>
<circle cx="403.14" cy="105.68" r="26.22" fill="#ecbd83"/>
  <path fill="#5d5360" d="M421 124.87a26.14 26.14 0 0 0-33.22-40.3 10.45 10.45 0 0 0 2.13 2.8L401.68 98a67.23 67.23 0 0 1 13 16.06Z"/>
  <path fill="#ecbd83" d="M464.93 19.25a12.28 12.28 0 0 0-24.55.53V103l-41.65 49.17c-4 4.66-9.68 7.75-15.78 7.62a32.08 32.08 0 0 0-24.25 10.35l-21.2 23.05-34.36-30.14a11.58 11.58 0 0 0-16.64 1.43 5.59 5.59 0 0 0-.4.59 15.34 15.34 0 0 0 2.37 19l37.32 36.78a16 16 0 0 0 22 1.3L372 202.89 400.29 272l16-32.31v-56.53a16 16 0 0 1 3.92-10.51L460.73 126a32.12 32.12 0 0 0 7.82-22.4Z"/>
  <path fill="#f5ebcd" d="M347.77 222.22 372 202.89l29 53.44 11.88-9.66 3.45-6.95v-56.56a16 16 0 0 1 3.92-10.51l36.35-41.87-21.51-21.52-36.36 42.93c-4 4.66-9.68 7.75-15.78 7.62a32.08 32.08 0 0 0-24.25 10.35l-21.2 23.05v32.7a15.91 15.91 0 0 0 10.27-3.69Z"/>
  <path fill="#f4dbb3" d="m408.31 251-13.4-45a11.61 11.61 0 0 0-17.17-6.6l-5.75 3.5 23.44 57.26c6.56-4.6 12.88-9.16 12.88-9.16Z"/>
  <path fill="#ecbd83" d="m486.47 490.58-22.71-154.42-33.41-.67 32.11 159.22a12.19 12.19 0 0 0 24-4.13Z"/>
  <path fill="#e2a975" d="m381.76 324.14-82.08 172.8a5.29 5.29 0 0 0 4.78 7.56h6.19a16 16 0 0 0 14.05-8.3l91.13-165.55Z"/>
  <path fill="#f6d190" d="m311.32 472.43-11.64 24.51a5.29 5.29 0 0 0 4.78 7.56h6.19a16 16 0 0 0 14.05-8.3l13.08-23.76h-26.46Z"/>
  <path fill="#ffe09f" d="M462.47 494.71a12.18 12.18 0 0 0 24-4.13l-2.67-18.15H458ZM294.53 174.28a12 12 0 0 0-14.39-1.93L232 199.89l-24.2-24.16a48.1 48.1 0 0 0-38.36-13.89l-27.28 2.48-22.61 2.06a32.06 32.06 0 0 0-24.29 14.94L63.62 232l-49 21A11.75 11.75 0 0 0 23 274.89l46.76-15.59a32.08 32.08 0 0 0 15.95-11.79l34-47.62 7 38.7-23.64 34.81a72.19 72.19 0 0 0-11.86 49.87l20.5 157.18h24V332l80.16 148.47H240l-80.19-192.41c32.06-40.08 32.06-80.16 32.06-80.16l25.27 20.22a24.05 24.05 0 0 0 29.79.2l46.48-36.15a12 12 0 0 0 1.12-17.89Z"/>
  <path fill="#6f6571" d="M95.48 288.06a72.17 72.17 0 0 0-4.27 35.21l20.5 157.18 12.36 5.68 11.69-5.68V332l80.16 148.47 12.36 5.68 11.72-5.7-80.19-192.39Z"/>
  <path fill="#aedb81" d="m232 199.89-24.2-24.16a48.1 48.1 0 0 0-38.36-13.89l-27.28 2.48-22.61 2.06a32.06 32.06 0 0 0-24.29 14.94L63.62 232l-28.71 12.3 10.21 23.26 24.64-8.21a32.08 32.08 0 0 0 15.95-11.79l34-47.62 7 38.7-23.64 34.76a71.81 71.81 0 0 0-7.59 14.66h64.33c32.06-40.08 32.06-80.16 32.06-80.16l25.27 20.22a24.05 24.05 0 0 0 29.79.2l28.29-22-16.88-21.51Z"/>
  <path fill="#f6d190" d="M159.55 189.78A24 24 0 0 1 143.11 167v-30.79h24v48.09a5.77 5.77 0 0 1-7.56 5.48Z"/>
  <circle cx="152.8" cy="123.23" r="26.23" fill="#ffe09f"/>
  <path fill="#5d5360" d="m116.59 289.88.93-1.82h-22a72.17 72.17 0 0 0-4.27 35.21l20.5 157.18 12.36 5.68 7.65-3.72v-1.55a20.11 20.11 0 0 0-.16-3l-20.5-157.18a52.19 52.19 0 0 1 3.1-25.41 56.31 56.31 0 0 1 2.4-5.39Z"/>
  <path fill="#aedb81" d="M482.66 271a64.14 64.14 0 0 0-33.34-32.9l-33-14.13-64.12 80.13a32.8 32.8 0 0 1 8.51 5.72c5.38 5.66 4.36 19.69 10.9 24s18.32-2.58 25.69.12c7.14 2.61 12.09 15.66 19.95 16.6S433 340 440.54 339.12c7.81-.88 17.74 8.57 25 6s9.7-16.52 16.27-20.76c3-1.92 7.27-2.16 11.58-2.36a8 8 0 0 0 6.94-11.26Z"/>
  <path fill="#95cc81" d="m404.6 238.59-52.4 65.51a32.8 32.8 0 0 1 8.51 5.72c5.38 5.66 4.36 19.69 10.9 24a10.39 10.39 0 0 0 6.06 1.4l27.43-79a24 24 0 0 0 .4-14.52Z"/>
  <path fill="#ff8b5a" d="m165.68 112.25 7.91-1.63a4.21 4.21 0 0 0 1.6-.79 26.16 26.16 0 0 0-46.37 24 28 28 0 0 0 1.56 2.73 5 5 0 0 0 4.18-2.15c5-7.35 15.07-18.66 31.12-22.2Z"/>
  <path fill="#95cc81" d="M142.3 212.1a20.08 20.08 0 0 0-23.3-16.16l7.7 42.65-23.63 34.81a72.31 72.31 0 0 0-7.59 14.66h22.18c.65-1.16 1.28-2.35 2-3.4l23.65-34.81a19.93 19.93 0 0 0 3.13-14.85Z"/>
  <path fill="#9f6e50" d="M111.71 480.45v20.24a3.82 3.82 0 0 0 3.81 3.81h44.29l-24.05-24.05Z"/>
  <path fill="#c38c66" d="M240 480.45h-24.08v20.24a3.82 3.82 0 0 0 3.82 3.81H264Z"/>
  <path d="m511.35 317.09-21.85-49.15a71.41 71.41 0 0 0-37.24-36.75L423.83 219v-35.84a8.52 8.52 0 0 1 2.09-5.59l40.48-46.63a39.47 39.47 0 0 0 9.65-27.63l-3.63-84.38a19.78 19.78 0 0 0-39.54.85v66.79a35.55 35.55 0 1 0-35.79 56l-4.09 4.77a14 14 0 0 1-10.7 5 39.67 39.67 0 0 0-29.12 12.77l-16.24 17.66-28.86-25.31a19 19 0 0 0-30.4 7.59l-44.47 25.51-20.1-20.1a55.47 55.47 0 0 0-37.79-16.26v-3.81a35.54 35.54 0 1 0-39 5.36v1.61l-17.41 1.58a39.79 39.79 0 0 0-30 18.43L58.5 226l-46.83 20.05a19.25 19.25 0 0 0 13.67 36l46.79-15.6a39.31 39.31 0 0 0 19.68-14.54l23.69-33.21 3.29 18.21-21.92 32.28a79.56 79.56 0 0 0-13.1 55.05l20.44 156.7v23.56a7.5 7.5 0 0 0 7.5 7.5h48.1a7.5 7.5 0 0 0 5.3-12.8l-21.85-21.86V320.13a7.5 7.5 0 0 0-15 0V473h-10L98.65 322.3a64.6 64.6 0 0 1 2.13-26.74h54L228.72 473h-8.32l-54-100.27a7.5 7.5 0 0 0-13.2 7.12l55.21 102.54v22.11a7.5 7.5 0 0 0 7.5 7.5H264a7.5 7.5 0 0 0 5.3-12.8l-23-23-77.91-187a154.82 154.82 0 0 0 29.47-66.9l14.6 11.7a31.44 31.44 0 0 0 39.08.27l44.18-34.37 24.61 26.18a23.55 23.55 0 0 0 32.26 1.92l15.6-13.08 3.41 10.8a7.51 7.51 0 0 0 7.15 5.25 7.71 7.71 0 0 0 2.26-.35 7.5 7.5 0 0 0 4.89-9.41l-9-28.56a7.5 7.5 0 0 0-14.31 4.51l.72 2.29L345 214.76v-18.63l19.22-20.89a24.64 24.64 0 0 1 18.08-7.93A29 29 0 0 0 404.45 157l31.11-36.72 10.9 10.72-31.87 36.71a23.49 23.49 0 0 0-5.76 15.42v38.17l-62.49 78.11a7.5 7.5 0 0 0 3.25 11.72 28.52 28.52 0 0 1 5.68 3.85c1.13 1.19 2.15 5.16 2.89 8.06 1.48 5.77 3.15 12.27 8.27 16.29l-77.12 162a7.5 7.5 0 0 0 6.78 10.67h14.57a23.54 23.54 0 0 0 20.62-12.19L410.37 356a16.14 16.14 0 0 0 6 2 16.33 16.33 0 0 0 1.83.11 19.21 19.21 0 0 0 8.84-2.4l28.09 140.47a19.68 19.68 0 0 0 38.78-6.67l-20.26-140.8c3.29-3 5.5-7.15 7.52-10.94 1.4-2.64 3.33-6.26 4.71-7.15s5.1-1 8.12-1.18c4.43-.2 9.45-.44 13.82-2.58a7.49 7.49 0 0 0 3.55-9.77ZM119.21 488h13.45l9 9.05h-22.45V488Zm126.7 9h-22.49v-9h13.45ZM131.24 123.73a20.56 20.56 0 1 1 20.56 20.56 20.58 20.58 0 0 1-20.56-20.56Zm29.09 34.52v24.32a16.56 16.56 0 0 1-9.05-14.75v-8.54h.52a35.84 35.84 0 0 0 8.53-1.03ZM20.6 267.78a4.26 4.26 0 0 1-5.6-4 4.24 4.24 0 0 1 2.58-3.91l13.32-5.71 4.16 8.84Zm221.73-45.38a16.5 16.5 0 0 1-20.5-.14l-25.27-20.21a7.5 7.5 0 0 0-12.19 5.83c0 .37-.52 36.27-28.23 72.68H107.4c.6-1 1.22-2 1.88-2.95l23.64-34.81a7.49 7.49 0 0 0 1.18-5.54l-7-38.71a7.5 7.5 0 0 0-13.48-3l-34 47.62a24.38 24.38 0 0 1-12.23 9l-18 6-4.68-10 21.87-9.38a7.5 7.5 0 0 0 3.42-2.86l31.64-50.64a24.71 24.71 0 0 1 18.61-11.44l16.38-1.49a31.6 31.6 0 0 0 31.22 27 7.5 7.5 0 0 0 7.5-7.5v-22.67A40.43 40.43 0 0 1 202.5 181l24.15 24.15a7.49 7.49 0 0 0 9 1.21l20.65-11.8 8.44 10.44Zm48.19-39.4a4.41 4.41 0 0 1-1.71 3.24l-12.22 9.5-7.07-8.69 14.34-8.2a4.46 4.46 0 0 1 6.66 4.15Zm14.35 4.69a19.68 19.68 0 0 0 .62-3.76 19.44 19.44 0 0 0-2.8-11.29L330 196.6v17.84Zm119.86-77.81-14.91 17.62a20.89 20.89 0 0 1-5.52.76 20.56 20.56 0 1 1 20.56-20.56 20.1 20.1 0 0 1-.13 2.19Zm20.55-1 .82-1a7.48 7.48 0 0 0 1.78-4.85V19.78a4.78 4.78 0 0 1 9.56-.2l3.62 84.42a24.48 24.48 0 0 1-4.81 15.66Zm-127.15 383.7a8.52 8.52 0 0 1-7.48 4.42H308l9.4-19.74h9.19Zm16.67-30.32h-10.3l57.06-119.81c1.7-.21 3.36-.51 4.91-.79 2.85-.52 6.75-1.22 8.25-.67 1.08.39 2.86 2.34 4.46 4.22Zm144.25 29.39a4.68 4.68 0 0 1-9.23 1.58L466.77 478h10.31ZM474.92 463h-11.15l-23.23-116.17a3.09 3.09 0 0 1 .84-.25c1.6-.18 5.21 1.42 7.86 2.6a46.62 46.62 0 0 0 9.8 3.47Zm18.36-148.54c-5.06.23-10.81.5-15.55 3.56s-7.4 8.15-9.82 12.7c-1.28 2.39-3.65 6.84-4.9 7.3-1.21.31-5.42-1.55-7.67-2.55-4.68-2.08-10-4.44-15.63-3.8-5.45.61-10.06 4-14.13 7.05-2.14 1.59-6.13 4.55-7.43 4.38-.74-.09-2.07-1.34-3.4-2.77a7.32 7.32 0 0 0-1.78-2l-1-1.21c-3.25-3.89-6.92-8.31-12.07-10.19-5.33-1.95-11-.91-16.08 0-2.44.44-7 1.27-8.06.67s-2.37-5.63-3.05-8.26c-1.28-5-2.73-10.64-6.54-14.66a27.59 27.59 0 0 0-2.82-2.47l55.29-69.1L446.36 245a56.41 56.41 0 0 1 29.44 29l18 40.42Z"/>
    </symbol>
    <symbol id="item-1411">
      <title>belly dance</title>
<path fill="#7fb2ea" d="M287.47 455.5h-58.73l-7.31-33.86 30.63-80 27.24 42.55Z"/>
  <path fill="#aa846a" d="m205.93 148.87 6.64-22.19a34.94 34.94 0 0 0 1.43-26.11 102.75 102.75 0 0 1-5.47-33.07c0-33.14 29.78-57.38 47.06-57.93 3.58 0 7.4-1.75 10.81-1.14a60 60 0 0 1 49.5 59.07 102.75 102.75 0 0 1-5.47 33.07 34.94 34.94 0 0 0 1.46 26.11l-6 19.9Z"/>
  <path fill="#9c775f" d="M220.94 126.68a35 35 0 0 0 1.45-26.11 102.74 102.74 0 0 1-5.46-33.07 60 60 0 0 1 49.5-59.07 60 60 0 0 0-70.5 59.07 102.74 102.74 0 0 0 5.46 33.07 35 35 0 0 1-1.45 26.11l6 22.2 20.87-.48Z"/>
  <path fill="#fedbbd" d="m269 411.63 14.28 46.24c1.13 8.32-1.41 16.82-5.54 24.14a15.13 15.13 0 0 0-1.93 8.06c0 8 2 12.17 9.93 12.17l9.81 1.59c.84 0 2.44.59 3.24.46a14.46 14.46 0 0 0 12-14.22v-.86a14.08 14.08 0 0 0-1.82-6.94l-.1-.17a38.69 38.69 0 0 1-4.61-24.28Zm-61.44-90.58 4.78 24.46a39.41 39.41 0 0 1 .32 13.31l-1.17 8a88.54 88.54 0 0 0-.51 24.81l6.18 45.58a98.74 98.74 0 0 1-.07 27l-6.37 19.63c-1.5 10.64 11.13 18.12 11.13 18.12s7.36 1.36 10.24-.64a17.66 17.66 0 0 0 7.45-17l-2.83-20.09a98.28 98.28 0 0 1-.07-27l6.18-45.59a88.88 88.88 0 0 0-.14-24.81l-1.17-8Zm107.87-33.95a159.55 159.55 0 0 0-16.79-47.3c-7.5-13.76-9.36-19.9-5.18-35l2.16-7.79-3.69-16.21c3.2-7.66 11.36-7.31 14-9.75 5.45-5 17.61-12 25-9l62.68 24.81c7.63 3 24.26 4.45 31.73 1l53.82-24.66a13.49 13.49 0 0 0 6.68-17.82l-.14-.31a13.87 13.87 0 0 0-17.48-7.35c-19.47 7.23-56.26 20.82-63.22 23.39a3 3 0 0 1-2.26-.08l-81.08-36.57a49.91 49.91 0 0 0-20.49-4.46h-15.25a15 15 0 0 1-15-15V74.49h-30V105a15 15 0 0 1-15 15h-15.24a49.91 49.91 0 0 0-20.56 4.42L109.05 161a3 3 0 0 1-2.28.08l-62.63-23.15c-6.61-2.45-9.37 16.31-9.37 16.31a30.63 30.63 0 0 0 10.91 8.59c17 7.79 39.89 18.53 56.43 26.13 7.46 3.43 25.43 1.2 33.06-1.85L185 167.22a20 20 0 0 1 20.94 3.83c2.67 2.44 8.14-2 9.19 1.74l10.34 36.72c2.63 10 5.31 17-2.86 25.17a65.48 65.48 0 0 0-15.62 25Z"/>
  <path fill="#feca9c" d="M114.58 185.49 51 156.28a13.86 13.86 0 0 1-6.82-18.34l-1-.36a13.42 13.42 0 0 0-16.89 7.06l-.14.31A13.86 13.86 0 0 0 33 163.28l63.63 29.21a30 30 0 0 0 23.63.59l15-6a29.93 29.93 0 0 1-20.59-1.62ZM409.64 186.08l-64.75-25.86c-14.53-5.56-27.43-2.86-38.93 10.83a20.7 20.7 0 0 1 20.93-3.83l64.75 25.86a30 30 0 0 0 23.65-.59l10.13-4.63a30 30 0 0 1-15.78-1.78ZM269 411.63l6.27 46.24a38.56 38.56 0 0 1-4.51 24.13 15.13 15.13 0 0 0-1.93 8.06 14.43 14.43 0 0 0 14.43 14.43h13.1a15.18 15.18 0 0 0 2.45-.21 14.43 14.43 0 0 1-12-14.22 15.13 15.13 0 0 1 1.93-8.06 38.56 38.56 0 0 0 4.53-24.14ZM220.58 483.88l2.77-19.63a98.74 98.74 0 0 0 .07-27l-4.18-45.58a88.51 88.51 0 0 1-.43-20.12 62.55 62.55 0 0 1 1.35-8.16l2.25-10c.65-4.42-.68-10.41-1.54-14.8l-4.56-23.31c-1.91-9.73-3.85-21.4-3.89-31.32 0-3 .09-6.35.26-9.73a46.94 46.94 0 0 1 5.61-20.68c3.23-5.94 7.76-11.3 13.41-17 8.16-8.17 10.85-16.24 8.22-26.24l-7.45-26.93c-3.18-11.49-15.51-16.77-26.57-12.35a19.09 19.09 0 0 1 5.75 9.41l8.27 29.87c2.63 10-.06 13.07-8.22 21.24a65.12 65.12 0 0 0-19 42.64c-.17 3.38-.28 6.71-.26 9.73 0 9.92 2 21.59 3.89 31.32l5.92 30.25a39.66 39.66 0 0 1 .31 13.31l-1.17 8a89 89 0 0 0-.13 24.82l6.18 45.58a98.74 98.74 0 0 1-.07 27l-2.77 19.63c-1.5 10.63 6.53 20.51 17.27 20.62a17.56 17.56 0 0 0 10.26-3.14c-7.45-.4-12.52-10.46-11.53-17.48Z"/>
  <path fill="#fedbbd" d="M248.43 97.93c-7.61-1.39-8.84-4.2-16.37-21.31-4.53-10.3-.46-34.76 8.62-40a30.45 30.45 0 0 1 7.75-3.17c2.4-.6 4.91 3.87 7.5 3.87s5.1-4.47 7.5-3.87a30.46 30.46 0 0 1 22.93 29.51v4.44a40.35 40.35 0 0 1-4.26 18c-3.57 7.13-28.85 13.39-33.67 12.51Z"/>
  <path fill="#feca9c" d="M278.65 87.6a20 20 0 0 1-19.44 0 40.3 40.3 0 0 1-20.72-35.22v-4.44a30.29 30.29 0 0 1 2.19-11.34 30.4 30.4 0 0 0-15.19 26.34v4.44a40.3 40.3 0 0 0 20.72 35.22 20 20 0 0 0 19.44 0 40.29 40.29 0 0 0 16.45-17.18c-1.1.77-2.25 1.51-3.45 2.18Z"/>
  <path fill="#abd5ff" d="M205.9 263.27c-5.42 19.39 0 50.29 0 50.29A84.05 84.05 0 0 0 221.42 337l17.19 17.78c19.5 20.16 28.74 43 33.54 70.61 4.41 25.38 20.36 38.63 46.13 38.63 0 0 9-4.75 9-8.61v-94.63a239.85 239.85 0 0 0-10.44-70Z"/>
  <path fill="#95c5f9" d="M276.37 411.51a139.94 139.94 0 0 0-37.29-73.34l-17.19-17.78c-10.17-16.37-9.42-35.94-9.44-39.69 0-3 .06-3.11.23-6.49a52.26 52.26 0 0 1 1.21-9l-12.57-3.12-9.74-2.41c-8.28 26.9.1 51.23 3.52 58.64a68.1 68.1 0 0 0 13.78 21l13.52 14 3.67 3.8a139.94 139.94 0 0 1 37.29 73.34 53 53 0 0 0 52.21 43.93h4.65a7 7 0 0 0 7-7v-12a53 53 0 0 1-50.85-43.88Z"/>
  <path fill="#fee45a" d="m212.45 280.7 108.78 25.62a6 6 0 0 0 7.25-7.07l-2.74-13.17a15 15 0 0 0-11.49-11.6l-95.95-21c-4.59-1-8.1 3.35-10.07 7.61l-4.74 10.26c-1.86 4 4.65 8.3 9 9.31Z"/>
  <path fill="#ffd15b" d="M218.29 253.52 199 249.31a10 10 0 0 0-11.21 5.57L183 265.14a7 7 0 0 0 4.75 9.75l24.66 5.81c0-2.1.12-4.28.23-6.49a47 47 0 0 1 5.61-20.69Z"/>
  <path fill="#b6e9ff" d="M205.9 171.05V171a38.32 38.32 0 0 1 29.61-14h40.77a38.34 38.34 0 0 1 29.62 14v.05a19.81 19.81 0 0 0-5.76 9.41L295.56 197h-59.33l-6.13-12c-.4-1.48-8.08-9.23-14.51-12.09-6-1-8.73-.94-9.69-1.82Z"/>
  <path fill="#abd5ff" d="M205.9 171.05a19.1 19.1 0 0 1 5.49 8.54c.1.31.19.6.26.87l.74 2.64 3.84 13.9h20l-3.76-13.6c-3.18-11.49-15.51-16.77-26.57-12.35Z"/>
  <path d="m492.75 142.29-.14-.32a21.47 21.47 0 0 0-26.93-11.29c-18.19 6.75-51.52 19.07-61.47 22.75l-79.4-35.82a58.47 58.47 0 0 0-8.57-3.08 27.3 27.3 0 0 1 1.32-11.53 110.1 110.1 0 0 0 5.86-35.49 67.22 67.22 0 0 0-2.43-18 7.5 7.5 0 1 0-14.45 4 52.68 52.68 0 0 1 1.88 14 95.13 95.13 0 0 1-5.06 30.66 42.26 42.26 0 0 0-2.24 14.37h-15.2a7.51 7.51 0 0 1-7.5-7.5v-5.12a45.18 45.18 0 0 0 15.44-34 37.94 37.94 0 1 0-75.87 0 45.18 45.18 0 0 0 15.44 34V105a7.52 7.52 0 0 1-7.5 7.5h-15.2a42.51 42.51 0 0 0-2.24-14.37 95.14 95.14 0 0 1-5.07-30.66A52.51 52.51 0 0 1 290 27.55a7.5 7.5 0 0 0 9.74-11.41A67.51 67.51 0 0 0 188.42 67.5a110.2 110.2 0 0 0 5.87 35.5 27.46 27.46 0 0 1 1.32 11.54 56.94 56.94 0 0 0-8.57 3.08l-22.7 10.24a7.5 7.5 0 1 0 6.17 13.67l22.7-10.24a42.21 42.21 0 0 1 17.47-3.75h15.25a22.55 22.55 0 0 0 22.23-19 27 27 0 0 0 15.53 0 22.54 22.54 0 0 0 22.23 19h15.25a42.25 42.25 0 0 1 17.47 3.75l82.2 37.08a7.5 7.5 0 0 0 5.68.2s42.82-15.82 64.38-23.82a6.33 6.33 0 0 1 8 3.4l.14.31a6 6 0 0 1-3 7.92l-63.94 29.3a22.66 22.66 0 0 1-17.75.45l-64.75-25.86c-6-2.5-15.64-2.64-22.68 1a45.62 45.62 0 0 0-30.68-11.8h-40.7a45.62 45.62 0 0 0-30.68 11.8c-5.76-3.09-15.27-4-22.68-1l-64.75 25.86a22.61 22.61 0 0 1-17.73-.45l-63.62-29.22A6.38 6.38 0 0 1 33 148l.14-.31a5.94 5.94 0 0 1 7.45-3.12l64.76 24a7.53 7.53 0 0 0 5.69-.2L138.46 156a7.5 7.5 0 1 0-6.17-13.67l-24.65 11.11-61.88-22.91a21 21 0 0 0-26.32 11l-.14.31a21.41 21.41 0 0 0 10.52 28.24l63.62 29.22a37.64 37.64 0 0 0 29.55.75l64.75-25.86a12.5 12.5 0 0 1 16.68 8.27l8.24 29.77c1.57 6 1.4 6.36-6.27 14a73 73 0 0 0-11.76 15.43 17.37 17.37 0 0 0-13.66 10L176.23 262a14.43 14.43 0 0 0 4.63 17.79 97.78 97.78 0 0 0 7.31 41.45c.86 2.08 1.82 4.1 2.85 6.08l3.84 19.68a31.68 31.68 0 0 1 .26 10.77l-1.17 8a96.33 96.33 0 0 0-.15 26.92l6.2 45.53a90.87 90.87 0 0 1-.06 25l-2.77 19.63a25.79 25.79 0 0 0 6 20.45 24.69 24.69 0 0 0 18.63 8.7 26.3 26.3 0 0 0 19.2-8.59 25.14 25.14 0 0 0 6-20.12l-2.83-20.09v-.21h24a31.12 31.12 0 0 1-3.89 15.33 22.44 22.44 0 0 0-2.9 11.91A22 22 0 0 0 283.26 512h13.1a22 22 0 0 0 22-21.92v-.86a21.54 21.54 0 0 0-1.26-7.29h3.16a14.51 14.51 0 0 0 14.5-14.5V437a7.5 7.5 0 0 0-15 0v29.94h-4.14a45.4 45.4 0 0 1-44.82-37.71A147 147 0 0 0 231.47 352l-17.18-17.78A59.47 59.47 0 0 1 202 315.49a83 83 0 0 1-6.26-31l118.86 28a232.7 232.7 0 0 1 5.09 48.3v41a7.5 7.5 0 0 0 15 0v-41a247.87 247.87 0 0 0-4.88-48.9 14.34 14.34 0 0 0 2.18-1.72 13.46 13.46 0 0 0 3.8-12.42l-2.74-13.18a22.55 22.55 0 0 0-14.61-16.65 166.61 166.61 0 0 0-13.24-31.69c-6.82-12.5-8.05-16.71-4.54-29.42l6.74-24.33a12.5 12.5 0 0 1 16.68-8.27l64.74 25.86a37.73 37.73 0 0 0 29.57-.74L482.35 170a21.06 21.06 0 0 0 10.4-27.73ZM262 93a12.4 12.4 0 0 1-12.15 0l-1.36-.75A30.17 30.17 0 0 1 233 65.94a23 23 0 0 1 15.44-21.67v6.65a7.5 7.5 0 1 0 15 0v-6.65a23 23 0 0 1 15.43 21.67 30.18 30.18 0 0 1-15.5 26.35Zm14.31 71.46a30.72 30.72 0 0 1 19.69 7.12 27.56 27.56 0 0 0-3 6.88l-3.06 11h-68l-3.06-11a27.79 27.79 0 0 0-3-6.89 30.76 30.76 0 0 1 19.64-7.07Zm23.27 315.3a39.8 39.8 0 0 0 2.9 6.15 6.35 6.35 0 0 1 .84 3.24v.86a7 7 0 0 1-7 6.95h-13.1a6.94 6.94 0 0 1-6.94-6.93v-.32a7.58 7.58 0 0 1 1-4.06 45.06 45.06 0 0 0 5-13.71 60 60 0 0 0 17.29 7.82ZM261.21 448H243.3a91.63 91.63 0 0 1 .79-9.78l4.44-32.76A133.2 133.2 0 0 1 256 431.8a60.74 60.74 0 0 0 5.21 16.2Zm-40.52-85.62a132.68 132.68 0 0 1 15.42 19.22 79.83 79.83 0 0 1-.71 9l-6.18 45.59a106.15 106.15 0 0 0 .08 29.09l2.83 20.08A10.19 10.19 0 0 1 221.94 497a9.81 9.81 0 0 1-7.42-3.5 10.88 10.88 0 0 1-2.52-8.58l2.77-19.62a106.15 106.15 0 0 0 .08-29.09l-6.18-45.59a80.81 80.81 0 0 1 .12-22.72l1.17-8a47 47 0 0 0 .48-8.12ZM301.36 264l-25.52-5.58a7.5 7.5 0 1 0-3.2 14.66l40 8.74a7.49 7.49 0 0 1 5.74 5.8l2.26 10.87-130.54-30.76 4.48-9.7a2.51 2.51 0 0 1 2.81-1.39l41.25 9a7.5 7.5 0 1 0 3.2-14.65l-31.05-6.78a58.53 58.53 0 0 1 6.21-7.34c8.92-8.93 13.8-14.66 10.15-28.55l-1.06-3.82h59.69c-4.33 16.79-1.34 24.92 6.27 38.89a151.89 151.89 0 0 1 9.31 20.6Z"/>
    </symbol>
    <symbol id="item-1412">
      <title>breakdance</title>
<path fill="#ffd9c3" d="M431.07 159.59 447.86 133l9.14-10.84a2 2 0 0 0 .34-2l-29.09-77.4a3 3 0 0 0-2-1.84l-15.36-4.14A20.32 20.32 0 0 1 396 14.94a8.36 8.36 0 0 1 9.49-7.35l26.09 3.77a26.4 26.4 0 0 1 20.56 15.87l37.69 89.33a13.63 13.63 0 0 1-.39 12.4l-11.73 21.2a146.09 146.09 0 0 1-15.26 22.39s-16.75 5.51-25.44 12.18ZM298.09 126.36c-8.52-4.74-11.13-17.87-24.22-18.49a339.57 339.57 0 0 1-17.16-17.64l-42.25-46.75a2 2 0 0 0-.82-.55l-11.58-4a21.67 21.67 0 0 1-14.17-24.32 8.6 8.6 0 0 1 10.29-6.91l21.7 4.7c9.66 2.09 16.39 7.56 20.4 16.59l39.61 40.71a166.31 166.31 0 0 0 14.27 11.11c2.78 10.93 13.86 8.88 21.26 12.52l7.58 3.73Z"/>
  <path fill="#999" d="m462.81 346.74-5.14-5.3c-20.46-21.05-47.57-39.65-72.33-55.43l-19.61-12.8-67.14 2.34-.15 34a228.76 228.76 0 0 0 18.49 91.36 13.5 13.5 0 0 0 12.42 8.19h38.75l16.72-5.25 5.72 5.25L372 426.85l6.91 17.95 14 4.81 65-56.47a36.82 36.82 0 0 0 12.34-27v-3.28a26.75 26.75 0 0 0-7.44-16.11Zm-109.08 23.63a4.92 4.92 0 0 1-4.75-3.63l-.61-2.2a39.36 39.36 0 0 1-.8-17.37c.47-5.08 2.43-11.38 8.17-14.24a13.09 13.09 0 0 1 11.76.37c16.47 9 63.61 37.07 63.61 37.07l-14.39 4.77-8.05-4.77Z"/>
  <path fill="gray" d="M477.19 362.85v3.28a36.82 36.82 0 0 1-12.34 27l-68.12 60.6-11.25-2.38-.89-10.84 53.26-47.38a36.82 36.82 0 0 0 12.34-27v-3.28a26.75 26.75 0 0 0-7.44-16.11l-5.14-5.3A378.86 378.86 0 0 0 369.55 286l-18.43-12 25.82-.77L396.55 286a378.86 378.86 0 0 1 68.06 55.43l5.14 5.3a26.75 26.75 0 0 1 7.44 16.11Z"/>
  <path fill="gray" d="m368.1 409.12 40.57-38.75h22.44l-40.57 38.75Z"/>
  <path fill="#f4f4f4" d="m389.19 502.76-42.28-45.95a5 5 0 0 1 .29-7.07l24.8-22.83 22.65 24.62a36.36 36.36 0 0 1-2.13 51.37 2.38 2.38 0 0 1-3.33-.14Z"/>
  <path fill="#ffc3aa" d="m323 97.06-24.93 29.29c-8.52-4.74-16.65-11.33-24.22-18.48l10.05-12.29 10.24-14.77a164.16 164.16 0 0 0 21.27 12.51ZM462.42 172.55a145.57 145.57 0 0 1-23.56 22.72l-8.95-41 18-21.27a21.81 21.81 0 0 1 1.1 2.52Z"/>
  <path fill="#91d183" d="m308.38 148.76-23.07-20.23a2 2 0 0 1-.23-2.77l14.82-18.14L316 84.46a2 2 0 0 1 2.58-.63l7.81 4.17a105.67 105.67 0 0 1 24.52 17.83l11.88 11.59 23 31.75 15.68.63 26.21-8.61a2 2 0 0 1 2.5 1.22l12.46 34.25 3.62 16.23a2 2 0 0 1-1 2.5L401.44 216a13.06 13.06 0 0 0-7.44 11.49l.1 40.23a4 4 0 0 1-3.12 3.81l-15.4 6-4.49 1a140.56 140.56 0 0 1-56.17 1.24l-21.27-3.85a4 4 0 0 1-3.28-4.18l1.29-21.52a271.2 271.2 0 0 1 15-74.1l5.11-14.48a11.83 11.83 0 0 0-3.36-12.85Z"/>
  <path fill="#5dc462" d="M448.23 197.34 404.45 218a13.05 13.05 0 0 0-7.45 11.49l-.9 40.23a4 4 0 0 1-3.11 3.81l-17.41 4 1.42-63.8a10 10 0 0 1 5.73-8.82l59.94-28.24 6.63 18.23a2 2 0 0 1-1 2.49Z"/>
  <path fill="#ffd9c3" d="M361.6 153.26a20.31 20.31 0 0 0 16.15 7.63 34.07 34.07 0 0 0 30.31-19.51l6.66-14.1a28 28 0 1 0-50.64-23.92l-6.66 14.1a34.07 34.07 0 0 0 4.18 35.8Z"/>
  <path fill="#e07a69" d="m204.88 387.75 9.25 3.71c10 2 14.67 8.06 24.08 12.58 6 5.67 11.59 11.76 17.07 17.74l45.27 50.46a3 3 0 0 0 1.53.91l16.33 3.92A18 18 0 0 1 332 495.73a9.38 9.38 0 0 1-9.36 8.77h-34.51a13.49 13.49 0 0 1-13.2-10.74 24.58 24.58 0 0 0-5.93-11.63l-33-36a130.36 130.36 0 0 0-10.67-9.38q-3.66-2.87-7.48-5.52c-5.41-9-12.34-11.8-19.74-15.44L189 415Z"/>
  <path fill="#f4f4f4" d="m209.41 230.69.15-28.26v-1.24c0-31-3.86-58.38-16.07-86.86a13.52 13.52 0 0 0-12.42-8.19l-18.73-3.26h-17.69l-14.06 3-9.13-3L140 85.15l-8.45-18.22-16.26-8.67-68.12 60.6a36.82 36.82 0 0 0-12.34 27v3.28a26.75 26.75 0 0 0 7.44 16.11l5.14 5.3A378.86 378.86 0 0 0 115.45 226l19 11.91 75.42.89q-.18-4-.5-8.1Zm-45-65.86-.77 4.33a13.41 13.41 0 0 1-7.4 9.91 13.09 13.09 0 0 1-11.76-.37c-16.47-9-63.61-37.07-63.61-37.07l12.85-3.58 10.34 3.58h54.19a4.92 4.92 0 0 1 4.75 3.63l.61 2.2a39.36 39.36 0 0 1 .8 17.37Z"/>
  <path fill="#e5eaea" d="m213.91 238.79-22-.25c-.12-2.62-.29-5.23-.49-7.85l.15-28.26v-1.24a228.69 228.69 0 0 0-18.49-90.12 13.52 13.52 0 0 0-12.42-8.19h22a13.52 13.52 0 0 1 12.42 8.19 228.69 228.69 0 0 1 18.49 90.12v1.24l-.15 28.26q.31 4.05.49 8.1ZM104.08 141.63l40.57-38.75h-23.19l-40.57 38.75Z"/>
  <path fill="#e07a69" d="M73.14 316.73c-7.58 8.18-11.63 18.13-23.57 22.73a145.78 145.78 0 0 0-15.25 22.39l-11.73 21.2a13.61 13.61 0 0 0-.39 12.39l37 91.56a28.1 28.1 0 0 0 26 17.55h22.51a9.09 9.09 0 0 0 9.1-9.1 19.92 19.92 0 0 0-17.06-19.71L87.91 474a3 3 0 0 1-2.37-1.9l-30.67-79.7a3 3 0 0 1 .5-3L64 379.16l7-12.82 12.75-10.6Z"/>
  <path fill="#d16752" d="M83.76 355.74 64 379.16l-14.43-39.7a146.11 146.11 0 0 1 23.57-22.73ZM238.21 404l-10.13 12.39-10.24 14.78a164.3 164.3 0 0 0-21.27-12.53l-7.57-3.7 17.6-29.85 8.92 1.65A113.24 113.24 0 0 1 238.21 404Z"/>
  <path fill="#ffcd5f" d="m197.55 363 23.9 20a3 3 0 0 1 .35 4.16l-7.6 14.64-2.1 2.57-15.55 22.44a3 3 0 0 1-3.86.94l-7.08-3.75a105.46 105.46 0 0 1-24.52-17.83l-11.89-11.54-22.91-29-15.75-3.37-25.29 8.32a3 3 0 0 1-3.75-1.83L63.05 318a3 3 0 0 1 1.55-3.74l43-20.24a13.05 13.05 0 0 0 7.4-11.51l.92-41a3 3 0 0 1 2.33-2.86L141 233.5a140.74 140.74 0 0 1 56.17-1.23l5.73 1 11.06 5.49a3 3 0 0 1 2.46 3.14L215 264.33c-1.52 25.28-7.29 47.44-15.72 71.32l-5.11 14.48a11.82 11.82 0 0 0 3.38 12.87Z"/>
  <path fill="#feba48" d="m226.31 387-12.11 14.81-32.6-28.58a11.79 11.79 0 0 1-3.35-12.81l5.12-14.51c13.46-35.13 14.86-76.35 19.48-112.61l16.41 3a3 3 0 0 1 2.46 3.13l-1.35 22.41a270.81 270.81 0 0 1-15 74.1l-5.11 14.48a11.84 11.84 0 0 0 3.36 12.86L226 382.84a3 3 0 0 1 .34 4.15Z"/>
  <path fill="#e07a69" d="M150.4 358.74a20.31 20.31 0 0 0-16.15-7.62 34 34 0 0 0-30.31 19.5l-6.66 14.11a28 28 0 0 0 50.64 23.91l6.66-14.1a34.07 34.07 0 0 0-4.18-35.8Z"/>
  <path fill="#999" d="m122.8 9.25 42.29 46a5 5 0 0 1-.29 7.06L140 85.1l-22.67-24.62a36.35 36.35 0 0 1 2.13-51.37 2.35 2.35 0 0 1 3.34.14Z"/>
  <path d="m484.25 153.78 11.75-21.2a21.16 21.16 0 0 0 .69-19.06L459 24.32a34.06 34.06 0 0 0-26.4-20.38L406.53.17a15.84 15.84 0 0 0-18 13.94A27.66 27.66 0 0 0 408.93 44l13.13 3.54 27.15 72.23L435.5 136a7.53 7.53 0 0 0-8.33-2.61l-8.36 2.75 2.69-5.69a35.5 35.5 0 0 0-44.08-48.55 36.64 36.64 0 0 0-20.57 19.21 117.93 117.93 0 0 0-27-19.78l-9.43-5a7.49 7.49 0 0 0-9.65 2.36L309 81.35a157.6 157.6 0 0 1-23.93-17.11l-38.5-39.57c-5.1-10.51-13.57-17.1-25.1-19.6L199.76.37a16.09 16.09 0 0 0-19.24 12.86A29 29 0 0 0 199.59 46l10.25 3.58 26.32 29.12a7.5 7.5 0 0 0 11.13-10.06l-27.61-30.57a7.43 7.43 0 0 0-3.09-2l-12.06-4.21a14.1 14.1 0 0 1-9.26-15.9 1.09 1.09 0 0 1 .48-.72 1.06 1.06 0 0 1 .84-.16l21.71 4.7A20.05 20.05 0 0 1 233.43 32a7.56 7.56 0 0 0 1.48 2.19l39.61 40.7a176.17 176.17 0 0 0 25.9 18.79l-6.51 9.4-5.91 7.25a197.23 197.23 0 0 1-17.24-16.1A7.5 7.5 0 0 0 260 104.66a211.49 211.49 0 0 0 18.54 17.28 8 8 0 0 0 .4 10.95l24.53 21.5a4.33 4.33 0 0 1 1.23 4.72l-5.11 14.49a278.67 278.67 0 0 0-15.42 76.14l-1.51 25.07a7.52 7.52 0 0 0 6.15 7.83l2.3.41-.14 26.48A234.91 234.91 0 0 0 310 403.89a21 21 0 0 0 19.31 12.73h42.48c-3.33 3.42-25.94 24.14-29.71 27.6a12.51 12.51 0 0 0-.73 17.66l43.89 47.7a7.51 7.51 0 0 0 5.21 2.41h.31a7.53 7.53 0 0 0 5.08-2l1.74-1.61a43.88 43.88 0 0 0 8.8-53.29l24.09-21.44a7.5 7.5 0 1 0-10-11.2l-23.31 20.74-14.76-16c.62-.6 53.55-51.11 54.11-51.69a7.44 7.44 0 0 0 2-4.87 8 8 0 0 0-3.77-6.75c-3.2-1.91-47.59-28.34-63.75-37.14a20.68 20.68 0 0 0-18.49-.6 20.89 20.89 0 0 0-11.5 15.38l-.77 4.34a51.34 51.34 0 0 0 1.56 22.87 12.47 12.47 0 0 0 12 9.14h58.61l-24.87 23.75h-58.18a6 6 0 0 1-5.53-3.64 220 220 0 0 1-17.89-88.37l.13-23.84 7.48 1.35a147.69 147.69 0 0 0 59.17-1.3l7.26-1.65 12.54 8.17a371.31 371.31 0 0 1 66.71 54.33l5.15 5.29a19.4 19.4 0 0 1 5.31 11.23v2.84a29.36 29.36 0 0 1-9.82 21.5l-13.09 11.65a7.5 7.5 0 1 0 10 11.2l13.09-11.64a44.43 44.43 0 0 0 14.85-32.5v-4.11c0-6.56-4.12-15.07-9.52-20.62l-5.19-5.29a390.75 390.75 0 0 0-70.09-57 7.49 7.49 0 0 0 3.6-6.23l1-43.35a5.52 5.52 0 0 1 3.19-4.9l45.44-21.41a7.5 7.5 0 0 0 3.85-9.34l-1.22-3.34a153 153 0 0 0 28.54-36.89ZM355.69 362.87a35.18 35.18 0 0 1-.74-14.39l.77-4.33a6 6 0 0 1 3.16-4.41 5.57 5.57 0 0 1 5 .15c8.52 4.64 25.55 14.58 39.81 23Zm41.06 114.47a28.66 28.66 0 0 1-5.82 16.23l-36.81-40 17.46-16.07 17.57 19.1a28.69 28.69 0 0 1 7.6 20.74ZM382.48 96a20.51 20.51 0 0 1 25.46 28.06l-6.66 14.1a26.76 26.76 0 0 1-23.64 15.21 13 13 0 0 1-10.18-4.81 26.72 26.72 0 0 1-3.26-27.92l6.66-14.1A20.39 20.39 0 0 1 382.48 96Zm18.77 115.17a20.42 20.42 0 0 0-11.79 18.13l-.84 37.5-19.23 4.37a132.44 132.44 0 0 1-53.17 1.17L298 269.06l1.11-18.42a264 264 0 0 1 14.59-72l5.11-14.48a19.25 19.25 0 0 0-5.49-21l-19.08-16.73c.28-.37 11.25-13.68 11.82-14.5l13.28-19.16 3.55 1.87a98 98 0 0 1 22.78 16.56l4.44 4.33a41.8 41.8 0 0 0 5.63 42.45 28 28 0 0 0 21.73 10.45c10.13.13 22.08-4.93 29.48-12.54l18-5.91 15.55 42.76Zm40.4-59.17 21.85-25.9a7.48 7.48 0 0 0 1.29-7.48l-30-79.94a7.51 7.51 0 0 0-5.07-4.6l-16.85-4.54a12.75 12.75 0 0 1-9.4-13.78.8.8 0 0 1 .32-.58.86.86 0 0 1 .64-.17l26.09 3.77a19 19 0 0 1 14.68 11.37c.15.32 37.63 89.22 37.82 89.62a6.1 6.1 0 0 1-.18 5.56l-11.72 21.2a138.65 138.65 0 0 1-21.05 28.61Z"/>
  <path d="m320.16 469.78-15-3.59-44.38-49.48c-8-8.76-17-18.5-27.26-26.73a8 8 0 0 0-.46-10.87l-24.53-21.5a4.33 4.33 0 0 1-1.23-4.72l5.11-14.48c2.16-6.1 4.13-12.36 5.85-18.6a7.5 7.5 0 0 0-14.46-4 262.02 262.02 0 0 1-5.53 17.6l-5.11 14.48a19.24 19.24 0 0 0 5.49 21l19.07 16.72c-7 7.81-19.4 25-25.09 33.66l-3.55-1.87a97.7 97.7 0 0 1-22.78-16.56l-4.44-4.32a41.84 41.84 0 0 0-5.63-42.46 28 28 0 0 0-22.12-10.44 41.81 41.81 0 0 0-29.09 12.54l-18 5.9-15.51-42.76 39.24-18.48a20.44 20.44 0 0 0 11.79-18.14l.84-37.5 19.23-4.36a132.26 132.26 0 0 1 53.17-1.17l18.22 3.29-1.11 18.42a269.16 269.16 0 0 1-2.16 21.4 7.5 7.5 0 1 0 14.85 2.11 280.5 280.5 0 0 0 2.28-22.61l1.51-25.06a7.5 7.5 0 0 0-6.15-7.83l-2.3-.42.14-26.47A234.68 234.68 0 0 0 202 108.12a21 21 0 0 0-19.31-12.74h-42.52c3.27-3.36 26-24.19 29.71-27.6a12.51 12.51 0 0 0 .73-17.66L126.72 2.43a7.49 7.49 0 0 0-10.6-.43l-1.74 1.6a43.91 43.91 0 0 0-8.81 53.3l-63.36 56.37a44.36 44.36 0 0 0-14.85 32.5c-.72 8.11 3.28 18.25 9.51 24.73l5.13 5.29c4.68 4.81 9.55 9.57 14.47 14.13a7.5 7.5 0 0 0 10.2-11c-4.67-4.39-9.4-8.92-13.9-13.59-5.05-4.94-11.05-10.67-10.42-19.36a29.39 29.39 0 0 1 9.83-21.5l62.59-55.69 14.75 16-53.81 51.4a7.51 7.51 0 0 0 1.34 11.87c1.93 1.15 47.46 28.27 63.86 37.21a20.67 20.67 0 0 0 18.49.59 20.87 20.87 0 0 0 11.65-15.4l.77-4.33a47.36 47.36 0 0 0-1-20.68l-.6-2.2a12.46 12.46 0 0 0-12-9.13H99.6l24.87-23.76h58.18a6 6 0 0 1 5.53 3.65 220 220 0 0 1 17.88 88.37l-.12 23.84-7.49-1.35a147.37 147.37 0 0 0-59.16 1.3l-7.29 1.68-12.54-8.17c-9.09-5.79-18-12-26.57-18.61A7.5 7.5 0 1 0 83.78 213c8.12 6.26 28.33 19.8 28.33 19.8a7.52 7.52 0 0 0-3.6 6.24l-1 43.35a5.53 5.53 0 0 1-3.19 4.9l-45.44 21.4a7.51 7.51 0 0 0-3.81 9.31l1.22 3.34a153 153 0 0 0-28.54 36.88L16 379.42a21.15 21.15 0 0 0-.71 19l36.93 91.33a35.45 35.45 0 0 0 33 22.24h22.52a16.61 16.61 0 0 0 16.59-16.6 27.55 27.55 0 0 0-23.49-27.13l-9.27-1.34-28.75-74.73L76.51 376a7.51 7.51 0 0 0 6 3 7.69 7.69 0 0 0 2.34-.38l8.35-2.74-2.68 5.68a35.54 35.54 0 0 0 32.08 50.69 35.65 35.65 0 0 0 12-2.1 36.77 36.77 0 0 0 20.57-19.21 117.93 117.93 0 0 0 27 19.78l9.42 5a7.51 7.51 0 0 0 9.66-2.37l1.82-2.62a158.26 158.26 0 0 1 17.69 12 120.78 120.78 0 0 1 9.91 8.7l32.83 35.87a17.18 17.18 0 0 1 4.14 8.08c2.46 9 12.29 16.81 22.6 16.72h32.45a16.91 16.91 0 0 0 16.84-15.78 25.54 25.54 0 0 0-19.32-26.44ZM156.31 149.14a35.47 35.47 0 0 1 .74 14.38l-.77 4.33a6 6 0 0 1-3.16 4.41 5.57 5.57 0 0 1-5-.15c-8.52-4.64-25.55-14.58-39.81-23ZM115.25 34.66a28.63 28.63 0 0 1 5.82-16.22l36.81 40-17.46 16.06-17.57-19.1a28.67 28.67 0 0 1-7.6-20.74Zm-68 358.78 31.94 83a7.5 7.5 0 0 0 5.92 4.73l13.62 2a12.46 12.46 0 0 1 10.64 12.28 1.6 1.6 0 0 1-1.6 1.6H85.24a20.49 20.49 0 0 1-19.08-12.87c-.38-.9-36.84-91.14-37.18-91.89a6.1 6.1 0 0 1 .18-5.56l11.72-21.2a138 138 0 0 1 21.06-28.61L70.35 360l-21.86 25.9a7.49 7.49 0 0 0-1.26 7.53ZM129.52 416a20.51 20.51 0 0 1-25.46-28.06l6.66-14.1a26.71 26.71 0 0 1 23.64-15.21h.17a12.9 12.9 0 0 1 10 4.81 26.75 26.75 0 0 1 3.26 27.92l-6.66 14.1A20.36 20.36 0 0 1 129.52 416Zm195 79.26a1.89 1.89 0 0 1-1.88 1.75h-32.45a8.73 8.73 0 0 1-8.05-5.39 32.11 32.11 0 0 0-7.62-14.54c-.25-.25-32.87-35.94-33.29-36.34a134.73 134.73 0 0 0-11.23-9.93 172.76 172.76 0 0 0-18.36-12.53l6.5-9.38 6-7.3c9.45 7.55 18 16.87 25.64 25.19l45.89 51.15a7.46 7.46 0 0 0 3.83 2.29l17.16 4.12a10.53 10.53 0 0 1 7.94 10.9Z"/>
    </symbol>
    <symbol id="item-1413">
      <title>dance dance revolution mat</title>
<path fill="#f9f7f8" fill-rule="evenodd" d="M297.37 102.7V69.9a7 7 0 0 0-7-7h-68.72a7 7 0 0 0-7 7v32.81h82.76Z"/>
  <path fill="#e5e1e5" fill-rule="evenodd" d="M269.49 69.9v22.86h27.88V69.9a7 7 0 0 0-7-7h-27.92a7.06 7.06 0 0 1 7.04 7Z"/>
  <path fill="#f9f7f8" fill-rule="evenodd" d="M314.68 122.56H197.29L79.93 240v117.32l117.36 117.36h117.39L432 357.32V240Z"/>
  <path fill="#6fd7a3" fill-rule="evenodd" d="M197.29 357.32H79.93v105.25a12.15 12.15 0 0 0 12.14 12.11h105.22Zm-79.8 40.37a27.88 27.88 0 1 1 0 39.45 27.92 27.92 0 0 1 0-39.45Z"/>
  <path fill="#ffc243" fill-rule="evenodd" d="M156.91 437.14a27.88 27.88 0 1 0-39.42 0 27.88 27.88 0 0 0 39.42 0Z"/>
  <path fill="#ec5469" fill-rule="evenodd" d="M79.93 240h117.36V122.56H92.07a12.17 12.17 0 0 0-12.14 12.13Z"/>
  <path fill="#547884" fill-rule="evenodd" d="M314.68 122.56h105.26A12.16 12.16 0 0 1 432 134.69v327.88a12.14 12.14 0 0 1-12.1 12.11H92.07a12.15 12.15 0 0 1-12.14-12.11V134.69a12.17 12.17 0 0 1 12.14-12.13h222.61Zm-17.31-29.8H92.07a42.06 42.06 0 0 0-41.93 41.93v327.88a42.09 42.09 0 0 0 25.68 38.63h360.36a42.12 42.12 0 0 0 25.68-38.63V134.69a42 42 0 0 0-41.92-41.93Z"/>
  <path fill="#e5e1e5" fill-rule="evenodd" d="M314.68 122.56H256c30.1 98 18.47 255.17 0 352.12h58.68l43.82-43.82 29.73-29.73L432 357.31V240l-32.48-32.6-35.73-35.73Z"/>
  <path fill="#ec5469" fill-rule="evenodd" d="M314.68 357.32v117.36h105.26A12.14 12.14 0 0 0 432 462.57V357.32Z"/>
  <path fill="#f9f7f8" fill-rule="evenodd" d="m374.77 387.7-29.71 29.73 29.71 29.71 29.74-29.71Z"/>
  <path fill="#6fd7a3" fill-rule="evenodd" d="M314.68 122.56V240H432V134.69a12.16 12.16 0 0 0-12.1-12.13Z"/>
  <path fill="#ffc243" fill-rule="evenodd" d="m358.27 181.24-15.12 26.16h60.43l-15.12-26.16-15.1-26.16Z"/>
  <path fill="#ec5469" fill-rule="evenodd" d="M288.58 331.21a46.09 46.09 0 1 0-65.19 0 46.11 46.11 0 0 0 65.19 0Z"/>
  <path fill="#e5374e" fill-rule="evenodd" d="M274.44 282.27a46.25 46.25 0 0 1-.76 33.43 46.32 46.32 0 0 1-31.25 27 46.11 46.11 0 1 0 2.22-88.7 46.16 46.16 0 0 1 29.79 28.32Z"/>
  <path fill="#3d595a" fill-rule="evenodd" d="M419.94 92.76H281.88q6.63 14.24 12.28 29.8h125.78A12.16 12.16 0 0 1 432 134.69v327.88a12.14 12.14 0 0 1-12.1 12.11H280.58a298.41 298.41 0 0 1-14.24 26.53h169.84a42.15 42.15 0 0 0 25.68-38.64V134.69a42 42 0 0 0-41.92-41.93Z"/>
  <path d="M110.92 209.91a7.5 7.5 0 0 0 10.61 0l17.57-17.57 17.58 17.57a7.5 7.5 0 1 0 10.6-10.6l-17.57-17.58 17.57-17.57a7.5 7.5 0 0 0-10.6-10.61l-17.58 17.58-17.57-17.58a7.5 7.5 0 0 0-10.61 10.61l17.58 17.57-17.58 17.58a7.49 7.49 0 0 0 0 10.6ZM162.22 392.39a35.39 35.39 0 0 0-50 50.06 35.09 35.09 0 0 0 25 10.38 35.4 35.4 0 0 0 25-60.43Zm-10.61 39.45a20.22 20.22 0 0 1-14.42 6 20.4 20.4 0 1 1 14.43-6ZM380.07 382.39a7.5 7.5 0 0 0-5.3-2.19 7.51 7.51 0 0 0-5.31 2.2l-29.7 29.73a7.5 7.5 0 0 0 0 10.61l29.71 29.7a7.5 7.5 0 0 0 10.6 0l29.74-29.71a7.5 7.5 0 0 0 0-10.61Zm-5.3 54.15-19.1-19.11 19.1-19.12 19.13 19.12ZM336.65 211.15a7.51 7.51 0 0 0 6.5 3.75h60.43a7.51 7.51 0 0 0 6.49-11.26l-30.21-52.31a7.5 7.5 0 0 0-13 0l-30.21 52.31a7.52 7.52 0 0 0 0 7.51Zm36.71-41.06 17.22 29.81h-34.43ZM233.92 181.44a7.49 7.49 0 0 0 10.51-1.44l4.07-5.35v35.48a7.5 7.5 0 0 0 15 0v-35.46l4 5.33a7.5 7.5 0 0 0 11.95-9.07L262 147.84a7.58 7.58 0 0 0-12 0l-17.54 23.09a7.5 7.5 0 0 0 1.43 10.51ZM278 415.79a7.49 7.49 0 0 0-10.5 1.45l-4 5.33v-35.46a7.5 7.5 0 0 0-15 0v35.49l-4.07-5.36a7.5 7.5 0 0 0-12 9.06L250 449.42a7.57 7.57 0 0 0 12 0l17.51-23.12a7.49 7.49 0 0 0-1.51-10.51ZM344.47 306.13h35.46l-5.32 4a7.5 7.5 0 1 0 9.05 11.95l23.12-17.51a7.58 7.58 0 0 0 0-11.95l-23.12-17.55a7.5 7.5 0 1 0-9.07 11.95l5.36 4.07h-35.48a7.5 7.5 0 0 0 0 15ZM167.5 291.13H132l5.36-4.07a7.5 7.5 0 0 0-9.07-11.95l-23.11 17.55a7.58 7.58 0 0 0 0 11.95l23.12 17.52a7.5 7.5 0 1 0 9.06-12l-5.33-4h35.47a7.5 7.5 0 0 0 0-15ZM218.09 336.51a53.6 53.6 0 0 0 75.8-75.79 53.59 53.59 0 0 0-75.79 75.79Zm10.61-65.18a38.61 38.61 0 1 1 0 54.58 38.32 38.32 0 0 1 0-54.58Z"/>
  <path d="M336.05 497h-244a34.46 34.46 0 0 1-34.43-34.43V134.69a34.47 34.47 0 0 1 34.43-34.43h39.75a7.5 7.5 0 0 0 0-15H92.07a49.49 49.49 0 0 0-49.43 49.43v327.88A49.48 49.48 0 0 0 92.07 512h244a7.5 7.5 0 0 0 0-15ZM419.94 85.26H304.87V69.9a14.56 14.56 0 0 0-14.55-14.54H263.5v-14.9h126.67a14.58 14.58 0 0 0 14.57-14.54V7.5a7.5 7.5 0 0 0-15 0v18H263A14.55 14.55 0 0 0 248.5 40v15.36h-26.85a14.55 14.55 0 0 0-14.54 14.54v15.36H166.2a7.5 7.5 0 0 0 0 15h253.73a34.47 34.47 0 0 1 34.43 34.43v327.88A34.46 34.46 0 0 1 419.93 497h-49.47a7.5 7.5 0 0 0 0 15h49.47a49.48 49.48 0 0 0 49.43-49.43V134.69a49.48 49.48 0 0 0-49.42-49.43Zm-197.83 0v-14.9h67.76v14.9Z"/>
  <path d="M72.43 134.69v327.88a19.65 19.65 0 0 0 19.64 19.61h327.87a19.63 19.63 0 0 0 19.6-19.61V134.69a19.63 19.63 0 0 0-19.6-19.63H92.07a19.65 19.65 0 0 0-19.64 19.63Zm19.64-4.63h97.72v102.39H87.43v-97.76a4.69 4.69 0 0 1 4.64-4.63Zm-4.64 332.51v-97.75h102.36v102.36H92.07a4.63 4.63 0 0 1-4.64-4.61Zm332.51 4.61h-97.76V364.82h102.36v97.75a4.67 4.67 0 0 1-4.6 4.61Zm4.6-332.49v97.76H322.18V130.06h97.76a4.68 4.68 0 0 1 4.6 4.63Zm-117.36-4.63V240a7.5 7.5 0 0 0 7.5 7.5h109.86v102.31H314.68a7.5 7.5 0 0 0-7.5 7.5v109.87H204.79V357.31a7.5 7.5 0 0 0-7.5-7.5H87.43V247.45h109.86a7.5 7.5 0 0 0 7.5-7.5V130.06Z"/>
    </symbol>
    <symbol id="item-1414">
      <title>flood</title>
<path fill="#5f99d7" d="M472.63 120.45a5 5 0 0 0-3.53-6.13l-35.35-9.47a5 5 0 0 0-6.13 3.54l-.11.43 12 38.15 20.91 18.91Z"/>
  <path fill="#3c87d0" d="m453.14 193.2 7.32-27.32-32.95-57.06-7.32 27.32-2.69 37.45Z"/>
  <path fill="#9be69d" d="M26.73 216.59c5.23 3 22.78.57 28.75.57 7.06 0 16.08-.37 21.87-4.37 3.4-2.36 3.84-4.76 7.84-4.76 3.14 0 6.54 1.36 9.43 2.85 4.91 2.54 7.16 2.38 12.67 2.38l3.41-.95c12.26 0 31.57-12.18 37.7-22.78 2.61-4.54 1.75-9.6 2.13-14.76.7-9.5 3.61-10.56 11.65-15.69 3.92-2.5 9.2-15.77 11.4-20 2.72-5.16 2.5-15.23 1.67-20.67-2.23-14.46-13-22.08-19.07-34.57a46.2 46.2 0 0 0-16.15-2 10.38 10.38 0 0 1-9.75-5.71 46.62 46.62 0 0 0-68.05-17.06 10.25 10.25 0 0 1-8.52 1.61A38.83 38.83 0 0 0 9.87 78.73a38.39 38.39 0 0 0-2 3.89 4.92 4.92 0 0 0-.4 2v86.2c5.41 9.81 2.75 24.12 10.68 32.73 2.33 2.53 5.5 11.31 8.55 13.07Z"/>
  <path fill="#6fd7a3" d="M167.49 89.08a46.64 46.64 0 0 0-11.31-5.2 141.4 141.4 0 0 1 12.65 40.57 26.56 26.56 0 0 1-11.93 26.41 30.46 30.46 0 0 0-14 23.34 34 34 0 0 1-4.52 14.62A34.5 34.5 0 0 1 108.62 206a33.83 33.83 0 0 1-15.69-3.83 20 20 0 0 0-20.56 1.32 34.46 34.46 0 0 1-44.86-5 142.53 142.53 0 0 1-20-27.75v33a4.91 4.91 0 0 0 .88 2.83A54.4 54.4 0 0 0 83.73 220a54.4 54.4 0 0 0 79.16-44.28 10.28 10.28 0 0 1 4.75-7.94 46.6 46.6 0 0 0-.15-78.65Z"/>
  <path fill="#e8ad8c" d="m159 309.76-37-138.21a30 30 0 0 1 2.14-21.18l3.05-6.1a2.49 2.49 0 0 0-3.35-3.35l-16 8A10 10 0 0 1 95 145.49l-16.35-24.71a2.5 2.5 0 0 0-4.58 1.22l-1.77 29.57a10 10 0 0 1-9.39 9.43L45 162a2.5 2.5 0 0 0-1.23 4.58l5.69 3.76A30 30 0 0 1 62 187.63l31.79 118.84c9.7 3.63 19.79 15.77 36.81 15.77 11.17 0 21-10.72 28.39-12.48Z"/>
  <path fill="#e19974" d="M166.26 336.89 159 309.76a116.05 116.05 0 0 1-27.24 2.83c-17 0-28.26-2.49-38-6.12l8.3 31Z"/>
  <path fill="#dff6fd" d="M377.94 94.09 239.5 192.81 214 287.93c11.07-3.16 19.89 3.63 37.39 3.63 35.63 0 52.65 13.07 69.14 21 14.46 7 31.62 9.36 58.1 9.36 14.06 0 34.93.35 43.49-2.28l13.25-95.08Z"/>
  <path fill="#99e6fc" d="m435.39 224.59-21.69 80.94a5 5 0 0 1-3.49 3.53c-8 2.18-17.39 3.53-30 3.53-26.49 0-39-6-53.43-13-16.49-8-35.19-17-70.83-17-17.49 0-30.9 2.18-42 5.34l-7.85 29.29 210 56.28 33.33-124.41 5.57-29.55Z"/>
  <path fill="#fe646f" d="m488.13 253.82-101.6-176A5 5 0 0 0 379.7 76l-176 101.61a5 5 0 0 0-1.83 6.83l10.53 18.24a5 5 0 0 0 6.83 1.83l153.42-88.58 88.57 153.42a5 5 0 0 0 6.83 1.83l18.24-10.53a5 5 0 0 0 1.83-6.83Z"/>
  <path fill="#62dbfb" d="m357.34 310.68 15.09-56.29a5 5 0 0 0-3.54-6.13l-65.35-17.51a5 5 0 0 0-6.13 3.54l-13.52 50.47c18.76 3.15 25.12 22.26 36.66 27.83 9.52 4.6 24.45-4.23 36.79-1.91Z"/>
  <path fill="#01d0fb" d="M357.34 310.68c-12.35-2.32-21-6.5-30.52-11.1-11.55-5.57-24.17-11.67-42.93-14.82l-13.32 49.71 7.18 1.93 67.83 18.17Z"/>
  <path fill="#62dbfb" d="M501.27 479.5 484.5 303.8c-43 5.6-49.62 28.79-104.25 28.79-62.13 0-62.13-30-124.26-30s-62.12 30-124.24 30c-61.28 0-62.11-29.18-121.73-30a2.49 2.49 0 0 0-2.52 2.5V484.5l472 9.39c2.76 0 21.77-11.63 21.77-14.39Z"/>
  <path fill="#fe646f" d="M154.85 454c2.84-.56 13.9-10.29 13.15-13.09l-27.79-72.13-50.86 13.62a5 5 0 0 0-3.54 6.12L101 445.28c9 2.51 17.68 11.31 29.58 11.31a123.11 123.11 0 0 0 24.27-2.59Z"/>
  <path fill="#01d0fb" d="M502 302.61a152 152 0 0 0-17.48 1.19v175.7a5 5 0 0 1-5 5H7.5v15a5 5 0 0 0 5 5h487a5 5 0 0 0 5-5V305.11a2.49 2.49 0 0 0-2.52-2.5Z"/>
  <path fill="#fd4755" d="M160.82 368.43a5 5 0 0 0-6.12-3.54l-14.49 3.88 19.27 71.92a5 5 0 0 1-3.86 6.21 123.31 123.31 0 0 1-23.87 2.1c-11.91 0-21.7-1.2-30.73-3.71l5.83 21.77a146.65 146.65 0 0 0 24.9 1.94c25.14 0 40.11-4.91 53.13-10.76Z"/>
  <path d="M115.51 299.8a7.51 7.51 0 0 0 7.24 5.56 7.26 7.26 0 0 0 2-.26 7.49 7.49 0 0 0 5.3-9.18l-12.06-45a7.5 7.5 0 0 0-14.49 3.88ZM109.9 217.59l-8-30a7.5 7.5 0 0 0-14.49 3.88l8 30a7.51 7.51 0 0 0 7.24 5.56 7.69 7.69 0 0 0 1.95-.26 7.5 7.5 0 0 0 5.3-9.18Z"/>
  <path d="M501.88 295.11c-29.81.4-45.86 7.59-60.89 14.82l11.1-41.41 2.65 4.58a12.51 12.51 0 0 0 10.84 6.25 12.36 12.36 0 0 0 6.23-1.68l18.24-10.53a12.51 12.51 0 0 0 4.58-17.07l-33.44-57.93 18.69-69.75a12.51 12.51 0 0 0-8.88-15.31l-35.35-9.47a12.51 12.51 0 0 0-15.31 8.84l-2.75 10.26L393 74.08a12.5 12.5 0 0 0-17-4.57l-73.2 42.23a7.5 7.5 0 1 0 7.5 13l71-41 99.09 171.66-13.91 8-87.33-151.22a7.5 7.5 0 0 0-10.24-2.74l-151.25 87.32-8-13.91 69.35-40a7.5 7.5 0 1 0-7.5-13L200 171.11a12.51 12.51 0 0 0-4.57 17.08l10.53 18.24A12.5 12.5 0 0 0 223 211l4.58-2.64-26.1 97.41c-3.76 1.64-7.32 3.36-10.86 5.07a161.69 161.69 0 0 1-21.16 9l-7.35-27.44a7.5 7.5 0 0 0-14.49 3.88l7.26 27.1a140.21 140.21 0 0 1-23.12 1.75 135.72 135.72 0 0 1-25.8-2.23L69.2 185.69a37.5 37.5 0 0 0-9.91-17l4.07-.25A17.51 17.51 0 0 0 79.78 152l.88-14.58 8 12.19a17.51 17.51 0 0 0 22.43 6l3.65-1.82a37.43 37.43 0 0 0-.08 19.68l23.87 89.08a7.5 7.5 0 1 0 14.49-3.89l-9.62-35.88a62 62 0 0 0 18.78-20.23 61.2 61.2 0 0 0 8.13-26.35 2.84 2.84 0 0 1 1.31-2.17 54.1 54.1 0 0 0-32-99.62 2.88 2.88 0 0 1-2.62-1.6 54.12 54.12 0 0 0-79-19.9 2.8 2.8 0 0 1-2.27.53A46.33 46.33 0 0 0 3.37 75 50.44 50.44 0 0 0 1 79.62a12.52 12.52 0 0 0-1 5v119.2A12.36 12.36 0 0 0 2.25 211 61.79 61.79 0 0 0 67 235.44l22.14 82.65c-5.76-2.19-11-4.69-16.25-7.25-15.59-7.53-31.71-15.31-62.77-15.73a10 10 0 0 0-10.12 10v47a7.5 7.5 0 0 0 15 0v-41.9c24.41 1.08 37.53 7.42 51.36 14.1 16 7.74 32.61 15.74 65.39 15.74s49.35-8 65.38-15.74c15.18-7.33 29.52-14.26 58.86-14.26s43.69 6.93 58.87 14.26c16 7.74 32.61 15.74 65.39 15.74s49.35-8 65.39-15.74c13.83-6.68 26.95-13 51.36-14.09V497H15V387.15a7.5 7.5 0 0 0-15 0V499.5A12.52 12.52 0 0 0 12.5 512h487a12.52 12.52 0 0 0 12.5-12.5V305.11a10 10 0 0 0-10.12-10Zm-67.66-182.37 30.52 8.18-14.16 52.85-22.34-38.69ZM29.35 215.83A46.5 46.5 0 0 1 15 203V85.11c.41-.89.87-1.78 1.36-2.63a31.33 31.33 0 0 1 35.37-14.57 17.69 17.69 0 0 0 14.76-2.67 39.3 39.3 0 0 1 41.82-1.71 38.87 38.87 0 0 1 15.28 16.08 17.87 17.87 0 0 0 16.86 9.8 38.82 38.82 0 0 1 23 6 39.09 39.09 0 0 1 .13 66 17.91 17.91 0 0 0-8.21 13.72 46.38 46.38 0 0 1-6.16 19.95 47 47 0 0 1-10 12.07l-10.01-37.54a22.5 22.5 0 0 1 1.61-15.88l3.05-6.11a10 10 0 0 0-13.41-13.41l-16 8a2.51 2.51 0 0 1-3.2-.86l-16.34-24.7a10 10 0 0 0-18.33 4.91l-1.77 29.56a2.49 2.49 0 0 1-2.35 2.34l-17.87 1.07a10 10 0 0 0-4.91 18.33l5.69 3.76a22.46 22.46 0 0 1 9.34 12.95l8.4 31.37a46.77 46.77 0 0 1-33.76-5.11ZM288 298.29l16-59.64 60.52 16.21-17.74 66.22c-9.75-2.68-17.46-6.41-25.41-10.24-9.74-4.71-19.69-9.51-33.35-12.55ZM361.54 324l18.13-67.66a12.52 12.52 0 0 0-8.84-15.34l-65.35-17.51a12.52 12.52 0 0 0-15.31 8.84l-17 63.56c-5.2-.52-10.87-.82-17.15-.82-15.52 0-27.42 1.8-37.34 4.51l27.29-101.85 124-71.57 71.57 124-18.15 67.77c-10.86 4.16-23.7 7.18-43.08 7.18a146.49 146.49 0 0 1-18.71-1.1Z"/>
  <path d="M64 451.26a7.51 7.51 0 0 0 3.5 10c14.78 7.13 31.54 15.21 64.28 15.21s49.35-8 65.38-15.75c15.18-7.33 29.52-14.25 58.86-14.25a7.5 7.5 0 0 0 0-15c-32.77 0-49.35 8-65.38 15.75l-.8.38-21.74-81.13a12.49 12.49 0 0 0-15.31-8.84l-65.38 17.53a12.51 12.51 0 0 0-8.84 15.31l17.81 66.47c-8.68-2.56-15.6-5.89-22.4-9.17a7.49 7.49 0 0 0-9.98 3.49ZM93.7 389l60.52-16.22L176 453.87c-11.1 4.38-24.14 7.62-44.2 7.62a147.26 147.26 0 0 1-18.92-1.13ZM314.86 402c16 7.74 32.61 15.75 65.39 15.75s49.35-8 65.38-15.75c5-2.42 9.76-4.7 15-6.77a7.5 7.5 0 1 0-5.47-14c-5.79 2.27-11 4.79-16.06 7.23-15.18 7.33-29.52 14.25-58.86 14.25s-43.69-6.92-58.87-14.25c-5-2.44-10.26-5-16.05-7.23a7.5 7.5 0 1 0-5.47 14c5.25 2.06 10 4.34 15 6.76Z"/>
  <circle cx="130.6" cy="435.66" r="7.5"/>
  <path d="M287.06 46.06a7.48 7.48 0 0 0 5.31-2.2l15.53-15.53a7.5 7.5 0 1 0-10.61-10.6l-15.53 15.53a7.5 7.5 0 0 0 5.3 12.8ZM219.63 106a7.52 7.52 0 0 0 5.31 2.2 7.44 7.44 0 0 0 5.3-2.2l31.06-31.07a7.5 7.5 0 0 0-10.6-10.61l-31.07 31.06a7.52 7.52 0 0 0 0 10.62ZM318.13 77.12a7.51 7.51 0 0 0 5.3-2.19l62.12-62.13A7.5 7.5 0 1 0 375 2.2l-62.18 62.12a7.5 7.5 0 0 0 5.31 12.8ZM193.88 61.59a7.51 7.51 0 0 0 5.3-2.19l46.59-46.6a7.5 7.5 0 1 0-10.6-10.6l-46.6 46.59a7.5 7.5 0 0 0 5.31 12.8ZM489 30.53a7.44 7.44 0 0 0 5.3-2.2l15.5-15.53a7.5 7.5 0 1 0-10.6-10.6l-15.53 15.53a7.5 7.5 0 0 0 5.3 12.8ZM442.38 77.12a7.51 7.51 0 0 0 5.3-2.19l15.53-15.53a7.5 7.5 0 0 0-10.61-10.61l-15.53 15.53a7.5 7.5 0 0 0 5.31 12.8ZM411.31 46.06a7.48 7.48 0 0 0 5.31-2.2l15.53-15.53a7.5 7.5 0 1 0-10.61-10.6L406 33.26a7.5 7.5 0 0 0 5.3 12.8Z"/>
    </symbol>
    <symbol id="item-1415">
      <title>tsunami</title>
<path fill="#a09d9c" d="m335.54 300 142.79 39.24-34.78 126.57-142.8-39.24Z"/>
  <path fill="#c4e1e8" d="m420.33 459.39 25.81-93.89 23.22 6.38-25.8 93.9Z"/>
  <path fill="#f0f5f7" d="m467.64 378.08-6.83 24.84-29.61 16.85 6.8-24.85ZM459.43 407.94l-3.8 13.85L426 438.64l3.8-13.85Z"/>
  <path fill="#c4e1e8" d="m300.77 426.54 25.8-93.89 23.24 6.35L324 432.93Z"/>
  <path fill="#f0f5f7" d="m346.5 351-6.82 24.84-29.61 16.84 6.82-24.84ZM338.3 380.82l-3.81 13.85-29.61 16.85 3.81-13.86Z"/>
  <path fill="#fab03c" d="m368.21 365.28 48.68 13.38-20.4 74.22-48.68-13.38Z"/>
  <path fill="#f6cb43" d="m426.24 226.84-110.35 62.78a8.41 8.41 0 0 0 1.93 15.38L491 352.62a8.41 8.41 0 0 0 9.54-12.28L437.72 230a8.42 8.42 0 0 0-11.48-3.16Z"/>
  <path fill="#fab03c" d="m491 352.62-9.19-2.53a8.27 8.27 0 0 0-.94-5.88L418 233.86a8.77 8.77 0 0 0-1.22-1.66l9.42-5.36a8.42 8.42 0 0 1 11.52 3.16l62.77 110.35a8.41 8.41 0 0 1-9.49 12.27Z"/>
  <path fill="#38aaff" d="M504.5 417.23v54.54a20 20 0 0 1-20 20h-457a20 20 0 0 1-20-20v-267c0-97.36 78.4-177.49 175.76-177.54 97.16 0 176 78.71 176 175.85 0 2.11 0 8.73-.11 15.77a20.31 20.31 0 0 1-12.59 18.57 20.71 20.71 0 0 1-13.31.78 20.09 20.09 0 0 1-14.71-19.56v-4.1a79 79 0 0 0-157.87-4.93c-.05 197.94 343.83 207.62 343.83 207.62Z"/>
  <path fill="#60daff" d="M504.5 417.23v30.9l-30-2.79c-33.7-3-92-10.46-151-29.08-159.44-50.36-192.9-140.15-192.9-206.61v-1.84a109 109 0 0 1 180.06-75.67c33.07 36.05 37.69 77.22 35.78 105.32a20.31 20.31 0 0 1-28-18.78v-4.1a79 79 0 0 0-157.87-4.93c.05 197.9 343.93 207.58 343.93 207.58Z"/>
  <path fill="#2081f6" d="M207.15 491.77H27.5a20 20 0 0 1-20-20v-234c18.61 116.64 99.04 197.7 199.65 254Z"/>
  <path d="M207.33 176.83a7.5 7.5 0 0 0-10.58.75A56 56 0 0 0 183.14 210v.64c.27 38.39 15.26 70.37 45.84 97.77a7.5 7.5 0 1 0 10-11.17c-27.16-24.34-40.52-52.6-40.84-86.37a41 41 0 0 1 10-23.5 7.5 7.5 0 0 0-.81-10.54ZM247 165.55a7.5 7.5 0 0 0-7.5-7.5 56 56 0 0 0-20.92 4 7.5 7.5 0 0 0 2.79 14.47 7.63 7.63 0 0 0 2.78-.54 41.05 41.05 0 0 1 15.35-2.95 7.5 7.5 0 0 0 7.5-7.48ZM368.35 131.27a194.87 194.87 0 0 1 6.65 20.22 7.51 7.51 0 0 0 7.24 5.56 7.6 7.6 0 0 0 1.94-.25 7.51 7.51 0 0 0 5.31-9.19 212 212 0 0 0-7.11-21.77 7.5 7.5 0 0 0-14 5.43ZM274.6 26.89a200.69 200.69 0 0 1 83.53 82.23 7.5 7.5 0 0 0 13.2-7.12 215.68 215.68 0 0 0-89.82-88.42 7.5 7.5 0 0 0-6.91 13.31ZM504.72 409.73c-.46 0-14.77-.48-37.23-2.82l9.08-33 4.43-16.24 7.94 2.18a16.27 16.27 0 0 0 4.24.57A15.92 15.92 0 0 0 507 336.64L482.19 293a7.5 7.5 0 0 0-13 7.41L494 344.05a.92.92 0 0 1-1 1.34l-173.19-47.58a.8.8 0 0 1-.66-.77.81.81 0 0 1 .45-.91L430 233.36a.93.93 0 0 1 .69-.09.9.9 0 0 1 .56.43L453 272a7.5 7.5 0 1 0 13-7.42l-21.8-38.33a15.92 15.92 0 0 0-21.7-6L312.19 283.1a15.91 15.91 0 0 0 3.65 29.17l7.94 2.18-15.59 56.73a349.36 349.36 0 0 1-49.88-23.43 7.5 7.5 0 1 0-7.5 13c53.56 30.94 119.64 46.69 165.65 54.44 49.7 8.39 86.3 9.5 87.83 9.54h.22a7.5 7.5 0 0 0 .21-15ZM443.31 404l8-29.28 8.77 2.41-7.71 28.06c-2.9-.36-5.94-.75-9.06-1.19Zm23.25-50.32-2.47 9-16-4.4a7.5 7.5 0 0 0-9.22 5.25l-10.53 38.3c-3.15-.49-6.37-1-9.64-1.56l5.4-19.65a7.5 7.5 0 0 0-5.25-9.22L370.19 358a7.49 7.49 0 0 0-9.22 5.25l-6.32 23q-4.66-1.29-9.34-2.65L357 341a7.5 7.5 0 0 0-5.24-9.22l-16-4.4 2.47-9ZM369.17 390l4.28-15.56 34.21 9.4-3.77 13.72a566.9 566.9 0 0 1-34.72-7.56Zm-37.38-48.16 8.77 2.41L331 379.2c-2.88-.93-5.76-1.88-8.63-2.88Z"/>
  <path d="M126.47 44.75a166 166 0 0 1 56.8-10h.08a168.35 168.35 0 0 1 168.36 168.37c0 2.15 0 8.79-.11 15.68a12.86 12.86 0 0 1-12.81 12.68A12.82 12.82 0 0 1 326 218.66v-4.09a86.51 86.51 0 0 0-172.86-5.38v.46c0 51 21.85 94.32 64.93 128.87a7.5 7.5 0 0 0 9.38-11.71c-39.29-31.5-59.25-70.84-59.31-116.93A71.51 71.51 0 0 1 311 214.57v4.08a27.81 27.81 0 0 0 27.8 27.82A27.9 27.9 0 0 0 366.6 219c.07-6.94.11-13.66.11-15.84A183.34 183.34 0 0 0 183.35 19.77h-.09a181.14 181.14 0 0 0-61.92 10.88 7.5 7.5 0 0 0 5.13 14.1ZM93.28 61.21a7.5 7.5 0 0 0-8.11-12.62A185.64 185.64 0 0 0 0 204.8v287a7.5 7.5 0 0 0 15 0v-287A170.64 170.64 0 0 1 93.28 61.21ZM175.67 400.6a300.13 300.13 0 0 1-15.54-12.83 7.49 7.49 0 0 0-9.94 11.23 311.8 311.8 0 0 0 16.32 13.49 7.5 7.5 0 0 0 9.16-11.88ZM307.71 466.32C267.53 453.63 232 437.66 202 418.88a7.49 7.49 0 1 0-8 12.7c31.05 19.47 67.79 36 109.18 49a7.39 7.39 0 0 0 2.26.35 7.5 7.5 0 0 0 2.26-14.65ZM100.61 202.15a7.5 7.5 0 0 0-7.5 7.5c0 35.57 8.07 69.15 24 99.81a7.5 7.5 0 1 0 13.32-6.91 199.62 199.62 0 0 1-22.29-92.9 7.49 7.49 0 0 0-7.53-7.5ZM316.75 437.71A502.34 502.34 0 0 1 268.84 420a7.5 7.5 0 0 0-6 13.77A519 519 0 0 0 312.23 452a7.7 7.7 0 0 0 2.26.34 7.5 7.5 0 0 0 2.26-14.65ZM398.29 457.67a729.1 729.1 0 0 1-35.57-7.39 7.5 7.5 0 1 0-3.42 14.6c11.76 2.76 24 5.3 36.29 7.55a7.81 7.81 0 0 0 1.36.12 7.5 7.5 0 0 0 1.34-14.88Z"/>
  <path d="M45 204.8a143.6 143.6 0 0 1 1.41-20 7.5 7.5 0 1 0-14.85-2.11A157 157 0 0 0 30 204.8a7.5 7.5 0 0 0 15 0ZM183.27 64.77h.08v-7.5l-.08-7.5a151 151 0 0 0-88.58 28.61 154.72 154.72 0 0 0-55.27 72.91 7.49 7.49 0 0 0 4.47 9.61 7.28 7.28 0 0 0 2.58.46 7.5 7.5 0 0 0 7-4.93c20.04-54.79 72.19-91.63 129.8-91.66ZM43.2 278h-.11a7.5 7.5 0 0 0 0 15h.11a7.5 7.5 0 0 0 0-15ZM150.61 332.56a7.5 7.5 0 0 0-7.5-7.5H143a7.5 7.5 0 0 0 0 15h.11a7.5 7.5 0 0 0 7.5-7.5ZM139.49 409.55a286.77 286.77 0 0 1-49-56.31A7.5 7.5 0 1 0 78 361.48a301.76 301.76 0 0 0 51.54 59.27 7.5 7.5 0 1 0 10-11.2ZM297.73 242.75a7.51 7.51 0 0 0-7.43-7.57h-.18a7.5 7.5 0 0 0-.07 15h.18a7.5 7.5 0 0 0 7.5-7.43ZM305.5 248.5h-.1a7.5 7.5 0 0 0 0 15h.1a7.5 7.5 0 0 0 0-15ZM284.4 329.17h-.17a7.5 7.5 0 0 0-.07 15h.18a7.5 7.5 0 0 0 .06-15ZM386.7 186.77h-.07a7.5 7.5 0 0 0-.07 15h.18a7.5 7.5 0 0 0 .07-15ZM171.14 103.09a7.5 7.5 0 0 0 0-15H171a7.5 7.5 0 0 0 0 15Z"/>
    </symbol>
    <symbol id="item-1416">
      <title>drought</title>
<path fill="#8e4821" d="M215.16 492.61c26-20 77.87-31.27 110.24-36.9-70.78-24.52-151.35-35.51-225.51-40v-.1c-26.32-1.7-45.2-2.18-56.82-2.52-7.51-.19-15.07-.3-22.65-.37-5 .39-12.9 2.59-12.9 12.62v67.16a12 12 0 0 0 12 12H220.1c-7 0-10.23-7.82-4.94-11.89Z"/>
  <path fill="#70371b" d="M32.25 492.5v-67.18c0-8.42 5.56-11.31 10.31-12.26-7.35-.18-14.75-.29-22.16-.36-5 .39-12.9 2.59-12.9 12.62v67.18a12 12 0 0 0 12 12h24.75a12 12 0 0 1-12-12Z"/>
  <path fill="#c1682d" d="M504.5 492.5v-48.68c-74.87-2.59-232.77 4.45-290.34 48.79-5.29 4.07-2.06 11.89 4.94 11.89h273.4a12 12 0 0 0 12-12Z"/>
  <path fill="#aa5d24" d="M327 492.61c43.81-55.2 184.14-49.4 142.79-49.4-76.67 0-205.86 11.05-255.64 49.4-5.29 4.07-2.06 11.89 4.94 11.89H330c-4.26 0-6.21-7.83-3-11.89Z"/>
  <path fill="#8c614b" d="M105.55 459h21.28L91.64 189.58a10.55 10.55 0 1 0-20.93 2.73C74 217.09 102.31 434.27 105.55 459Z"/>
  <path fill="#6d3220" d="M81.33 192.33a10.57 10.57 0 0 1 5.15-10.48 10.56 10.56 0 0 0-15.77 10.48C74 217.09 102.31 434.27 105.55 459h10.62L81.33 192.33Z"/>
  <path fill="#95b737" d="M156.81 266.82c-16.74 6.53-16.76 30.26 0 36.8 16.73-6.53 16.76-30.26 0-36.8ZM200.73 330.49c-2.39 17.84 18.38 29.3 32.19 17.83 2.4-17.8-18.35-29.32-32.19-17.83Z"/>
  <path fill="#8c614b" d="m390.41 446.42 32.37-247.88a10.55 10.55 0 1 0-20.92-2.74l-33 252.68c7.06-.77 14.26-1.48 21.55-2.06Z"/>
  <path fill="#6d3220" d="M412.36 195.8a10.5 10.5 0 0 1 5.22-7.77 10.55 10.55 0 0 0-15.72 7.77l-33 252.68q5.28-.57 10.64-1.08l32.86-251.6Z"/>
  <circle cx="256.01" cy="121.33" r="64.8" fill="#ff9c01"/>
  <path fill="#ff8103" d="M216 121.32a64.8 64.8 0 0 1 52.39-63.59 64.8 64.8 0 1 0 0 127.19 64.81 64.81 0 0 1-52.39-63.6Z"/>
  <circle cx="256.01" cy="121.33" r="39.98" fill="#f7ce4d"/>
  <path fill="#edb926" d="M251.84 81.56A40 40 0 0 0 216 121.32c0 34.7 41.14 52.64 66.65 29.79-38.86 4.02-59.29-44.04-30.81-69.55Z"/>
  <path d="M159.53 259.83c-6.86-2.67-22.81 8.18-22.81 25.39a27.09 27.09 0 0 0 17.36 25.39 7.56 7.56 0 0 0 5.46 0 27.24 27.24 0 0 0 0-50.78Zm-2.72 35.33a12.25 12.25 0 0 1 0-19.88 12.25 12.25 0 0 1 0 19.88ZM220.32 360.42a27.15 27.15 0 0 0 17.39-6.33 7.48 7.48 0 0 0 2.65-4.77c3.3-24.59-25.33-40.45-44.42-24.6a7.52 7.52 0 0 0-2.64 4.77 27.26 27.26 0 0 0 27.02 30.93Zm5.2-16.2a12.24 12.24 0 0 1-17.38-9.63 12.24 12.24 0 0 1 17.38 9.63Z"/>
  <path d="M504.76 436.32A992.51 992.51 0 0 0 399 438.23l7.7-59 58.34-48.91a7.5 7.5 0 0 0-9.64-11.5l-11.5 9.64-.2-21.82a7.5 7.5 0 1 0-15 .13l.32 34.17-19.44 16.31 13.32-102a7.5 7.5 0 0 0-14.88-2l-24.27 186.22-6.23.58 31.77-243.27c.53-4 6.58-3.21 6.06.79l-4.08 31.24a7.5 7.5 0 0 0 14.87 1.95l4.08-31.25c2.1-16-16.3-26.35-28.9-16.65a17.93 17.93 0 0 0-6.9 12l-8.05 61.6-22.2-31.31a7.5 7.5 0 0 0-12.24 8.68l8.25 11.62h-4.57a7.5 7.5 0 1 0 0 15h15.21l12.7 17.9-14 106.94-26.76-37.37a7.5 7.5 0 0 0-12.2 8.74l36.11 50.43-4.53 34.64A739.42 739.42 0 0 0 325 447c-31-10.6-65.45-18.41-97.48-24.07a7.5 7.5 0 0 0-2.61 14.77c23.07 4.08 46.73 9.18 69.11 15.43-25.36 5.8-57.18 15.27-78.83 29.54-5.41 3.57-9.89 6.48-11 12.73-.08.48-.17 1.35-.19 1.6H19.5a4.51 4.51 0 0 1-4.5-4.5v-72.36c26.42.16 52.68 1 78.24 2.55L97 451.53H75.81a7.5 7.5 0 1 0 0 15h81a7.5 7.5 0 0 0 0-15h-23.39L130 425.41c24.38 2.14 48.05 4.93 70.47 8.3a7.5 7.5 0 0 0 2.23-14.83 1173.53 1173.53 0 0 0-74.69-8.69l-1.22-9.34 36.11-50.43a7.5 7.5 0 0 0-12.2-8.73L124 379.06l-14-106.94 12.7-17.9h15.21a7.5 7.5 0 0 0 0-15h-4.57l8.24-11.62a7.5 7.5 0 1 0-12.23-8.68l-22.21 31.31-8-61.6a18.05 18.05 0 0 0-35.8 4.68l20.6 157.76-19.44-16.3.31-34.18a7.5 7.5 0 0 0-15-.13l-.2 21.82-11.49-9.64a7.5 7.5 0 1 0-9.64 11.5l58.33 48.92 4.51 34.5a1485.6 1485.6 0 0 0-83.75-2.45 7.49 7.49 0 0 0-7.57 7.5v79.89A19.52 19.52 0 0 0 19.5 512h473a19.52 19.52 0 0 0 19.5-19.5v-48.68a7.5 7.5 0 0 0-7.24-7.5ZM84.2 190.57l34.09 261h-6.16l-34-260.16c-.5-4.05 5.55-4.84 6.07-.84ZM497 492.5a4.51 4.51 0 0 1-4.5 4.5H220.83c56.48-40.48 206-47.83 276.17-45.91v41.41Z"/>
  <path d="M256 193.62a72.3 72.3 0 1 0-72.3-72.3 72.38 72.38 0 0 0 72.3 72.3ZM256 64a57.3 57.3 0 1 1-57.3 57.29A57.36 57.36 0 0 1 256 64Z"/>
  <path d="M256 168.8a47.53 47.53 0 0 0 47.48-47.48 7.5 7.5 0 0 0-15 0 32.5 32.5 0 0 1-65 0c0-30.8 39.15-44.22 58.1-20a7.5 7.5 0 0 0 11.82-9.24c-27.66-35.4-84.92-15.88-84.92 29.21A47.53 47.53 0 0 0 256 168.8ZM256 41.78a7.5 7.5 0 0 0 7.5-7.5V7.5a7.5 7.5 0 0 0-15 0v26.78a7.5 7.5 0 0 0 7.5 7.5ZM248.5 208.36v26.79a7.5 7.5 0 0 0 15 0v-26.79a7.5 7.5 0 0 0-15 0ZM194.45 67.27a7.51 7.51 0 0 0 5.31-12.8l-18.94-18.94a7.5 7.5 0 1 0-10.61 10.61c20.36 20.36 20.14 21.13 24.24 21.13ZM322.85 177.57a7.5 7.5 0 0 0-10.61 10.6l18.94 18.94a7.5 7.5 0 1 0 10.61-10.6ZM142.18 128.82H169a7.5 7.5 0 0 0 0-15h-26.82a7.5 7.5 0 0 0 0 15ZM335.54 121.32a7.5 7.5 0 0 0 7.5 7.5h26.78a7.5 7.5 0 0 0 0-15H343a7.5 7.5 0 0 0-7.46 7.5ZM199.76 188.17a7.5 7.5 0 0 0-10.61-10.6l-18.94 18.93a7.5 7.5 0 1 0 10.61 10.61ZM322.85 65.08l18.94-18.94a7.5 7.5 0 1 0-10.61-10.61l-18.94 18.94a7.5 7.5 0 0 0 10.61 10.61Z"/>
    </symbol>
    <symbol id="item-1417">
      <title>wildfire</title>
<path fill="#ee6161" d="M485.64 177.05A36.66 36.66 0 0 1 443 125.63a36.44 36.44 0 0 0-.61-33.87c-17.12-30.64-31.1-53.2-31.1-53.2S404.7 49.23 395 65.87a20.25 20.25 0 0 0 4.26 25.28 23.3 23.3 0 1 1-35.08 30.09 927.21 927.21 0 0 0-21 42.11 10.47 10.47 0 0 1-19 0c-2-4.3-4.08-8.64-6.2-13a31.07 31.07 0 1 1-61.79-6.5 30.5 30.5 0 0 1 12.34-21.47 35.19 35.19 0 0 0 10-45.87C265.53 54 256 38.6 256 38.56s-7.15 11.55-17.49 29.33a24.55 24.55 0 0 0-.24 24.83 15.53 15.53 0 0 1-24.31 19c-9.08 16.87-18.4 35-26.56 52.64a10 10 0 0 1-18.12 0q-1.74-3.76-3.56-7.56a31.07 31.07 0 0 1-44.2-42.36 35.55 35.55 0 0 0 1.77-37.64c-13-22.72-22.6-38.19-22.6-38.19s-17.31 28-37 63.88c-6.9 12.51-7.59 27.84-.88 40.51a21.12 21.12 0 0 1-32.7 25.66C17.09 197.28 7.5 224 7.5 240.47A93.19 93.19 0 0 0 178.34 292a93.21 93.21 0 0 0 155.32 0 93.19 93.19 0 0 0 170.84-51.53c0-14.88-7.79-38-18.86-63.42Z"/>
  <path fill="#e94444" d="M485.64 177.05a36.59 36.59 0 0 1-35.55-9.47c8.65 21.19 14.41 40.1 14.41 52.89a93.26 93.26 0 0 1-113.62 90.94 93.19 93.19 0 0 0 153.62-70.94c0-14.88-7.79-38.02-18.86-63.42ZM154.91 290.84a25.24 25.24 0 0 0-33-.07 93.34 93.34 0 0 1-81.6 20.64 93.19 93.19 0 0 0 130.47-9.47 93.25 93.25 0 0 1-15.82-11.1ZM310.22 290.84a25.24 25.24 0 0 0-33.05-.07 93.34 93.34 0 0 1-81.6 20.64A93.19 93.19 0 0 0 326 301.94a94.05 94.05 0 0 1-15.78-11.1Z"/>
  <path fill="#d77f4a" d="M131.75 384.39v-81.8a79.87 79.87 0 0 1 8.45-35.77l22.61-45.24-47.12 35.35a25 25 0 0 1-30 0l-47.13-35.35 22.62 45.24a80 80 0 0 1 8.45 35.77v81.8a65 65 0 0 1-19 46L23 457.91h30a40 40 0 0 0 28.28-11.72l3.82-3.82 15.53 31.07 15.53-31.07 3.81 3.82a40 40 0 0 0 28.29 11.72h30l-27.55-27.56a65 65 0 0 1-19-46ZM287.06 384.39v-81.8a79.87 79.87 0 0 1 8.45-35.77l22.62-45.24L271 256.93a25 25 0 0 1-30 0l-47.12-35.35 22.61 45.24a79.87 79.87 0 0 1 8.45 35.77v81.8a65 65 0 0 1-19 46l-27.56 27.56h30a40 40 0 0 0 28.28-11.72l3.82-3.82L256 473.44l15.53-31.06 3.82 3.81a40 40 0 0 0 28.28 11.72h30l-27.53-27.56a65 65 0 0 1-19-46ZM442.37 384.39v-81.8a80 80 0 0 1 8.45-35.77l22.62-45.24-47.13 35.35a25 25 0 0 1-30 0l-47.12-35.35 22.62 45.24a80 80 0 0 1 8.44 35.77v81.8a65 65 0 0 1-19 46l-27.55 27.56h30a40 40 0 0 0 28.3-11.76l3.81-3.82 15.53 31.07 15.53-31.07 3.82 3.82a40 40 0 0 0 28.28 11.72h30l-27.56-27.56a65 65 0 0 1-19-46Z"/>
  <path fill="#c86d36" d="M461.41 430.35a65 65 0 0 1-19-46v-81.8a80 80 0 0 1 8.45-35.77l22.62-45.24-47.13 35.35a25 25 0 0 1-21 4.26 80 80 0 0 0-2.91 21.4v81.8a65 65 0 0 0 19 46l10.49 10.49a10 10 0 0 1-7.07 17.07H419a40 40 0 0 1-28.29-11.72 3.89 3.89 0 0 0-6.23 1l-4.17 8.35a10 10 0 0 1-17.89 0l-2.12-4.24-26.59 26.6h30A40 40 0 0 0 392 446.19l3.81-3.81 15.53 31.06 15.53-31.06 3.82 3.81a40 40 0 0 0 28.28 11.72h30ZM306.1 430.35a65 65 0 0 1-19-46v-81.8a80 80 0 0 1 8.45-35.77l22.62-45.24L271 256.93a25 25 0 0 1-21 4.26 80 80 0 0 0-2.92 21.4v81.8a65 65 0 0 0 19 46l10.49 10.48a10 10 0 0 1-7.07 17.08h-5.89a40 40 0 0 1-28.28-11.72 3.89 3.89 0 0 0-6.23 1l-4.1 8.32a10 10 0 0 1-17.89 0l-2.12-4.24-26.6 26.6h30a40 40 0 0 0 28.28-11.72l3.82-3.82L256 473.44l15.53-31.06 3.82 3.81a40 40 0 0 0 28.28 11.72h30ZM150.79 430.35a65 65 0 0 1-19-46v-81.8a79.87 79.87 0 0 1 8.45-35.77l22.61-45.24-47.12 35.35a25 25 0 0 1-21 4.26 80 80 0 0 0-2.92 21.4v81.8a65 65 0 0 0 19 46l10.48 10.49a10 10 0 0 1-7.07 17.07h-5.88A40 40 0 0 1 80 426.19a3.89 3.89 0 0 0-6.23 1l-4.18 8.35a10 10 0 0 1-17.89 0l-2.11-4.24L23 457.91h30a40 40 0 0 0 28.28-11.72l3.82-3.81 15.53 31.06 15.53-31.06 3.81 3.81a40 40 0 0 0 28.29 11.72h30Z"/>
  <path d="M466.72 425.05a57.13 57.13 0 0 1-16.85-40.66v-11.2a7.5 7.5 0 1 0-15 0v11.2a72 72 0 0 0 21.24 51.26l14.75 14.75h-11.92a32.32 32.32 0 0 1-23-9.51l-3.81-3.82a7.5 7.5 0 0 0-12 1.95l-8.83 17.65-8.81-17.67a7.5 7.5 0 0 0-12-1.95l-3.82 3.82a32.33 32.33 0 0 1-23 9.52h-11.91l14.76-14.76a72 72 0 0 0 21.23-51.26v-81.8a87.87 87.87 0 0 0-9.24-39.13l-8.4-16.81 21.7 16.28a32.67 32.67 0 0 0 39 0l21.71-16.28-8.4 16.81a87.87 87.87 0 0 0-9.24 39.13v35.6a7.5 7.5 0 0 0 15 0v-4.68a100.89 100.89 0 0 0 62.12-93c0-14.62-6.37-36.35-19.48-66.41a7.5 7.5 0 0 0-8.85-4.24 29.71 29.71 0 0 1-9.22 1 29.16 29.16 0 0 1-24.69-41.88A44.08 44.08 0 0 0 449 88.1c-17-30.43-31.13-53.26-31.27-53.49a7.51 7.51 0 0 0-12.76 0c-.06.11-6.77 11-16.41 27.48a27.61 27.61 0 0 0 5.71 34.63 15.77 15.77 0 0 1 5.18 12.81 15.93 15.93 0 0 1-15 14.7 15.72 15.72 0 0 1-14-7.11 7.5 7.5 0 0 0-12.9.62 993.3 993.3 0 0 0-21.18 42.45 3 3 0 0 1-5.39 0c-2-4.22-4.07-8.63-6.26-13.12a7.5 7.5 0 0 0-14.2 2.56 23.58 23.58 0 0 1-24.41 21.2 23.15 23.15 0 0 1-16.77-8.14 23.83 23.83 0 0 1-5.69-18 23 23 0 0 1 9.35-16.27 42.75 42.75 0 0 0 12-55.64 1485.77 1485.77 0 0 0-22.57-38.1 7.46 7.46 0 0 0-6.11-3.61 7.54 7.54 0 0 0-6.68 3.54c-.07.12-7.32 11.84-17.59 29.51a32 32 0 0 0-.19 32.46 8 8 0 0 1 1.08 5 8 8 0 0 1-13.66 4.79 7.5 7.5 0 0 0-11.9 1.75 1018.78 1018.78 0 0 0-26.76 53 2.49 2.49 0 0 1-4.51 0q-1.77-3.81-3.6-7.64a7.49 7.49 0 0 0-11.23-2.8 23.29 23.29 0 0 1-15.44 4.55 23.57 23.57 0 0 1-18.09-36.68c9.4-13.93 10.2-31.38 2.07-45.56a1478.22 1478.22 0 0 0-22.74-38.42 7.5 7.5 0 0 0-12.75 0c0 .09-5.4 8.73-13.37 22.29a7.5 7.5 0 1 0 12.93 7.6c2.58-4.39 4.89-8.26 6.82-11.48 4 6.69 9.64 16.21 16.1 27.46a28 28 0 0 1-1.49 29.71 38.57 38.57 0 0 0 29.62 60.05 38.74 38.74 0 0 0 17.45-3l.11.24a17.5 17.5 0 0 0 31.73 0 944.86 944.86 0 0 1 22.6-45.22 23.05 23.05 0 0 0 31-19.12 23 23 0 0 0-3.13-14.26 17 17 0 0 1 .3-17.18c4.32-7.42 8.09-13.78 11-18.64 4 6.72 9.58 16.09 16 27.22a27.77 27.77 0 0 1-7.9 36.11 37.79 37.79 0 0 0-15.35 26.71 38.57 38.57 0 0 0 70.13 26.05 18 18 0 0 0 31.12-2.59 891.33 891.33 0 0 1 16.15-32.78 30.78 30.78 0 0 0 38.17-48.15 12.73 12.73 0 0 1-2.8-15.94c3.82-6.56 7.18-12.21 9.83-16.63 5.68 9.47 14.61 24.62 24.55 42.4a29 29 0 0 1 .42 26.92 44.17 44.17 0 0 0 37.41 63.45 46 46 0 0 0 7.43-.24c13.01 30.93 15.84 46.89 15.84 54.92A85.87 85.87 0 0 1 449.88 317v-14.41a72.85 72.85 0 0 1 7.65-32.42l22.62-45.23a7.51 7.51 0 0 0-11.21-9.36l-47.13 35.35a17.61 17.61 0 0 1-21 0l-47.12-35.35a7.5 7.5 0 0 0-11.21 9.36l22.61 45.23a72.86 72.86 0 0 1 7.66 32.42V317a86.6 86.6 0 0 1-30.09-25.25 99.65 99.65 0 0 0 8.88-19.43 7.5 7.5 0 1 0-14.23-4.75 85.47 85.47 0 0 1-9.9 20.28A86.55 86.55 0 0 1 294.56 317v-14.41a72.86 72.86 0 0 1 7.66-32.42l22.61-45.23a7.5 7.5 0 0 0-11.21-9.36l-47.12 35.35a17.61 17.61 0 0 1-21 0l-47.13-35.35a7.5 7.5 0 0 0-11.2 9.36l22.61 45.23a72.83 72.83 0 0 1 7.66 32.42V317a86.47 86.47 0 0 1-32.85-29.16 85.21 85.21 0 0 1-9.9-20.27 7.5 7.5 0 0 0-14.23 4.74 99.46 99.46 0 0 0 8.88 19.44A86.71 86.71 0 0 1 139.25 317v-14.41a73 73 0 0 1 7.65-32.42l22.62-45.23a7.5 7.5 0 0 0-11.21-9.36l-47.12 35.35a17.61 17.61 0 0 1-21 0l-47.13-35.35a7.5 7.5 0 0 0-11.21 9.36l22.62 45.23a72.82 72.82 0 0 1 7.65 32.42V317A85.87 85.87 0 0 1 15 240.47c0-8.73 3.32-26.3 18.5-61a28.63 28.63 0 0 0 35.94-40c-5.4-10.17-5.09-22.66.81-33.43 1.86-3.38 3.69-6.7 5.5-9.93a7.5 7.5 0 0 0-13.1-7.31 2251.1 2251.1 0 0 0-5.55 10c-8.34 15.21-8.68 33-.91 47.67A13.62 13.62 0 0 1 35.1 163a7.5 7.5 0 0 0-11.82 2.49C7.62 200 0 224.5 0 240.47a100.89 100.89 0 0 0 62.13 93v50.88a57.13 57.13 0 0 1-16.85 40.66L17.73 452.6A7.5 7.5 0 0 0 23 465.41h30a47.14 47.14 0 0 0 30-10.61l11 22a7.5 7.5 0 0 0 13.42 0l11-22a47.17 47.17 0 0 0 29.93 10.61h60.05a47.17 47.17 0 0 0 29.9-10.61l11 22a7.5 7.5 0 0 0 13.42 0l11-22a47.17 47.17 0 0 0 29.93 10.61h60.05a47.17 47.17 0 0 0 29.93-10.61l11 22a7.49 7.49 0 0 0 13.41 0l11-22a47.14 47.14 0 0 0 29.92 10.61h30a7.5 7.5 0 0 0 5.3-12.81Zm-133.06-120.5a101.61 101.61 0 0 0 39.09 28.95v50.89a57.12 57.12 0 0 1-16.84 40.66l-22.25 22.25-22.26-22.25a57.12 57.12 0 0 1-16.84-40.66V333.5a101.72 101.72 0 0 0 39.1-28.95ZM148.32 450.41a32.33 32.33 0 0 1-23-9.52l-3.82-3.82a7.5 7.5 0 0 0-12 1.95l-8.82 17.65L91.87 439a7.51 7.51 0 0 0-12-1.95L76 440.89a32.28 32.28 0 0 1-23 9.52H41.14l14.75-14.76a72 72 0 0 0 21.24-51.26v-81.8a88 88 0 0 0-9.24-39.13l-8.41-16.81 21.71 16.28a32.67 32.67 0 0 0 39 0l21.71-16.28-8.41 16.81a88 88 0 0 0-9.24 39.13v43.66a7.5 7.5 0 0 0 15 0V333.5a101.61 101.61 0 0 0 39.09-28.95 101.72 101.72 0 0 0 39.1 28.95v50.89a57.12 57.12 0 0 1-16.84 40.66l-22.26 22.25-22.25-22.25a57.12 57.12 0 0 1-16.84-40.66v-3.14a7.5 7.5 0 0 0-15 0v3.14a72 72 0 0 0 21.23 51.26l14.76 14.76Zm155.31 0a32.33 32.33 0 0 1-23-9.52l-3.81-3.82a7.51 7.51 0 0 0-12 1.95L256 456.67 247.18 439a7.5 7.5 0 0 0-12-1.95l-3.81 3.82a32.28 32.28 0 0 1-23 9.52h-11.92l14.75-14.76a72 72 0 0 0 21.24-51.26v-81.8a88 88 0 0 0-9.24-39.13l-8.41-16.81 21.71 16.28a32.67 32.67 0 0 0 39 0l21.71-16.28-8.41 16.81a88 88 0 0 0-9.24 39.13v81.8a72 72 0 0 0 21.24 51.26l14.75 14.76Z"/>
  <path d="M143.08 201.25a7.5 7.5 0 0 0 .89-15 54.85 54.85 0 0 1-42.77-25.19 7.5 7.5 0 1 0-12.64 8.07 69.85 69.85 0 0 0 54.52 32.12ZM217.79 190.73a756.32 756.32 0 0 1 19.38-40.35 7.5 7.5 0 1 0-13.35-6.85 789.92 789.92 0 0 0-19.76 41.16 7.5 7.5 0 1 0 13.73 6ZM435.24 204.93a7.5 7.5 0 1 0 8.13-12.61 60.59 60.59 0 0 1-26.23-37.77 7.5 7.5 0 1 0-14.66 3.18 75.73 75.73 0 0 0 32.76 47.2ZM100.69 291.74a7.5 7.5 0 0 0-7.5 7.5v49.95a7.5 7.5 0 0 0 15 0v-49.95a7.5 7.5 0 0 0-7.5-7.5ZM100.69 372.75a7.5 7.5 0 0 0-7.5 7.5v31.06a7.5 7.5 0 0 0 15 0v-31.06a7.5 7.5 0 0 0-7.5-7.5ZM256 291.74a7.5 7.5 0 0 0-7.5 7.5v34.42a7.5 7.5 0 1 0 15 0v-34.42a7.5 7.5 0 0 0-7.5-7.5ZM256 357.22a7.5 7.5 0 0 0-7.5 7.5v46.59a7.5 7.5 0 0 0 15 0v-46.59a7.5 7.5 0 0 0-7.5-7.5ZM411.31 341.69a7.5 7.5 0 0 0-7.5 7.5v62.12a7.5 7.5 0 0 0 15 0v-62.12a7.49 7.49 0 0 0-7.5-7.5ZM418.81 302.59a7.5 7.5 0 0 0-15 0v15.53a7.5 7.5 0 0 0 15 0Z"/>
    </symbol>
    <symbol id="item-1418">
      <title>earthquake</title>
<path fill="#ffe177" d="M143.18 209.07h60.46V96a5 5 0 0 0-5-5h-55.46Z"/>
  <path fill="#ffd15b" d="M198.64 91h-20.18v84.48h-35.28v33.59h60.46V96a5 5 0 0 0-5-5Z"/>
  <path fill="#e5e1e5" d="M144.18 209.07V46.22a5 5 0 0 0-5-5H41.49a5 5 0 0 0-5 5v162.85Z"/>
  <path fill="#d7d0d6" d="M139.18 41.22h-31.5v134.26H36.49v33.59h107.68V46.22a5 5 0 0 0-5-5Z"/>
  <path fill="#ffbd86" d="M312.8 218.07v41.81a5.91 5.91 0 0 1-2.08 4.5L270.17 299a5.92 5.92 0 0 0-.36 8.66l23.56 23.82a5.92 5.92 0 0 1-.35 8.65l-66.43 57.07c-6.36 5.46-15.78-1.3-12.62-9.08l17.54-43.26a5.93 5.93 0 0 0-.72-5.75l-30.66-41.4a5.91 5.91 0 0 1 .91-8l33.92-29a5.91 5.91 0 0 0 2.08-4.5v-38.14a10 10 0 0 0-10-10H17.5a10 10 0 0 0-10 10v242.71a10 10 0 0 0 10 10h477a10 10 0 0 0 10-10v-242.7a10 10 0 0 0-10-10H322.8a10 10 0 0 0-10 10Z"/>
  <path fill="#ea9b58" d="M295 336.52a5.88 5.88 0 0 1-2 3.62l-66.4 57.07c-6.37 5.46-15.78-1.3-12.63-9.08l17.55-43.26a5.93 5.93 0 0 0-.73-5.75l-1.93-2.6H7.5v124.25a10 10 0 0 0 10 10h477a10 10 0 0 0 10-10V336.52Z"/>
  <path fill="#97d729" d="M494.5 208.07H322.8a10 10 0 0 0-10 10v39.18h191.7v-39.18a10 10 0 0 0-10-10ZM237 256.23v-38.16a10 10 0 0 0-10-10H17.5a10 10 0 0 0-10 10v39.18h229.44a5.69 5.69 0 0 0 .06-1.02Z"/>
  <path fill="#d88a55" d="M316.65 405.5a48.68 48.68 0 0 0-34.4 14.25 48.66 48.66 0 0 1-34.4 14.25H187a41 41 0 0 1-29-12 41 41 0 0 0-29-12H7.5v50.77a10 10 0 0 0 10 10h477a10 10 0 0 0 10-10V405.5Z"/>
  <path fill="#f6a96c" d="M416.47 470.77h78a10 10 0 0 0 10-10V405.5h-44.13a116.1 116.1 0 0 0-43.87 65.27ZM469 257.25h35.5v79.27H469Z"/>
  <path fill="#d88a55" d="M469 336.52h35.5v69H469Z"/>
  <path fill="#ea9b58" d="M469 405.5v65.27h25.5a10 10 0 0 0 10-10V405.5Z"/>
  <path fill="#8bc727" d="M494.5 208.07H469v49.18h35.5v-39.18a10 10 0 0 0-10-10Z"/>
  <path fill="#c57a44" d="M88 467.5A62 62 0 0 0 49.19 410H7.5v50.77a10 10 0 0 0 10 10h70.41q.09-1.62.09-3.27ZM344.8 470.77h110.4a62 62 0 0 0-110.4 0Z"/>
  <path fill="#f6a96c" d="M156.81 470.77a61 61 0 0 0-103.69 0Z"/>
  <path fill="#c57a44" d="M273.66 470.77a69.15 69.15 0 0 0-28.3-36.77H187a41 41 0 0 1-12.87-2.09 69.2 69.2 0 0 0-31.76 38.86Z"/>
  <path d="M99.4 74h15v20.87h-15ZM99.4 115.37h15v20.92h-15ZM99.4 156.79h15v20.92h-15ZM165.5 115.37h15v20.92h-15ZM165.5 156.79h15v20.92h-15ZM66.27 74h15v20.87h-15ZM66.27 115.37h15v20.92h-15ZM66.27 156.79h15v20.92h-15ZM468.33 303.5h4.14a7.5 7.5 0 0 0 0-15h-4.14a7.5 7.5 0 1 0 0 15ZM426.38 303.5h4.14a7.5 7.5 0 0 0 0-15h-4.14a7.5 7.5 0 0 0 0 15ZM384.42 303.5h4.15a7.5 7.5 0 0 0 0-15h-4.15a7.5 7.5 0 0 0 0 15ZM342.47 303.5h4.15a7.5 7.5 0 0 0 0-15h-4.15a7.5 7.5 0 0 0 0 15ZM169.53 288.5h-4.15a7.5 7.5 0 0 0 0 15h4.15a7.5 7.5 0 0 0 0-15ZM127.58 288.5h-4.15a7.5 7.5 0 0 0 0 15h4.15a7.5 7.5 0 1 0 0-15ZM85.62 288.5h-4.14a7.5 7.5 0 0 0 0 15h4.14a7.5 7.5 0 0 0 0-15ZM43.67 288.5h-4.14a7.5 7.5 0 1 0 0 15h4.14a7.5 7.5 0 1 0 0-15ZM229.7 177.64a7.48 7.48 0 0 0 10.6 0l18.43-18.42a7.5 7.5 0 0 0 0-10.61l-10.82-10.82L258.73 127a7.49 7.49 0 0 0 0-10.6l-10.82-10.82 10.82-10.82a7.5 7.5 0 0 0 0-10.61L240.3 65.7a7.5 7.5 0 0 0-10.6 10.6l13.12 13.13L232 100.24a7.5 7.5 0 0 0 0 10.61l10.82 10.82L232 132.49a7.49 7.49 0 0 0 0 10.6l10.82 10.82L229.7 167a7.5 7.5 0 0 0 0 10.61ZM409.81 179.84a7.44 7.44 0 0 0 5.3-2.2l12.13-12.13 9.95 10a7.5 7.5 0 0 0 10.61 0l9.95-10 9.95 10a7.5 7.5 0 1 0 10.6-10.6l-15.25-15.31a7.52 7.52 0 0 0-10.61 0l-9.95 10-9.95-10a7.49 7.49 0 0 0-10.6 0L404.51 167a7.5 7.5 0 0 0 5.3 12.8Z"/>
  <path d="M494.5 200.57H322.8a17.53 17.53 0 0 0-17.5 17.5v41.08l-40 34.15a13.42 13.42 0 0 0-.82 19.64l22.36 22.62-65.13 56c-.22.18-.3.25-.62 0s-.28-.33-.17-.59l17.55-43.26a13.52 13.52 0 0 0-1.65-13L207 294.44l32.81-28a13.38 13.38 0 0 0 4.7-10.2v-38.17a17.53 17.53 0 0 0-17.5-17.5h-15.9V96a12.52 12.52 0 0 0-12.5-12.5h-47V46.22a12.52 12.52 0 0 0-12.5-12.5H41.49A12.52 12.52 0 0 0 29 46.22V107a7.5 7.5 0 0 0 15 0V48.72h92.68v151.85H44V142a7.5 7.5 0 0 0-15 0v58.57H17.5A17.53 17.53 0 0 0 0 218.07v242.71a17.53 17.53 0 0 0 17.5 17.5h477a17.53 17.53 0 0 0 17.5-17.5v-242.7a17.52 17.52 0 0 0-17.5-17.5Zm-218.16 103 39.25-33.51a13.44 13.44 0 0 0 3.78-5.34H390a7.5 7.5 0 0 0 0-15h-69.7v-31.65a2.51 2.51 0 0 1 2.5-2.5h171.7a2.51 2.51 0 0 1 2.5 2.5v31.68h-72a7.5 7.5 0 0 0 0 15h72V329H300.8a13.23 13.23 0 0 0-2.1-2.8ZM207 385.31a15.5 15.5 0 0 0 24.46 17.58l66.42-57.06a13.44 13.44 0 0 0 1.73-1.81H497v54H316.65A55.75 55.75 0 0 0 277 414.45a40.91 40.91 0 0 1-29.1 12.05H187a33.26 33.26 0 0 1-23.67-9.8A48.11 48.11 0 0 0 129 402.5h-13a7.5 7.5 0 0 0 0 15h13a33.28 33.28 0 0 1 23.67 9.8 48.33 48.33 0 0 0 6.73 5.62 76 76 0 0 0-13.85 14.87A68 68 0 0 0 105 434.44a69.22 69.22 0 0 0-16.78 2.06 69.57 69.57 0 0 0-14-19H81a7.5 7.5 0 0 0 0-15H15V344h208.77Zm193 44.19a69.23 69.23 0 0 0-59.61 33.77h-61.5a76.83 76.83 0 0 0-15.48-24 55.83 55.83 0 0 0 24.14-14.26 40.91 40.91 0 0 1 29.1-12.01h123.76a125.18 125.18 0 0 0-16.28 20.79A69.85 69.85 0 0 0 400 429.5ZM69.06 463.27a53.52 53.52 0 0 1 69-2.34l-1 2.34Zm125-161.09L214 329H15v-64.25h203.71L196.17 284a13.46 13.46 0 0 0-2.07 18.19ZM151.68 98.5h44.46v102.07h-44.46ZM17.5 215.57H227a2.51 2.51 0 0 1 2.5 2.5v31.68H15v-31.68a2.51 2.51 0 0 1 2.5-2.5ZM15 460.77V417.5h32.64A54.76 54.76 0 0 1 74 441.77a68.36 68.36 0 0 0-24.91 21.5H17.5a2.5 2.5 0 0 1-2.5-2.5Zm138.61 2.5a61.4 61.4 0 0 1 21.51-23.22A48.68 48.68 0 0 0 187 441.5h56a61.83 61.83 0 0 1 19.35 21.77Zm205.22 0a54.54 54.54 0 0 1 82.34 0Zm135.67 0h-34.89a69.52 69.52 0 0 0-22-22.74A109.74 109.74 0 0 1 462.86 413H497v47.77a2.5 2.5 0 0 1-2.5 2.5Z"/>
    </symbol>
    <symbol id="item-1419">
      <title>aaa</title>

    </symbol>
    <symbol id="item-1420">
      <title>aaa</title>

    </symbol>
    <symbol id="item-1421">
      <title>aaa</title>

    </symbol>
    <symbol id="item-1422">
      <title>aaa</title>

    </symbol>
    <symbol id="item-1423">
      <title>aaa</title>

    </symbol>
    <symbol id="item-1424">
      <title>aaa</title>

    </symbol>
    <symbol id="item-1425">
      <title>aaa</title>

    </symbol>
    <symbol id="item-1426">
      <title>aaa</title>

    </symbol>
    <symbol id="item-1427">
      <title>aaa</title>

    </symbol>
    <symbol id="item-1428">
      <title>aaa</title>

    </symbol>
    <symbol id="item-1429">
      <title>aaa</title>

    </symbol>
    <symbol id="item-1430">
      <title>aaa</title>

    </symbol>
    <symbol id="item-1431">
      <title>aaa</title>

    </symbol>
    <symbol id="item-1432">
      <title>aaa</title>

    </symbol>
    <symbol id="item-1433">
      <title>aaa</title>

    </symbol>
    <symbol id="item-1434">
      <title>aaa</title>

    </symbol>
    <symbol id="item-1435">
      <title>aaa</title>

    </symbol>
    <symbol id="item-1436">
      <title>aaa</title>

    </symbol>
    <symbol id="item-1437">
      <title>aaa</title>

    </symbol>
    <symbol id="item-1438">
      <title>aaa</title>

    </symbol>
    <symbol id="item-1439">
      <title>aaa</title>

    </symbol>
    <symbol id="item-1440">
      <title>aaa</title>

    </symbol>
    <symbol id="item-1441">
      <title>aaa</title>

    </symbol>
    <symbol id="item-1442">
      <title>aaa</title>

    </symbol>
    <symbol id="item-1443">
      <title>aaa</title>

    </symbol>
    <symbol id="item-1444">
      <title>aaa</title>

    </symbol>
    <symbol id="item-1445">
      <title>aaa</title>

    </symbol>
    <symbol id="item-1446">
      <title>aaa</title>

    </symbol>
    <symbol id="item-1447">
      <title>aaa</title>

    </symbol>
    <symbol id="item-1448">
      <title>aaa</title>

    </symbol>
    <symbol id="item-1449">
      <title>aaa</title>

    </symbol>
    <symbol id="item-1450">
      <title>aaa</title>

    </symbol>
    <symbol id="item-1451">
      <title>aaa</title>

    </symbol>
    <symbol id="item-1452">
      <title>aaa</title>

    </symbol>
    <symbol id="item-1453">
      <title>aaa</title>

    </symbol>
    <symbol id="item-1454">
      <title>aaa</title>

    </symbol>
    <symbol id="item-1455">
      <title>aaa</title>

    </symbol>
    <symbol id="item-1456">
      <title>aaa</title>

    </symbol>
    <symbol id="item-1457">
      <title>aaa</title>

    </symbol>
    <symbol id="item-1458">
      <title>aaa</title>

    </symbol>
    <symbol id="item-1459">
      <title>aaa</title>

    </symbol>
    <symbol id="item-1460">
      <title>aaa</title>

    </symbol>
    <symbol id="item-1461">
      <title>aaa</title>

    </symbol>
    <symbol id="item-1462">
      <title>aaa</title>

    </symbol>
    <symbol id="item-1463">
      <title>aaa</title>

    </symbol>
    <symbol id="item-1464">
      <title>aaa</title>

    </symbol>
    <symbol id="item-1465">
      <title>aaa</title>

    </symbol>
    <symbol id="item-1466">
      <title>aaa</title>

    </symbol>
    <symbol id="item-1467">
      <title>aaa</title>

    </symbol>
    <symbol id="item-1468">
      <title>aaa</title>

    </symbol>
    <symbol id="item-1469">
      <title>aaa</title>

    </symbol>
    <symbol id="item-1470">
      <title>aaa</title>

    </symbol>
    <symbol id="item-1471">
      <title>aaa</title>

    </symbol>
    <symbol id="item-1472">
      <title>aaa</title>

    </symbol>
  </defs>
</svg>

