<svg xmlns="http://www.w3.org/2000/svg" viewBox="0 0 512 512">
  <defs>
    <symbol id="item-1985">
      <title>yin-yang</title>
      <path fill="#f9f9ed" d="M504.27 256c0 137.12-111.16 248.27-248.27 248.27S7.73 393.12 7.73 256 118.89 7.74 256 7.74 504.27 118.89 504.27 256Z"/>
  <path fill="#696867" d="M431 80.82A246.15 246.15 0 0 0 255.82 8.26c-66.82 0-121.17 54.89-121.17 122.37S189 253 255.82 253c68.75 0 124.68 56.48 124.68 125.9a126.08 126.08 0 0 1-45.45 97.1l7.14 12.31A247.87 247.87 0 0 0 431 80.82Z"/>
  <path fill="#544f4f" d="M431 80.82A246.15 246.15 0 0 0 255.82 8.26a122.6 122.6 0 0 0-12.63.66 247.76 247.76 0 0 1 156.89 422.27A246.91 246.91 0 0 1 336 477.6l6.23 10.74A248.19 248.19 0 0 0 503.57 256 246.15 246.15 0 0 0 431 80.82Z"/>
  <path fill="#696867" d="M296 381.47a30 30 0 1 1-30-30 30 30 0 0 1 30 30Z"/>
  <path fill="#544f4f" d="M266 351.47a29.81 29.81 0 0 0-15.47 4.29 30 30 0 0 1 0 51.43A30 30 0 1 0 266 351.47Z"/>
  <path fill="#f9f9ed" d="M296 121a30 30 0 1 1-30-30 30 30 0 0 1 30 30Z"/>
  <path fill="#ececec" d="M266 91a29.9 29.9 0 0 0-15.47 4.29 30 30 0 0 1 0 51.44A30 30 0 1 0 266 91Z"/>
  <path d="M470 115.42a7.74 7.74 0 0 0-12.92 8.51 240.82 240.82 0 0 1-117.23 357.63 133.38 133.38 0 0 0 48-102.67c0-73.4-59.16-133.11-131.89-133.11-62.84 0-114-51.66-114-115.16S193.16 15.47 256 15.47a240.43 240.43 0 0 1 182.33 83.65A7.74 7.74 0 0 0 450.05 89 256 256 0 0 0 0 256c0 6.15.22 12.37.66 18.47a7.73 7.73 0 0 0 7.7 7.18 5.24 5.24 0 0 0 .56 0 7.74 7.74 0 0 0 7.17-8.26c-.41-5.74-.63-11.58-.63-17.37A241 241 0 0 1 173.75 29.85a130.88 130.88 0 0 0-47.18 100.77c0 72 58.06 130.62 129.43 130.62 64.2 0 116.43 52.78 116.43 117.65S320.2 496.53 256 496.53A240.61 240.61 0 0 1 20.17 303.6a7.73 7.73 0 1 0-15.16 3A256 256 0 1 0 470 115.42Z"/>
  <path d="M303.74 381.47A37.75 37.75 0 1 0 266 419.22a37.79 37.79 0 0 0 37.74-37.75Zm-60 0A22.28 22.28 0 1 1 266 403.75a22.3 22.3 0 0 1-22.28-22.28ZM228.25 121A37.75 37.75 0 1 0 266 83.24 37.78 37.78 0 0 0 228.25 121Zm60 0A22.28 22.28 0 1 1 266 98.71 22.3 22.3 0 0 1 288.27 121Z"/>
    </symbol>
    <symbol id="item-1986">
      <title>male</title>
<path fill="#ddebfd" d="M459.5 504.5h-427a25 25 0 0 1-25-25v-447a25 25 0 0 1 25-25h427a25 25 0 0 1 25 25v447a25 25 0 0 1-25 25Z"/>
  <path fill="#bed9fd" d="M479.5 7.5h-30a25 25 0 0 1 25 25v447a25 25 0 0 1-25 25h30a25 25 0 0 0 25-25v-447a25 25 0 0 0-25-25Z"/>
  <path fill="#8ac9fe" d="M311.63 140.83c0 36.24-19.38 64.63-55.63 64.63-4.53 0-8.95.54-13.23-.33a65.65 65.65 0 0 1-.27-128.54c4.35-.91 8.87-.39 13.5-.39 36.25 0 55.63 28.38 55.63 64.63Z"/>
  <path fill="#60b7ff" d="M256 75.2a66 66 0 0 0-13.5 1.39 65.64 65.64 0 0 1 0 128.47A65.63 65.63 0 1 0 256 75.2Z"/>
  <path fill="#8ac9fe" d="M328.32 236.35H173.68a10 10 0 0 0-9.57 12.88l54.25 180.45a10 10 0 0 0 9.58 7.12h46.12a10 10 0 0 0 9.58-7.12l54.25-180.45a10 10 0 0 0-9.57-12.88Z"/>
  <path fill="#60b7ff" d="m347.89 249.23-54.25 180.45a10 10 0 0 1-9.58 7.12h-27a10 10 0 0 0 9.58-7.12l54.25-180.45a10 10 0 0 0-9.57-12.88h27a10 10 0 0 1 9.57 12.88Z"/>
  <path d="M45 52.5a7.5 7.5 0 1 1 7.5-7.5 7.5 7.5 0 0 1-7.5 7.5ZM467 52.5a7.5 7.5 0 1 1 7.5-7.5 7.5 7.5 0 0 1-7.5 7.5ZM45 474.5a7.5 7.5 0 1 1 7.5-7.5 7.5 7.5 0 0 1-7.5 7.5ZM467 474.5a7.5 7.5 0 1 1 7.5-7.5 7.5 7.5 0 0 1-7.5 7.5Z"/>
  <path d="M479.5 512h-447A32.54 32.54 0 0 1 0 479.5V374.41a7.5 7.5 0 0 1 15 0V479.5A17.52 17.52 0 0 0 32.5 497h447a17.52 17.52 0 0 0 17.5-17.5v-447A17.52 17.52 0 0 0 479.5 15h-447A17.52 17.52 0 0 0 15 32.5v309.23a7.5 7.5 0 0 1-15 0V32.5A32.54 32.54 0 0 1 32.5 0h447A32.54 32.54 0 0 1 512 32.5v447a32.54 32.54 0 0 1-32.5 32.5Z"/>
  <path d="M284.06 444.3h-56.12a17.4 17.4 0 0 1-16.76-12.46l-54.25-180.45a17.5 17.5 0 0 1 16.76-22.54h164.63a17.51 17.51 0 0 1 16.76 22.54l-24.77 82.37a7.5 7.5 0 0 1-14.37-4.32l24.77-82.37a2.5 2.5 0 0 0-2.39-3.22H173.69a2.5 2.5 0 0 0-2.4 3.22l54.26 180.45a2.48 2.48 0 0 0 2.39 1.78h56.12a2.49 2.49 0 0 0 2.4-1.78l20.33-67.62a7.5 7.5 0 1 1 14.36 4.32l-20.33 67.62a17.4 17.4 0 0 1-16.76 12.46ZM256 214a73.17 73.17 0 0 1-70.73-54.48 7.5 7.5 0 0 1 14.51-3.82 58.13 58.13 0 1 0-.2-28.89 7.5 7.5 0 0 1-14.58-3.65A73.14 73.14 0 1 1 256 214Z"/>
    </symbol>
    <symbol id="item-1987">
      <title>female</title>
<path fill="#ddebfd" d="M459.5 504.5h-427a25 25 0 0 1-25-25v-447a25 25 0 0 1 25-25h427a25 25 0 0 1 25 25v447a25 25 0 0 1-25 25Z"/>
  <path fill="#bed9fd" d="M479.5 7.5h-30a25 25 0 0 1 25 25v447a25 25 0 0 1-25 25h30a25 25 0 0 0 25-25v-447a25 25 0 0 0-25-25Z"/>
  <path fill="#fd8087" d="M311.63 140.83c0 36.24-19.38 64.63-55.63 64.63-4.53 0-8.95.54-13.23-.33a65.65 65.65 0 0 1-.27-128.54c4.35-.91 8.87-.39 13.5-.39 36.25 0 55.63 28.38 55.63 64.63ZM328.32 436.8H173.68a10 10 0 0 1-9.57-12.88l54.25-180.45a10 10 0 0 1 9.58-7.12h46.12a10 10 0 0 1 9.58 7.12l54.25 180.45a10 10 0 0 1-9.57 12.88Z"/>
  <path fill="#fe646f" d="M256 75.2a66 66 0 0 0-13.5 1.39 65.64 65.64 0 0 1 0 128.47A65.63 65.63 0 1 0 256 75.2ZM347.89 423.92l-54.25-180.45a10 10 0 0 0-9.58-7.12h-27a10 10 0 0 1 9.58 7.12l54.25 180.45a10 10 0 0 1-9.57 12.88h27a10 10 0 0 0 9.57-12.88Z"/>
  <path d="M45 52.5a7.5 7.5 0 1 1 7.5-7.5 7.5 7.5 0 0 1-7.5 7.5ZM467 52.5a7.5 7.5 0 1 1 7.5-7.5 7.5 7.5 0 0 1-7.5 7.5ZM45 474.5a7.5 7.5 0 1 1 7.5-7.5 7.5 7.5 0 0 1-7.5 7.5ZM467 474.5a7.5 7.5 0 1 1 7.5-7.5 7.5 7.5 0 0 1-7.5 7.5ZM256 214a73.13 73.13 0 1 1 70.84-91.36 7.5 7.5 0 1 1-14.53 3.73 58.14 58.14 0 1 0 .11 28.54 7.5 7.5 0 0 1 14.58 3.58A73 73 0 0 1 256 214ZM338.32 444.3H173.68a17.5 17.5 0 0 1-16.75-22.54l24.92-82.88a7.5 7.5 0 1 1 14.36 4.32l-24.92 82.88a2.5 2.5 0 0 0 2.39 3.22h164.63a2.5 2.5 0 0 0 2.4-3.22l-54.26-180.45a2.49 2.49 0 0 0-2.39-1.78h-56.12a2.53 2.53 0 0 0-2.4 1.78l-19.92 66.26a7.5 7.5 0 1 1-14.36-4.32l19.92-66.26a17.4 17.4 0 0 1 16.76-12.46h56.12a17.4 17.4 0 0 1 16.76 12.46l54.25 180.45a17.49 17.49 0 0 1-16.75 22.54Z"/>
  <path d="M479.5 512h-447A32.54 32.54 0 0 1 0 479.5V374.41a7.5 7.5 0 0 1 15 0V479.5A17.52 17.52 0 0 0 32.5 497h447a17.52 17.52 0 0 0 17.5-17.5v-447A17.52 17.52 0 0 0 479.5 15h-447A17.52 17.52 0 0 0 15 32.5v309.23a7.5 7.5 0 0 1-15 0V32.5A32.54 32.54 0 0 1 32.5 0h447A32.54 32.54 0 0 1 512 32.5v447a32.54 32.54 0 0 1-32.5 32.5Z"/>
    </symbol>
    <symbol id="item-1988">
      <title>love</title>
<path fill="#e0230d" d="M364.5 26q-4.78 0-9.5.32l-98.9 459.62c5.69-3.31 248.37-145.8 248.4-319.92A140 140 0 0 0 364.5 26Z"/>
  <path fill="#ff5440" d="M355 26.32C416.16 31.2 464.5 91.89 464.5 166c0 173.94-203.23 316.32-208.4 319.92l-.1.06S7.5 342.2 7.5 166A140 140 0 0 1 256 77.53a139.7 139.7 0 0 1 99-51.21Z"/>
  <path d="M364.5 18.5A146.92 146.92 0 0 0 256 66.08 146.92 146.92 0 0 0 147.5 18.5C66.17 18.5 0 84.67 0 166c0 48.27 18 98.43 53.6 149.09a7.5 7.5 0 0 0 12.28-8.61C32.12 258.39 15 211.13 15 166 15 92.94 74.44 33.5 147.5 33.5a132.09 132.09 0 0 1 102.69 48.77 7.5 7.5 0 0 0 11.62 0A132.09 132.09 0 0 1 364.5 33.5C437.56 33.5 497 93 497 166c0 88.23-66.17 168.54-121.67 220.37A781.15 781.15 0 0 1 256 477.26C236.74 465.52 147.63 409 83.67 330A7.5 7.5 0 0 0 72 339.45c73.5 90.72 179.16 152.43 180.22 153a7.5 7.5 0 0 0 7.52 0c.62-.36 63.57-37 125.59-94.93 36.57-34.12 65.74-68.89 86.71-103.32C498.55 250.74 512 207.6 512 166c0-81.32-66.17-147.5-147.5-147.5Z"/>
    </symbol>
    <symbol id="item-1989">
      <title>contrast</title>
<circle cx="256" cy="256" r="248.48" fill="#e1e6e9"/>
  <path fill="#636a75" d="M504.48 256c0 137.23-111.25 248.48-248.48 248.48V7.52c137.23 0 248.48 111.25 248.48 248.48Z"/>
  <path fill="#525760" d="M504.48 256c0 130-99.82 236.66-227 247.55 111-27.66 193.2-128 193.2-247.55S388.47 36.11 277.49 8.45C404.67 19.34 504.48 126 504.48 256Z"/>
  <path d="M437 75a256.13 256.13 0 0 0-308.43-41.08 257.85 257.85 0 0 0-91.51 89.33 7.52 7.52 0 1 0 12.86 7.81 240.81 240.81 0 0 1 198.56-115.9v481.67a241.1 241.1 0 0 1-218.1-325.61 7.52 7.52 0 1 0-14.08-5.29 256 256 0 0 0 453.09 231.54 7.52 7.52 0 1 0-12.53-8.32 240.62 240.62 0 0 1-193.34 107.69V15.17a241.1 241.1 0 0 1 214.87 333.74 7.53 7.53 0 0 0 4 9.84 7.53 7.53 0 0 0 9.84-4A256.26 256.26 0 0 0 437 75Z"/>
    </symbol>
    <symbol id="item-1990">
      <title>philosophy</title>
<path fill="#7fe9ff" d="M351 408.93a152.93 152.93 0 0 0 0-305.86h-50.34v-5.29A49.76 49.76 0 0 1 350.42 48h10.71V7.5H150.88V48h10.71a49.76 49.76 0 0 1 49.76 49.77v5.29H161a152.93 152.93 0 0 0 0 305.86h50.31v5.29A49.76 49.76 0 0 1 161.59 464h-10.71v40.5h210.25V464h-10.71a49.76 49.76 0 0 1-49.76-49.77v-5.29Zm-50.35-255.85h7.72a102.92 102.92 0 1 1 0 205.84h-7.72Zm-89.31 205.84h-7.72a102.92 102.92 0 0 1 0-205.84h7.72Z"/>
  <path fill="#00deff" d="M246.15 358.92V153.08h-34.81v205.84ZM211.34 97.78v5.29h34.81v-5.29A49.76 49.76 0 0 0 196.39 48h-10.71V7.5h-34.81V48h10.71a49.76 49.76 0 0 1 49.76 49.77ZM446.11 256a103 103 0 0 1-102.93 102.92h-34.81a102.92 102.92 0 1 0 0-205.84h34.81A103 103 0 0 1 446.1 256ZM196.39 464a49.76 49.76 0 0 0 49.76-49.77v-5.29h-34.81v5.29A49.76 49.76 0 0 1 161.58 464h-10.71v40.5h34.81V464ZM195.84 408.93a152.93 152.93 0 0 1 0-305.86H161a152.93 152.93 0 0 0 0 305.86Z"/>
  <path d="M361.13 512H150.87a7.5 7.5 0 0 1-7.5-7.5V464a7.5 7.5 0 0 1 7.5-7.5h10.71a42.31 42.31 0 0 0 42.2-40.06H161a160.53 160.53 0 0 1-76.9-19.63 7.5 7.5 0 0 1 7.2-13.16 145.59 145.59 0 0 0 69.7 17.78h50.31a7.5 7.5 0 0 1 7.5 7.5v5.29a57.33 57.33 0 0 1-57.26 57.27h-3.21V497h195.29v-25.51h-3.21a57.33 57.33 0 0 1-57.26-57.27v-5.29a7.5 7.5 0 0 1 7.5-7.5H351A145.45 145.45 0 0 0 496.39 256c0-80.19-65.23-145.43-145.42-145.43h-50.31a7.5 7.5 0 0 1-7.5-7.5v-5.29a57.33 57.33 0 0 1 57.26-57.27h3.21V15H224.56a7.5 7.5 0 0 1 0-15h136.57a7.5 7.5 0 0 1 7.5 7.5V48a7.5 7.5 0 0 1-7.5 7.5h-10.71a42.31 42.31 0 0 0-42.2 40.06H351c88.46 0 160.42 72 160.42 160.43A160.43 160.43 0 0 1 351 416.43h-42.78a42.32 42.32 0 0 0 42.2 40.06h10.71a7.5 7.5 0 0 1 7.5 7.5v40.51a7.5 7.5 0 0 1-7.5 7.5Zm-302-134.48a7.48 7.48 0 0 1-5-1.91A160.43 160.43 0 0 1 161 95.57h42.75a42.32 42.32 0 0 0-42.2-40.06h-10.68a7.5 7.5 0 0 1-7.5-7.5V7.5a7.5 7.5 0 0 1 7.5-7.5h38.69a7.5 7.5 0 0 1 0 15h-31.19v25.51h3.21a57.33 57.33 0 0 1 57.26 57.27v5.29a7.5 7.5 0 0 1-7.5 7.5H161a145.43 145.43 0 0 0-96.88 253.86 7.5 7.5 0 0 1-5 13.09Zm249.25-11.1h-7.71a7.5 7.5 0 0 1-7.5-7.5V153.08a7.5 7.5 0 0 1 7.5-7.5h7.71a109.42 109.42 0 0 1 79.77 34.15 7.5 7.5 0 1 1-10.84 10.36 94.57 94.57 0 0 0-68.93-29.51h-.21v190.84h.21A95.53 95.53 0 0 0 403.79 256a94.47 94.47 0 0 0-8.38-39.1 7.5 7.5 0 1 1 13.68-6.16 110.42 110.42 0 0 1-100.72 155.68Zm-97 0h-7.72a110.42 110.42 0 0 1 0-220.84h7.72a7.5 7.5 0 0 1 7.5 7.5v205.84a7.5 7.5 0 0 1-7.5 7.5Zm-7.72-205.84a95.42 95.42 0 0 0 0 190.84h.22V160.58Z"/>
    </symbol>
    <symbol id="item-1991">
      <title>infinity</title>
<path fill="#7ad7ee" d="M392.27 143.77c-49.17 0-107.18 49.53-136.27 77.79-29.09-28.26-87.1-77.79-136.27-77.79a112.23 112.23 0 0 0 0 224.46c49.17 0 107.18-49.54 136.27-77.79 29.09 28.25 87.1 77.79 136.27 77.79a112.23 112.23 0 1 0 0-224.46ZM119.73 320.13a64.13 64.13 0 0 1 0-128.26c27.68 0 75.89 38.14 106.27 67.63-26.2 21.5-74.16 60.63-106.27 60.63Zm272.54 0c-32.11 0-78.38-43.45-104.58-65 30.38-29.49 76.89-63.29 104.58-63.29a64.13 64.13 0 0 1 0 128.26Z"/>
  <path fill="#4bc3ef" d="M392.27 167.82c-8.09 0-17.17 1.85-27 5.5l-18.22 6.75 31.22 14.23a49 49 0 0 1 14-2.43 64.13 64.13 0 0 1 0 128.26c-11 0-23.38-5-36-12.43l-14.9 19.49 8.31 4.45c15.74 8.43 29.68 12.54 42.59 12.54a88.18 88.18 0 0 0 0-176.36ZM264 249.13l-24.77 24.05c-45.78 44.46-90.45 71-119.53 71a88.18 88.18 0 0 1 0-176.36h8v-23.56a77.73 77.73 0 0 0-8-.49 112.23 112.23 0 0 0 0 224.46c49.17 0 107.18-49.54 136.27-77.79 1.82 1.77 8-41.31 8-41.31Z"/>
  <path fill="#77cc7d" d="M308.39 177.67A443.76 443.76 0 0 0 256 221.56L222.47 256c-26.2 21.52-70.63 64.13-102.74 64.13A64 64 0 0 1 68.9 295c19 27.85 75.89 56.78 134 39.9 21.19-14.9 35.01-36.85 48.1-49.51L284.47 251c30.39-29.49 80.11-59.08 107.8-59.08a64 64 0 0 1 50.83 25.18c-19.1-28.14-76.49-57.39-134.75-39.36Z"/>
  <path fill="#52bd7e" d="M364.67 173.64c-36.34 13.76-75.38 49.07-91.89 65.1l-19.32 18.76 19.23 15.8 16.84-17.3c30.38-29.49 75.05-64.13 102.74-64.13a64 64 0 0 1 50.83 25.18c-12.76-18.81-42.67-38-78.47-43.39Z"/>
  <path fill="#52bd7e" d="m264 249.13-24.77 24.05c-33.15 32.19-65.68 54.92-92.17 65.05a128.51 128.51 0 0 0 55.74-3.36C224.08 320 243 303.1 256 290.44l8.81-9.05c-.11-13.79-.79-32.26-.79-32.26Z"/>
  <path fill="#ff7e92" d="M374.05 316.38c-29.19-10.84-63-42.7-84.52-60.37-5.94-5.75-33.53-34.44-33.53-34.44-29.09-28.26-87.1-77.79-136.27-77.79-59.66 0-108.45 46.82-111.89 105.63C13.73 188.53 101 177.75 138 195.62v.07c26.61 9.75 60.14 36.67 84.5 60.31l33.5 34.44c29.09 28.25 87.1 77.78 136.27 77.78 59.66 0 108.45-46.81 111.89-105.62-5.89 60.87-93.16 71.65-130.16 53.78Z"/>
  <path d="M392.27 136.27c-48.75 0-104.39 44.8-136.27 74.91-31.88-30.11-87.52-74.91-136.27-74.91a119.73 119.73 0 0 0 0 239.46c48.75 0 104.39-44.8 136.27-74.91 31.88 30.11 87.52 74.91 136.27 74.91a119.73 119.73 0 1 0 0-239.46ZM497 256c0 19.64-8.84 35.15-26.29 46.09-11.3 7.1-24.91 11.43-38.6 13.41a71.51 71.51 0 0 0 17-103c-16.5-24.47-57.78-49-104.51-48 17.68-8.79 33.65-13.24 47.65-13.24A104.85 104.85 0 0 1 497 256Zm-217.66-21.22c-1.92-2.12-6.1-6-13-12.68A433.25 433.25 0 0 1 309.6 186c25.72-9.2 51.74-7.71 73.88-.76-23.32 4.33-51.54 24.21-72.19 41.22a7.5 7.5 0 1 0 9.53 11.58c29.86-24.58 55.91-38.68 71.45-38.68a56.63 56.63 0 0 1 0 113.26c-10.94 0-26.91-6.83-46.18-19.74-16.2-10.88-34.43-25.88-51.34-42.26a356.17 356.17 0 0 1-15.41-15.84ZM15 256c0-19.64 8.84-35.15 26.29-46.09 11.3-7.1 24.91-11.43 38.59-13.4a71.51 71.51 0 0 0-17 103c16.2 24 56.17 48 101.75 48h2.77c-17.7 8.8-33.68 13.26-47.69 13.26A104.85 104.85 0 0 1 15 256Zm217.66 21.22c1.82 2 6.2 6.74 12.58 13.13A432.31 432.31 0 0 1 202.4 326c-25.72 9.2-51.77 7.72-73.91.77 23.21-4.31 51.29-24 71.84-40.91a7.5 7.5 0 0 0-9.52-11.6c-29.7 24.39-55.61 38.38-71.08 38.38a56.63 56.63 0 0 1 0-113.26c10.94 0 26.91 6.82 46.19 19.74 16.19 10.88 34.42 25.88 51.33 42.26a412.81 412.81 0 0 1 15.41 15.84Zm159.61 83.51c-20.07 0-44.14-9.11-71.55-27.07-24-15.75-45.62-35.13-59.5-48.6a422.37 422.37 0 0 1-17.47-17.94c-4.54-5-10.59-11.17-16.06-16.5-13.11-12.73-52.46-49.06-86.52-61.78-25.73-12.39-74.25-12.73-107.86 8.36l-.37.25a104.69 104.69 0 0 1 86.79-46.17c20.07 0 44.14 9.1 71.55 27.06 24 15.75 45.62 35.13 59.49 48.6a469.23 469.23 0 0 1 17.48 17.94 369.33 369.33 0 0 0 16.05 16.5c13.12 12.73 52.47 49.05 86.53 61.78 11.29 5.44 27 8.56 43.87 8.56 21.59 0 45.14-5.09 64-16.92l.37-.25a104.7 104.7 0 0 1-86.79 46.18Z"/>
    </symbol>
    <symbol id="item-1992">
      <title>arrow up</title>
<path fill="#f5f5f5" d="M412.85 193.59a43.33 43.33 0 0 1-43.32 43.33h-11.95v222.42a45.15 45.15 0 0 1-45.15 45.16H199.57a45.16 45.16 0 0 1-45.16-45.16V236.92h-11.95a43.29 43.29 0 0 1-33.89-70.25L222.1 23.86a43.3 43.3 0 0 1 67.79 0l113.54 142.81a43.4 43.4 0 0 1 9.42 26.92Z"/>
  <path fill="#fddf7c" d="M252.11 47.71 138.58 190.53a5 5 0 0 0 3.88 8.05h45.33a5 5 0 0 1 5 5v248.8a13.78 13.78 0 0 0 13.79 13.78h98.92a13.79 13.79 0 0 0 13.79-13.78V203.54a5 5 0 0 1 5-5h45.33a5 5 0 0 0 3.88-8.05L259.88 47.71a5 5 0 0 0-7.77 0Z"/>
  <path fill="#ebe5ed" d="M222.1 23.86 108.57 166.67a43.22 43.22 0 0 0-6.72 42 43.11 43.11 0 0 1 6.72-12L222.1 53.86a43.3 43.3 0 0 1 67.79 0l113.54 142.81a43.45 43.45 0 0 1 6.73 12 43.19 43.19 0 0 0 2.69-15.06 43.4 43.4 0 0 0-9.42-26.92L289.89 23.85a43.3 43.3 0 0 0-67.79 0Z"/>
  <path fill="#fcce63" d="M252.11 47.71 138.58 190.53a5 5 0 0 0 3.88 8.05H156l96.11-120.87a5 5 0 0 1 7.77 0L356 198.58h13.57a5 5 0 0 0 3.88-8.05L259.88 47.71a5 5 0 0 0-7.77 0Z"/>
  <path d="M420.35 193.59a50.88 50.88 0 0 1-50.82 50.83h-4.45V304a7.5 7.5 0 0 1-15 0v-67a7.5 7.5 0 0 1 7.5-7.5h11.95a35.79 35.79 0 0 0 28-58.08L284 28.52a35.81 35.81 0 0 0-56 0L114.44 171.34a35.79 35.79 0 0 0 28 58.08h11.95a7.49 7.49 0 0 1 7.5 7.5v222.43A37.71 37.71 0 0 0 199.57 497h112.86a37.69 37.69 0 0 0 37.65-37.65V334a7.5 7.5 0 0 1 15 0v125.4a52.7 52.7 0 0 1-52.65 52.6H199.57a52.72 52.72 0 0 1-52.66-52.65V244.42h-4.45A50.79 50.79 0 0 1 102.7 162L216.23 19.19a50.8 50.8 0 0 1 79.53 0L409.3 162a50.93 50.93 0 0 1 11.05 31.59Z"/>
  <path d="M382 193.59a12.52 12.52 0 0 1-1.26 5.44 12.35 12.35 0 0 1-11.22 7.05h-42.77v246.3a21.31 21.31 0 0 1-21.29 21.28h-98.92a21.31 21.31 0 0 1-21.29-21.28V400.7a7.5 7.5 0 0 1 15 0v51.68a6.29 6.29 0 0 0 6.29 6.28h98.92a6.29 6.29 0 0 0 6.29-6.28V203.54a12.47 12.47 0 0 1 12.46-12.46h40.07L256 54.88l-108.28 136.2h40.07a12.47 12.47 0 0 1 12.46 12.46V370.7a7.5 7.5 0 1 1-15 0V206.08h-42.79a12.46 12.46 0 0 1-9.75-20.22L246.24 43a12.47 12.47 0 0 1 19.51 0l113.54 142.86a12.39 12.39 0 0 1 2.71 7.73Z"/>
    </symbol>
    <symbol id="item-1993">
      <title>arrow right</title>
<path fill="#f5f5f5" d="M318.41 412.85a43.33 43.33 0 0 1-43.33-43.32v-11.95H52.66A45.15 45.15 0 0 1 7.5 312.43V199.57a45.16 45.16 0 0 1 45.16-45.16h222.42v-11.95a43.29 43.29 0 0 1 70.25-33.89L488.14 222.1a43.3 43.3 0 0 1 0 67.79L345.33 403.43a43.4 43.4 0 0 1-26.92 9.42Z"/>
  <path fill="#fddf7c" d="M464.29 252.11 321.47 138.58a5 5 0 0 0-8.05 3.88v45.33a5 5 0 0 1-5 5H59.62a13.78 13.78 0 0 0-13.78 13.79v98.92a13.79 13.79 0 0 0 13.78 13.79h248.84a5 5 0 0 1 5 5v45.33a5 5 0 0 0 8.05 3.88l142.78-113.62a5 5 0 0 0 0-7.77Z"/>
  <path fill="#ebe5ed" d="M488.14 222.1 345.33 108.57a43.22 43.22 0 0 0-42-6.72 43.11 43.11 0 0 1 12 6.72L458.14 222.1a43.3 43.3 0 0 1 0 67.79L315.33 403.43a43.45 43.45 0 0 1-12 6.73 43.19 43.19 0 0 0 15.06 2.69 43.4 43.4 0 0 0 26.92-9.42l142.84-113.54a43.3 43.3 0 0 0 0-67.79Z"/>
  <path fill="#fcce63" d="M464.29 252.11 321.47 138.58a5 5 0 0 0-8.05 3.88V156l120.87 96.09a5 5 0 0 1 0 7.77L313.42 356v13.57a5 5 0 0 0 8.05 3.88l142.82-113.57a5 5 0 0 0 0-7.77Z"/>
  <path d="M318.41 420.35a50.88 50.88 0 0 1-50.83-50.82v-4.45h-59.53a7.5 7.5 0 0 1 0-15h67a7.5 7.5 0 0 1 7.5 7.5v11.95a35.79 35.79 0 0 0 58.08 28L483.48 284a35.81 35.81 0 0 0 0-56L340.66 114.44a35.79 35.79 0 0 0-58.08 28v11.95a7.49 7.49 0 0 1-7.5 7.5H52.65A37.71 37.71 0 0 0 15 199.57v112.86a37.69 37.69 0 0 0 37.65 37.65h125.4a7.5 7.5 0 0 1 0 15H52.65A52.7 52.7 0 0 1 0 312.43V199.57a52.72 52.72 0 0 1 52.65-52.66h214.93v-4.45A50.79 50.79 0 0 1 350 102.7l142.81 113.53a50.8 50.8 0 0 1 0 79.53L350 409.3a50.93 50.93 0 0 1-31.59 11.05Z"/>
  <path d="M318.41 382a12.52 12.52 0 0 1-5.44-1.26 12.35 12.35 0 0 1-7.05-11.22v-42.77H59.62a21.31 21.31 0 0 1-21.28-21.29v-98.92a21.31 21.31 0 0 1 21.28-21.29h51.68a7.5 7.5 0 1 1 0 15H59.62a6.29 6.29 0 0 0-6.28 6.29v98.92a6.29 6.29 0 0 0 6.28 6.29h248.84a12.47 12.47 0 0 1 12.46 12.46v40.07L457.12 256l-136.2-108.28v40.07a12.47 12.47 0 0 1-12.46 12.46H141.3a7.5 7.5 0 0 1 0-15h164.62v-42.79a12.46 12.46 0 0 1 20.22-9.75L469 246.24a12.47 12.47 0 0 1 0 19.51L326.14 379.29a12.39 12.39 0 0 1-7.73 2.71Z"/>
    </symbol>
    <symbol id="item-1994">
      <title>arrow down</title>
<path fill="#f5f5f5" d="M99.15 318.41a43.33 43.33 0 0 1 43.32-43.33h11.95V52.66A45.15 45.15 0 0 1 199.57 7.5h112.86a45.16 45.16 0 0 1 45.16 45.16v222.42h12a43.29 43.29 0 0 1 33.89 70.25L289.9 488.14a43.3 43.3 0 0 1-67.79 0L108.57 345.33a43.4 43.4 0 0 1-9.42-26.92Z"/>
  <path fill="#fddf7c" d="m259.89 464.29 113.53-142.82a5 5 0 0 0-3.88-8.05h-45.33a5 5 0 0 1-5-5V59.62a13.78 13.78 0 0 0-13.79-13.78h-98.88a13.79 13.79 0 0 0-13.79 13.78v248.84a5 5 0 0 1-5 5h-45.29a5 5 0 0 0-3.88 8.05l113.54 142.78a5 5 0 0 0 7.77 0Z"/>
  <path fill="#ebe5ed" d="m289.9 488.14 113.53-142.81a43.22 43.22 0 0 0 6.72-42 43.11 43.11 0 0 1-6.72 12L289.9 458.14a43.3 43.3 0 0 1-67.79 0L108.57 315.33a43.45 43.45 0 0 1-6.73-12 43.19 43.19 0 0 0-2.69 15.06 43.4 43.4 0 0 0 9.42 26.92l113.54 142.84a43.3 43.3 0 0 0 67.79 0Z"/>
  <path fill="#fcce63" d="m259.89 464.29 113.53-142.82a5 5 0 0 0-3.88-8.05H356l-96.11 120.87a5 5 0 0 1-7.77 0L156 313.42h-13.54a5 5 0 0 0-3.88 8.05l113.54 142.82a5 5 0 0 0 7.77 0Z"/>
  <path d="M91.65 318.41a50.88 50.88 0 0 1 50.82-50.83h4.45v-59.53a7.5 7.5 0 0 1 15 0v67a7.5 7.5 0 0 1-7.5 7.5h-11.95a35.79 35.79 0 0 0-28 58.08L228 483.48a35.81 35.81 0 0 0 56 0l113.56-142.82a35.79 35.79 0 0 0-28-58.08h-12a7.49 7.49 0 0 1-7.5-7.5V52.65A37.71 37.71 0 0 0 312.43 15H199.57a37.69 37.69 0 0 0-37.65 37.65v125.4a7.5 7.5 0 0 1-15 0V52.65A52.7 52.7 0 0 1 199.57 0h112.86a52.72 52.72 0 0 1 52.66 52.65v214.93h4.45A50.79 50.79 0 0 1 409.3 350L295.77 492.81a50.8 50.8 0 0 1-79.53 0L102.7 350a50.93 50.93 0 0 1-11-31.59Z"/>
  <path d="M130 318.41a12.52 12.52 0 0 1 1.26-5.44 12.35 12.35 0 0 1 11.22-7.05h42.79V59.62a21.31 21.31 0 0 1 21.29-21.28h98.92a21.31 21.31 0 0 1 21.29 21.28v51.68a7.5 7.5 0 1 1-15 0V59.62a6.29 6.29 0 0 0-6.29-6.28h-98.94a6.29 6.29 0 0 0-6.29 6.28v248.84a12.47 12.47 0 0 1-12.46 12.46h-40.07L256 457.12l108.28-136.2h-40.07a12.47 12.47 0 0 1-12.46-12.46V141.3a7.5 7.5 0 0 1 15 0v164.62h42.79a12.46 12.46 0 0 1 9.75 20.22L265.76 469a12.47 12.47 0 0 1-19.51 0L132.71 326.14a12.39 12.39 0 0 1-2.71-7.73Z"/>
    </symbol>
    <symbol id="item-1995">
      <title>arrow left</title>
<path fill="#f5f5f5" d="M193.59 99.15a43.33 43.33 0 0 1 43.33 43.32v11.95h222.43a45.15 45.15 0 0 1 45.15 45.15v112.86a45.16 45.16 0 0 1-45.16 45.16H236.92v12a43.29 43.29 0 0 1-70.25 33.89L23.86 289.89a43.29 43.29 0 0 1 0-67.78l142.81-113.54a43.4 43.4 0 0 1 26.92-9.42Z"/>
  <path fill="#fddf7c" d="m47.71 259.89 142.82 113.53a5 5 0 0 0 8.05-3.88v-45.33a5 5 0 0 1 5-5h248.8a13.78 13.78 0 0 0 13.78-13.79v-98.88a13.79 13.79 0 0 0-13.78-13.79H203.54a5 5 0 0 1-5-5v-45.29a5 5 0 0 0-8.05-3.88L47.71 252.12a5 5 0 0 0 0 7.77Z"/>
  <path fill="#ebe5ed" d="m23.85 289.9 142.82 113.53a43.2 43.2 0 0 0 42 6.72 43.2 43.2 0 0 1-12-6.72L53.86 289.89a43.29 43.29 0 0 1 0-67.78l142.81-113.54a43.45 43.45 0 0 1 12-6.73 43.19 43.19 0 0 0-15.06-2.69 43.4 43.4 0 0 0-26.92 9.42L23.85 222.11a43.3 43.3 0 0 0 0 67.79Z"/>
  <path fill="#fcce63" d="m47.71 259.89 142.82 113.53a5 5 0 0 0 8.05-3.88V356L77.71 259.89a5 5 0 0 1 0-7.78L198.58 156v-13.54a5 5 0 0 0-8.05-3.88L47.71 252.11a5 5 0 0 0 0 7.78Z"/>
  <path d="M193.59 91.65a50.88 50.88 0 0 1 50.83 50.82v4.45H304a7.5 7.5 0 0 1 0 15h-67a7.5 7.5 0 0 1-7.5-7.5v-11.95a35.79 35.79 0 0 0-58.08-28L28.52 228a35.81 35.81 0 0 0 0 56l142.81 113.56a35.8 35.8 0 0 0 58.09-28v-12a7.49 7.49 0 0 1 7.5-7.5h222.42A37.7 37.7 0 0 0 497 312.43V199.57a37.69 37.69 0 0 0-37.65-37.65H334a7.5 7.5 0 0 1 0-15h125.4a52.71 52.71 0 0 1 52.6 52.65v112.86a52.72 52.72 0 0 1-52.66 52.66H244.42v4.45A50.79 50.79 0 0 1 162 409.3L19.19 295.77a50.8 50.8 0 0 1 0-79.53L162 102.7a50.93 50.93 0 0 1 31.59-11Z"/>
  <path d="M193.59 130a12.52 12.52 0 0 1 5.44 1.26 12.35 12.35 0 0 1 7.05 11.22v42.79h246.3a21.31 21.31 0 0 1 21.28 21.29v98.92a21.31 21.31 0 0 1-21.28 21.29H400.7a7.5 7.5 0 0 1 0-15h51.68a6.29 6.29 0 0 0 6.28-6.29v-98.94a6.29 6.29 0 0 0-6.28-6.29H203.54a12.47 12.47 0 0 1-12.46-12.46v-40.07L54.88 256l136.2 108.28v-40.07a12.47 12.47 0 0 1 12.46-12.46H370.7a7.5 7.5 0 1 1 0 15H206.08v42.79a12.46 12.46 0 0 1-20.22 9.75L43 265.76a12.48 12.48 0 0 1 0-19.52l142.86-113.53a12.39 12.39 0 0 1 7.73-2.71Z"/>
    </symbol>
    <symbol id="item-1996">
      <title>refresh arrows</title>
<path fill="#60b7ff" d="M498.59 229.5 475 227C463.32 114.84 367.87 27.39 252.77 28.09A221.92 221.92 0 0 0 64.93 133.87a19.84 19.84 0 1 0 33.92 20.59A181.2 181.2 0 0 1 253 67.79c91.64-.56 168.11 66.93 181.39 155l-21.67-2.26a6.59 6.59 0 0 0-6.68 9.27l35.27 77.91a6.59 6.59 0 0 0 11.31 1.18l50.58-69a6.58 6.58 0 0 0-4.62-10.44ZM435.85 354.27a19.89 19.89 0 0 0-25.85 7 181.19 181.19 0 0 1-156.16 83c-89-1.55-162.21-67-176.57-151.77l22.73 1.08a6.58 6.58 0 0 0 6.15-9.62l-39.57-75.82a6.58 6.58 0 0 0-11.35-.55L8.58 279.28a6.59 6.59 0 0 0 5.2 10.17l23.06 1.1C50.7 397.92 141.75 482 253.15 484a221.92 221.92 0 0 0 190.28-101.37 19.82 19.82 0 0 0-7.58-28.36Z"/>
  <path fill="#60b7ff" d="M498.59 229.5 475 227C463.32 114.84 367.87 27.39 252.77 28.09A221.92 221.92 0 0 0 64.93 133.87a19.84 19.84 0 1 0 33.92 20.59A181.2 181.2 0 0 1 253 67.79c91.64-.56 168.11 66.93 181.39 155l-21.67-2.26a6.59 6.59 0 0 0-6.68 9.27l35.27 77.91a6.59 6.59 0 0 0 11.31 1.18l50.58-69a6.58 6.58 0 0 0-4.62-10.44ZM435.85 354.27a19.89 19.89 0 0 0-25.85 7 181.19 181.19 0 0 1-156.16 83c-89-1.55-162.21-67-176.57-151.77l22.73 1.08a6.58 6.58 0 0 0 6.15-9.62l-39.57-75.82a6.58 6.58 0 0 0-11.35-.55L8.58 279.28a6.59 6.59 0 0 0 5.2 10.17l23.06 1.1C50.7 397.92 141.75 482 253.15 484a221.92 221.92 0 0 0 190.28-101.37 19.82 19.82 0 0 0-7.58-28.36Z"/>
  <path fill="#26a6fe" d="M498.59 229.5 475 227C463.32 114.84 367.87 27.39 252.77 28.09q-7.65 0-15.2.61c107 7.88 193.34 92 204.37 198.34l23.63 2.46a6.58 6.58 0 0 1 4.62 10.44l-36.82 50.21 7.95 17.58a6.59 6.59 0 0 0 11.31 1.18l50.58-69a6.58 6.58 0 0 0-4.62-10.44ZM435.85 354.27a19.89 19.89 0 0 0-25.61 6.64 19.75 19.75 0 0 1 .17 21.72A222 222 0 0 1 240.6 483.37c4.15.31 8.33.52 12.55.59a221.92 221.92 0 0 0 190.28-101.33 19.82 19.82 0 0 0-7.58-28.36Z"/>
  <path d="M434.49 310.87c-38.4-84.82-36.49-79.51-36.49-83.73a14.09 14.09 0 0 1 14-14.08c1 0 .39 0 13.24 1.3a174.79 174.79 0 0 0-79.41-113 7.5 7.5 0 1 1 7.89-12.76 189.73 189.73 0 0 1 88.08 133.12 7.5 7.5 0 0 1-8.19 8.58l-20.09-2.1 34 75 48.71-66.41-22-2.3a7.48 7.48 0 0 1-6.68-6.68 213.91 213.91 0 0 0-213.4-192.18c-77.3.25-144.45 39.82-182.83 102.22a12.34 12.34 0 1 0 21.14 12.73c33.34-54.32 92.33-90.05 161.69-90.25a188.6 188.6 0 0 1 67 12.2 7.5 7.5 0 0 1-5.3 14A173.65 173.65 0 0 0 254.2 75.3c-62.67.2-117.56 32-148.91 83.1A27.34 27.34 0 1 1 58.54 130 229.43 229.43 0 0 1 254.15 20.63c115.54 0 212.73 86.27 227.55 199.62l17.66 1.84a14.06 14.06 0 0 1 12.63 14c0 6.3 1.89 2-53.31 77.28a14.09 14.09 0 0 1-24.19-2.52ZM253 491.34a231.33 231.33 0 0 1-32.14-2.82 7.5 7.5 0 1 1 2.35-14.81 216.72 216.72 0 0 0 30.06 2.63 213.79 213.79 0 0 0 183.86-97.91 12.34 12.34 0 1 0-20.83-13.23 189.87 189.87 0 0 1-346.43-71.58 7.51 7.51 0 0 1 7.76-8.74l21.14 1-38.11-73-44.92 69 21.45 1a7.5 7.5 0 0 1 7.08 6.53C54.8 371 112.16 440.17 190.4 465.79a7.5 7.5 0 1 1-4.67 14.21C104 453.3 43.61 382.11 30.29 297.63l-16.87-.81a14.09 14.09 0 0 1-11.13-21.75l46.65-71.69a14.08 14.08 0 0 1 24.29 1.17l39.57 75.82A14.08 14.08 0 0 1 99.64 301l-13.17-.63a174.88 174.88 0 0 0 317.24 56.73 27.34 27.34 0 1 1 46 29.54A228.8 228.8 0 0 1 253 491.34Z"/>
    </symbol>
    <symbol id="item-1997">
      <title>shapes</title>
<path fill="#c698ff" d="M194.2 211.41H40.36a21.66 21.66 0 0 1-21.66-21.66V35.91a21.66 21.66 0 0 1 21.66-21.66H194.2a21.66 21.66 0 0 1 21.66 21.66v153.84a21.66 21.66 0 0 1-21.66 21.66Z"/>
  <path fill="#ff92a6" d="M387.86 218.06a105.23 105.23 0 1 1 105.23-105.23 105.22 105.22 0 0 1-105.23 105.23ZM110.89 296.6 12 368.45a10.87 10.87 0 0 0-4 12.16l37.81 116.27a10.88 10.88 0 0 0 10.35 7.51H178.4a10.89 10.89 0 0 0 10.35-7.51l37.77-116.27a10.87 10.87 0 0 0-4-12.16l-98.9-71.85a10.87 10.87 0 0 0-12.73 0Z"/>
  <path fill="#c698ff" d="m377.38 305.23-104.5 181a12.1 12.1 0 0 0 10.48 18.16h209a12.11 12.11 0 0 0 10.49-18.16l-104.5-181a12.11 12.11 0 0 0-21 0Z"/>
  <path fill="#b983ff" d="M194.08 14.25h-67.22a21.66 21.66 0 0 1 21.66 21.66v153.84a21.66 21.66 0 0 1-21.66 21.66h67.22a21.66 21.66 0 0 0 21.66-21.66V35.91a21.66 21.66 0 0 0-21.66-21.66Z"/>
  <path fill="#ff758e" d="M387.74 7.61a105.18 105.18 0 0 0-33.6 5.48 105.26 105.26 0 0 1 0 199.48 105.23 105.23 0 1 0 33.6-205ZM222.45 368.45l-98.9-71.85a10.87 10.87 0 0 0-12.78 0l-27.22 19.77 71.69 52.08a10.87 10.87 0 0 1 3.95 12.16l-37.78 116.27a10.86 10.86 0 0 1-10.34 7.51h67.21a10.89 10.89 0 0 0 10.35-7.51l37.77-116.27a10.87 10.87 0 0 0-3.95-12.16Z"/>
  <path fill="#b983ff" d="m502.73 486.23-104.5-181a12.11 12.11 0 0 0-21 0l-23.12 40 81.38 141A12.11 12.11 0 0 1 425 504.39h67.22a12.11 12.11 0 0 0 10.48-18.16Z"/>
  <path d="M40.36 218.91H194.2a29.19 29.19 0 0 0 29.15-29.16v-29.64a7.5 7.5 0 1 0-15 0v29.64a14.17 14.17 0 0 1-14.16 14.16H40.36a14.17 14.17 0 0 1-14.16-14.16V35.92a14.18 14.18 0 0 1 14.16-14.17H194.2a14.18 14.18 0 0 1 14.16 14.17v91.43a7.5 7.5 0 1 0 15 0V35.92A29.19 29.19 0 0 0 194.2 6.76H40.36A29.19 29.19 0 0 0 11.2 35.92v153.83a29.19 29.19 0 0 0 29.16 29.16ZM387.86 225.55a112.72 112.72 0 1 0-112.72-112.72 112.84 112.84 0 0 0 112.72 112.72Zm0-210.44a97.73 97.73 0 1 1-97.72 97.72 97.84 97.84 0 0 1 97.72-97.72ZM227 362.39l-98.9-71.86a18.34 18.34 0 0 0-21.6 0L7.58 362.39a18.32 18.32 0 0 0-6.67 20.54l37.77 116.26a18.32 18.32 0 0 0 17.47 12.7H178.4a18.31 18.31 0 0 0 17.47-12.7l37.78-116.26a18.31 18.31 0 0 0-6.65-20.54Zm-7.59 15.91-37.79 116.26a3.37 3.37 0 0 1-3.22 2.33H56.15a3.37 3.37 0 0 1-3.21-2.33L15.17 378.3a3.37 3.37 0 0 1 1.22-3.78l98.9-71.86a3.39 3.39 0 0 1 4 0l98.9 71.86a3.37 3.37 0 0 1 1.2 3.78ZM509.34 482.48l-104.5-181a19.6 19.6 0 0 0-33.95 0l-104.5 181a19.61 19.61 0 0 0 17 29.41h28.06a7.5 7.5 0 0 0 0-15h-28.09a4.61 4.61 0 0 1-4-6.91l104.5-181a4.61 4.61 0 0 1 8 0l104.5 181a4.61 4.61 0 0 1-4 6.91H339.11a7.5 7.5 0 0 0 0 15h153.26a19.61 19.61 0 0 0 17-29.41Z"/>
    </symbol>
    <symbol id="item-1998">
      <title>aaa</title>

    </symbol>
    <symbol id="item-1999">
      <title>aaa</title>

    </symbol>
    <symbol id="item-2000">
      <title>aaa</title>

    </symbol>
    <symbol id="item-2001">
      <title>aaa</title>

    </symbol>
    <symbol id="item-2002">
      <title>aaa</title>

    </symbol>
    <symbol id="item-2003">
      <title>aaa</title>

    </symbol>
    <symbol id="item-2004">
      <title>aaa</title>

    </symbol>
    <symbol id="item-2005">
      <title>aaa</title>

    </symbol>
    <symbol id="item-2006">
      <title>aaa</title>

    </symbol>
    <symbol id="item-2007">
      <title>aaa</title>

    </symbol>
    <symbol id="item-2008">
      <title>aaa</title>

    </symbol>
    <symbol id="item-2009">
      <title>aaa</title>

    </symbol>
    <symbol id="item-2010">
      <title>aaa</title>

    </symbol>
    <symbol id="item-2011">
      <title>aaa</title>

    </symbol>
    <symbol id="item-2012">
      <title>aaa</title>

    </symbol>
    <symbol id="item-2013">
      <title>aaa</title>

    </symbol>
    <symbol id="item-2014">
      <title>aaa</title>

    </symbol>
    <symbol id="item-2015">
      <title>aaa</title>

    </symbol>
    <symbol id="item-2016">
      <title>aaa</title>

    </symbol>
    <symbol id="item-2017">
      <title>aaa</title>

    </symbol>
    <symbol id="item-2018">
      <title>aaa</title>

    </symbol>
    <symbol id="item-2019">
      <title>aaa</title>

    </symbol>
    <symbol id="item-2020">
      <title>aaa</title>

    </symbol>
    <symbol id="item-2021">
      <title>aaa</title>

    </symbol>
    <symbol id="item-2022">
      <title>aaa</title>

    </symbol>
    <symbol id="item-2023">
      <title>aaa</title>

    </symbol>
    <symbol id="item-2024">
      <title>aaa</title>

    </symbol>
    <symbol id="item-2025">
      <title>aaa</title>

    </symbol>
    <symbol id="item-2026">
      <title>aaa</title>

    </symbol>
    <symbol id="item-2027">
      <title>aaa</title>

    </symbol>
    <symbol id="item-2028">
      <title>aaa</title>

    </symbol>
    <symbol id="item-2029">
      <title>aaa</title>

    </symbol>
    <symbol id="item-2030">
      <title>aaa</title>

    </symbol>
    <symbol id="item-2031">
      <title>aaa</title>

    </symbol>
    <symbol id="item-2032">
      <title>aaa</title>

    </symbol>
    <symbol id="item-2033">
      <title>aaa</title>

    </symbol>
    <symbol id="item-2034">
      <title>aaa</title>

    </symbol>
    <symbol id="item-2035">
      <title>aaa</title>

    </symbol>
    <symbol id="item-2036">
      <title>aaa</title>

    </symbol>
    <symbol id="item-2037">
      <title>aaa</title>

    </symbol>
    <symbol id="item-2038">
      <title>aaa</title>

    </symbol>
    <symbol id="item-2039">
      <title>aaa</title>

    </symbol>
    <symbol id="item-2040">
      <title>aaa</title>

    </symbol>
    <symbol id="item-2041">
      <title>aaa</title>

    </symbol>
    <symbol id="item-2042">
      <title>aaa</title>

    </symbol>
    <symbol id="item-2043">
      <title>aaa</title>

    </symbol>
    <symbol id="item-2044">
      <title>aaa</title>

    </symbol>
    <symbol id="item-2045">
      <title>aaa</title>

    </symbol>
    <symbol id="item-2046">
      <title>aaa</title>

    </symbol>
    <symbol id="item-2047">
      <title>aaa</title>

    </symbol>
    <symbol id="item-2048">
      <title>aaa</title>

    </symbol>

  </defs>
</svg>
