<svg xmlns="http://www.w3.org/2000/svg" viewBox="0 0 512 512">
  <defs>
    <symbol id="emoji-1">
      <title>happy</title>
      <path fill="#ffd764" d="M499.8 256a243.8 243.8 0 1 1-487.6 0 243.8 243.8 0 0 1 487.6 0Zm0 0" />
      <path fill="#fcb652" d="M334.4 25.2a246.1 246.1 0 0 1-156.1 461.4 243.8 243.8 0 0 0 77.7 13.2A243.8 243.8 0 0 0 499.8 256 243.8 243.8 0 0 0 334.4 25.2Zm0 0" />
      <path fill="#901e1d" d="M256 397.3a141.3 141.3 0 0 1-140.5-129.1h281.2a141.3 141.3 0 0 1-140.8 129Zm0 0" />
      <path fill="#f15645" d="M255.9 329a144 144 0 0 0-91.8 33.8 140 140 0 0 0 184 0A144.2 144.2 0 0 0 256 329Zm0 0" />
      <path fill="#df2826" d="M328.2 348.8a107.2 107.2 0 0 1-72.4 25.2 118.3 118.3 0 0 1-73-24.5 144 144 0 0 0-18.8 13.3 140 140 0 0 0 184.1 0 143.2 143.2 0 0 0-20-14Zm0 0" />
      <path fill="#3f1511" d="M256 0C114.8 0 0 114.8 0 256s114.8 256 256 256 256-114.8 256-256S397.2 0 256 0Zm0 24.4A231.6 231.6 0 1 1 24.4 256 231.4 231.4 0 0 1 256 24.4Zm-91.4 121.9a42.8 42.8 0 0 0-42.7 42.7 12.2 12.2 0 1 0 24.4 0 18.3 18.3 0 0 1 36.6 0 12.2 12.2 0 0 0 24.3 0 42.9 42.9 0 0 0-42.6-42.7Zm189 0a42.8 42.8 0 0 0-42.7 42.7 12.2 12.2 0 0 0 24.3 0 18.3 18.3 0 0 1 36.6 0 12.2 12.2 0 0 0 24.4 0 42.9 42.9 0 0 0-42.7-42.7ZM115.4 256a12.2 12.2 0 0 0-12.2 13.2A153.5 153.5 0 0 0 256 409.4c79.5 0 146-61 152.9-140.2a12.2 12.2 0 0 0-12.2-13.2Zm265.3 24.4a131.7 131.7 0 0 1-36.5 68.3 142.8 142.8 0 0 0-176.4 0 133.7 133.7 0 0 1-36.5-68.3Zm-124.9 62a119.4 119.4 0 0 1 68.9 22.2 125.2 125.2 0 0 1-137.4 0 119.7 119.7 0 0 1 68.5-22.1Zm0 0" />
    </symbol>
  </defs>
  <defs>
    <symbol id="emoji-2">
      <title>shocked</title>
      <path fill="#ffd764" d="M494.1 250A238.1 238.1 0 1 1 18 250a238.1 238.1 0 0 1 476.2 0Zm0 0" />
      <path fill="#fcb652" d="M338 26.5a241.4 241.4 0 0 1 25.2 408.1v27.5A237.7 237.7 0 0 0 338 26.5Zm0 0" />
      <path fill="#901e1d" d="M244 238.1h24a95.3 95.3 0 0 1 95.2 95.3v142.9a23.8 23.8 0 0 1-23.8 23.8H172.7a23.8 23.8 0 0 1-23.9-23.8V333.4a95.3 95.3 0 0 1 95.3-95.3Zm0 0" />
      <path fill="#f15645" d="M363.2 357.1C268 357.6 191 421 191 499l1 1.2h147.3a23.8 23.8 0 0 0 23.8-23.8Zm0 0" />
      <path fill="#df2826" d="M363.2 357.1c-7.3 0-14.5.5-21.5 1.3 1.9 20.2 8.4 118-41 119-40 .9-85.3.5-107.7.2a118.5 118.5 0 0 0-2 21.3l1 1.2h147.4a23.8 23.8 0 0 0 23.8-23.8Zm0 0" />
      <path fill="#fafafa" d="M164.4 174.5a34.6 34.6 0 1 1-10-24.5 34.6 34.6 0 0 1 10 24.5ZM385.9 174.5a34.6 34.6 0 1 1-10.2-24.5 34.6 34.6 0 0 1 10.2 24.5Zm0 0" />
      <path fill="#3f1511" d="M256 0C118 0 6 112 6 250a250.8 250.8 0 0 0 110.2 207.4 187.4 187.4 0 0 0 20.7 12.6v6.3a35.9 35.9 0 0 0 35.8 35.7h166.7a35.9 35.9 0 0 0 35.7-35.7V470c7.3-4.2 14-8.2 20.7-12.6a250.8 250.8 0 0 0 110.3-207.3C506 112 393.9 0 256 0Zm0 23.8a226.3 226.3 0 0 1 126.5 413.8l-7.4 4.8v-109a107.3 107.3 0 0 0-107.2-107.2h-23.8a107.3 107.3 0 0 0-107.2 107.2v109l-7.4-4.8A227.7 227.7 0 0 1 96 410 226.2 226.2 0 0 1 256 23.8ZM129.9 128a46.5 46.5 0 1 0 46.5 46.5 46.7 46.7 0 0 0-46.5-46.5Zm221.3 0a46.5 46.5 0 1 0 46.6 46.5 46.7 46.7 0 0 0-46.6-46.5ZM130 151.8a22.7 22.7 0 1 1-22.7 22.7 22.5 22.5 0 0 1 22.7-22.7Zm221.3 0a22.7 22.7 0 1 1-22.6 22.7 22.5 22.5 0 0 1 22.6-22.7Zm-107.1 98.3h23.8a83.2 83.2 0 0 1 83.4 83.3v11.8c-93.8 0-172.1 62.7-172.1 143h-6.5a11.7 11.7 0 0 1-12-12V333.4a83.2 83.2 0 0 1 83.4-83.3ZM351.3 369v107.3a11.7 11.7 0 0 1-12 12H203c0-64.7 65-119.3 148.3-119.3Zm0 0" />
    </symbol>
  </defs>
  <defs>
    <symbol id="emoji-3">
      <title>dead</title>
      <path fill="#ffd764" d="M499.8 256a243.8 243.8 0 1 1-487.6 0 243.8 243.8 0 0 1 487.6 0Zm0 0" />
      <path fill="#fcb652" d="M340.3 27.3A246.7 246.7 0 0 1 180 487 243.6 243.6 0 0 0 340.3 27.3Zm0 0" />
      <path fill="#f15645" d="M252.7 304.8v51.7a55 55 0 0 1-110 0v-51.7" />
      <path fill="#df2826" d="M142.7 304.8h110v28.7h-110z" />
      <path fill="#3f1511" d="M256 0C114.8 0 0 114.8 0 256s114.8 256 256 256 256-114.8 256-256S397.2 0 256 0Zm0 24.4A231.6 231.6 0 1 1 24.4 256 231.4 231.4 0 0 1 256 24.4Zm-123.8 134a12.2 12.2 0 0 0-8 21.1l16.5 15.6-16.5 15.5a12.2 12.2 0 0 0 16.8 17.7l17.5-16.5 17.5 16.5a12.2 12.2 0 1 0 16.8-17.7L176.3 195l16.5-15.5a12.2 12.2 0 1 0-16.8-17.7l-17.5 16.5-17.5-16.5a12.2 12.2 0 0 0-8.8-3.3Zm195.1 0a12.2 12.2 0 0 0-8 21.1l16.5 15.6-16.5 15.5a12.2 12.2 0 0 0 16.8 17.7l17.5-16.5 17.4 16.5a12.2 12.2 0 0 0 16.8-17.7L371.3 195l16.5-15.5a12.2 12.2 0 1 0-16.8-17.7l-17.5 16.5-17.5-16.5a12.3 12.3 0 0 0-8.7-3.3Zm-212 134.2a12.2 12.2 0 0 0 0 24.3h15.2v39.6a67.2 67.2 0 1 0 134.4 0V317h131.7a12.2 12.2 0 0 0 0-24.4ZM155 317h30.6v36.6a12.2 12.2 0 0 0 24.4 0V317h30.6v39.6a42.8 42.8 0 1 1-85.6 0Zm0 0" />
    </symbol>
  </defs>
  <defs>
    <symbol id="emoji-4">
      <title>amazed</title>
      <path fill="#ffd764" d="M499.8 256a243.8 243.8 0 1 1-487.6 0 243.8 243.8 0 0 1 487.6 0Zm0 0" />
      <path fill="#fcb652" d="M331.6 24.2a244.7 244.7 0 0 1-167.4 457 244 244 0 0 0 91.8 18.6A243.8 243.8 0 0 0 499.8 256 243.8 243.8 0 0 0 331.6 24.2Zm0 0" />
      <path fill="#fafafa" d="M365.7 268.2s-12-37.6-27.2-50.9-58.1-23.8-58.1-23.8 43-10.5 58.1-23.8 27.2-50.8 27.2-50.8 12 37.6 27.2 50.8 58.1 23.8 58.1 23.8-43 10.6-58 23.8-27.3 50.9-27.3 50.9Zm0 0" />
      <path fill="#901e1d" d="M255.8 446a141.3 141.3 0 0 1-140.4-129h281.2a141.3 141.3 0 0 1-140.8 129.1Zm0 0" />
      <path fill="#f15645" d="M255.8 379a144.4 144.4 0 0 0-91.2 33 140 140 0 0 0 182.8 0 144.4 144.4 0 0 0-91.6-33Zm0 0" />
      <path fill="#df2826" d="M329.3 399.4c-12.4 10-35.4 22.4-73.5 22.6-37.9.2-60.8-12.4-73.2-22.6a144.8 144.8 0 0 0-18 12.7 140 140 0 0 0 182.8 0 145 145 0 0 0-18.1-12.7Zm0 0" />
      <path fill="#fafafa" d="M146.3 268.2s-12-37.6-27.2-50.9S61 193.5 61 193.5s43-10.5 58.1-23.8 27.2-50.8 27.2-50.8 12.1 37.6 27.2 50.8 58.2 23.8 58.2 23.8-43 10.6-58.2 23.8-27.2 50.9-27.2 50.9Zm0 0" />
      <path fill="#3f1511" d="M256 0C114.8 0 0 114.8 0 256s114.8 256 256 256 256-114.8 256-256S397.2 0 256 0Zm0 24.4A231.6 231.6 0 1 1 24.4 256 231.4 231.4 0 0 1 256 24.4Zm-109.7 82.3a12.2 12.2 0 0 0-11.6 8.4s-2.8 8.9-7.5 19.3-11.7 22.3-16.2 26.2-18.5 10.3-30.6 14.4-22.4 6.7-22.4 6.7a12.2 12.2 0 0 0 0 23.7s10.3 2.5 22.4 6.6 26.2 10.6 30.7 14.5 11.5 15.7 16.1 26.2 7.5 19.2 7.5 19.2a12.2 12.2 0 0 0 23.2 0s2.8-8.8 7.4-19.2 11.8-22.3 16.2-26.2 18.6-10.4 30.6-14.5 22.4-6.6 22.4-6.6a12.2 12.2 0 0 0 0-23.7s-10.3-2.5-22.4-6.7-26.1-10.5-30.6-14.4-11.5-15.8-16.2-26.2S158 115 158 115a12.2 12.2 0 0 0-11.6-8.4Zm219.4 0a12.2 12.2 0 0 0-11.6 8.4s-2.8 8.9-7.4 19.3-11.8 22.3-16.2 26.2-18.5 10.3-30.6 14.5-22.4 6.6-22.4 6.6a12.2 12.2 0 0 0 0 23.7s10.3 2.5 22.4 6.6 26.1 10.6 30.6 14.5 11.6 15.8 16.2 26.2 7.4 19.2 7.4 19.2a12.2 12.2 0 0 0 23.2 0s2.8-8.8 7.5-19.2 11.7-22.3 16.2-26.2 18.5-10.4 30.6-14.5 22.4-6.6 22.4-6.6a12.2 12.2 0 0 0 0-23.7s-10.3-2.5-22.4-6.7-26.2-10.5-30.6-14.4-11.6-15.8-16.2-26.2-7.4-19.3-7.4-19.3a12.2 12.2 0 0 0-11.6-8.4Zm-219.4 42.6a85.6 85.6 0 0 0 19.2 29.6c8 7 19 10.7 29.4 14.6-10.4 3.9-21.3 7.6-29.4 14.6a85.7 85.7 0 0 0-19.2 29.7c-4.8-10.4-10-21.7-19.2-29.7-8.1-7-19.1-10.7-29.5-14.6 10.4-3.8 21.4-7.5 29.5-14.6 9.1-8 14.4-19.2 19.2-29.6Zm219.4 0c4.8 10.4 10 21.6 19.2 29.6 8.1 7.1 19.1 10.8 29.5 14.6-10.4 3.9-21.4 7.6-29.5 14.6a85.7 85.7 0 0 0-19.2 29.7 85.6 85.6 0 0 0-19.2-29.7c-8-7-19-10.7-29.4-14.6 10.4-3.9 21.3-7.5 29.4-14.6 9.2-8 14.4-19.2 19.2-29.6ZM115.4 304.8a12.2 12.2 0 0 0-12.2 13.2A153.5 153.5 0 0 0 256 458.1c79.5.1 146-60.9 152.9-140.1a12.2 12.2 0 0 0-12.2-13.2Zm15.9 24.3h249.4a131.7 131.7 0 0 1-36.5 68.4 142.9 142.9 0 0 0-176.4 0 138.1 138.1 0 0 1-36.5-68.4Zm124.5 62.1a119.5 119.5 0 0 1 68.9 22.1 125.2 125.2 0 0 1-137.4 0 119.3 119.3 0 0 1 68.5-22Zm0 0" />
    </symbol>
  </defs>
  <defs>
    <symbol id="emoji-5">
      <title>excited</title>
      <path fill="#ffd764" d="M499.8 256a243.8 243.8 0 1 1-487.6 0 243.8 243.8 0 0 1 487.6 0Zm0 0" />
      <path fill="#fcb652" d="M340.8 27.4a246.2 246.2 0 0 1 128 215.5c0 136-110.3 246.2-246.2 246.2a246 246 0 0 1-55-6.5 244 244 0 0 0 88.4 17.2A243.8 243.8 0 0 0 499.8 256a243.8 243.8 0 0 0-159-228.6Zm0 0" />
      <path fill="#901e1d" d="M255.8 446c-73.1-.1-140.4-31.5-140.4-177.8h281.2C396.6 414.5 329 446 255.8 446Zm0 0" />
      <path fill="#f15645" d="M255.7 359.8a169.2 169.2 0 0 0-108 39.6C174 435.6 214 446 255.8 446.1s82-10.4 108.5-46.6a169.3 169.3 0 0 0-108.6-39.7Zm0 0" />
      <path fill="#df2826" d="M165 386.7a170.8 170.8 0 0 0-17.3 12.7C174 435.6 214 446 255.8 446.1s82-10.4 108.5-46.6a167.6 167.6 0 0 0-15-11.2c-12.8 15.4-39 31-92.8 31-52.4-.2-78.5-18.5-91.5-32.6Zm0 0" />
      <path fill="#fafafa" d="m160 92-20.5 42.7-46.8 7.5 34.4 32.5-7.3 46.7 41.6-22.6 42.4 21.4-8.8-46.5 33.5-33.5-47-6.1Zm196.3 0L336 134.7l-46.9 7.5 34.5 32.5-7.4 46.7 41.7-22.6 42.3 21.4-8.7-46.5 33.5-33.5-47-6.1ZM158 280.4v12.2a22 22 0 0 0 22 22h152.1a22 22 0 0 0 22-22v-12.2" />
      <path fill="#fafafa" d="M158 280.4v12.2a22 22 0 0 0 22 22h152.1a22 22 0 0 0 22-22v-12.2" />
      <path fill="#d4d4d4" d="M321 280.4v12.2a22 22 0 0 1-22 22h33a22 22 0 0 0 22-22v-12.2Zm0 0" />
      <path fill="#3f1511" d="M256 0C114.8 0 0 114.8 0 256s114.8 256 256 256 256-114.8 256-256S397.2 0 256 0Zm0 24.4A231.6 231.6 0 1 1 24.4 256 231.4 231.4 0 0 1 256 24.4Zm-96.3 55.4a12.2 12.2 0 0 0-10.8 7l-17.7 37-40.4 6.4a12.2 12.2 0 0 0-6.5 20.9l29.8 28-6.4 40.5a12.2 12.2 0 0 0 18 12.6l36-19.6 36.4 18.5a12.2 12.2 0 0 0 17.7-13.1l-7.6-40.2 29-29a12.2 12.2 0 0 0-7.1-20.7l-40.7-5.2-18.6-36.5a12.2 12.2 0 0 0-11-6.6Zm196.4 0a12.2 12.2 0 0 0-10.8 7l-17.6 37-40.5 6.4a12.2 12.2 0 0 0-6.5 20.9l29.8 28-6.4 40.5a12.2 12.2 0 0 0 18 12.6l36-19.6 36.5 18.5a12.2 12.2 0 0 0 17.5-13.1l-7.5-40.2 29-29a12.2 12.2 0 0 0-7.1-20.7l-40.6-5.2L367 86.4a12.2 12.2 0 0 0-11-6.6Zm-195.8 39.7 10.3 20.2a12.2 12.2 0 0 0 9.3 6.5l22.5 2.9-16 16a12.2 12.2 0 0 0-3.3 10.9l4 22.2L167 188a12.3 12.3 0 0 0-11.4.2l-20 10.8 3.5-22.4a12.2 12.2 0 0 0-3.6-10.6L119 150.3l22.4-3.5a12.2 12.2 0 0 0 9.1-6.8Zm196.4 0 10.3 20.2a12.2 12.2 0 0 0 9.3 6.5l22.5 2.9-16 16a12.2 12.2 0 0 0-3.3 10.9l4.1 22.2-20.2-10.2a12.3 12.3 0 0 0-11.4.2L332 199l3.6-22.4A12.2 12.2 0 0 0 332 166l-16.5-15.6 22.4-3.6a12.2 12.2 0 0 0 9.1-6.7ZM115.4 256a12.2 12.2 0 0 0-12.2 12.2c0 75 17.4 123 46.3 152.3s68 37.7 106.4 37.7 77.4-8.4 106.4-37.6 46.5-77.4 46.5-152.4a12.2 12.2 0 0 0-12.2-12.2Zm13.7 24.4h16.7v12.2a34.4 34.4 0 0 0 34.2 34.2h152.1a34.4 34.4 0 0 0 34.2-34.2v-12.2h16.6c-1.6 47.3-10.3 81.4-23.8 104.4a161.6 161.6 0 0 0-206.1 0c-13.5-23-22.2-57-23.8-104.4Zm41 0H342v12.2a9.5 9.5 0 0 1-9.8 9.8H180a9.5 9.5 0 0 1-9.8-9.8Zm85.7 91.6a138.3 138.3 0 0 1 88.4 32.2c-23 22.5-53.9 29.7-88.3 29.7s-65.3-7.2-88.1-29.6a138.3 138.3 0 0 1 88-32.3Zm0 0" />
    </symbol>
  </defs>
  <defs>
    <symbol id="emoji-6">
      <title>smile</title>
      <path fill="#ffd764" d="M499.8 256a243.8 243.8 0 1 1-487.6 0 243.8 243.8 0 0 1 487.6 0Zm0 0" />
      <path fill="#fcb652" d="M337.8 26.3a245.2 245.2 0 0 1-173.7 455 244 244 0 0 0 91.9 18.5A243.8 243.8 0 0 0 499.8 256a243.8 243.8 0 0 0-162-229.7Zm0 0" />
      <path fill="#3f1511" d="M256 0C114.8 0 0 114.8 0 256s114.8 256 256 256 256-114.8 256-256S397.2 0 256 0Zm0 24.4A231.6 231.6 0 1 1 24.4 256 231.4 231.4 0 0 1 256 24.4Zm-91.4 140.2a42.9 42.9 0 0 0-42.7 42.6 12.2 12.2 0 1 0 24.4 0 18.3 18.3 0 1 1 36.6 0 12.2 12.2 0 0 0 24.3 0 42.9 42.9 0 0 0-42.6-42.6Zm189 0a42.9 42.9 0 0 0-42.7 42.6 12.2 12.2 0 1 0 24.4 0 18.3 18.3 0 1 1 36.5 0 12.2 12.2 0 0 0 24.4 0 42.9 42.9 0 0 0-42.6-42.6ZM124 303.2a12.2 12.2 0 0 0 3 17c33.5 23.9 81.3 34.7 129 34.7s95.3-10.8 129-34.7a12.2 12.2 0 1 0-14.1-20c-27.4 19.5-71.1 30.3-114.9 30.3s-87.5-10.8-114.9-30.2a12 12 0 0 0-17 2.9Zm0 0" />
    </symbol>
  </defs>
  <defs>
    <symbol id="emoji-7">
      <title>disgusted</title>
      <path fill="#ffd764" d="M499.8 256a243.8 243.8 0 1 1-487.6 0 243.8 243.8 0 0 1 487.6 0Zm0 0" />
      <path fill="#fcb652" d="M337.6 26.2a246.4 246.4 0 0 1 131 217.1c0 136-110.4 246.4-246.5 246.4a246.8 246.8 0 0 1-49.3-5.2 244.2 244.2 0 0 0 83.2 15.3A243.8 243.8 0 0 0 499.8 256 243.8 243.8 0 0 0 337.6 26.2Zm0 0" />
      <path fill="#3f1511" d="M256 0C114.8 0 0 114.8 0 256s114.8 256 256 256 256-114.8 256-256S397.2 0 256 0Zm0 24.4A231.6 231.6 0 1 1 24.4 256 231.4 231.4 0 0 1 256 24.4ZM99.5 141.5a12.3 12.3 0 0 0 6.5 16l45.5 19.3L106 196a12.2 12.2 0 0 0 9.5 22.5l72.1-30.5a12.2 12.2 0 0 0 0-22.5l-72.1-30.4a12.3 12.3 0 0 0-16 6.4Zm297-6.4-72.1 30.4a12.2 12.2 0 0 0 0 22.5l72.1 30.5A12.2 12.2 0 0 0 406 196l-45.5-19.2 45.5-19.3a12.2 12.2 0 0 0 6.5-16c-4.2-7.8-10.2-8.4-16-6.4ZM137.7 293l-24.4 24.3a12.2 12.2 0 1 0 17.2 17.3l16.5-16.5 28 23.3a12.2 12.2 0 0 0 15.7 0l28.7-24 28.8 24a12.2 12.2 0 0 0 15.6 0l28.8-24 28.7 24a12.2 12.2 0 0 0 15.6 0l28-23.3 16.6 16.5a12.2 12.2 0 1 0 17.2-17.3l-24.4-24.3a12.2 12.2 0 0 0-16.4-.8l-28.8 24-28.7-24a12.2 12.2 0 0 0-15.6 0l-28.8 24-28.8-24a12.2 12.2 0 0 0-15.6 0l-28.7 24-28.8-24a12.1 12.1 0 0 0-16.4.8Zm0 0" />
    </symbol>
  </defs>
  <defs>
    <symbol id="emoji-8">
      <title>furious</title>
      <path fill="#ffd764" d="M499.8 256a243.8 243.8 0 1 1-487.6 0 243.8 243.8 0 0 1 487.6 0Zm0 0" />
      <path fill="#fcb652" d="M337 26a246 246 0 0 1 131.4 217.2 246 246 0 0 1-246 246 246.7 246.7 0 0 1-53-6 244 244 0 0 0 86.6 16.6A243.8 243.8 0 0 0 499.8 256 243.8 243.8 0 0 0 337 26Zm0 0" />
      <path fill="#df2826" d="M393.9 134a45.7 45.7 0 1 1-79.2 45.8ZM115.9 134a45.7 45.7 0 0 0 79.2 45.8Zm0 0" />
      <path fill="#901e1d" d="M167.6 253.3h176.8c31 0 56.1 39.3 56.1 88s-25 88-56.1 88H167.6c-31 0-56.1-39.2-56.1-88s25-88 56.1-88Zm0 0" />
      <path fill="#fafafa" d="M146.3 359.6 121.9 384l-2.4 2.6c9.8 25.6 27.6 42.7 48.1 42.7h176.8c20.3 0 38-16.8 47.8-42L390 384l-24.4-24.4-36.6 30.5-36.5-30.5-36.6 30.5-36.6-30.5-36.5 30.5ZM167.6 253.3c-14.7 0-28 8.9-38 23.3l4.5 3.8 48.8 39.6 36.5-30.5L256 320l36.6-30.5L329 320l48.8-39.6 4.6-3.7c-10-14.5-23.4-23.4-38.1-23.4Zm0 0" />
      <path fill="#d4d4d4" d="M365.7 359.6c.6 25.3.8 47.6-28.4 49.6-21.8 1.5-113 2.6-154.6 2.3-43.7-.3-35-4.6-56.8-11.4l2.2 3.7 1 1.5 1.2 1.8 1.6 2 .4.5 2.1 2.6 2.3 2.6a98 98 0 0 0 2.5 2.4l.4.4a61.7 61.7 0 0 0 4.8 3.8l2.4 1.7 1 .6 2 1 3 1.5 3.2 1.2.9.3 3 .7a.8.8 0 0 1 .1 0h.3l2.5.4 1.6.3 3.2.1h176.8a36.3 36.3 0 0 0 6.4-.6c.4 0 .7 0 1-.2l3.6-.8v-.1l3.2-1.1.4-.2.9-.4a33.1 33.1 0 0 0 5.8-3.2h.2l.2-.2 2.8-2a1.4 1.4 0 0 0 .2-.2l.2-.1a43.6 43.6 0 0 0 5.9-5.4c1-1 2-2 2.9-3.2a73.8 73.8 0 0 0 5.3-7s0 0 0-.1a87.6 87.6 0 0 0 4.8-8.2c1.4-2.8 2.8-5.9 4-9l-2.1-3.3ZM335.4 253.3c26.7 16.9 2.1 41.7-16.7 58l10.4 8.7 48.8-39.6 4.6-3.7c-10-14.5-23.4-23.4-38.1-23.4Zm0 0" />
      <path fill="#3f1511" d="M256 0C114.8 0 0 114.8 0 256s114.8 256 256 256 256-114.8 256-256S397.2 0 256 0Zm0 24.4A231.6 231.6 0 1 1 24.4 256 231.4 231.4 0 0 1 256 24.4Zm131.8 99.1-79.2 45.7a12.2 12.2 0 0 0-4.5 16.7A57.9 57.9 0 0 0 404.4 128c-5.2-8.6-14.4-6-16.6-4.5ZM105.3 128a57.9 57.9 0 0 0 100.3 58 12.2 12.2 0 0 0-4.5-16.8L122 123.5c-8.8-4.7-15.3 2-16.6 4.5Zm279.8 25.2c1.5 12.9-2 25.9-14 32.8s-25 3.5-35.4-4.2Zm-260.4 0 49.3 28.5c-10.3 7.8-23.3 11.2-35.3 4.3s-15.5-20-14-32.8Zm43 87.9c-20.7 0-38.4 13-50 31.4s-18.4 42.3-18.4 68.8 6.7 50.5 18.4 68.8 29.3 31.4 50 31.4h176.7c20.7 0 38.3-13.1 50-31.4s18.3-42.4 18.3-68.8-6.6-50.5-18.3-68.8-29.3-31.4-50-31.4Zm0 24.4h176.7c7.1 0 14.3 3.2 20.8 9.5l-36 29.1-28.8-24a12.2 12.2 0 0 0-15.6 0L256 304l-28.8-24a12.2 12.2 0 0 0-15.6 0l-28.8 24-36-29.1a30.2 30.2 0 0 1 20.8-9.5ZM133 295.2l42.1 34.2a12.2 12.2 0 0 0 15.5 0l28.8-24 28.7 24a12.2 12.2 0 0 0 15.7 0l28.7-24 28.8 24a12.2 12.2 0 0 0 15.5 0l42.1-34.2c5.7 12.7 9.4 28.6 9.4 46.1a123.2 123.2 0 0 1-2 21.8l-12-12.1a12.2 12.2 0 0 0-16.5-.8l-28.8 24-28.7-24a12.2 12.2 0 0 0-15.6 0l-28.8 24-28.8-24a12.2 12.2 0 0 0-15.6 0l-28.7 24-28.8-24a12.2 12.2 0 0 0-16.4.8l-12 12a123.2 123.2 0 0 1-2-21.7c0-17.5 3.6-33.4 9.4-46Zm86.4 80.2 28.7 24a12.2 12.2 0 0 0 15.7 0l28.7-24 28.8 24a12.2 12.2 0 0 0 15.6 0l28-23.4 13.1 13.2a75.8 75.8 0 0 1-4.2 7.8c-8.6 13.5-19 20-29.5 20H167.6c-10.4 0-20.8-6.5-29.5-20a75.8 75.8 0 0 1-4.2-7.8l13.2-13.2 28 23.4a12.2 12.2 0 0 0 15.6 0Zm0 0" />
    </symbol>
  </defs>
  <defs>
    <symbol id="emoji-9">
      <title>laughing</title>
      <path fill="#ffd764" d="M482.2 255.3a227.8 227.8 0 1 1-455.6 0 227.8 227.8 0 0 1 455.6 0Zm0 0" />
      <path fill="#fcb652" d="M325.2 38.8a229.1 229.1 0 0 1 127.1 204.7 229.1 229.1 0 0 1-229.1 229.2 228.7 228.7 0 0 1-54.9-7 227.7 227.7 0 0 0 86 17.4c126 0 228-102 228-227.9a227.8 227.8 0 0 0-157-216.5Zm0 0" />
      <path fill="#9ab3dd" d="M442.4 318.7a34.2 34.2 0 0 0 48.3-48.3c-13.4-13.4-72.5-24.2-72.5-24.2s10.8 59.1 24.2 72.5Zm0 0" />
      <path fill="#8183c0" d="M452.2 254c15.7 4.3 32.2 10 38.5 16.3A34.2 34.2 0 0 1 446 322a34.2 34.2 0 0 0 23.5-58.3 53.3 53.3 0 0 0-17.4-9.6Zm0 0" />
      <path fill="#901e1d" d="M254.2 387.3A132 132 0 0 1 123 266.6h262.8a132 132 0 0 1-131.6 120.7Zm0 0" />
      <path fill="#f15645" d="M254.8 324.7a136.7 136.7 0 0 0-85.8 30.9 130.8 130.8 0 0 0 171.4-.6 136.8 136.8 0 0 0-85.6-30.4Zm0 0" />
      <path fill="#df2826" d="M321.5 342.2a100.3 100.3 0 0 1-67.3 23.3 110.5 110.5 0 0 1-67.5-22.2 135.8 135.8 0 0 0-17.7 12.3 130.8 130.8 0 0 0 171.4-.6 137.2 137.2 0 0 0-19-12.8Zm0 0" />
      <path fill="#9ab3dd" d="M69.7 318.7a34.2 34.2 0 0 1-48.4-48.3c13.4-13.4 72.5-24.2 72.5-24.2S83 305.3 69.7 318.7Zm0 0" />
      <path fill="#8183c0" d="M59.8 254c-15.6 4.3-32.2 10-38.5 16.3A34.2 34.2 0 0 0 66 322a34.2 34.2 0 0 1-23.5-58.3c3.4-3.5 9.8-6.7 17.4-9.6Zm0 0" />
      <path fill="#3f1511" d="M254.4 16A239.4 239.4 0 0 0 15 255.3v5.3l-1.8 1.7a45.7 45.7 0 0 0 0 64.4 45 45 0 0 0 16.3 10.5 239.2 239.2 0 0 0 450.2.9 45.2 45.2 0 0 0 19-11.4 45.7 45.7 0 0 0 0-64.4 36 36 0 0 0-5.3-4.3l.1-2.7c0-132-107.2-239.3-239.2-239.3Zm0 22.8a216.2 216.2 0 0 1 216.2 209c-6-2-12.2-4-18.2-5.6-17-4.5-32.2-7.2-32.2-7.2a11.4 11.4 0 0 0-13.2 13.3s2.8 15 7.3 32a248 248 0 0 0 8 25.6c3.2 8 6.3 15 12 20.9a45.1 45.1 0 0 0 21 11.8 216.4 216.4 0 0 1-400.5.5 45 45 0 0 0 23-12.3 57.6 57.6 0 0 0 12-21 248 248 0 0 0 8-25.5c4.5-17 7.3-32 7.3-32A11.4 11.4 0 0 0 91.8 235s-15.2 2.8-32.1 7.3c-7.2 1.9-14.6 4.1-21.6 6.6A216.2 216.2 0 0 1 254.4 38.8ZM117.2 141.4a11.4 11.4 0 0 0-3 21.8l42.6 18-42.6 18a11.4 11.4 0 0 0 8.9 21l67.4-28.5a11.4 11.4 0 0 0 0-21l-67.4-28.4a11.5 11.5 0 0 0-5.8-.8Zm271.4 0a11.3 11.3 0 0 0-2.9.8l-67.4 28.5a11.4 11.4 0 0 0 0 21l67.4 28.5a11.4 11.4 0 0 0 8.9-21l-42.6-18 42.5-18a11.4 11.4 0 0 0-6-21.8ZM123 255.2a11.4 11.4 0 0 0-11.3 12.4 143.5 143.5 0 0 0 142.6 131c74.3.1 136.4-57 142.9-131a11.4 11.4 0 0 0-11.4-12.4Zm-44.2 6c-1.2 5.4-1.2 6.4-3 13.3a225 225 0 0 1-7.3 23.1c-2.6 6.8-6 12.1-6.8 13a22.8 22.8 0 0 1-32.2-32.2c.9-1 6.2-4.2 13-6.9a228.7 228.7 0 0 1 23-7.3c7-1.8 8-1.8 13.3-3Zm354.5 0c5.3 1.2 6.3 1.2 13.2 3a228.8 228.8 0 0 1 23.1 7.3c6.8 2.7 12.1 6 13 6.9a22.8 22.8 0 0 1-32.2 32.2c-.9-.9-4.2-6.2-6.8-13a229.7 229.7 0 0 1-7.3-23c-1.9-7-1.8-8-3-13.3ZM137.8 278H371a123.2 123.2 0 0 1-34.1 63.9 133.4 133.4 0 0 0-164.8 0 129.3 129.3 0 0 1-34.2-63.9Zm116.4 58a111.5 111.5 0 0 1 64.4 20.6 117 117 0 0 1-128.4 0 111.7 111.7 0 0 1 64-20.6Zm0 0" />
    </symbol>
  </defs>
  <defs>
    <symbol id="emoji-10">
      <title>upset</title>
      <path fill="#ffd764" d="M499.8 256a243.8 243.8 0 1 1-487.6 0 243.8 243.8 0 0 1 487.6 0Zm0 0" />
      <path fill="#fcb652" d="M336.6 26a245.5 245.5 0 0 1 131.8 217c0 135.6-110 245.5-245.5 245.5a245.6 245.6 0 0 1-60.9-8 243.7 243.7 0 0 0 94 19.3A243.8 243.8 0 0 0 499.8 256 243.8 243.8 0 0 0 336.6 26Zm0 0" />
      <path fill="#fafafa" d="M189 182.9a30.5 30.5 0 1 1-30.5-30.5 30.5 30.5 0 0 1 30.5 30.5ZM384 182.9a30.5 30.5 0 1 1-30.5-30.5 30.5 30.5 0 0 1 30.5 30.5Zm0 0" />
      <path fill="#3f1511" d="M256 0C114.8 0 0 114.8 0 256s114.8 256 256 256 256-114.8 256-256S397.2 0 256 0Zm0 24.4A231.6 231.6 0 1 1 24.4 256 231.4 231.4 0 0 1 256 24.4Zm-97.5 115.8a42.7 42.7 0 1 0 42.6 42.7 42.9 42.9 0 0 0-42.6-42.7Zm195 0a42.7 42.7 0 1 0 42.7 42.7 42.9 42.9 0 0 0-42.7-42.7Zm-195 24.4a18.3 18.3 0 1 1-18.3 18.3 18.1 18.1 0 0 1 18.3-18.3Zm195 0a18.3 18.3 0 1 1-18.3 18.3 18.1 18.1 0 0 1 18.3-18.3Zm-122.3 128a167.5 167.5 0 0 0-82.8 63.5 12.2 12.2 0 0 0 20.1 13.8 142.2 142.2 0 0 1 179.7-48.2 12.2 12.2 0 1 0 10.6-22 168 168 0 0 0-57-15.8 168.5 168.5 0 0 0-70.6 8.6Zm0 0" />
    </symbol>
  </defs>
  <defs>
    <symbol id="emoji-11">
      <title>arrogant</title>
      <path fill="#ffd764" d="M499.8 256a243.8 243.8 0 1 1-487.6 0 243.8 243.8 0 0 1 487.6 0Zm0 0" />
      <path fill="#fcb652" d="M337.3 26.1a246.2 246.2 0 0 1-161.5 459.5 243.9 243.9 0 0 0 80.2 14.2A243.8 243.8 0 0 0 499.8 256 243.8 243.8 0 0 0 337.3 26.1Zm0 0" />
      <path fill="#fcb652" d="M206 329.8a12.2 12.2 0 0 0 14.8 19.3c8.5-6.5 23.8-9.8 38.5-9.1s28.6 6.2 31.2 8.5a12.2 12.2 0 0 0 16.3-18.1c-11.3-10.2-28-14-46.4-14.8s-38.9 2.2-54.5 14.2Zm0 0" />
      <path fill="#3f1511" d="M256 0C114.8 0 0 114.8 0 256s114.8 256 256 256 256-114.8 256-256S397.2 0 256 0Zm0 24.4A231.6 231.6 0 1 1 24.4 256 231.4 231.4 0 0 1 256 24.4Zm-134 134a12.2 12.2 0 0 0-12.3 12.3 42.7 42.7 0 0 0 85.3 0 12.2 12.2 0 1 0-24.3 0 18.3 18.3 0 0 1-36.6 0 12.2 12.2 0 0 0-12.2-12.2Zm207.1 0a12.2 12.2 0 0 0-12.1 12.3 42.7 42.7 0 0 0 85.3 0 12.2 12.2 0 1 0-24.3 0 18.3 18.3 0 0 1-36.6 0 12.2 12.2 0 0 0-12.2-12.2ZM108 317a12.2 12.2 0 1 0 14.8 19.3c36.8-28.1 91-41.7 142.2-41s99 16 123 40a12.2 12.2 0 1 0 17.2-17.2c-31.2-31.3-84.3-46.4-140-47.1S150.9 284 108 316.9Zm0 0" />
    </symbol>
  </defs>
  <defs>
    <symbol id="emoji-12">
      <title>annoyed</title>
      <path fill="#ffd764" d="M499.8 256a243.8 243.8 0 1 1-487.6 0 243.8 243.8 0 0 1 487.6 0Zm0 0" />
      <path fill="#fcb652" d="M334.3 25.2a245 245 0 0 1-168.8 456.6 243.8 243.8 0 0 0 90.5 18A243.8 243.8 0 0 0 499.8 256 243.8 243.8 0 0 0 334.3 25.2Zm0 0" />
      <path fill="#fafafa" d="M411.4 190a45.7 45.7 0 0 1-91.4 0ZM192 190a45.7 45.7 0 0 1-91.4 0Zm0 0" />
      <path fill="#3f1511" d="M256 0C114.8 0 0 114.8 0 256s114.8 256 256 256 256-114.8 256-256S397.2 0 256 0Zm0 24.4A231.6 231.6 0 1 1 24.4 256 231.4 231.4 0 0 1 256 24.4ZM100.6 177.9A12.2 12.2 0 0 0 88.4 190a58 58 0 0 0 115.8 0 12.2 12.2 0 0 0-12.2-12.2Zm219.4 0a12.2 12.2 0 0 0-12.2 12.2 58 58 0 0 0 115.8 0 12.2 12.2 0 0 0-12.2-12.2Zm-202.2 24.3h57c-5.1 12-14.6 21.4-28.5 21.4s-23.4-9.5-28.5-21.4Zm219.4 0h57c-5 12-14.6 21.4-28.5 21.4s-23.4-9.5-28.5-21.4Zm-27 79.2c-56 .2-105.5 27.6-131.9 77.6a12.2 12.2 0 0 0 21.6 11.4c22.4-42.3 62-64.4 110.4-64.6 21.7 0 41 5.4 60.2 16a12.2 12.2 0 0 0 11.7-21.4 147.1 147.1 0 0 0-72-19Zm0 0" />
    </symbol>
  </defs>
  <defs>
    <symbol id="emoji-13">
      <title>crying</title>
      <path fill="#ffd764" d="M499.8 256a243.8 243.8 0 1 1-487.6 0 243.8 243.8 0 0 1 487.6 0Zm0 0" />
      <path fill="#9ab3dd" d="M330.8 215.5v272.2a244.3 244.3 0 0 0 60-28.8V215.5ZM121 215.5v243.3a243.6 243.6 0 0 0 60 28.8v-272Zm0 0" />
      <path fill="#8183c0" d="M391.2 419.4a191.9 191.9 0 0 1-60.5 43.8v24.5a244.3 244.3 0 0 0 60-28.8Zm0 0" />
      <path fill="#fcb652" d="M334.5 25.2a245 245 0 0 1-172 455.5 243.7 243.7 0 0 0 93.5 19.1A243.8 243.8 0 0 0 499.8 256 243.8 243.8 0 0 0 334.5 25.2Zm0 0" />
      <path fill="#8183c0" d="M390.8 420.5a245.5 245.5 0 0 1-60 41.7v25.5a244.3 244.3 0 0 0 60-28.8Zm0 0" />
      <path fill="#3f1511" d="M256 0C114.8 0 0 114.8 0 256s114.8 256 256 256 256-114.8 256-256S397.2 0 256 0Zm0 24.4A231.7 231.7 0 0 1 403 435V231.6h8.5a12.2 12.2 0 1 0 0-24.4h-106a12.2 12.2 0 0 0 0 24.4h12.2v247.7a232.2 232.2 0 0 1-122.6.2V231.6h12a12.2 12.2 0 1 0 0-24.4H101.2a12.2 12.2 0 0 0 0 24.4h8.5v204A231.6 231.6 0 0 1 256 24.4ZM134 231.6h36.7v239.8A230 230 0 0 1 134 453Zm208 0h36.7v221A231.3 231.3 0 0 1 342 471ZM213.6 360.3a12.2 12.2 0 1 0 13.4 20.4c7-4.7 19.6-7.7 31.3-7.6s22.5 4 25.7 6.6a12.2 12.2 0 1 0 15.8-18.5c-10.9-9.4-25.7-12.3-42.2-12.2s-31.6 3.2-44 11.3Zm0 0" />
    </symbol>
  </defs>
  <defs>
    <symbol id="emoji-14">
      <title>depressed</title>
      <path fill="#ffd764" d="M499.8 256a243.8 243.8 0 1 1-487.6 0 243.8 243.8 0 0 1 487.6 0Zm0 0" />
      <path fill="#fcb652" d="M342.7 28.2a246 246 0 0 1-172.2 455.5 243.8 243.8 0 0 0 85.5 16.1A243.8 243.8 0 0 0 499.8 256 243.8 243.8 0 0 0 342.7 28.2Zm0 0" />
      <path fill="#9ab3dd" d="M140.2 134a61 61 0 1 1-122 0c0-33.6 61-121.8 61-121.8s61 88.2 61 121.9Zm0 0" />
      <path fill="#8183c0" d="M129.2 97.8a49.6 49.6 0 0 1 1.4 10.4A67.8 67.8 0 0 1 27.2 166a61 61 0 0 0 113-31.9c0-9-4.4-22-11-36.3Zm0 0" />
      <path fill="#3f1511" d="M79.2 0a12.2 12.2 0 0 0-10 5.3s-15.4 22.3-31 49A431.4 431.4 0 0 0 16.7 96C10.7 109.7 6 122 6 134.1a72.6 72.6 0 0 0 9 35.3A256 256 0 0 0 0 256c0 141.2 114.8 256 256 256s256-114.8 256-256S397.2 0 256 0a255.8 255.8 0 0 0-142.3 43.3c-13-21.6-24.4-38-24.4-38a12.2 12.2 0 0 0-10-5.3ZM256 24.4A231.8 231.8 0 1 1 33.7 191.2 73 73 0 0 0 152.4 134 98 98 0 0 0 141.8 96 392.1 392.1 0 0 0 126 64.3a231.6 231.6 0 0 1 130.1-40ZM79.2 35c5.6 8.4 10 14.5 20 31.6a414.4 414.4 0 0 1 20.4 39.2A92 92 0 0 1 128 134a48.8 48.8 0 1 1-97.5 0c0-4.7 3-16 8.4-28.3a412 412 0 0 1 20.4-39.2c10-17.1 14.4-23.2 20-31.6Zm79.3 190.5a42.9 42.9 0 0 0-42.7 42.7 12.2 12.2 0 0 0 24.4 0 18.3 18.3 0 0 1 36.6 0 12.2 12.2 0 0 0 24.3 0 42.8 42.8 0 0 0-42.6-42.7Zm189 0a42.9 42.9 0 0 0-42.7 42.7 12.2 12.2 0 0 0 24.4 0 18.3 18.3 0 0 1 36.6 0 12.2 12.2 0 1 0 24.3 0 42.8 42.8 0 0 0-42.6-42.7Zm-91.7 117a144 144 0 0 0-93 34.7 12.2 12.2 0 1 0 15.9 18.5 118.2 118.2 0 0 1 154.7 0 12.2 12.2 0 1 0 16-18.5 144 144 0 0 0-93.5-34.7Zm0 0" />
    </symbol>
  </defs>
  <defs>
    <symbol id="emoji-15">
      <title>unhappy</title>
      <path fill="#ffd764" d="M494.1 262A238.1 238.1 0 1 1 18 262a238.1 238.1 0 0 1 476.2 0Zm0 0" />
      <path fill="#fcb652" d="M331.2 36A239.2 239.2 0 0 1 463 249.4c0 132.1-107 239.2-239.2 239.3A239.5 239.5 0 0 1 161 480a238.1 238.1 0 0 0 95 20 238.1 238.1 0 0 0 238-238.2A238.1 238.1 0 0 0 331.2 36Zm0 0" />
      <path fill="#3f1511" d="M256 12a250.1 250.1 0 1 0 250 250c0-138-112-250-250-250Zm0 23.7A226.2 226.2 0 1 1 29.8 262 226 226 0 0 1 256 35.7ZM137 190.5a12 12 0 0 0 0 23.8h47.6a12 12 0 0 0 0-23.8Zm190.4 0a12 12 0 0 0 0 23.8h47.7a12 12 0 0 0 0-23.8ZM118.7 297.7a12 12 0 0 0 0 23.8h274.6a12 12 0 0 0 0-23.8Zm0 0" />
      <path fill="#8183c0" d="M77.4 0a11.9 11.9 0 0 0-12 12v148.8a12 12 0 0 0 23.9 0V11.8A12 12 0 0 0 77.4 0ZM125 23.8a12 12 0 0 0-12 12v59.5a12 12 0 1 0 24 0V35.6a12 12 0 0 0-12-11.9ZM29.8 47.6a11.9 11.9 0 0 0-12 12V119a12 12 0 1 0 23.9 0V59.5a11.9 11.9 0 0 0-12-11.9Zm0 0" />
    </symbol>
  </defs>
  <defs>
    <symbol id="emoji-16">
      <title>hurt</title>
      <path fill="#ffd764" d="M499.8 256a243.8 243.8 0 1 1-487.6 0 243.8 243.8 0 0 1 487.6 0Zm0 0" />
      <path fill="#fafafa" d="M256 12.2A243.8 243.8 0 0 0 12.2 255C112.6 185.9 301.3 94 448 105.8a243.8 243.8 0 0 0-192-93.6Zm0 0" />
      <path fill="#fcb652" d="M427.9 104.9a247.8 247.8 0 0 1 42.2 137c0 137-111 248-248 248a247 247 0 0 1-49.2-5.4 244 244 0 0 0 83.1 15.3A243.8 243.8 0 0 0 499.8 256a243.8 243.8 0 0 0-52-150.2 321 321 0 0 0-20-1Zm19.4.1.3.4-.2-.4Zm0 0" />
      <path fill="#d4d4d4" d="M311.1 18.5a231 231 0 0 0-63.9 30.7C197.8 54.3 148.4 59.4 96.4 72a243.8 243.8 0 0 0-48.7 58.3c31.5-20 76.8-39.8 166.1-59.7-44 27.5-67.8 53.8-100.9 96.8a501.2 501.2 0 0 0-99.4 67.6q-1 10-1.3 20.2C112.6 185.9 301.3 94 448 105.8A243.9 243.9 0 0 0 358.2 35a209 209 0 0 1 39.3 39.5c-78 10.2-156.1 22.6-240.3 81.8C195 119.6 204.3 88.5 332.6 25Q322 21.2 311 18.5Zm0 0" />
      <path fill="#3f1511" d="M256 0C114.8 0 0 114.8 0 256s114.8 256 256 256 256-114.8 256-256S397.2 0 256 0Zm0 24.4a232.2 232.2 0 0 1 50.2 5.5c-17.8 8.1-49.8 29.4-49.8 29.4s-49.7 1.6-119.3 23A533.5 533.5 0 0 0 83 102 231 231 0 0 1 256 24.3ZM342.4 41A231.7 231.7 0 0 1 422.5 95c-76.3-3.2-161 19.9-237.6 52a684 684 0 0 1 57.8-48.1c36.9-27.4 75-49.5 99.7-57.7ZM216.1 88.4c-34.8 27-68 57.6-90.8 86A957.2 957.2 0 0 0 25.6 232 230.2 230.2 0 0 1 52 146.4c28.2-19 63.5-31.8 92.3-40.7a585.9 585.9 0 0 1 72-17.2ZM409 119.1a282.4 282.4 0 0 1 35.4 2A231.6 231.6 0 1 1 24.5 262.4C111 201.7 277.2 119.7 409 119ZM158.5 225.5a42.9 42.9 0 0 0-42.7 42.7 12.2 12.2 0 0 0 24.4 0 18.3 18.3 0 0 1 36.6 0 12.2 12.2 0 0 0 24.3 0 42.8 42.8 0 0 0-42.6-42.7Zm189 0a42.9 42.9 0 0 0-42.7 42.7 12.2 12.2 0 0 0 24.4 0 18.3 18.3 0 0 1 36.6 0 12.2 12.2 0 1 0 24.3 0 42.8 42.8 0 0 0-42.6-42.7Zm-91.7 132.2a144 144 0 0 0-93 34.8 12.2 12.2 0 0 0 15.8 18.5 118.2 118.2 0 0 1 154.8 0 12.2 12.2 0 0 0 15.9-18.5 144.1 144.1 0 0 0-93.4-34.7Zm0 0" />
    </symbol>
  </defs>
  <defs>
    <symbol id="emoji-17">
      <title>crazy</title>
      <path fill="#ffd764" d="M499.8 256a243.8 243.8 0 1 1-487.6 0 243.8 243.8 0 0 1 487.6 0Zm0 0" />
      <path fill="#fcb652" d="M342.8 28.2a245.5 245.5 0 0 1-178.6 453 244 244 0 0 0 91.8 18.6A243.8 243.8 0 0 0 499.8 256a243.8 243.8 0 0 0-157-227.8Zm0 0" />
      <path fill="#fafafa" d="M195.2 207.2a36.7 36.7 0 1 1-36.7-36.6 36.7 36.7 0 0 1 36.7 36.6ZM390.2 170.7a36.7 36.7 0 1 1-36.7-36.7 36.7 36.7 0 0 1 36.7 36.7Zm0 0" />
      <path fill="#f15645" d="m243.7 341.3-13.4 43.2c-9 29.2-38 46.8-67.4 39s-48-38.3-39-67.4l13.4-43.3a599.8 599.8 0 0 0 106.4 28.5Zm0 0" />
      <path fill="#df2826" d="m137.3 312.9-6.5 21.1C152 351.6 213 366.8 237 363l6.7-21.7A601 601 0 0 1 137.4 313Zm0 0" />
      <path fill="#3f1511" d="M256 0C114.8 0 0 114.8 0 256s114.8 256 256 256 256-114.8 256-256S397.2 0 256 0Zm0 24.4A231.6 231.6 0 1 1 24.4 256 231.4 231.4 0 0 1 256 24.4Zm97.5 97.4a48.9 48.9 0 1 0 48.9 48.9 49 49 0 0 0-48.9-48.9Zm0 24.4a24.5 24.5 0 1 1-24.5 24.5 24.3 24.3 0 0 1 24.5-24.5Zm-195 12.2a48.9 48.9 0 1 0 48.8 48.8 49 49 0 0 0-48.8-48.8Zm0 24.4a24.5 24.5 0 1 1-24.5 24.4 24.3 24.3 0 0 1 24.5-24.4Zm238 100.2a12.2 12.2 0 0 0-8.6 3.6c-24 24-71.7 39.3-122.9 40s-105.4-12.9-142.2-41a12.2 12.2 0 1 0-14.8 19.2 183.9 183.9 0 0 0 15.8 10.8l-11.5 36.8c-11.1 36 11.6 73.3 47.4 82.8s71.4-12.2 82.2-47l11.6-37.4c4 .1 7.9.2 11.8.1 55.6-.7 108.7-15.8 140-47.1a12.2 12.2 0 0 0-8.7-20.8Zm-250.8 44.3a237.8 237.8 0 0 0 27.8 10.6l-8.2 24.7a12.2 12.2 0 1 0 23.2 7.7l8.6-26.1a295.6 295.6 0 0 0 31.4 5l-9.9 31.8c-7.2 23.4-29.5 37-52.6 30.7s-37.4-29.6-30.4-52Zm0 0" />
    </symbol>
  </defs>
  <defs>
    <symbol id="emoji-18">
      <title>fedup</title>
      <path fill="#ffd764" d="M499.8 256a243.8 243.8 0 1 1-487.6 0 243.8 243.8 0 0 1 487.6 0Zm0 0" />
      <path fill="#fcb652" d="M358.4 34.8a248.5 248.5 0 0 1 112 207.3A248.5 248.5 0 0 1 222 490.6a248.3 248.3 0 0 1-43.5-4 243.8 243.8 0 0 0 77.5 13.2A243.8 243.8 0 0 0 499.8 256 243.8 243.8 0 0 0 358.4 34.8Zm0 0" />
      <path fill="#fafafa" d="M414.5 190a45.7 45.7 0 0 1-91.4 0ZM195 190a45.7 45.7 0 0 1-91.4 0Zm0 0" />
      <path fill="#901e1d" d="M255.8 268.2a141.3 141.3 0 0 0-140.4 129h281.2a141.3 141.3 0 0 0-140.8-129Zm0 0" />
      <path fill="#f15645" d="M350 393.7a106.8 106.8 0 0 0-188 0" />
      <path fill="#df2826" d="M331.6 369.2c-11.1 4.4-23.6 10.2-41.5 11.3-42.2 2.6-86.8 0-118.8-1a107.4 107.4 0 0 0-9.2 14.1h187.8a107 107 0 0 0-18.3-24.5Zm0 0" />
      <path fill="#3f1511" d="M256 0a255.4 255.4 0 0 0-99.7 20.1 343.7 343.7 0 0 0-51.7 27c-2.6 2.2-3.6-7-4.5-12.6a125.1 125.1 0 0 1-1-17.6 12.2 12.2 0 0 0-24.3-.9A144.3 144.3 0 0 0 76 37.7a77.4 77.4 0 0 0 4.2 18C82.5 61.6 86 68 93 72s14.4 4 20.7 3a77.5 77.5 0 0 0 17.7-5.3 145.7 145.7 0 0 0 19.3-9.9A12.2 12.2 0 0 0 156 47l9.8-4.4A231.4 231.4 0 1 1 42.6 166c7.2-15.6 16.7-29.3 25.2-42a58.2 58.2 0 0 1 2.8 12.2 123.5 123.5 0 0 1 .9 17.7 12.2 12.2 0 0 0 24.4.9 145.8 145.8 0 0 0-1.1-21.7 78 78 0 0 0-4.3-18c-2.3-6-5.7-12.4-12.8-16.5S63.3 94.7 57 95.7a78 78 0 0 0-17.7 5.3A145.7 145.7 0 0 0 20 111a12.2 12.2 0 0 0-3.9 16.7c4.5 8.5 15.8 5.5 17.6 3.4A180 180 0 0 0 20 156.3 255.4 255.4 0 0 0 0 256c0 141.2 114.8 256 256 256s256-114.8 256-256S397.2 0 256 0ZM49.8 14.4A13.3 13.3 0 0 0 43 16 12.1 12.1 0 0 0 39 33a122.2 122.2 0 0 1 8 15.7c8.6 21.3 2 18-12.6 22a123.4 123.4 0 0 1-17.6.8A12.2 12.2 0 0 0 16 96a146 146 0 0 0 21.7-1.1 78 78 0 0 0 18-4.3c6-2.3 12.3-5.7 16.4-12.8S76 63.3 75 57a77.4 77.4 0 0 0-5.3-17.7 145.7 145.7 0 0 0-10-19.3 11.4 11.4 0 0 0-10-5.6Zm95.5 60.5c-3.8.1-8 .4-12.3 1a77.5 77.5 0 0 0-18 4.2c-6 2.4-12.3 5.8-16.4 12.9s-4 14.4-3 20.7a78 78 0 0 0 5.4 17.7 145.7 145.7 0 0 0 9.9 19.3 12.2 12.2 0 1 0 20.6-13 121.7 121.7 0 0 1-8-15.7c-6.7-19.9-5.8-19 12.7-22a125.2 125.2 0 0 1 17.6-.9 12.2 12.2 0 0 0 12.6-11.7c.3-6.7-5-12.4-10.9-12.5-3-.1-6.4-.2-10.2 0Zm-41.7 103a12.2 12.2 0 0 0-12.2 12.2 58 58 0 0 0 115.8 0 12.2 12.2 0 0 0-12.1-12.2Zm219.4 0a12.2 12.2 0 0 0-12.1 12.2 58 58 0 0 0 115.8 0 12.2 12.2 0 0 0-12.2-12.2Zm-202.2 24.3h57c-5 12-14.6 21.4-28.5 21.4s-23.4-9.5-28.5-21.4Zm219.4 0h57c-5 12-14.6 21.4-28.4 21.4s-23.4-9.5-28.6-21.4Zm-237 194a12.2 12.2 0 0 0 12.2 13.3h281.2a12.2 12.2 0 0 0 12.2-13.3 153.5 153.5 0 0 0-152.9-140.1 153.5 153.5 0 0 0-152.7 140.1ZM256 280.5c62.3 0 113 44.8 124.8 104.6h-21.6a119.2 119.2 0 0 0-206.2 0h-21.6a127.5 127.5 0 0 1 124.6-104.6Zm0 69.4a95.2 95.2 0 0 1 73.6 35.2h-147a95.2 95.2 0 0 1 73.3-35.2Zm0 0" />
    </symbol>
  </defs>
  <defs>
    <symbol id="emoji-19">
      <title>devil</title>
      <path fill="#f15645" d="M499.8 256a243.8 243.8 0 1 1-487.6 0 243.8 243.8 0 0 1 487.6 0Zm0 0" />
      <path fill="#df2826" d="M336.2 25.8A244.9 244.9 0 0 1 160.7 480a243.7 243.7 0 0 0 95.3 19.8A243.8 243.8 0 0 0 499.8 256 243.8 243.8 0 0 0 336.2 25.8Zm0 0" />
      <path fill="#fafafa" d="M417.5 170.5C527.2 109.5 454 12.1 454 12.1c-24.4 73.1-85.3 85.3-85.3 85.3-18.3 24.7 7 78 48.7 73.1Zm0 0" />
      <path fill="#d4d4d4" d="M464.7 31s5.2 74.2-38.5 102.1c-23 14.8-34.4 18.8-46.5 23.7a45.2 45.2 0 0 0 37.8 13.8C497.4 126.2 480.3 62.4 465 31h-.4Zm0 0" />
      <path fill="#fafafa" d="M73.2 170.7c-109.8-61-36.6-158.5-36.6-158.5 24.4 73.1 85.3 85.3 85.3 85.3 18.2 24.8-7.1 78-48.8 73.2Zm0 0" />
      <path fill="#d4d4d4" d="M26 31.1s-5.3 74.2 38.5 102.2c23 14.7 34.3 18.7 46.5 23.6a45.2 45.2 0 0 1-37.8 13.8c-80-44.4-62.9-108.1-47.7-139.5h.5Zm0 0" />

      <path fill="#fafafa" d="M393.9 210.3a45.7 45.7 0 1 1-79.2 45.7ZM122 210.3a45.7 45.7 0 1 0 79.1 45.7Zm0 0" />
      <path fill="#3f1511" d="M256 0A256 256 0 0 0 85.3 65.3a123.9 123.9 0 0 1-37.1-57A12.2 12.2 0 0 0 26.8 5s-20 26.3-25.1 62a101.5 101.5 0 0 0 22.9 80A256 256 0 0 0 0 256c0 141.3 114.8 256 256 256s256-114.8 256-256a255.9 255.9 0 0 0-35.5-129.8 100.8 100.8 0 0 0 9.5-59.3c-5.1-35.7-25.2-62-25.2-62a12.2 12.2 0 0 0-21.3 3.4 130 130 0 0 1-26 46A256 256 0 0 0 256 0Zm0 24.4a231.5 231.5 0 0 1 139 46.5 87.6 87.6 0 0 1-31.5 14.6 107.3 107.3 0 0 1-1.1-12.3 12.2 12.2 0 1 0-24.4 0 154.6 154.6 0 0 0 10.8 51.9c11 27.2 34.2 58.6 78.2 69.6a12.2 12.2 0 0 0 8.4-22.7 137 137 0 0 0 25.9-23A231.6 231.6 0 1 1 43 165c3 2.4 6 4.7 9.3 7a12 12 0 0 0 8.3 22.6c44-11 67.3-42.3 78.2-69.6a154.6 154.6 0 0 0 10.8-51.9 12.2 12.2 0 1 0-24.3 0 107.3 107.3 0 0 1-1.1 12.4c-.4 0-7.5-1.4-17.7-6.3A231.5 231.5 0 0 1 256 24.4ZM38 40c29 52.5 76 67.7 80.6 69.1-7.2 22.6-23.6 43.2-38.5 51.4-37.5-19.6-59.8-48.1-54.3-90.3 2.4-16.9 7-21 12.2-30.2Zm411.6 0c5.1 9.2 9.8 13.3 12.2 30.2 4.8 49.5-20.4 70.7-54.3 90.3-20.9-12.6-31-31.4-38.5-51.4 4.7-1.4 51.5-16.6 80.6-69Zm-329 158a12.2 12.2 0 0 0-9.2 6 57.9 57.9 0 1 0 100.3 58 12.2 12.2 0 0 0-4.5-16.7L128 199.7a12.2 12.2 0 0 0-7.3-1.6Zm274.5 0a12.2 12.2 0 0 0-7.4 1.6l-79 45.7a12.2 12.2 0 0 0-4.6 16.7 57.9 57.9 0 0 0 100.3-58 12.2 12.2 0 0 0-9.3-6Zm-10 31.3c1.5 12.9-2 25.8-14 32.8s-25 3.5-35.4-4.2Zm-254.3 0L180 258c-10.3 7.7-23.3 11.2-35.3 4.2s-15.5-19.8-14-32.7Zm1.2 120.2a12.2 12.2 0 0 0-5 22c33.7 23.8 81.4 34.7 129 34.7s95.4-10.9 129-34.8a12.2 12.2 0 0 0-14-19.8C343.4 371 299.7 382 256 382s-87.5-10.8-114.8-30.2a12.2 12.2 0 0 0-9.1-2Zm0 0" />
    </symbol>
  </defs>
  <defs>
    <symbol id="emoji-20">
      <title>bored</title>
      <path fill="#ffd764" d="M499.8 256a243.8 243.8 0 1 1-487.6 0 243.8 243.8 0 0 1 487.6 0Zm0 0" />
      <path fill="#fcb652" d="M342.8 28.2A247.5 247.5 0 0 1 469 243.4 247.5 247.5 0 0 1 221.6 491a248.2 248.2 0 0 1-41.7-3.8 243.7 243.7 0 0 0 76.1 12.7A243.8 243.8 0 0 0 499.8 256a243.8 243.8 0 0 0-157-227.8Zm0 0" />
      <path fill="#fafafa" d="M388 190a45.7 45.7 0 0 1-91.3 0ZM168.7 190a45.7 45.7 0 0 1-91.5 0Zm0 0" />
      <path fill="#901e1d" d="M255.8 268.2a141.3 141.3 0 0 0-140.4 129h281.2a141.3 141.3 0 0 0-140.8-129Zm0 0" />
      <path fill="#f15645" d="M189.1 393c24.4-46.1 69-70.8 121.2-71 23.7 0 45.3 6 66 17.4l20.3 57.9Zm0 0" />
      <path fill="#df2826" d="M355.3 329.9s36.4 48.7-38.7 49.7c-60.3.8-103 1.1-120.2 1.2q-3.9 5.8-7.3 12.2l207.5 4.3-20.2-57.9a148.4 148.4 0 0 0-21.1-9.5Zm0 0" />
      <path fill="#3f1511" d="M256 0C114.8 0 0 114.8 0 256s114.8 256 256 256 256-114.8 256-256S397.2 0 256 0Zm0 24.4A231.6 231.6 0 1 1 24.4 256 231.4 231.4 0 0 1 256 24.4ZM77.2 177.9A12.2 12.2 0 0 0 65.1 190a58 58 0 0 0 115.8 0 12.2 12.2 0 0 0-12.2-12.2Zm219.5 0a12.2 12.2 0 0 0-12.2 12.2 58 58 0 0 0 115.8 0 12.2 12.2 0 0 0-12.2-12.2ZM94.4 202.2h57c-5 12-14.6 21.4-28.5 21.4s-23.4-9.5-28.5-21.4Zm219.5 0h57c-5.1 12-14.6 21.4-28.5 21.4s-23.4-9.5-28.5-21.4Zm-210.7 194a12.2 12.2 0 0 0 12.2 13.3h281.2a12.2 12.2 0 0 0 12.2-13.3 153.5 153.5 0 0 0-152.9-140.1 153.5 153.5 0 0 0-152.7 140.1Zm152.6-115.8c34 .6 62.4 12.7 84.2 32.5a157.4 157.4 0 0 0-30.5-3.3c-53.8 0-103.2 27-130 75.5h-48.2C143 325.4 196 280.5 255.8 280.4Zm54.5 53.7c20.6 0 39.1 5 57.5 14.6a133.3 133.3 0 0 1 13 36.4H208.1c23.2-33.4 59.2-50.8 102-51Zm0 0" />
    </symbol>
  </defs>
  <defs>
    <symbol id="emoji-21">
      <title>sleeping</title>
      <path fill="#ffd764" d="M499.8 256a243.8 243.8 0 1 1-487.6 0 243.8 243.8 0 0 1 487.6 0Zm0 0" />
      <path fill="#fcb652" d="M256 12.2a243.8 243.8 0 0 0 0 487.6q7.2-.3 14.4-1A243.8 243.8 0 0 1 40.9 256 243.7 243.7 0 0 1 274.1 13q-9-.7-18.1-.8Zm0 0" />
      <path fill="#df2826" d="M345.4 402.6c0 10.5-2.3 20.5-6.6 28s-10 11.6-16 11.6-11.7-4.2-16-11.6-6.6-17.5-6.6-28 2.4-20.6 6.6-28 10-11.6 16-11.6 11.7 4.1 16 11.6 6.6 17.4 6.6 28Zm0 0" />
      <path fill="#3f1511" d="M256 0A256 256 0 0 0 0 256c0 141.2 114.8 256 256 256s256-114.8 256-256S397.2 0 256 0Zm0 24.4a231.6 231.6 0 1 1-150.2 55.3A231.4 231.4 0 0 1 256 24.4Zm-96.8 219.4A12.2 12.2 0 0 0 147 256a42.7 42.7 0 1 0 85.3 0 12.2 12.2 0 0 0-24.3 0 18.3 18.3 0 1 1-36.6 0 12.2 12.2 0 0 0-12.2-12.2Zm189 0A12.2 12.2 0 0 0 336 256a42.7 42.7 0 0 0 85.3 0 12.2 12.2 0 1 0-24.3 0 18.3 18.3 0 0 1-36.6 0 12.2 12.2 0 0 0-12.2-12.2Zm-25.3 107c-12 0-21.2 8.3-26.6 17.8s-8.2 21.2-8.2 34 2.8 24.5 8.2 34 14.6 17.7 26.6 17.7 21.2-8.2 26.6-17.7 8.2-21.2 8.2-34-2.8-24.6-8.2-34-14.6-17.8-26.6-17.8Zm0 24.4c.5 0 2.6.6 5.4 5.5s5 12.9 5 22-2.3 17-5 22-5 5.3-5.4 5.3-2.6-.5-5.4-5.4-5-12.9-5-22 2.3-17 5-22 5-5.4 5.4-5.4Zm0 0" />
      <path fill="#8183c0" d="M38 50.4a12.2 12.2 0 0 0 12.1 21.1l41.3-23.7-20.6 76.6a12.2 12.2 0 0 0 19 12.9l41.2-30.9A12.2 12.2 0 1 0 116.3 87l-12.8 9.6 19-70.9a12.2 12.2 0 0 0-8.5-14.9 11.5 11.5 0 0 0-9.2 1.2ZM100.5 152l-40 23.1a12.2 12.2 0 1 0 12.3 21.1l14.5-8.3-9.2 34.9a12.2 12.2 0 0 0 17.5 13.9l33.2-17.8a12.2 12.2 0 1 0-11.5-21.5l-8.5 4.6 9.6-36.3a12.1 12.1 0 0 0-8.7-15 11.8 11.8 0 0 0-9.2 1.3Zm0 0" />
    </symbol>
  </defs>
  <defs>
    <symbol id="emoji-22">
      <title>love</title>
      <path fill="#ffd764" d="M499.8 256a243.8 243.8 0 1 1-487.6 0 243.8 243.8 0 0 1 487.6 0Zm0 0" />
      <path fill="#fcb652" d="M335.7 25.6a245.8 245.8 0 0 1 132.6 217.7C468.3 379 358.2 489 222.4 489a245.1 245.1 0 0 1-54.4-6.3 243.7 243.7 0 0 0 88 17A243.8 243.8 0 0 0 499.8 256a243.8 243.8 0 0 0-164-230.4Zm0 0" />
      <path fill="#f15645" d="M347.3 228.7 301.1 185c-37.6-37.7 13-82.1 46.2-46.5 35.3-35.3 79.8 8.2 43.8 44.2Zm0 0" />
      <path fill="#901e1d" d="M255.8 446c-73.1-.1-140.4-31.5-140.4-177.8h281.2C396.6 414.5 329 446 255.8 446Zm0 0" />
      <path fill="#f15645" d="M255.7 359.8a168.8 168.8 0 0 0-108 39.7c26.5 36.1 66.3 46.5 108.1 46.6s81.9-10.4 108.4-46.6a169 169 0 0 0-108.5-39.7Zm0 0" />
      <path fill="#df2826" d="M347 386.8c-14 15-41 32.2-92 32.2-50.1 0-77-16.8-91-31.6a166.5 166.5 0 0 0-16.3 12.1c26.5 36.1 66.3 46.5 108.1 46.6s81.9-10.4 108.4-46.6a169.3 169.3 0 0 0-17.2-12.7Zm0 0" />
      <path fill="#fafafa" d="M158 280.4v12.2a22 22 0 0 0 22 22h152.1a22 22 0 0 0 22-22v-12.2" />
      <path fill="#d4d4d4" d="M316.4 280.4v10.5a26.7 26.7 0 0 1-14.2 23.7H332a22 22 0 0 0 22-22v-12.2Zm0 0" />
      <path fill="#f15645" d="M158.8 228.7 112.6 185c-37.6-37.7 12.9-82.1 46.2-46.5 35.3-35.3 79.8 8.2 43.8 44.2Zm0 0" />
      <path fill="#3f1511" d="M256 0C114.8 0 0 114.8 0 256s114.8 256 256 256 256-114.8 256-256S397.2 0 256 0Zm0 24.4A231.6 231.6 0 1 1 24.4 256 231.4 231.4 0 0 1 256 24.4Zm-97 97.9c-19-13.3-42-12-58.2 3A43 43 0 0 0 87 156.8c0 12.4 6.5 25.5 12.8 32.4s50.5 48.4 50.5 48.4a12 12 0 0 0 17.2-.5c9.6-11 42.1-43.1 50.7-54.4 8.5-11 16.8-37.3-2.3-57.6-15.7-16.7-41.5-14.7-57-2.8Zm130.3 3a44.1 44.1 0 0 0-13.7 31.5c-.2 12.3 7.2 27 15 34.9l48.3 45.9a12.2 12.2 0 0 0 17.2-.5s40.2-41.8 48.5-51.5c16.4-19.2 15.7-45 0-60.5-13.8-13.7-37.1-16.8-57.1-2.9a44.9 44.9 0 0 0-58.2 3Zm-101.6 12.2a16.9 16.9 0 0 1 11.2 4.9c9.9 10 3.1 23.6-6.2 33-10.6 10.7-24.2 25.4-34.4 36.1l-37-35.2c-7.7-7.6-9.8-14.2-9.8-19.6a18.3 18.3 0 0 1 6-13.6c10.6-9.3 24.2-5.4 32.4 3.7a12.2 12.2 0 0 0 17.5.2c7.5-7.2 14.5-9.7 20.4-9.5Zm186.7.2a17 17 0 0 1 13 4.7c5.5 5.4 8.1 18-3.8 30.3L347 211.5l-37.1-35.3c-7.6-7.6-9.8-14.1-9.8-19.5a18.3 18.3 0 0 1 6-13.7 19.9 19.9 0 0 1 14.2-5.3c5.6.1 11.8 2.2 17.4 8.1 5.4 6.5 13.5 6 18.4 1.2 6.6-6.4 13-9 18.4-9.3ZM115.4 256a12.2 12.2 0 0 0-12.2 12.2c0 75 17.4 123 46.3 152.3s68 37.7 106.4 37.7 77.4-8.4 106.4-37.6 46.5-77.4 46.5-152.4a12.2 12.2 0 0 0-12.2-12.2Zm13.7 24.4h16.7v12.2a34.4 34.4 0 0 0 34.2 34.2h152.1a34.4 34.4 0 0 0 34.2-34.2v-12.2h16.6c-1.6 47.3-10.3 81.4-23.8 104.4a161.6 161.6 0 0 0-206.1 0c-13.5-23-22.2-57-23.8-104.4Zm41 0H342v12.2a9.5 9.5 0 0 1-9.8 9.8H180a9.5 9.5 0 0 1-9.8-9.8Zm85.7 91.6a138.3 138.3 0 0 1 88.4 32.2c-23 22.5-53.9 29.7-88.3 29.7s-65.3-7.2-88.1-29.6a138.2 138.2 0 0 1 88-32.3Zm0 0" />
    </symbol>
  </defs>
  <defs>
    <symbol id="emoji-23">
      <title>surprised</title>
      <path fill="#ffd764" d="M499.8 256a243.8 243.8 0 1 1-487.6 0 243.8 243.8 0 0 1 487.6 0Zm0 0" />
      <path fill="#fcb652" d="M336.8 26a245 245 0 0 1-176 454 243.8 243.8 0 0 0 95.2 19.8A243.8 243.8 0 0 0 499.8 256a243.8 243.8 0 0 0-163-230Zm0 0" />
      <path fill="#fafafa" d="M401.1 195a35.4 35.4 0 1 1-35.4-35.4 35.4 35.4 0 0 1 35.4 35.5ZM181.7 195a35.4 35.4 0 1 1-35.4-35.4 35.4 35.4 0 0 1 35.4 35.5Zm0 0" />
      <path fill="#901e1d" d="M255.8 268.2a141.3 141.3 0 0 0-140.4 129h281.2a141.3 141.3 0 0 0-140.8-129Zm0 0" />
      <path fill="#f15645" d="M255.8 337.8a123 123 0 0 0-104.7 59.5h209.8a122.8 122.8 0 0 0-105-59.5Zm0 0" />
      <path fill="#df2826" d="M323.7 358.4c-7.7 8-18.2 14.9-32 15.5-24 1-82 .7-122.7.4a122.7 122.7 0 0 0-18 23H361a122.7 122.7 0 0 0-37.2-39Zm0 0" />
      <path fill="#3f1511" d="M256 0C114.8 0 0 114.8 0 256s114.8 256 256 256 256-114.8 256-256S397.2 0 256 0Zm0 24.4A231.6 231.6 0 1 1 24.4 256 231.4 231.4 0 0 1 256 24.4Zm-109.7 123a47.6 47.6 0 1 0 47.6 47.6 47.8 47.8 0 0 0-47.6-47.6Zm219.4 0a47.6 47.6 0 1 0 47.6 47.6 47.8 47.8 0 0 0-47.6-47.6Zm-219.4 24.4A23.2 23.2 0 1 1 123 195a23 23 0 0 1 23.3-23.2Zm219.4 0a23.2 23.2 0 1 1-23.2 23.2 23 23 0 0 1 23.2-23.2ZM256 256.1a153.5 153.5 0 0 0-152.7 140.1 12.2 12.2 0 0 0 12.2 13.3h281.2a12.2 12.2 0 0 0 12.2-13.3 153.5 153.5 0 0 0-152.9-140.1Zm0 24.4c62.3-.1 113 44.8 124.8 104.6h-21.6a119.1 119.1 0 0 0-206.2 0h-21.6a127.6 127.6 0 0 1 124.6-104.6Zm0 69.4a95.2 95.2 0 0 1 73.6 35.2h-147a95.2 95.2 0 0 1 73.3-35.2Zm0 0" />
    </symbol>
  </defs>
  <defs>
    <symbol id="emoji-24">
      <title>mute</title>
      <path fill="#ffd764" d="M499.8 256a243.8 243.8 0 1 1-487.6 0 243.8 243.8 0 0 1 487.6 0Zm0 0" />
      <path fill="#fcb652" d="M341.3 27.7a246 246 0 0 1 127.5 215 246 246 0 0 1-246 246 246.1 246.1 0 0 1-58.2-7.3 243.7 243.7 0 0 0 91.4 18.4A243.8 243.8 0 0 0 499.8 256 243.8 243.8 0 0 0 341.3 27.7Zm0 0" />
      <path fill="#fafafa" d="M411.4 190a45.7 45.7 0 0 1-91.4 0ZM192 190a45.7 45.7 0 0 1-91.4 0Zm0 0" />
      <path fill="#df2826" d="m189 274.5-24.3 42.2 42.6 24.6-42.6 24.7 24.3 42.2 67-38.7 67 38.7 24.4-42.2-42.6-24.6 42.6-24.6-24.3-42.2-67 38.6Zm0 0" />
      <path fill="#3f1511" d="M256 0C114.8 0 0 114.8 0 256s114.8 256 256 256 256-114.8 256-256S397.2 0 256 0Zm0 24.4A231.6 231.6 0 1 1 24.4 256 231.4 231.4 0 0 1 256 24.4ZM100.6 177.9A12.2 12.2 0 0 0 88.4 190a58 58 0 0 0 115.8 0 12.2 12.2 0 0 0-12.2-12.2Zm219.4 0a12.2 12.2 0 0 0-12.2 12.2 58 58 0 0 0 115.8 0 12.2 12.2 0 0 0-12.2-12.2Zm-202.2 24.3h57c-5.1 12-14.6 21.4-28.5 21.4s-23.4-9.5-28.5-21.4Zm219.4 0h57c-5 12-14.6 21.4-28.5 21.4s-23.4-9.5-28.5-21.4Zm-12.9 60.2a12.2 12.2 0 0 0-7.3 1.6l-60.9 35.1-61-35.1a12.2 12.2 0 0 0-16.6 4.5L154 310.7a12.2 12.2 0 0 0 4.5 16.6l24.3 14-24.3 14a12.2 12.2 0 0 0-4.5 16.8l24.4 42.2a12.2 12.2 0 0 0 16.6 4.4l61-35.1 60.9 35.1a12.2 12.2 0 0 0 16.7-4.5l24.3-42.1a12.2 12.2 0 0 0-4.5-16.7l-24.3-14 24.3-14a12.2 12.2 0 0 0 4.5-16.7l-24.4-42.3a12.2 12.2 0 0 0-9.3-6Zm-130.8 28.8 38.2 22-24.4 14-26-15Zm125 0 12.2 21-137.2 79.3-12.2-21Zm-13.8 64.2 26 15-12.2 21-38.1-22Zm0 0" />
    </symbol>
  </defs>
  <defs>
    <symbol id="emoji-25">
      <title>mat</title>
      <path fill="#ffd764" d="M499.8 256a243.8 243.8 0 1 1-487.6 0 243.8 243.8 0 0 1 487.6 0Zm0 0" />
      <path fill="#fcb652" d="M336.6 26A246.6 246.6 0 0 1 470 244.4 246.6 246.6 0 0 1 223.4 491a247.7 247.7 0 0 1-44.2-4.2 243.9 243.9 0 0 0 76.8 13A243.8 243.8 0 0 0 499.8 256 243.8 243.8 0 0 0 336.6 26Zm0 0" />
      <path fill="#901e1d" d="M167.6 260.8h176.8c31 0 56.1 30.5 56.1 68.3s-25 68.4-56.1 68.4H167.6c-31 0-56.2-30.5-56.2-68.4s25.1-68.3 56.2-68.3Zm0 0" />
      <path fill="#f15645" d="M368 390c-26.5-35.1-68-54.8-112-54.8s-83.4 21-109.8 56" />
      <path fill="#fafafa" d="M158 268.2v12.2a22 22 0 0 0 22 22h152.1a22 22 0 0 0 22-22v-12.2" />
      <path fill="#d4d4d4" d="M321.2 268.2v11.1a24.5 24.5 0 0 1-16.1 23h27a22 22 0 0 0 22-22v-12.1Zm0 0" />
      <path fill="#df2826" d="M344.5 365.9c-11.6 6-28.2 11-52.2 12.5-53.7 3.3-109.8 1.4-135.5.3a148.9 148.9 0 0 0-10.6 12.6L368 390a135.5 135.5 0 0 0-23.5-24.2Zm0 0" />
      <path fill="#fafafa" d="M189 173.7a30.5 30.5 0 1 1-30.5-30.5 30.5 30.5 0 0 1 30.5 30.5Zm0 0" />
      <path fill="#3f1511" d="M256 0C114.8 0 0 114.8 0 256s114.8 256 256 256 256-114.8 256-256S397.2 0 256 0Zm0 24.4A231.6 231.6 0 1 1 24.4 256 231.4 231.4 0 0 1 256 24.4ZM158.5 131a42.7 42.7 0 1 0 42.6 42.6 42.9 42.9 0 0 0-42.6-42.6Zm195 15.2A42.8 42.8 0 0 0 311 189a12.2 12.2 0 0 0 24.3 0 18.3 18.3 0 0 1 36.6 0 12.2 12.2 0 0 0 24.4 0 42.9 42.9 0 0 0-42.7-42.7Zm-195 9.1a18.3 18.3 0 1 1-18.3 18.3 18.1 18.1 0 0 1 18.3-18.3Zm9.1 93.2c-39 0-68.3 37.3-68.3 80.5s29.2 80.6 68.3 80.6h176.8c39 0 68.3-37.3 68.3-80.6s-29.2-80.5-68.3-80.5Zm2.5 24.4H342v7.4a9.5 9.5 0 0 1-9.8 9.8H180a9.5 9.5 0 0 1-9.8-9.8Zm-24.3 7.5a34.4 34.4 0 0 0 34.2 34h152.1a34.4 34.4 0 0 0 34.2-34c13 9.4 22 27 22 48.6 0 19-7 35-17.6 45-28.9-32.9-70.7-51-114.8-51s-84.4 19.6-112.8 52.6a60.8 60.8 0 0 1-19.4-46.6c0-21.5 9.2-39.2 22.1-48.6Zm110.2 67c34.9 0 67.7 13.4 91.6 37.7a30.7 30.7 0 0 1-3.2.2h-177c23.4-24 54.3-37.8 88.6-37.9Zm0 0" />
    </symbol>
  </defs>
  <defs>
    <symbol id="emoji-26">
      <title>drunk</title>
      <path fill="#ffd764" d="M499.8 256a243.8 243.8 0 1 1-487.6 0 243.8 243.8 0 0 1 487.6 0Zm0 0" />
      <path fill="#fcb652" d="M342 28A245.2 245.2 0 0 1 158 479a243.8 243.8 0 0 0 97.9 20.8A243.8 243.8 0 0 0 499.8 256 243.8 243.8 0 0 0 342 28Zm0 0" />
      <path fill="#901e1d" d="M167.6 260.8h176.8c31 0 56.1 30.5 56.1 68.3s-25 68.4-56.1 68.4H167.6c-31 0-56.1-30.5-56.1-68.4s25-68.3 56.1-68.3Zm0 0" />
      <path fill="#fafafa" d="M158 268.2v12.2a22 22 0 0 0 22 22h152.1a22 22 0 0 0 22-22v-12.2" />
      <path fill="#d4d4d4" d="M321.4 268.2v11a24.4 24.4 0 0 1-16.5 23.2H332a22 22 0 0 0 22-22v-12.2Zm0 0" />
      <path fill="#fafafa" d="M158 390v-12a22 22 0 0 1 22-22h152.1a22 22 0 0 1 22 22v12" />
      <path fill="#d4d4d4" d="M306.3 356a25.3 25.3 0 0 1 12.6 21.8v12.3h35.2v-12.2a22 22 0 0 0-22-22Zm0 0" />
      <path fill="#3f1511" d="M256 0C114.8 0 0 114.8 0 256s114.8 256 256 256 256-114.8 256-256S397.2 0 256 0Zm0 24.4A231.6 231.6 0 1 1 24.4 256 231.4 231.4 0 0 1 256 24.4Zm-91.4 121.9a42.8 42.8 0 0 0-42.7 42.7 12.2 12.2 0 1 0 24.4 0 18.3 18.3 0 0 1 36.6 0 12.2 12.2 0 0 0 24.3 0 42.9 42.9 0 0 0-42.6-42.7Zm189 0a42.8 42.8 0 0 0-42.7 42.7 12.2 12.2 0 0 0 24.3 0 18.3 18.3 0 0 1 36.6 0 12.2 12.2 0 0 0 24.4 0 42.9 42.9 0 0 0-42.7-42.7Zm-186 102.3c-39 0-68.3 37.3-68.3 80.5s29.2 80.6 68.3 80.6h176.8c39 0 68.3-37.3 68.3-80.6s-29.2-80.5-68.3-80.5Zm2.5 24.4H342v7.4a9.5 9.5 0 0 1-9.8 9.8H180a9.5 9.5 0 0 1-9.8-9.8Zm-24.3 7.5a34.4 34.4 0 0 0 34.2 34h152.1a34.4 34.4 0 0 0 34.2-34c13 9.4 22 27 22 48.6s-9 39.2-22 48.7a34.4 34.4 0 0 0-34.2-34H180a34.4 34.4 0 0 0-34.2 34c-13-9.5-22-27-22-48.7s9-39.2 22-48.6Zm34.2 87.6h152.1a9.6 9.6 0 0 1 9.8 9.8v7.4H170.1V378a9.6 9.6 0 0 1 9.8-9.8Zm0 0" />
    </symbol>
  </defs>
  <defs>
    <symbol id="emoji-27">
      <title>disappointed</title>
      <path fill="#ffd764" d="M499.8 256a243.8 243.8 0 1 1-487.6 0 243.8 243.8 0 0 1 487.6 0Zm0 0" />
      <path fill="#fcb652" d="M256 12.2a243.8 243.8 0 0 0 0 487.6q7.2-.3 14.4-1A243.8 243.8 0 0 1 40.9 256 243.7 243.7 0 0 1 274.1 13q-9-.7-18.1-.8Zm0 0" />
      <path fill="#3f1511" d="M256 0C114.8 0 0 114.8 0 256s114.8 256 256 256 256-114.8 256-256S397.2 0 256 0Zm0 24.4A231.6 231.6 0 1 1 24.4 256 231.4 231.4 0 0 1 256 24.4Zm-91.4 121.9a42.8 42.8 0 0 0-42.7 42.7 12.2 12.2 0 1 0 24.4 0 18.3 18.3 0 0 1 36.6 0 12.2 12.2 0 0 0 24.3 0 42.9 42.9 0 0 0-42.6-42.7Zm189 0a42.8 42.8 0 0 0-42.7 42.7 12.2 12.2 0 0 0 24.3 0 18.3 18.3 0 0 1 36.6 0 12.2 12.2 0 0 0 24.4 0 42.9 42.9 0 0 0-42.7-42.7ZM281.3 290c12.6.1 23.8 11.8 22.3 24.4-.9 10.6-10.2 18.6-20.3 20.6-6.3 1.7-10.8 9.3-7.5 15.3 2.1 5.2 7.8 6.6 12.6 8 10.5 3.7 18 15.7 14.5 26.7-3.1 11.3-15.2 17.8-26.3 17.3-7.6.2-14.3 8.7-10.6 15.9 3.7 8 13.7 7.7 21 6.3 20.2-3 39.2-18.6 42.1-39.4 2.3-14.7-4.4-30-15.7-39.2a43 43 0 0 0 13.9-47 50.3 50.3 0 0 0-38-31.2c-16.1-2.9-22.3-.7-24.2 8.9-1.4 8.8 6.4 13.3 16.2 13.4Zm0 0" />
    </symbol>
  </defs>
  <defs>
    <symbol id="emoji-28">
      <title>fake</title>
      <path fill="#ffd764" d="M499.8 256a243.8 243.8 0 1 1-487.6 0 243.8 243.8 0 0 1 487.6 0Zm0 0" />
      <path fill="#fcb652" d="M334.4 25.2a245 245 0 0 1-169 456.6 243.8 243.8 0 0 0 90.6 18A243.8 243.8 0 0 0 499.8 256 243.8 243.8 0 0 0 334.4 25.2Zm0 0" />
      <path fill="#901e1d" d="M167.6 260.8h176.8c31 0 56.1 30.5 56.1 68.3s-25 68.4-56.1 68.4H167.6c-31 0-56.2-30.5-56.2-68.4s25.1-68.3 56.2-68.3Zm0 0" />
      <path fill="#fafafa" d="M158 268.2v12.2a22 22 0 0 0 22 22h152.1a22 22 0 0 0 22-22v-12.2" />
      <path fill="#d4d4d4" d="M334 268.2v9a28.8 28.8 0 0 1-14.5 25.2H332a22 22 0 0 0 22-22v-12.2Zm0 0" />
      <path fill="#fafafa" d="M158 390v-12a22 22 0 0 1 22-22h152.1a22 22 0 0 1 22 22v12" />
      <path fill="#d4d4d4" d="M324.8 356a34.7 34.7 0 0 1 12.6 26.8v7.3H354v-12.2a22 22 0 0 0-22-22Zm0 0" />
      <path fill="#3f1511" d="M256 0C114.8 0 0 114.8 0 256s114.8 256 256 256 256-114.8 256-256S397.2 0 256 0Zm0 24.4A231.6 231.6 0 1 1 24.4 256 231.4 231.4 0 0 1 256 24.4Zm-91.4 121.9a42.8 42.8 0 0 0-42.7 42.7 12.2 12.2 0 1 0 24.4 0 18.3 18.3 0 0 1 36.6 0 12.2 12.2 0 0 0 24.3 0 42.9 42.9 0 0 0-42.6-42.7Zm189 0a42.8 42.8 0 0 0-42.7 42.7 12.2 12.2 0 0 0 24.3 0 18.3 18.3 0 0 1 36.6 0 12.2 12.2 0 0 0 24.4 0 42.9 42.9 0 0 0-42.7-42.7Zm-186 102.3c-39 0-68.3 37.3-68.3 80.5s29.2 80.6 68.3 80.6h176.8c39 0 68.3-37.3 68.3-80.6s-29.2-80.5-68.3-80.5Zm2.5 24.4h25v17.2H180a9.5 9.5 0 0 1-9.8-9.8Zm49.3 0h24.4v17.2h-24.4Zm48.8 0h24.4v17.2h-24.4Zm48.8 0h25v7.4a9.5 9.5 0 0 1-9.9 9.8H317Zm-171.2 7.5a34.4 34.4 0 0 0 34.2 34h152.1a34.4 34.4 0 0 0 34.2-34c13 9.4 22 27 22 48.6s-9 39.2-22 48.7a34.4 34.4 0 0 0-34.2-34H180a34.4 34.4 0 0 0-34.2 34c-13-9.5-22-27-22-48.7s9-39.2 22-48.6Zm34.2 87.6h15.1v17.2h-25V378a9.6 9.6 0 0 1 9.8-9.8Zm39.5 0h24.4v17.2h-24.5Zm48.7 0h24.4v17.2h-24.4Zm48.8 0h15.1a9.6 9.6 0 0 1 9.8 9.8v7.4H317Zm0 0" />
    </symbol>
  </defs>
  <defs>
    <symbol id="emoji-29">
      <title>sick</title>
      <path fill="#ffd764" d="M499.8 256a243.8 243.8 0 1 1-487.6 0 243.8 243.8 0 0 1 487.6 0Zm0 0" />
      <path fill="#fcb652" d="M337 26a245.2 245.2 0 0 1 131.4 216.7A245.3 245.3 0 0 1 223 488a245.2 245.2 0 0 1-65.1-9 243.8 243.8 0 0 0 98 20.8A243.8 243.8 0 0 0 499.8 256 243.8 243.8 0 0 0 337 26Zm0 0" />
      <path fill="#fafafa" d="M426.7 290.1c-11.1-.1-144.4-58.5-170.7-58.5S85.3 290.1 85.3 290.1 91.4 439 256 439 426.7 290 426.7 290Zm0 0" />
      <path fill="#d4d4d4" d="M401.2 281.7c-12.8 49.5-54.4 136.4-189 136.4a253.8 253.8 0 0 1-58.5-6.4c24.4 16 57.4 27.2 102.3 27.2 164.6 0 170.7-148.8 170.7-148.8-2.6 0-12.4-3.4-25.5-8.4Zm0 0" />
      <path fill="#3f1511" d="M256 0C114.8 0 0 114.8 0 256s114.8 256 256 256 256-114.8 256-256S397.2 0 256 0Zm0 24.4a231.4 231.4 0 0 1 231.5 236.8l-61.3 16.5c-27.5-10.1-52.5-19.6-74.8-28.3-19-7.3-38.6-14.6-55.3-20.2s-29-9.8-40.1-9.8-24 4.2-41.5 9.7-38.1 13-58 20.3a2853 2853 0 0 0-72 28l-60-16.2c-1-133.4 103-237.1 231.5-236.8ZM128 161.5a12.2 12.2 0 0 0-12.2 12.2 42.7 42.7 0 1 0 85.3 0 12.2 12.2 0 0 0-24.3 0 18.3 18.3 0 1 1-36.6 0 12.2 12.2 0 0 0-12.2-12.2Zm195 0a12.2 12.2 0 0 0-12.1 12.2 42.7 42.7 0 1 0 85.3 0 12.2 12.2 0 0 0-24.4 0 18.3 18.3 0 1 1-36.6 0 12.2 12.2 0 0 0-12.1-12.2Zm-67 82.3c2 0 16.3 3.1 32.3 8.5s35.4 12.6 54.4 19.9 37.4 14.6 52 20.1A644 644 0 0 0 413 299a145.3 145.3 0 0 1-20.4 59.3c-20.4 34.3-58 68.4-136.6 68.4s-116.2-34-136.6-68.4A145.5 145.5 0 0 1 98.8 298c7.1-2.9 31.7-12.9 66.3-25.7 19.5-7.3 40-14.5 56.9-20s32-8.5 34-8.5ZM26.5 287.1l47.6 12.7c3.9 28.7 11.6 50.8 25.9 73.3l-32 18.4a230.4 230.4 0 0 1-41.5-104.4Zm459 0a230.4 230.4 0 0 1-41.6 104.4L412 373.1a189.5 189.5 0 0 0 26-73.3ZM114.5 393c27 31.5 71.6 58.1 141.5 58.1s114.5-26.7 141.6-58.1l30.8 17.8a231.8 231.8 0 0 1-344.8 0Zm0 0" />
    </symbol>
  </defs>
  <defs>
    <symbol id="emoji-30">
      <title>cute</title>
      <path fill="#ffd764" d="M499.8 256a243.8 243.8 0 1 1-487.6 0 243.8 243.8 0 0 1 487.6 0Zm0 0" />
      <path fill="#fcb652" d="M332.7 24.6a244.5 244.5 0 0 1-173.8 454.7 243.9 243.9 0 0 0 97.1 20.5A243.8 243.8 0 0 0 499.8 256 243.8 243.8 0 0 0 332.7 24.6Zm0 0" />
      <path fill="#3f1511" d="M256 0C114.8 0 0 114.8 0 256s114.8 256 256 256 256-114.8 256-256S397.2 0 256 0Zm0 24.4A231.6 231.6 0 1 1 24.4 256 231.4 231.4 0 0 1 256 24.4Zm-91.4 121.9a42.8 42.8 0 0 0-42.7 42.7 12.2 12.2 0 1 0 24.4 0 18.3 18.3 0 0 1 36.6 0 12.2 12.2 0 0 0 24.3 0 42.9 42.9 0 0 0-42.6-42.7Zm189 0a42.8 42.8 0 0 0-42.7 42.7 12.2 12.2 0 0 0 24.3 0 18.3 18.3 0 0 1 36.6 0 12.2 12.2 0 0 0 24.4 0 42.9 42.9 0 0 0-42.7-42.7Zm-2.2 133.9a8.4 8.4 0 0 0-3 .6c-10.4 4.3-8 11.4-9.2 18.2a36.5 36.5 0 0 1-40.6 29.9 36.6 36.6 0 0 1-30.7-27.2 12.2 12.2 0 0 0-23.7 0 36.5 36.5 0 0 1-72-9.1c.2-6.6-6.5-13.1-13.2-12.3-18.2 2.1-10 26.6-6.3 36a61.2 61.2 0 0 0 66.5 36.3 61.2 61.2 0 0 0 36.8-21.5 60.7 60.7 0 0 0 108-40.6 12.8 12.8 0 0 0-12.6-10.3Zm0 0" />
    </symbol>
  </defs>
</svg>
