<svg xmlns="http://www.w3.org/2000/svg" viewBox="0 0 512 512">
  <defs>
    <symbol id="item-2369">
      <title>argentinian sombrero</title>
      <path fill="#756e78" d="m375.44 110.92 9.23 51.42c-7.82 27.16-62.44 48.19-128.67 48.19s-120.85-21-128.67-48.19l9.23-51.42C59.64 128.81 7.5 163.45 7.5 203.24 7.5 261.38 118.76 308.5 256 308.5s248.5-47.12 248.5-105.26c0-39.79-52.14-74.43-129.06-92.32Z"/>
      <ellipse cx="256" cy="84.99" fill="#665e66" rx="114.78" ry="48.62"/>
      <path fill="#665e66" d="M7.5 228.24C7.5 286.38 118.76 333.5 256 333.5s248.5-47.12 248.5-105.26v-25c0 58.14-111.26 105.26-248.5 105.26S7.5 261.38 7.5 203.24Z"/>
      <path fill="#756e78" d="M256 65.65c-50.17 0-90.83 20-90.83 44.74a22 22 0 0 0 .47 4.58c21 11.35 53.67 18.64 90.36 18.64s69.35-7.29 90.37-18.64a22.67 22.67 0 0 0 .47-4.58c0-24.71-40.67-44.74-90.84-44.74Z"/>
      <path fill="#8b818e" d="M256 210.53c66.23 0 120.85-21 128.67-48.19L370.78 85c0 26.85-51.39 48.62-114.78 48.62S141.22 111.84 141.22 85l-13.89 77.35c7.82 27.16 62.45 48.19 128.67 48.19Z"/>
      <path fill="#eab14d" d="M127.33 162.34 121.48 195c0 11.78 8.43 22.72 22.88 31.8l7-38.76c-12.78-7.4-21.28-16.17-24.03-25.7Z"/>
      <path fill="#ecbe6b" d="m151.32 188-7 38.76a131.07 131.07 0 0 0 27.6 12.7l4.65-40.46a134.28 134.28 0 0 1-25.25-11ZM360.69 188l6.95 38.76a131.07 131.07 0 0 1-27.6 12.7L335.43 199a134.68 134.68 0 0 0 25.26-11Z"/>
      <path fill="#eab14d" d="M384.67 162.34c-2.74 9.53-11.24 18.3-24 25.67l6.95 38.76-.3.2c14.63-9.12 23.18-20.14 23.18-32ZM340 239.47 335.43 199c-21.94 7.22-49.5 11.51-79.43 11.51s-57.49-4.29-79.43-11.51L172 239.47c23 7.81 52.2 12.53 84 12.53 32 0 61.44-4.74 84.54-12.65l-.5.17Z"/>
      <path d="M473.12 142.72c-22.5-15.76-53.94-28.84-91.17-38l-3.68-20.49c-.39-15.87-13.91-30.23-38.18-40.53-22.58-9.56-52.45-14.83-84.09-14.83-27.81 0-54.91 4.19-76.31 11.81a7.5 7.5 0 1 0 5 14.13c19.83-7.06 45.14-10.94 71.28-10.94 63.16 0 107.2 21.63 107.28 41.06 0 6.73-5 12.48-10.22 16.73-3.42-11.49-13.6-21.79-29.51-29.63-18.17-9-42.16-13.88-67.55-13.88S206.62 63.08 188.46 72c-15.92 7.84-26.1 18.14-29.52 29.63-5.25-4.25-10.18-10-10.22-16.73 0-4.83 2.66-9.73 7.86-14.57a7.5 7.5 0 0 0-10.22-11c-8.05 7.49-12.41 16.08-12.63 24.88l-3.68 20.5c-37.23 9.11-68.67 22.2-91.17 38C13.45 160.55 0 181.47 0 203.24v25c0 31.32 27.47 60.21 77.36 81.34q2.3 1 4.65 1.92a252.13 252.13 0 0 0 13.38 47.74 7.5 7.5 0 1 0 14-5.47 236.18 236.18 0 0 1-10.9-36.17c91.92 31.21 223 31.24 315 0-18.95 88-83.58 150.53-157.51 150.53-51.72 0-100.92-31.14-131.6-83.31a7.5 7.5 0 1 0-12.93 7.6c16.1 27.38 37.47 50.13 61.78 65.79 25.32 16.3 53.94 24.92 82.75 24.92 41.74 0 82.31-18 114.23-50.78 30.27-31.06 51.4-73.84 59.76-120.85q2.36-.94 4.65-1.92c49.89-21.13 77.36-50 77.36-81.34v-25c0-21.76-13.45-42.69-38.88-60.51Zm-100.23 70.82L369 191.72a73.48 73.48 0 0 0 11.67-9.35l2.33 13.21c-.23 6.94-4.65 13.03-10.11 17.96Zm-26.48 15.56-2.85-25q6.09-2.24 11.54-4.78l4.24 23.68a118.94 118.94 0 0 1-12.93 6.13ZM195.08 85.49C228.5 69 283.5 69 316.92 85.49c14.12 7 22.27 15.93 22.41 24.66-19 9.27-48.22 16-83.33 16s-64.31-6.68-83.33-16c.14-8.73 8.3-17.71 22.41-24.66ZM256 141.11c34.66 0 87.3-7.61 111.44-32.29l9.51 53C364.89 193.44 289.89 203 256 203c-38 0-109.47-11.12-120.95-41.24l9.51-53c24.05 24.58 76.07 32.29 111.44 32.29Zm-127 54.47 2.37-13.21a73.48 73.48 0 0 0 11.63 9.35l-3.92 21.82c-5.45-4.92-9.88-11-10.12-18Zm27.91 3.77q5.44 2.53 11.54 4.78l-2.85 25a117.1 117.1 0 0 1-12.94-6.13ZM47.49 155c19.7-13.8 47.07-25.48 79.65-34-13.93 77.58-13.16 73-13.16 74 0 45.68 84.43 64.48 142 64.48 9.18 0 18.35-.38 27.27-1.14a7.5 7.5 0 1 0-1.25-14.97c-8.5.72-17.25 1.08-26 1.08-27.25 0-53.93-3.62-75.9-10.25l2.9-25.4c21.74 6.06 46.76 9.23 73 9.23s51.26-3.17 73-9.23l2.9 25.4c-5 1.53-10.34 2.9-15.83 4.1a7.5 7.5 0 0 0 3.2 14.7c32.09-7 78.75-25 78.75-58a7.37 7.37 0 0 0-.12-1.32c-7-38.79-4.38-24.45-13-72.68 32.57 8.56 59.95 20.23 79.65 34 14.78 10.39 32.45 27.19 32.45 48.24 0 24.56-24.86 49.17-68.21 67.53C382.76 290.27 321.4 301 256 301s-126.76-10.73-172.79-30.23C39.86 252.41 15 227.8 15 203.24c0-21.05 17.67-37.85 32.49-48.23Zm373.26 144-.29.12C325 336 175.94 335.05 83.21 295.77c-31.55-13.37-53.31-30-62.81-47.59 13.09 13.6 32.28 25.95 57 36.4 99 41.92 258.29 41.93 357.28 0 24.68-10.45 43.87-22.8 57-36.4-13 24.05-45.33 41-70.86 50.84Z"/>
    </symbol>
    <symbol id="item-2370">
      <title>capuccino</title>
      <path fill="#fff3de" d="M45.67 196.61h328.87l5-.92c-5.45-75.82-110.61-47.2-106-91.3 3-28.83-17.23-49.72-31.64-60.74a10 10 0 0 0-15.33 4.13c-5.46 13-22.72 37.59-83 57.77-104.65 35-103.11 90.14-103.11 90.14Z"/>
      <path fill="#ffe5c2" d="M242.1 114.7c-4.42 42 92 18.09 106 81h31.45c-5.46-75.82-110.61-47.2-106-91.3 3-28.83-17.24-49.73-31.64-60.74a10 10 0 0 0-15.33 4.13 56.61 56.61 0 0 1-7.91 13.11c12.76 11.9 25.92 30.19 23.43 53.81Z"/>
      <path fill="#d4f2f6" d="M455.29 222.84h-44.88a309.25 309.25 0 0 1-5 35h49.87a14.21 14.21 0 0 1 4.95 27.52l-71.19 26.46a263.79 263.79 0 0 1-24.92 46.61l108.3-40.26a49.21 49.21 0 0 0-17.14-95.34Z"/>
      <path fill="#eaf9fa" d="M100.59 409.11h218.79c54.35-43.74 90.91-119.1 93.09-205.34a8 8 0 0 0-8-8.16h-389a8 8 0 0 0-8 8.16c2.21 86.23 38.78 161.6 93.12 205.34Z"/>
      <path fill="#ffe5c2" d="M371.77 261.71a281.58 281.58 0 0 0 7.75-66.1H40.45a281.58 281.58 0 0 0 7.75 66.1Z"/>
      <path fill="#fed2a4" d="M348.07 195.61a281.58 281.58 0 0 1-7.75 66.1h31.45a281.58 281.58 0 0 0 7.75-66.1Z"/>
      <path fill="#a44f3e" d="M48 260.71c8.35 35.14 23.5 67.21 44.6 93.63 21.31 26.69 47 45.34 74.84 54.77h85.17c27.81-9.43 53.53-28.08 74.84-54.77 21.1-26.42 36.25-58.49 44.6-93.63Z"/>
      <path fill="#883f2e" d="M340.56 260.71c-8.35 35.14-23.5 67.21-44.6 93.63-21.31 26.69-47 45.34-74.84 54.77h31.45c27.81-9.43 53.53-28.08 74.84-54.77 21.1-26.42 36.25-58.49 44.6-93.63Z"/>
      <path fill="#dcf5f8" d="M352.86 470.42H67.11a59.23 59.23 0 0 1-59.23-59.23 3.08 3.08 0 0 1 3.12-3.08h398a3.08 3.08 0 0 1 3.08 3.08 59.23 59.23 0 0 1-59.22 59.23Z"/>
      <path fill="#d4f2f6" d="M314.4 470.42h38.46a59.23 59.23 0 0 0 59.23-59.23 3.08 3.08 0 0 0-3.08-3.08h-59.17c-1.37 19.93-16.53 46-35.44 62.31Z"/>
      <path d="M169.93 132.06h2a7.5 7.5 0 0 0 0-15h-2a7.5 7.5 0 0 0 0 15ZM139.93 150.06h2a7.5 7.5 0 0 0 0-15h-2a7.5 7.5 0 0 0 0 15ZM201.23 148.77h2a7.5 7.5 0 0 0 0-15h-2a7.5 7.5 0 0 0 0 15ZM258 150.06h2a7.5 7.5 0 0 0 0-15h-2a7.5 7.5 0 0 0 0 15ZM204.94 112.05h2a7.5 7.5 0 0 0 0-15h-2a7.5 7.5 0 0 0 0 15ZM235 92.05h2a7.5 7.5 0 0 0 0-15h-2a7.5 7.5 0 0 0 0 15ZM233 128.06h2a7.5 7.5 0 0 0 0-15h-2a7.5 7.5 0 0 0 0 15Z"/>
      <path d="M455.29 215.34h-35.83c.23-3.78.41-7.57.51-11.38a15.5 15.5 0 0 0-15.5-15.86h-18.3c-6.66-41.87-43.61-52.25-71-59.92-25.26-7.08-35.42-11.14-34.17-23 3.48-33.07-20.15-56.47-34.55-67.48a17.51 17.51 0 0 0-26.79 7.18c-5 11.87-21.83 34.61-78.49 53.56-86.64 29-104 72.12-107.39 89.68H15.51A15.47 15.47 0 0 0 0 204c2 77.15 31.49 149.1 79.87 196.62H11A10.59 10.59 0 0 0 .38 411.19a66.81 66.81 0 0 0 66.73 66.73H266a7.5 7.5 0 0 0 0-15H67.11a51.8 51.8 0 0 1-51.54-47.3H404.4a51.8 51.8 0 0 1-51.54 47.3H301a7.5 7.5 0 0 0 0 15h51.86a66.81 66.81 0 0 0 66.73-66.73A10.58 10.58 0 0 0 409 400.62h-68.9a240.44 240.44 0 0 0 30.32-36.52l104.63-38.89a56.71 56.71 0 0 0-19.76-109.87ZM92 188.11H49.21a65.38 65.38 0 0 1 10.51-21.21c11.08-15.29 35-37.12 86.22-54.24 59.13-19.78 80.25-44.62 87.55-62a2.55 2.55 0 0 1 1.72-1.51 2.35 2.35 0 0 1 2.14.43c26.33 20.13 30.17 40.47 28.74 54-1.23 11.73 3.51 21 14.1 27.56 8.24 5.1 19.27 8.19 30.94 11.47 26.41 7.39 53.62 15.05 59.79 45.48H127a7.5 7.5 0 0 0 0 15h244.92a273.7 273.7 0 0 1-6.12 51.1H54.17a273.7 273.7 0 0 1-6.12-51.1H92a7.5 7.5 0 0 0 0-15Zm10.09 212.5C49.51 356.44 17 283 15 203.58a.44.44 0 0 1 .13-.32.52.52 0 0 1 .38-.15h17.55C34.53 262.26 53.44 317.38 86.7 359a186.55 186.55 0 0 0 45.84 41.59Zm63.89 0c-25.08-9.4-48.37-26.93-67.56-50.95-18.35-23-32-50.4-40.51-80.45h304.15c-8.46 30.05-22.16 57.47-40.51 80.45-19.18 24-42.47 41.55-67.55 50.95Zm151.9 0h-30.45A186.55 186.55 0 0 0 333.27 359c33.26-41.64 52.17-96.76 53.64-155.91h17.55a.49.49 0 0 1 .38.16.41.41 0 0 1 .13.31c-2 79.44-34.51 152.86-87.09 197Zm151.94-89.46-86.66 32.21a279.55 279.55 0 0 0 12.64-26l21.92-8.15a7.5 7.5 0 0 0-5.22-14.06l-9.5 3.5a306.66 306.66 0 0 0 9.43-33.3h42.87a6.71 6.71 0 0 1 2.34 13l-12.32 4.57a7.5 7.5 0 1 0 5.22 14.08l12.31-4.57a21.71 21.71 0 0 0-7.56-42h-39.9q1.71-9.9 2.8-20h37.1a41.71 41.71 0 0 1 14.53 80.81Z"/>
    </symbol>
    <symbol id="item-2371">
      <title>shirt</title>
      <path fill="#bed8fb" d="M361.06 39.82H256V450l32.32 54.55h113.14V80.23a40.4 40.4 0 0 0-40.4-40.4ZM150.94 39.82H256V450l-32.33 54.5H110.54V80.23a40.4 40.4 0 0 1 40.4-40.4Z"/>
      <path fill="#9dc6fb" d="M110.54 479.91V252.72l50.89 193A20.2 20.2 0 0 1 147 470.4Z"/>
      <path fill="#bed8fb" d="M135.42 39.82H159V229h-48.46L97.4 256l47.08 194.89-82.43 21.25-51.11-213.55A40.44 40.44 0 0 1 14.16 231L99.34 62a40.39 40.39 0 0 1 36.08-22.21Z"/>
      <path fill="#80b4fb" d="M191.35 7.5 256 39.82 320.65 7.5Z"/>
      <path fill="#9dc6fb" d="m256 39.82-42.43 54.55-44.44-54.55L191.35 7.5ZM256 39.82l42.43 54.55 44.44-54.55L320.65 7.5ZM401.46 479.91V252.72l-50.89 193A20.2 20.2 0 0 0 365 470.4Z"/>
      <path fill="#bed8fb" d="M376.58 39.82H353V229h48.49l13.14 27-47.11 194.89L450 472.14l51.11-213.55a40.44 40.44 0 0 0-3.22-27.6L412.66 62a40.39 40.39 0 0 0-36.08-22.21Z"/>
      <path fill="#9dc6fb" d="M497.84 231 412.66 62a40.39 40.39 0 0 0-36.08-22.21H353A40.39 40.39 0 0 1 388.42 62l88.51 175.6a20.13 20.13 0 0 1 1.6 13.79l-51.42 214.86 22.89 5.89 51.11-213.55a40.44 40.44 0 0 0-3.22-27.6ZM369.14 239.59l-32.33 10.1-32.32-10.1v-67.68h64.65Z"/>
      <path d="m504.54 227.62-43.21-85.71a7.5 7.5 0 1 0-13.39 6.76l43.2 85.7a32.92 32.92 0 0 1 2.62 22.47L444.43 463l-67.89-17.5 45.35-187.71a7.56 7.56 0 0 0-.55-5L409 227.29v-48.53a7.5 7.5 0 0 0-15 0v130.71l-33.77 139.66a7.49 7.49 0 0 0 5.41 9l28.32 7.3V497h-37.32a7.5 7.5 0 0 0 0 15h44.82a7.5 7.5 0 0 0 7.5-7.5v-35.18l39.12 10.08a7.51 7.51 0 0 0 9.17-5.52l51.1-213.55a48 48 0 0 0-3.81-32.71Z"/>
      <path d="M321.55 497H292.6l-29.1-49.1V409h6.85a7.5 7.5 0 0 0 0-15h-6.85v-29.41h6.85a7.5 7.5 0 0 0 0-15h-6.85v-29.45h6.85a7.5 7.5 0 0 0 0-15h-6.85V275.7h6.85a7.5 7.5 0 0 0 0-15h-6.85v-29.45h6.85a7.5 7.5 0 0 0 0-15h-6.85V186.8h6.85a7.5 7.5 0 0 0 0-15h-6.85v-29.45h6.85a7.5 7.5 0 0 0 0-15h-6.85V61.68l29 37.3a7.48 7.48 0 0 0 5.83 2.89h.09a7.48 7.48 0 0 0 5.81-2.76l42.2-51.78h30.14A32.75 32.75 0 0 1 406 65.42l26.13 51.84a7.5 7.5 0 0 0 13.4-6.75l-26.17-51.84a47.66 47.66 0 0 0-42.78-26.34h-29.76l-20-29.08A7.51 7.51 0 0 0 320.65 0h-129.3a7.51 7.51 0 0 0-6.18 3.25l-20 29.08h-29.75a47.66 47.66 0 0 0-42.78 26.34l-85.18 169a48 48 0 0 0-3.81 32.71l26.56 111a7.5 7.5 0 0 0 7.29 5.76 7.6 7.6 0 0 0 1.75-.21 7.5 7.5 0 0 0 5.55-9l-26.56-111a32.91 32.91 0 0 1 2.62-22.47L106 65.42a32.76 32.76 0 0 1 29.39-18.1h30.14l42.2 51.79a7.48 7.48 0 0 0 5.81 2.76h.09a7.48 7.48 0 0 0 5.86-2.87l29-37.3v386.2L219.4 497H118v-31.55l28.32-7.3a7.49 7.49 0 0 0 5.41-9L118 309.47V178.76a7.5 7.5 0 0 0-15 0v48.53l-12.34 25.43a7.51 7.51 0 0 0-.55 5l45.35 187.71L67.57 463 53 401.91a7.5 7.5 0 1 0-14.58 3.49l16.38 68.49a7.49 7.49 0 0 0 9.17 5.51L103 469.32v35.18a7.5 7.5 0 0 0 7.5 7.5h113.17a7.51 7.51 0 0 0 6.46-3.68L256 464.66l25.87 43.66a7.51 7.51 0 0 0 6.45 3.68h33.23a7.5 7.5 0 0 0 0-15ZM256 31.44 223.12 15h65.76Zm77.51 8-34.95 42.89-31-39.89 50.63-25.31ZM213.44 82.33l-34.95-42.89 15.34-22.31 50.63 25.31Z"/>
      <path d="M376.64 239.59v-67.68a7.5 7.5 0 0 0-7.5-7.5h-64.65a7.5 7.5 0 0 0-7.5 7.5v67.68a7.5 7.5 0 0 0 5.26 7.16l32.33 10.1a7.36 7.36 0 0 0 2.23.34 7.75 7.75 0 0 0 2.24-.34l32.32-10.1a7.5 7.5 0 0 0 5.27-7.16Zm-15-5.52-24.83 7.76-24.81-7.76v-54.66h49.65Z"/>
    </symbol>
    <symbol id="item-2372">
      <title>hair clip</title>
<path fill="#22a7ff" d="M134.18 21.39a44.74 44.74 0 0 1 48.29 30.81l19.46 60.8a44.75 44.75 0 0 0 1.62 4.24l4.2-4.2a22.75 22.75 0 0 1 22.33-5.74l-15.49-66.6c-8-34.58-49.55-43.24-80.41-19.31Z"/>
  <path fill="#dfebfa" d="M240.65 143.41a22.61 22.61 0 0 0-33-30.84l-4.19 4.2a44.62 44.62 0 0 0 37.19 26.64ZM105.54 246.62a22.68 22.68 0 0 0 30.83 1.06 44.61 44.61 0 0 0-26.64-37.23l-4.19 4.19a22.67 22.67 0 0 0 0 32Z"/>
  <path fill="#22a7ff" d="m167.76 430.29 18 18a15.13 15.13 0 0 0 21.39-21.39l-20.37-20.36a1275.56 1275.56 0 0 0-19 23.77ZM159.59 474.42l-14.29-14.3a734.8 734.8 0 0 0-17.55 25.24l10.45 10.45a15.13 15.13 0 0 0 21.39-21.39ZM255.44 327.83l25.37 25.38a15.13 15.13 0 1 0 21.39-21.4l-26-26c-5.4 5.58-12.47 13.06-20.76 22.02ZM210.65 378.08l22.65 22.66a15.13 15.13 0 0 0 21.35-21.39l-24.09-24.09c-6.4 7.19-13.09 14.83-19.95 22.82ZM302.4 279.73l25.94 25.94a15.13 15.13 0 1 0 21.39-21.39l-25.22-25.23c-8.72 8-16.19 15.05-22.11 20.68ZM403.41 190.6l20 20a15.13 15.13 0 0 0 21.39-21.39l-17.53-17.53a1224.98 1224.98 0 0 0-23.86 18.92ZM457.23 149.35l13.72 13.72a15.13 15.13 0 0 0 21.39-21.39l-9.69-9.68a747.27 747.27 0 0 0-25.39 17.39ZM352 234.26l23.88 23.88a15.13 15.13 0 0 0 21.39-21.39l-22.38-22.39a1678.18 1678.18 0 0 0-22.89 19.9Z"/>
  <path fill="#60b8fe" d="M493.98 98.82a76.38 76.38 0 0 0-88-24.85 1280 1280 0 0 0-141.08 63.94 44.09 44.09 0 0 1-62.66-25.53L182.9 51.8a45.11 45.11 0 0 0-74.86-18.16l-81.39 81.44c-23.94 23.92-14 64.58 18.11 74.86l60.58 19.38A44.09 44.09 0 0 1 130.87 272a1279.19 1279.19 0 0 0-63.94 141.06 76.39 76.39 0 0 0 24.85 88 20.51 20.51 0 0 0 29.77-5.24c59.52-93.3 165-200 166.09-201.1s107.81-106.61 201.11-166.13a20.52 20.52 0 0 0 5.23-29.77Z"/>
  <path fill="#22a7ff" d="M103.83 413.28a1401.89 1401.89 0 0 1 74.58-157.61c15.05-27.12.73-60.66-29.77-70L77.98 164c-30.84-9.44-44.12-41.87-32.33-67.94l-19 19c-23.94 23.94-14 64.6 18.11 74.88l60.58 19.38A44.09 44.09 0 0 1 130.87 272a1280 1280 0 0 0-63.94 141.06 76.38 76.38 0 0 0 24.86 88 20.5 20.5 0 0 0 27.25-2.06 82.56 82.56 0 0 1-15.21-85.68Z"/>
  <path fill="#fee55a" d="m293.47 230.43-.45.43c-29.47 27.14-41.67 39.33-69.19 69.19a15.13 15.13 0 0 1-22.25-20.5c28.43-30.85 40.09-42.5 70.93-70.93a15.14 15.14 0 0 1 21 21.81Z"/>
  <path d="M500.39 94.31a83.38 83.38 0 0 0-96-27.13 1285 1285 0 0 0-141.86 64.3 37.69 37.69 0 0 1-8.69 3.29A30.08 30.08 0 0 0 237.1 101l-7.18-30.88a7.5 7.5 0 0 0-14.6 3.4l5.79 24.9a30 30 0 0 0-13.44 4.9l-17.24-53.9a51.88 51.88 0 0 0-30.66-32.66 44.59 44.59 0 0 1 25.58.24 33.05 33.05 0 0 1 22.06 22.85 7.5 7.5 0 0 0 14.4-4.19 48.25 48.25 0 0 0-31.83-32.94c-18.62-6.05-40.08-1.87-57.8 11.15a51.77 51.77 0 0 0-28.22 14.57l-81.45 81.44c-27.61 27.62-16.14 74.6 21 86.48l53.9 17.23a30.08 30.08 0 0 0 25 46.87 30.55 30.55 0 0 0 6.45-.7 37 37 0 0 1-3.29 8.68 1286.64 1286.64 0 0 0-64.32 141.87 83.38 83.38 0 0 0 27.13 96 27.52 27.52 0 0 0 39.93-7c.5-.79 1-1.58 1.52-2.37l3.93 3.93a22.63 22.63 0 0 0 32-32l-9.75-9.74q6.54-8.91 13.34-17.74l11.94 11.95a22.63 22.63 0 0 0 32-32l-15.53-15.54q7.14-8.64 14.17-16.9l16.9 16.89a22.63 22.63 0 0 0 32-32l-19.06-19.06c5.18-5.79 10.13-11.24 14.77-16.31l19.82 19.83a22.63 22.63 0 0 0 32-32l-20.82-20.82c3.65-3.78 5.75-5.9 5.89-6s3.65-3.61 9.72-9.43l20.75 20.75a22.63 22.63 0 0 0 32-32l-19.67-19.66c5.11-4.66 10.58-9.59 16.34-14.73l18.86 18.86a22.63 22.63 0 0 0 32-32l-16.6-16.6c5.52-4.67 11.19-9.39 16.95-14.12l15.19 15.18a22.63 22.63 0 1 0 32-32l-11.47-11.47q8.87-6.75 17.82-13.26l9.19 9.2a22.63 22.63 0 0 0 32-32l-3.23-3.23a27.49 27.49 0 0 0 5.12-38.58Zm-262.44 40.78A37 37 0 0 1 213.44 118c12.72-12.77 32.01 2.11 24.51 17.09Zm-126.25 106a15.14 15.14 0 0 1 .32-21.7 37 37 0 0 1 17.14 24.51 15.15 15.15 0 0 1-17.46-2.83Zm43.45 249.17a7.63 7.63 0 0 1-10.78 0l-6.09-6.09c3.38-5 5.47-8 8.83-12.73l8 8a7.62 7.62 0 0 1 .04 10.82Zm49.77-52.93a7.63 7.63 0 0 1-13 5.39l-13.27-13.26q4.77-6 9.58-12c15.63 15.63 16.7 15.8 16.7 19.86Zm45.3-52.93a7.63 7.63 0 0 1-10.79 10.79l-17.7-17.71q5.11-5.89 10.06-11.51Zm49.77-42.14a7.64 7.64 0 0 1-13 5.39l-20.24-20.24c3.82-4.11 7.32-7.83 10.44-11.12 22.53 22.52 22.82 21.87 22.82 26Zm47.53-47.53a7.64 7.64 0 0 1-13 5.39l-20.48-20.48c3.37-3.18 7.11-6.67 11.16-10.42 21.43 21.43 22.34 21.3 22.34 25.51Zm47.54-47.54a7.64 7.64 0 0 1-13 5.39l-18.2-18.2q5.63-4.94 11.54-10c18.94 18.94 19.66 18.72 19.66 22.81Zm45.3-52.93a7.63 7.63 0 1 1-10.78 10.79L415.49 191q6-4.78 12-9.53Zm47.53-36.75a7.61 7.61 0 0 1-10.78 0l-7.46-7.41c5.3-3.71 8.78-6.06 12.81-8.76l5.39 5.39a7.62 7.62 0 0 1 0 10.78Zm-2.59-35.92c-117.37 74.87-286.03 238.58-369.65 369.64a12.47 12.47 0 0 1-18.14 3.19 68.88 68.88 0 0 1-22.26-78.76 1273.5 1273.5 0 0 1 63.53-140.18 52.07 52.07 0 0 0-3.27-54.2c-12.59-18.07-20.3-17.73-87.47-39.21-26.48-8.48-34.56-42-14.93-61.58l81.44-81.44c19.62-19.61 53.1-11.55 61.59 14.95l19.38 60.59a52.1 52.1 0 0 0 74 30.15 1271.81 1271.81 0 0 1 140.22-63.55 68.88 68.88 0 0 1 78.75 22.25 12.47 12.47 0 0 1-3.19 18.15Z"/>
  <path d="M268.29 202.86c-30.89 28.46-42.89 40.47-71.36 71.36a22.62 22.62 0 0 0 33.27 30.67c7.5-8.14 13.48-14.55 18.83-20.17a7.5 7.5 0 0 0-10.87-10.34c-5.4 5.68-11.44 12.14-19 20.36a7.62 7.62 0 0 1-11.19-10.36c28.44-30.86 39.64-42.06 70.5-70.5a7.63 7.63 0 0 1 10.55 11l-.22.21a1413.67 1413.67 0 0 0-25.77 24.2 7.5 7.5 0 1 0 10.42 10.78c6.89-6.65 14.52-13.82 25.51-23.94a22.63 22.63 0 1 0-30.66-33.28Z"/>
    </symbol>
    <symbol id="item-2373">
      <title>dust pan</title>
<path fill="#607d8b" d="M461.45 452.27v25.6a25.6 25.6 0 0 1-25.6 25.6H77.45a25.6 25.6 0 0 1-25.6-25.6v-25.6Z"/>
  <path fill="#37474f" d="M435.85 452.27v25.6a25.6 25.6 0 0 1-25.6 25.6h25.6a25.6 25.6 0 0 0 25.6-25.6v-25.6Z"/>
  <path fill="#ff5722" d="M401.46 273.32a206.12 206.12 0 0 0-55.72-39.59 68.53 68.53 0 0 1-39-65.88l6.06-99.67c.08-1.19.08-2.3.08-3.5a56.24 56.24 0 1 0-112.38 3.5l6.06 99.76a68.08 68.08 0 0 1-38.66 65.62 204.8 204.8 0 0 0-116 184.57v34.14c8.7-100.36 97.11-179.2 204.8-179.2a210.87 210.87 0 0 1 145.41 57.26 191.15 191.15 0 0 1 59.34 121.94v-34.14a204.49 204.49 0 0 0-59.99-144.81Zm-127.74-188a17.07 17.07 0 1 1-34.14 0V68.27a17.07 17.07 0 1 1 34.14 0Z"/>
  <path fill="#d84315" d="M401.46 273.32a206.12 206.12 0 0 0-55.72-39.59 68.53 68.53 0 0 1-39-65.88l6.06-99.67c.08-1.19.08-2.3.08-3.5a56.11 56.11 0 0 0-69.05-54.61 56.19 56.19 0 0 1 43.45 54.61c0 1.2 0 2.31-.08 3.5l-6.06 99.67a68.53 68.53 0 0 0 39 65.88 204.75 204.75 0 0 1 107.24 126.19 188.14 188.14 0 0 1 34.07 92.35v-34.14a204.49 204.49 0 0 0-60-144.81Z"/>
  <path fill="#d84315" d="M461.45 452.27H51.85c8.7-100.36 97.11-179.2 204.8-179.2a210.87 210.87 0 0 1 145.41 57.26 191.15 191.15 0 0 1 59.39 121.94Z"/>
  <path d="M349.43 226.05a59.94 59.94 0 0 1-34.21-57.66l6.1-99.61c.09-1.4.1-2.71.1-4.1a64.78 64.78 0 1 0-129.44 4l6.11 99.72a59.53 59.53 0 0 1-33.85 57.46A214.36 214.36 0 0 0 43.32 418.13v59.74A34.13 34.13 0 0 0 77.45 512h358.4a34.13 34.13 0 0 0 34.13-34.13v-59.74a213.31 213.31 0 0 0-120.55-192.08Zm-177.78 15.22a76.51 76.51 0 0 0 43.48-73.89l-6.1-99.71a47.71 47.71 0 1 1 95.33-3c0 1 0 1.91-.07 3l-6.09 99.68a77 77 0 0 0 43.79 74.07 196.39 196.39 0 0 1 107.14 138.24 205.57 205.57 0 0 0-41.25-55.47 219.77 219.77 0 0 0-343.49 55 197.37 197.37 0 0 1 107.26-137.92ZM451.7 443.73H61.65c12.9-91.6 96.58-162.13 195-162.13a201.55 201.55 0 0 1 139.49 54.91 183.74 183.74 0 0 1 55.56 107.22Zm-15.85 51.2H77.45a17.06 17.06 0 0 1-17.07-17.06V460.8h392.54v17.07a17.06 17.06 0 0 1-17.07 17.06Z"/>
  <path d="M256.65 110.93a25.6 25.6 0 0 0 25.6-25.6V68.27a25.6 25.6 0 0 0-51.2 0v17.06a25.6 25.6 0 0 0 25.6 25.6Zm-8.53-42.66a8.53 8.53 0 1 1 17.06 0v17.06a8.53 8.53 0 1 1-17.06 0Z"/>
    </symbol>
    <symbol id="item-2374">
      <title>fan</title>
<path fill="#b6e4ea" d="M257.39 14.28v192.47c47.69-3.85 85.26-45.46 85.26-96.23s-37.57-92.39-85.26-96.24Z"/>
  <path fill="#ffa600" d="M287.97 461.77V354.79h-62.64v141.18l62.64-34.2z"/>
  <path fill="#f08740" d="M264.83 354.79h23.14v106.98h-23.14z"/>
  <path fill="#fff" d="M132.52 50.94a198.37 198.37 0 0 1 124.13-43.4c110 0 199.21 89.19 199.21 199.21S366.65 406 256.65 406 57.44 316.77 57.44 206.75c0-54.57 18.66-100.61 54.21-136.59"/>
  <circle cx="256.65" cy="206.75" r="150.66" fill="#fff"/>
  <path fill="#b6e4ea" d="M257.39 14.28v192.47c47.69-3.85 85.26-45.46 85.26-96.23s-37.57-92.39-85.26-96.24Z"/>
  <path fill="#6fc8f1" d="M257.39 14.28v5.8c35.1 13.7 60.1 49 60.1 90.44s-25 76.73-60.1 90.43v5.8c47.69-3.84 85.25-45.46 85.25-96.23s-37.56-92.39-85.25-96.24Z"/>
  <path fill="#b6e4ea" d="M63.44 208.23h192.47c-3.85-47.7-45.46-85.23-96.26-85.23s-92.37 37.54-96.21 85.23Z"/>
  <path fill="#6fc8f1" d="M159.65 148.13c41.42 0 76.74 25 90.44 60.1h5.8c-3.83-47.7-45.44-85.23-96.24-85.23s-92.39 37.56-96.23 85.25h5.8c13.71-35.12 49.03-60.12 90.43-60.12Z"/>
  <path fill="#b6e4ea" d="M449.86 206.75H257.39c3.84 47.7 45.46 85.25 96.26 85.25s92.36-37.55 96.21-85.25Z"/>
  <path fill="#6fc8f1" d="M353.65 266.85c-41.42 0-76.73-25-90.43-60.1h-5.8c3.82 47.7 45.43 85.25 96.23 85.25s92.39-37.55 96.24-85.25h-5.8c-13.73 35.11-49.05 60.1-90.44 60.1Z"/>
  <path fill="#b6e4ea" d="M257.39 399.23V206.75c-47.74 3.85-85.25 45.47-85.25 96.25s37.73 89.61 85.25 96.23Z"/>
  <path fill="#6fc8f1" d="M194.27 303c0-42.6 26.44-78.74 63.12-91.55v-4.69c-47.74 3.84-85.25 45.46-85.25 96.24s37.73 89.62 85.25 96.24v-5.66c-36.58-13.84-63.12-48.02-63.12-90.58Z"/>
  <circle cx="260.11" cy="208.23" r="48.9" fill="#4bbaed"/>
  <circle cx="260.81" cy="208.23" r="21.03" fill="#fff"/>
  <path fill="#ffa600" d="M365.85 504.45v-11.21a31.18 31.18 0 0 0-31.2-31.18h-156a31.18 31.18 0 0 0-31.18 31.18v11.21Z"/>
  <path fill="#f08740" d="M334.65 462.06h-23.12a31.18 31.18 0 0 1 31.18 31.18v11.21h23.14v-11.21a31.18 31.18 0 0 0-31.2-31.18Z"/>
  <path d="M463.4 206.75C463.4 92.75 370.65 0 256.65 0a204.53 204.53 0 0 0-128.84 45 7.55 7.55 0 0 0 9.41 11.8 193.65 193.65 0 0 1 34.38-22l16 29.56a159.23 159.23 0 0 0-64.34 57.3 104.75 104.75 0 0 0-34.36 20.35 100.6 100.6 0 0 0-20.24 24.77 175.12 175.12 0 0 1 48.31-91.4 7.54 7.54 0 1 0-10.73-10.61c-37.41 37.87-56.38 85.61-56.38 141.9a206 206 0 0 0 7.48 55.14 6.48 6.48 0 0 0 .22 1c0 .11.09.21.13.32a207.43 207.43 0 0 0 160.1 146.7v44.68h-5.88a7.55 7.55 0 0 0 0 15.09h122.74a23.67 23.67 0 0 1 23.64 23.64v3.67h-203.3v-3.67a23.67 23.67 0 0 1 23.66-23.64h7.48a7.55 7.55 0 1 0 0-15.09h-7.48a38.78 38.78 0 0 0-38.73 38.73v11.22a7.55 7.55 0 0 0 7.53 7.54h218.4a7.55 7.55 0 0 0 7.55-7.54v-11.22a38.78 38.78 0 0 0-38.75-38.73h-39.14v-44.68C391 391.59 463.4 307.47 463.4 206.75Zm-398.2 9h33.52a157.52 157.52 0 0 0 3.54 25.5l-32.08 9.83a191.22 191.22 0 0 1-4.98-35.3Zm48.62 0h71.68l-68.77 21.07a143.24 143.24 0 0 1-2.91-21.04Zm80.66 13a133.11 133.11 0 0 0-3.24 3.45 106.9 106.9 0 0 0-25.71 84.8 143.67 143.67 0 0 1-44.88-65.58ZM179.65 303a91 91 0 0 1 22.83-60.7 88.49 88.49 0 0 1 7.75-7.63 56.58 56.58 0 0 0 39.58 29.06v126.43c-41.1-9.56-70.16-44.97-70.16-87.16ZM349.42 97.88a143.86 143.86 0 0 1 39.23 53.53l-67.41 32.35c.78-.82 1.57-1.65 2.33-2.51a106.11 106.11 0 0 0 26.65-70.73 108.17 108.17 0 0 0-.8-12.64Zm98.73 101.33h-33.5a157.05 157.05 0 0 0-7.14-40.13l30.41-14.59a190.34 190.34 0 0 1 10.23 54.72Zm-183.22 68.24 28.46 77.62a142 142 0 0 1-28.46 4.55Zm18.12 5.55a106.07 106.07 0 0 0 70.6 26.55 108.62 108.62 0 0 0 12.53-.75 143.81 143.81 0 0 1-58.39 41.63Zm70.6 11.46a91 91 0 0 1-60.69-22.83c-1.63-1.45-3.18-3-4.67-4.51a56.54 56.54 0 0 0 28-42.82h125a83.64 83.64 0 0 1-26.95 47.33 91 91 0 0 1-60.69 22.83Zm45.93-85.25h-75.7l69.87-33.53a142.82 142.82 0 0 1 5.8 33.53Zm-87.29-28a81.79 81.79 0 0 1-5.36 5.49 56.47 56.47 0 0 0-42-24.7V22.87a83.61 83.61 0 0 1 47.33 27 92.1 92.1 0 0 1 0 121.39Zm-62.42-23.73-41-75.61a142.66 142.66 0 0 1 41-8.05Zm10.27 19.39a41.36 41.36 0 1 1-41.36 41.36 41.41 41.41 0 0 1 41.33-41.36Zm4.82 197.85a157.17 157.17 0 0 0 33.69-5.42l11.55 31.51a191.17 191.17 0 0 1-45.22 7.42v-33.51ZM324.47 386l-11.52-31.4a159 159 0 0 0 75.82-60.93 104.84 104.84 0 0 0 35.59-20.77 101.25 101.25 0 0 0 19-22.66A192.41 192.41 0 0 1 324.47 386Zm108-255.62-30.18 14.48a159.13 159.13 0 0 0-58-69.83 104.82 104.82 0 0 0-20.66-35.26 100.71 100.71 0 0 0-24.2-19.89 192.4 192.4 0 0 1 132.99 110.51Zm-247-101.7A190.19 190.19 0 0 1 249.9 15.2v33.5a157.22 157.22 0 0 0-48.27 9.76Zm9.42 49 34.36 63.35a106.11 106.11 0 0 0-69.6-25.59 108.57 108.57 0 0 0-13.88.9 143.82 143.82 0 0 1 49.06-38.63Zm-95.91 75.67a92.13 92.13 0 0 1 121.39 0 87.51 87.51 0 0 1 8 8.21 56.48 56.48 0 0 0-24.22 39.13H72.03a83.67 83.67 0 0 1 26.95-47.34Zm-24.73 112.3 32-9.81a159 159 0 0 0 65 84 103.94 103.94 0 0 0 48.4 54.98 192.33 192.33 0 0 1-145.4-129.17Zm206.17 188.58h-47.55v-42.1a205.49 205.49 0 0 0 47.55 0v42.1Z"/>
  <path d="M260.81 236.8a28.57 28.57 0 1 0-28.57-28.57 28.59 28.59 0 0 0 28.57 28.57Zm0-42.05a13.49 13.49 0 1 1-13.48 13.48 13.49 13.49 0 0 1 13.48-13.48Z"/>
    </symbol>
    <symbol id="item-2375">
      <title>kidney stones</title>
<path fill="#fdb4ba" d="M208.16 7.5v167.69a32.32 32.32 0 0 1-32.32 32.32h-33.82v32.33h33.82a64.66 64.66 0 0 0 64.65-64.65V7.5ZM208.16 504.5V336.81a32.32 32.32 0 0 0-32.32-32.32h-33.82v-32.33h33.82a64.66 64.66 0 0 1 64.65 64.65V504.5Z"/>
  <path fill="#fe99a0" d="M175.84 207.51h-33.82v32.33h33.82a65.09 65.09 0 0 0 12.72-1.26 98.12 98.12 0 0 0 15.38-47.44 32.29 32.29 0 0 1-28.1 16.37ZM175.84 304.49h-33.82v-32.33h33.82a65.09 65.09 0 0 1 12.72 1.26 98.12 98.12 0 0 1 15.38 47.44 32.29 32.29 0 0 0-28.1-16.37Z"/>
  <path fill="#fd8087" d="M158.26 256a52.89 52.89 0 0 0-3.9-20 70.46 70.46 0 0 0 21.47-50.26c.26-39.42-32.42-71.18-71.84-71.18a95.84 95.84 0 0 0-95.84 95.86v91.16a95.84 95.84 0 0 0 95.84 95.84c39.42 0 72.1-31.76 71.84-71.18A70.46 70.46 0 0 0 154.36 276a52.89 52.89 0 0 0 3.9-20Z"/>
  <path fill="#fe646f" d="M13.65 333.73a95.88 95.88 0 0 0 90.31 63.69c39.42 0 72.1-31.76 71.84-71.18A70.46 70.46 0 0 0 154.36 276a53 53 0 0 0 2.49-32.1c-1.42 2.75-2.9 5.49-4.47 8.21-32.6 56.44-89.03 87.74-138.73 81.62Z"/>
  <circle cx="54.62" cy="256" r="16.16" fill="#ffe177"/>
  <circle cx="89.61" cy="199.33" r="16.16" fill="#ffd15b"/>
  <circle cx="89.61" cy="312.68" r="16.16" fill="#ffd15b"/>
  <path fill="#fdb4ba" d="M305.14 7.5v167.69a32.32 32.32 0 0 0 32.32 32.32h33.82v32.33h-33.82a64.66 64.66 0 0 1-64.65-64.65V7.5ZM305.14 504.5V336.81a32.32 32.32 0 0 1 32.32-32.32h33.82v-32.33h-33.82a64.66 64.66 0 0 0-64.65 64.65V504.5Z"/>
  <path fill="#fe99a0" d="M337.46 207.51h33.82v32.33h-33.82a65 65 0 0 1-12.72-1.26 98 98 0 0 1-15.38-47.44 32.29 32.29 0 0 0 28.1 16.37ZM337.46 304.49h33.82v-32.33h-33.82a65 65 0 0 0-12.72 1.26 98 98 0 0 0-15.38 47.44 32.29 32.29 0 0 1 28.1-16.37Z"/>
  <path fill="#fd8087" d="M355.04 256a52.89 52.89 0 0 1 3.9-20 70.47 70.47 0 0 1-21.48-50.26c-.25-39.42 32.43-71.18 71.85-71.18a95.84 95.84 0 0 1 95.84 95.84v91.16a95.84 95.84 0 0 1-95.84 95.84c-39.42 0-72.1-31.76-71.85-71.18A70.47 70.47 0 0 1 358.94 276a52.89 52.89 0 0 1-3.9-20Z"/>
  <path fill="#fe646f" d="M374.08 350.3a145.66 145.66 0 0 1-33.77-3.95c8.72 29.57 36.57 51.07 69 51.07a95.84 95.84 0 0 0 95.84-95.84v-33.82a145.29 145.29 0 0 1-131.07 82.54Z"/>
  <circle cx="458.68" cy="256" r="16.16" fill="#ffe177"/>
  <circle cx="423.68" cy="199.33" r="16.16" fill="#ffd15b"/>
  <circle cx="423.68" cy="312.68" r="16.16" fill="#ffd15b"/>
  <path d="M240.49 0a7.5 7.5 0 0 0-7.5 7.5v167.69a57.22 57.22 0 0 1-57.15 57.15h-8.19a78 78 0 0 0 9.9-17.37 39.87 39.87 0 0 0 38.1-39.78V7.5a7.5 7.5 0 0 0-15 0v167.69a24.87 24.87 0 0 1-18.56 24 79.41 79.41 0 0 0 1.24-13.4 77.12 77.12 0 0 0-22.68-55.14 79.37 79.37 0 0 0-56.68-23.57A103.35 103.35 0 0 0 .65 210.42v91.16a103.52 103.52 0 0 0 23 64.92 7.5 7.5 0 1 0 11.66-9.44 88.44 88.44 0 0 1-19.66-55.48v-91.16a88.34 88.34 0 0 1 88.34-88.34 64.41 64.41 0 0 1 46 19.15 62.59 62.59 0 0 1 5.77 81.84 59.9 59.9 0 0 0-19.64-18.42 7.5 7.5 0 1 0-7.51 13 44.61 44.61 0 0 1 18.68 21.14 44.34 44.34 0 0 1 0 34.46 44.56 44.56 0 0 1-18.64 21.12 7.5 7.5 0 0 0 3.76 14 7.39 7.39 0 0 0 3.75-1 59.77 59.77 0 0 0 19.64-18.41 62.52 62.52 0 0 1 12.55 37.3v.45c0 34.87-28.87 63.23-64.35 63.23a88.22 88.22 0 0 1-44.15-11.83 7.5 7.5 0 0 0-7.51 13 103.33 103.33 0 0 0 51.65 13.82c43.75 0 79.35-35.09 79.35-78.23v-.5a79.41 79.41 0 0 0-1.24-13.4 24.88 24.88 0 0 1 18.56 24v167.7a7.5 7.5 0 0 0 15 0V336.81A39.86 39.86 0 0 0 177.51 297a78 78 0 0 0-9.9-17.37h8.23a57.22 57.22 0 0 1 57.15 57.15V504.5a7.5 7.5 0 0 0 15 0V336.81a72.24 72.24 0 0 0-72.15-72.15h-10.7a60.78 60.78 0 0 0 .62-8.66 62.27 62.27 0 0 0-.62-8.66h10.7a72.24 72.24 0 0 0 72.15-72.15V7.5a7.5 7.5 0 0 0-7.5-7.5Z"/>
  <path d="M54.65 279.67A23.67 23.67 0 1 0 30.95 256a23.7 23.7 0 0 0 23.7 23.67Zm0-32.33a8.67 8.67 0 1 1-8.7 8.66 8.68 8.68 0 0 1 8.7-8.66ZM89.65 175.67a23.66 23.66 0 1 0 23.67 23.66 23.69 23.69 0 0 0-23.67-23.66Zm0 32.33a8.66 8.66 0 1 1 8.67-8.66 8.67 8.67 0 0 1-8.67 8.66ZM65.95 312.68A23.67 23.67 0 1 0 89.65 289a23.69 23.69 0 0 0-23.7 23.68Zm32.33 0a8.67 8.67 0 1 1-8.63-8.68 8.68 8.68 0 0 1 8.63 8.68ZM505.15 225.26a7.5 7.5 0 0 0 7.5-7.5v-7.34a103.35 103.35 0 0 0-103.34-103.34 79.37 79.37 0 0 0-56.66 23.57 77.12 77.12 0 0 0-22.67 55.16 79.41 79.41 0 0 0 1.24 13.4 24.87 24.87 0 0 1-18.56-24V7.5a7.5 7.5 0 0 0-15 0v167.69A39.86 39.86 0 0 0 335.79 215a78 78 0 0 0 9.9 17.37h-8.23a57.22 57.22 0 0 1-57.15-57.15V7.5a7.5 7.5 0 0 0-15 0v167.69a72.24 72.24 0 0 0 72.15 72.15h10.7a60.78 60.78 0 0 0-.62 8.66 62.27 62.27 0 0 0 .62 8.66h-10.7a72.24 72.24 0 0 0-72.15 72.15v50.13a7.5 7.5 0 0 0 15 0v-50.13a57.22 57.22 0 0 1 57.15-57.15h8.24a77.42 77.42 0 0 0-9.91 17.34 39.86 39.86 0 0 0-38.14 39.81V504.5a7.5 7.5 0 0 0 15 0V336.81a24.86 24.86 0 0 1 18.57-24 78.88 78.88 0 0 0-1.25 13.45v.45c0 43.14 35.6 78.23 79.35 78.23a103.46 103.46 0 0 0 103.33-103.36v-48.72a7.5 7.5 0 0 0-15 0v48.72a88.44 88.44 0 0 1-88.34 88.34c-35.48 0-64.35-28.37-64.35-63.23v-.4a62.68 62.68 0 0 1 12.55-37.36 59.79 59.79 0 0 0 19.64 18.42 7.5 7.5 0 1 0 7.51-13 44.52 44.52 0 0 1-18.68-21.14 44.34 44.34 0 0 1 0-34.46 44.54 44.54 0 0 1 18.67-21.11 7.5 7.5 0 1 0-7.51-13 59.9 59.9 0 0 0-19.64 18.42 62.6 62.6 0 0 1 5.77-81.85 64.44 64.44 0 0 1 46-19.14 88.33 88.33 0 0 1 88.38 88.35v7.34a7.5 7.5 0 0 0 7.5 7.5Z"/>
  <path d="M272.81 414.54a7.5 7.5 0 0 0-7.5 7.5v82.46a7.5 7.5 0 0 0 15 0V422a7.5 7.5 0 0 0-7.5-7.46ZM458.65 232.34a23.67 23.67 0 1 0 23.7 23.66 23.69 23.69 0 0 0-23.7-23.66Zm0 32.33a8.67 8.67 0 1 1 8.7-8.67 8.68 8.68 0 0 1-8.7 8.67ZM447.35 199.33a23.67 23.67 0 1 0-23.7 23.67 23.69 23.69 0 0 0 23.7-23.67Zm-32.33 0a8.67 8.67 0 1 1 8.63 8.67 8.67 8.67 0 0 1-8.63-8.67ZM423.65 336.34a23.67 23.67 0 1 0-23.66-23.66 23.7 23.7 0 0 0 23.66 23.66Zm0-32.34a8.67 8.67 0 1 1-8.66 8.67 8.68 8.68 0 0 1 8.66-8.67Z"/>
  <circle cx="101.99" cy="256" r="7.5"/>
  <circle cx="42.5" cy="302.11" r="7.5"/>
  <circle cx="42.5" cy="209.9" r="7.5"/>
  <circle cx="411.31" cy="256" r="7.5"/>
  <circle cx="470.8" cy="302.11" r="7.5"/>
  <circle cx="470.8" cy="209.9" r="7.5"/>
    </symbol>
    <symbol id="item-2376">
      <title>anti theft</title>
<path fill="#ebebeb" d="M224.27 7.5h-172a15 15 0 0 0-15 15V441a15 15 0 0 0 15 15h172a15 15 0 0 0 15-15V22.5a15 15 0 0 0-15-15Zm-15 356.5a5 5 0 0 1-5 5h-132a5 5 0 0 1-5-5V222.5a5 5 0 0 1 5-5h132a5 5 0 0 1 5 5Zm-5-175h-132a5 5 0 0 1-5-5V42.5a5 5 0 0 1 5-5h132a5 5 0 0 1 5 5V184a5 5 0 0 1-5 5Z"/>
  <path fill="#e2e2e2" d="M224.27 7.5h-25v30h5a5 5 0 0 1 5 5V184a5 5 0 0 1-5 5h-5v28.5h5a5 5 0 0 1 5 5V364a5 5 0 0 1-5 5h-5v32a15.14 15.14 0 0 1-.43 3.52h.43a10 10 0 0 1 10 10V456h15a15 15 0 0 0 15-15V22.5a15 15 0 0 0-15-15Z"/>
  <path fill="#fd5426" d="m171.45 37.5 14.2-30h-95l14.48 30Z"/>
  <path fill="#9c9c9c" d="M199.27 504.5h-122a10 10 0 0 1-10-10v-80a10 10 0 0 1 10-10h122a10 10 0 0 1 10 10v80a10 10 0 0 1-10 10Z"/>
  <path fill="#838383" d="M199.27 404.51h-20v60a10 10 0 0 1-10 10h-102v20a10 10 0 0 0 10 10h122a10 10 0 0 0 10-10v-80a10 10 0 0 0-10-10Z"/>
  <path fill="#bfbfbf" d="M67.31 494.5a10 10 0 0 0 10 10h122a10 10 0 0 0 10-10V435h-142Z"/>
  <path fill="#acacac" d="M179.27 435v29.5a10 10 0 0 1-10 10h-102v20a10 10 0 0 0 10 10h122a10 10 0 0 0 10-10V435Z"/>
  <path fill="#ebebeb" d="M460.99 7.5h-172a15 15 0 0 0-15 15V441a15 15 0 0 0 15 15h172a15 15 0 0 0 15-15V22.5a15 15 0 0 0-15-15Zm-15 356.5a5 5 0 0 1-5 5h-132a5 5 0 0 1-5-5V222.5a5 5 0 0 1 5-5h132a5 5 0 0 1 5 5Zm-5-175h-132a5 5 0 0 1-5-5V42.5a5 5 0 0 1 5-5h132a5 5 0 0 1 5 5V184a5 5 0 0 1-5 5Z"/>
  <path fill="#e2e2e2" d="M460.99 7.5h-25v30h5a5 5 0 0 1 5 5V184a5 5 0 0 1-5 5h-5v28.5h5a5 5 0 0 1 5 5V364a5 5 0 0 1-5 5h-5v32a15.14 15.14 0 0 1-.43 3.52h.43a10 10 0 0 1 10 10V456h15a15 15 0 0 0 15-15V22.5a15 15 0 0 0-15-15Z"/>
  <path fill="#fd5426" d="m408.17 37.5 14.48-30h-95l14.2 30Z"/>
  <path fill="#9c9c9c" d="M435.99 504.5h-122a10 10 0 0 1-10-10v-80a10 10 0 0 1 10-10h122a10 10 0 0 1 10 10v80a10 10 0 0 1-10 10Z"/>
  <path fill="#838383" d="M435.99 404.51h-20v60a10 10 0 0 1-10 10h-102v20a10 10 0 0 0 10 10h122a10 10 0 0 0 10-10v-80a10 10 0 0 0-10-10Z"/>
  <path fill="#bfbfbf" d="M304.02 494.5a10 10 0 0 0 10 10h122a10 10 0 0 0 10-10V435h-142Z"/>
  <path fill="#acacac" d="M415.99 435v29.5a10 10 0 0 1-10 10h-102v20a10 10 0 0 0 10 10h122a10 10 0 0 0 10-10V435Z"/>
  <path d="M103.29 462.25h-4a7.5 7.5 0 1 0 0 15h4a7.5 7.5 0 0 0 0-15ZM177.29 462.25h-4a7.5 7.5 0 0 0 0 15h4a7.5 7.5 0 0 0 0-15ZM340.01 462.25h-4a7.5 7.5 0 0 0 0 15h4a7.5 7.5 0 0 0 0-15ZM414.01 462.25h-4a7.5 7.5 0 0 0 0 15h4a7.5 7.5 0 0 0 0-15Z"/>
  <path d="M224.27 0h-172a22.52 22.52 0 0 0-22.5 22.5v68a7.5 7.5 0 0 0 15 0v-68a7.5 7.5 0 0 1 7.5-7.5h33.67l7.24 15H72.31a12.51 12.51 0 0 0-12.5 12.5V184a12.51 12.51 0 0 0 12.5 12.5h132a12.51 12.51 0 0 0 12.5-12.5V42.5A12.51 12.51 0 0 0 204.27 30h-21l7.1-15h33.87a7.5 7.5 0 0 1 7.5 7.5V441a7.51 7.51 0 0 1-7.5 7.5h-7.5v-34a17.52 17.52 0 0 0-17.5-17.5h-122a17.52 17.52 0 0 0-17.5 17.5v34h-7.5a7.51 7.51 0 0 1-7.5-7.5V125.46a7.5 7.5 0 0 0-15 0V441a22.52 22.52 0 0 0 22.5 22.5h7.5v31A17.52 17.52 0 0 0 77.31 512h122a17.52 17.52 0 0 0 17.5-17.5v-31h7.5a22.52 22.52 0 0 0 22.5-22.5V22.5A22.52 22.52 0 0 0 224.27 0Zm-22.5 181.5h-127V45h127ZM166.7 30h-56.86l-7.19-15h71.2Zm35.07 464.5a2.5 2.5 0 0 1-2.5 2.5h-122a2.5 2.5 0 0 1-2.5-2.5v-52H91.9a7.5 7.5 0 0 0 0-15H74.81v-13a2.5 2.5 0 0 1 2.5-2.5h122a2.5 2.5 0 0 1 2.5 2.5v13H126.9a7.5 7.5 0 0 0 0 15h74.87Z"/>
  <path d="M204.27 376.5a12.51 12.51 0 0 0 12.5-12.5V222.5a12.51 12.51 0 0 0-12.5-12.5h-132a12.51 12.51 0 0 0-12.5 12.5V364a12.51 12.51 0 0 0 12.5 12.5ZM74.81 225h127v136.5h-127ZM460.99 0h-172a22.53 22.53 0 0 0-22.5 22.5V441a22.53 22.53 0 0 0 22.5 22.5h7.5v31a17.53 17.53 0 0 0 17.5 17.5h122a17.52 17.52 0 0 0 17.5-17.5v-31h7.5a22.52 22.52 0 0 0 22.5-22.5V22.5A22.52 22.52 0 0 0 460.99 0ZM410.7 15l-7.24 15h-56.81l-7.1-15Zm27.79 30v136.5h-127V45Zm0 382.5h-127v-13a2.51 2.51 0 0 1 2.5-2.5h122a2.5 2.5 0 0 1 2.5 2.5Zm0 67a2.5 2.5 0 0 1-2.5 2.5h-122a2.51 2.51 0 0 1-2.5-2.5v-52h127Zm30-53.51a7.51 7.51 0 0 1-7.5 7.5h-7.5v-34a17.52 17.52 0 0 0-17.5-17.5h-122a17.53 17.53 0 0 0-17.5 17.5v34h-7.5a7.52 7.52 0 0 1-7.5-7.5V22.5a7.51 7.51 0 0 1 7.5-7.5h33.88l7.1 15h-21a12.52 12.52 0 0 0-12.5 12.5V184a12.52 12.52 0 0 0 12.5 12.5h132a12.51 12.51 0 0 0 12.5-12.5V42.5A12.51 12.51 0 0 0 440.99 30h-20.87l7.24-15h33.63a7.5 7.5 0 0 1 7.5 7.5Z"/>
  <path d="M440.99 210h-132a12.52 12.52 0 0 0-12.5 12.5v61a7.5 7.5 0 0 0 15 0V225h127v136.5h-127v-43a7.5 7.5 0 0 0-15 0V364a12.52 12.52 0 0 0 12.5 12.5h132a12.51 12.51 0 0 0 12.5-12.5V222.5a12.51 12.51 0 0 0-12.5-12.5Z"/>
    </symbol>
    <symbol id="item-2377">
      <title>power wash</title>
<path fill="#7b7179" d="m99.52 386.81-1-2.26a27.5 27.5 0 1 0-55 0V477a27.48 27.48 0 0 0 27.52 27.5h27.48l1-2.05Z"/>
  <path fill="#685e68" d="M44.09 482.43a27.5 27.5 0 0 0 27 22.07h27.43l1-2.05v-20Z"/>
  <path fill="#7b7179" d="M365.26 357.06a27.48 27.48 0 0 0-27.48 27.49l-1 2.88V501l1 3.52h27.48A27.48 27.48 0 0 0 392.74 477v-92.45a27.48 27.48 0 0 0-27.48-27.49Z"/>
  <path fill="#685e68" d="M370.65 357.61v114.82a10 10 0 0 1-10 10h-23.87V501l1 3.52h27.48A27.48 27.48 0 0 0 392.74 477v-92.45a27.45 27.45 0 0 0-22.09-26.94Z"/>
  <path fill="#ffc344" d="M169.3 124H267V87.88l-1-2.68h-95.7l-1 2.61Z"/>
  <path fill="#ffd15b" d="M136.15 174.09h34.15V85.2h-11.92a26.88 26.88 0 0 0-26.88 26.88v62.32a37.69 37.69 0 0 1 4.65-.31ZM300.15 174.09a37.43 37.43 0 0 1 4.65.31v-62.32a26.87 26.87 0 0 0-26.88-26.88H266v88.9h34.15ZM218.15 235.75a30.47 30.47 0 0 0 30.5-30.47V173.1h-61v32.18a30.47 30.47 0 0 0 30.5 30.47Z"/>
  <path fill="#ffe177" d="M337.78 504.5V210.73a37.63 37.63 0 0 0-37.63-37.63h-164a37.63 37.63 0 0 0-37.63 37.63V504.5Z"/>
  <path fill="#ffd15b" d="M315.65 176.44v281.81h22.13V210.73a37.62 37.62 0 0 0-22.13-34.29Z"/>
  <path fill="#aa9ea9" d="M98.52 458.25h239.26v46.25H98.52Z"/>
  <path fill="#9b8e99" d="M98.52 482.43h239.26v22.07H98.52Z"/>
  <path fill="#8b8089" d="M295.93 504.5h-155.9l24.84-61a25 25 0 0 1 23.16-15.58h59.91a25 25 0 0 1 23.15 15.58Z"/>
  <path fill="#7b7179" d="m149.01 482.43-9 22.07h155.9l-9-22.07Z"/>
  <path fill="#8b8089" d="M452.88 358.06a24.61 24.61 0 0 1 16.19 6.06V209.31l-2.11-1.3h-27.75l-2.51 1.3v154.81a24.6 24.6 0 0 1 16.18-6.06Z"/>
  <path fill="#7b7179" d="M466.96 208h-10.8v150.3a24.63 24.63 0 0 1 12.91 5.81v-154.8ZM437.7 122.54h-82.87a5.38 5.38 0 0 0-5.38 5.38v18.37a5.37 5.37 0 0 0 3.53 5.05l84.71 31v-59.8Z"/>
  <path fill="#ffe177" d="M469.07 209.31H436.7v-95a16.19 16.19 0 1 1 32.37 0v95Z"/>
  <path fill="#ffd15b" d="M456.16 98.41v110.9h12.91v-95a16.2 16.2 0 0 0-12.91-15.9Z"/>
  <path fill="#aa9ea9" d="M473.26 447.59h-40.75a5.37 5.37 0 0 1-5.38-5.37v-59.4a25.76 25.76 0 1 1 51.51 0v59.4a5.37 5.37 0 0 1-5.38 5.37Z"/>
  <path fill="#9b8e99" d="M456.16 357.28v62.87a5.38 5.38 0 0 1-5.38 5.38h-23.65v16.69a5.38 5.38 0 0 0 5.38 5.38h40.75a5.38 5.38 0 0 0 5.38-5.38v-59.4a25.75 25.75 0 0 0-22.48-25.54Z"/>
  <path fill="#ffd15b" d="M218.15 235.75a30.47 30.47 0 0 0 30.5-30.47V173.1h-61v32.18a30.47 30.47 0 0 0 30.5 30.47Z"/>
  <path fill="#ffc344" d="M226.65 173.09v25.09a30.47 30.47 0 0 1-28.11 30.38 30.48 30.48 0 0 0 50.11-23.28v-32.19Z"/>
  <circle cx="312.95" cy="259.5" r="47.5" fill="#ffd15b"/>
  <circle cx="312.95" cy="259.5" r="17.5" fill="#7b7179"/>
  <path fill="#685e68" d="M312.95 242h-.79a17.46 17.46 0 0 1-13.21 28 17.49 17.49 0 1 0 14-28Z"/>
  <path fill="#ffc344" d="M326.72 214a47.51 47.51 0 0 1-49.34 77 47.5 47.5 0 1 0 49.34-77Z"/>
  <path d="M150.65 336.54h135a7.5 7.5 0 0 0 0-15h-135a7.5 7.5 0 0 0 0 15ZM150.65 389.14h135a7.5 7.5 0 0 0 0-15h-135a7.5 7.5 0 0 0 0 15ZM287.95 259.5a25 25 0 1 0 25-25 25 25 0 0 0-25 25Zm35 0a10 10 0 1 1-10-10 10 10 0 0 1 10 10Z"/>
  <path d="M476.57 359.51V114.27a23.71 23.71 0 0 0-16.19-22.46V47.5A47.56 47.56 0 0 0 412.88 0H74.65a47.56 47.56 0 0 0-47.5 47.5v185.57a47.56 47.56 0 0 0 47.5 47.5h16.37V298a7.5 7.5 0 0 0 15 0v-87.27a30.17 30.17 0 0 1 30.13-30.14h44v24.69a38 38 0 0 0 75.94 0v-24.69l48.18.3a30.17 30.17 0 0 1 25.77 26.35 55 55 0 0 0-72.09 52.26 55.54 55.54 0 0 0 .83 9.45H150.65a7.5 7.5 0 0 0 0 15H263.7a54.95 54.95 0 0 0 66.58 27.74v139.06h-48.13l-4.11-10.11a32.38 32.38 0 0 0-30.1-20.25h-59.91a32.37 32.37 0 0 0-30.1 20.25l-4.12 10.11h-47.79V333a7.5 7.5 0 0 0-15 0v22.86a35 35 0 0 0-55 28.69V477a35 35 0 0 0 35 35h294.24a35 35 0 0 0 35-35v-92.45a35 35 0 0 0-55-28.69V304a54.92 54.92 0 0 0 0-88.91v-4.32a45.2 45.2 0 0 0-33-43.46V154a7.5 7.5 0 0 0-15 0v11.6h-23.8V92.7h4.42a19.4 19.4 0 0 1 19.38 19.38V119a7.5 7.5 0 0 0 15 0v-6.92a34.42 34.42 0 0 0-34.34-34.38H158.38A34.42 34.42 0 0 0 124 112.08v55.19a45.2 45.2 0 0 0-33 43.46v54.84H74.65a32.54 32.54 0 0 1-32.5-32.5V47.5A32.54 32.54 0 0 1 74.65 15h338.23a32.54 32.54 0 0 1 32.5 32.5v44.31a23.72 23.72 0 0 0-16.18 22.46v.73h-74.37a12.9 12.9 0 0 0-12.88 12.88v18.37a12.93 12.93 0 0 0 8.45 12.1l40.88 14.94V189a27.87 27.87 0 0 0 27.84 27.85h10.08V274a7.5 7.5 0 0 0 15 0v-57.19h17.37v133.91a33.41 33.41 0 0 0-17.38 0V309a7.5 7.5 0 0 0-15 0v50.51a33.15 33.15 0 0 0-9.54 23.31v59.4a12.9 12.9 0 0 0 12.88 12.88h40.75a12.9 12.9 0 0 0 12.88-12.88v-59.4a33.16 33.16 0 0 0-9.57-23.31ZM91.02 497h-20a20 20 0 0 1-20-20v-92.45a20 20 0 1 1 40 0Zm44 0h-29v-31.25h41.69Zm16.19 0 20.64-50.7a17.44 17.44 0 0 1 16.21-10.91h59.91a17.41 17.41 0 0 1 16.2 10.91l20.61 50.7Zm179.1 0h-29.3l-12.72-31.25h42Zm35-132.44a20 20 0 0 1 20 20V477a20 20 0 0 1-20 20h-20V384.55a20 20 0 0 1 19.95-19.99ZM352.95 259.5a40 40 0 1 1-40-40 40 40 0 0 1 40 40Zm-111.83-54.22a23 23 0 0 1-45.94 0v-24.69h45.94ZM177.8 92.7h80.7v23.8h-80.7Zm0 38.8h80.7v34.09h-80.7ZM139 112.08a19.4 19.4 0 0 1 19.38-19.38h4.42v72.9H139v-53.52Zm290.2 89.73h-10.08A12.86 12.86 0 0 1 406.28 189v-10.18l22.92 8.38Zm0-30.58-72.25-26.42V130h72.25Zm15 30.58v-87.54a8.69 8.69 0 1 1 17.37 0v87.54Zm26.94 238.28h-36.49v-57.27a18.26 18.26 0 0 1 36.51 0Z"/>
    </symbol>
    <symbol id="item-2378">
      <title>dreidel</title>
<path fill="#b87d72" d="M256.65 158.2a27.18 27.18 0 0 1-27.18-27.2V34.67A27.17 27.17 0 0 1 245.24 10c3.47-1.61 7.33.51 11.41.51 15 0 23.08 10.71 23.08 25.72l4.09 94.77a27.17 27.17 0 0 1-27.17 27.2Z"/>
  <path fill="#ab695d" d="M256.65 7.5a27 27 0 0 0-11.41 2.5A27.17 27.17 0 0 1 261 34.66V131a27.17 27.17 0 0 1-15.76 24.66A27.17 27.17 0 0 0 283.82 131V34.67A27.17 27.17 0 0 0 256.65 7.5Z"/>
  <path fill="#c38f86" d="M283.02 289h-52.74a25.09 25.09 0 0 1-25.1-25.09V126.42a25.09 25.09 0 0 1 25.1-25.09h34l18 2.27c13.85 0 20.85 10.7 20.85 24.55l5 135.74A25.09 25.09 0 0 1 283.02 289Z"/>
  <path fill="#b87d72" d="M283.02 101.33H260.2a25.09 25.09 0 0 1 25.09 25.09v137.47A25.09 25.09 0 0 1 260.2 289h22.82a25.09 25.09 0 0 0 25.09-25.09V126.42a25.09 25.09 0 0 0-25.09-25.09Z"/>
  <path fill="#c38f86" d="M257.09 503.45c-3.84 0-8.09.89-11.85.59a142.08 142.08 0 0 1-130.67-141.62v-21.27h284.16l-7.54 14.39c0 78.46-55.63 147.91-134.1 147.91Z"/>
  <path fill="#b87d72" d="M369.43 325.88v21.27c0 74.63-51.06 151.08-124.19 156.9 3.76.29 7.57.45 11.41.45a142.08 142.08 0 0 0 142.08-142.08v-21.27Z"/>
  <path fill="#ffd15b" d="m252.53 145.45-133.1 68.7a9 9 0 0 0-4.86 8v119a71.04 71.04 0 0 0 142.08 0l32.14-93.92-32.14-102.78a9 9 0 0 0-4.12 1Z"/>
  <path fill="#ffe177" d="m386.02 217.48-16.59-15.94-108.66-56.09a9 9 0 0 0-4.12-1v196.7A71.09 71.09 0 0 0 359.5 404.7c23.25-11.67 32.54-38.8 32.54-66.59l-1.16-112.65a9 9 0 0 0-4.86-8Z"/>
  <path fill="#ffd15b" d="M398.73 341.15v-119a9 9 0 0 0-4.86-8l-24.44-12.61v145.61a175.51 175.51 0 0 1-9.93 57.55 71.08 71.08 0 0 0 39.23-63.55Z"/>
  <path d="M347.78 334.57a7.5 7.5 0 0 0 7.5-7.5v-15a71.56 71.56 0 0 0-22.38-51.86l-10.67-10.05a7.5 7.5 0 0 0-10.29 10.92l10.71 10.06a56.26 56.26 0 0 1 10.2 13 61 61 0 0 1-31.54 36.18 7.5 7.5 0 1 0 6.48 13.51 75 75 0 0 0 32-29.15 56.86 56.86 0 0 1 .51 7.39v15a7.49 7.49 0 0 0 7.5 7.49ZM167.85 239.7a7.5 7.5 0 0 0-10.61 0l-18.52 18.53a7.5 7.5 0 0 0 5.3 12.8h52a6.9 6.9 0 0 1 6.89 6.89v49.15a7.5 7.5 0 0 0 15 0v-49.15A21.92 21.92 0 0 0 196.03 256h-33.9l5.72-5.72a7.5 7.5 0 0 0 0-10.61Z"/>
  <path d="M154.47 289.46v37.61a7.5 7.5 0 0 0 15 0v-37.61a7.5 7.5 0 0 0-15 0Z"/>
  <path d="M436.38 254.42a7.5 7.5 0 0 0-3.05 14.68c50.88 10.57 64.32 22.68 64.32 27.61 0 3.2-6.47 10.78-30.73 18.85-15.81 5.26-36.46 9.88-60.69 13.61v-20.32a7.5 7.5 0 0 0-15 0v22.46c-5.39.71-10.9 1.38-16.57 2a7.5 7.5 0 1 0 1.64 14.91q7.5-.83 14.7-1.75a63.54 63.54 0 0 1-126.85-5.32V155.63l126.28 65.18a1.49 1.49 0 0 1 .8 1.32v51.72a7.5 7.5 0 0 0 15 0v-51.72a16.45 16.45 0 0 0-8.92-14.65l-81.66-42.16v-38.9a32.64 32.64 0 0 0-24.33-31.52V74a7.5 7.5 0 0 0-15 0v19.83h-39.34V34.67a19.67 19.67 0 1 1 39.34 0V39a7.5 7.5 0 1 0 15 0v-4.33a34.67 34.67 0 0 0-69.34 0V94.9a32.65 32.65 0 0 0-24.33 31.52v38.9L163.38 183a7.5 7.5 0 0 0 6.88 13.33l78.89-40.72v185.54a63.54 63.54 0 0 1-127.08 0v-119a1.49 1.49 0 0 1 .8-1.32l16.26-8.39a7.5 7.5 0 0 0-6.88-13.33l-16.27 8.4a16.41 16.41 0 0 0-8.91 14.64v27c-30 4.53-55.14 10.44-72.83 17.18C11.65 274.87.65 284.83.65 296.71c0 17.84 25 31.69 76.5 42.35a7.5 7.5 0 0 0 3-14.69c-51.01-10.57-64.5-22.72-64.5-27.66 0-5.24 16.66-21 91.42-32.46v98.17a148.6 148.6 0 0 0 43.81 105.77 152.36 152.36 0 0 0 14.14 12.48 7.5 7.5 0 1 0 9.2-11.85 137.3 137.3 0 0 1-12.74-11.23 133.69 133.69 0 0 1-36.33-66.37 78.62 78.62 0 0 0 131.5-16.53 78.53 78.53 0 0 0 126.54 22 78.88 78.88 0 0 0 4.87-5.35C374.82 451.7 320.93 497 256.65 497a133.55 133.55 0 0 1-53.87-11.21 7.5 7.5 0 1 0-6 13.74A148.38 148.38 0 0 0 256.65 512c82.48 0 149.58-67.1 149.58-149.58v-18.08c26.06-3.93 48.35-8.86 65.42-14.54 27.59-9.18 41-20 41-33.09 0-17.8-24.95-31.64-76.27-42.29ZM249.09 138.79l-36.44 18.79v-31.16a17.61 17.61 0 0 1 17.59-17.59h52.74a17.61 17.61 0 0 1 17.67 17.59v31.16l-36.41-18.8a16.54 16.54 0 0 0-15.11 0Z"/>
  <path d="M80.19 356.59c-19-3.94-34.45-8.43-45.8-13.32A7.5 7.5 0 1 0 28.45 357c12.28 5.3 28.66 10.09 48.7 14.24a7.5 7.5 0 1 0 3-14.69ZM478.91 343.27c-11.35 4.89-26.76 9.38-45.8 13.32a7.5 7.5 0 0 0 3 14.69c20-4.15 36.43-8.94 48.71-14.24a7.5 7.5 0 1 0-5.95-13.77Z"/>
    </symbol>
    <symbol id="item-2379">
      <title>french horn</title>
<path fill="#685e68" d="m177.18 443.26-66.81-66.81a10 10 0 0 1 0-14.14l-29 7.07-11.85 33.78a5 5 0 0 1 5.5 1.08l77.63 77.67 31.58-9.62 7.07-29a10 10 0 0 1-14.15 0Z"/>
  <path fill="#554e56" d="M69.52 403.16a5 5 0 0 1 5.5 1.08l77.63 77.67 21.68-6.6-96.34-96.37Z"/>
  <path fill="#fedf30" d="M117.8 354.87a115.13 115.13 0 0 1 51.56-29.76L229.65 309l-12.06-45-56.76 15.2a175.06 175.06 0 0 0-78.46 45.3l-58.48 58.4a10 10 0 0 0 0 14.14L27.8 401a31.05 31.05 0 0 0 40.74 2.78 5.1 5.1 0 0 1 1-.57Z"/>
  <path fill="#fac600" d="M169.36 325.11 229.65 309l-12.06-45-56.76 15.21a174.24 174.24 0 0 0-18.83 6.2 113.74 113.74 0 0 0-4.82 28.16 5 5 0 0 1-2.65 4.14 135.21 135.21 0 0 0-30.88 23.02l-46.66 46.68-.56.41a11.08 11.08 0 0 1-14.49-1l-11-11-7.07 7.07a10 10 0 0 0 0 14.14L27.8 401a31.07 31.07 0 0 0 40.74 2.79 4.68 4.68 0 0 1 1-.58l48.29-48.28a115 115 0 0 1 51.55-29.77Z"/>
  <path fill="#fedf30" d="m152.65 481.91 15.27 15.26a25 25 0 0 0 35.35 0l112.77-112.74-32.94-32.94Z"/>
  <path fill="#fac600" d="M189.16 483a5 5 0 0 1-7.07 0l-15.27-15.26-14.17 14.17 15.27 15.26a25 25 0 0 0 35.35 0l112.77-112.74-14.14-14.14Z"/>
  <path fill="#fedf30" d="M184.26 252.65a93.14 93.14 0 1 0 90-24.13l52.75-52.75-32.95-33Z"/>
  <path fill="#fac600" d="m274.28 228.52 52.75-52.75-14.14-14.14-65 65a10 10 0 0 0 4.49 16.74l16.75 4.47a73.2 73.2 0 1 1-70.72 122.45l-40.76-40.79a93.17 93.17 0 1 0 116.67-101Z"/>
  <circle cx="250.15" cy="318.54" r="46.59" fill="#685e68"/>
  <path fill="#685e68" d="m383.11 67.6-89 75.22 32.95 33 78.05-86.21Z"/>
  <path fill="#554e56" d="m312.89 161.63 14.14 14.14 78.05-86.21-10.07-10.06Z"/>
  <path fill="#e53950" d="M459.54 9.31a31.83 31.83 0 1 1-35 47.94L413.9 41a41.65 41.65 0 0 0-18.62-15.55 2.56 2.56 0 0 1-.14-4.65c11.69-5.75 40.51-17.89 64.4-11.49Z"/>
  <path fill="#ca2e43" d="m470.37 14.56-7.64 28.55a11.81 11.81 0 0 1-11.58 8.74c-3.67 0-7.21-1.61-10-5.78-10.15-15.49-14.69-24.31-26.66-33.15a149.68 149.68 0 0 0-19.32 7.88 2.56 2.56 0 0 0 .14 4.65A41.65 41.65 0 0 1 413.9 41l10.63 16.25a31.83 31.83 0 1 0 45.84-42.69Z"/>
  <path d="M211.9 356.79a54.09 54.09 0 1 0 0-76.5 54.07 54.07 0 0 0 0 76.5Zm77.35-38.25a39.15 39.15 0 0 1-2.1 12.7l-22-12.7 22-12.7a39.2 39.2 0 0 1 2.1 12.7Zm-76.07-12.69 22 12.69-22 12.69a39.39 39.39 0 0 1 0-25.38Zm7.47 38.37 22-12.69v25.39a38.8 38.8 0 0 1-20.14-10.74 27.08 27.08 0 0 1-1.84-2Zm37 12.7v-25.39l22 12.69a83 83 0 0 1-1.83 2 38.83 38.83 0 0 1-20.17 10.7Zm22-64.06-22 12.69v-25.36a38.85 38.85 0 0 1 20.15 10.71c.63.63 1.24 1.29 1.85 1.96Zm-37-12.67v25.36l-22-12.69c.59-.67 1.2-1.32 1.84-2a38.85 38.85 0 0 1 20.16-10.67Z"/>
  <path d="M377.43 51.31a7.5 7.5 0 0 0-10.6 10.61l5.21 5.21-77.53 65.52-.62-.62a7.5 7.5 0 1 0-10.6 10.61l.18.18-44.59 44.6A7.5 7.5 0 1 0 249.49 198l44.59-44.59 22.34 22.34-47.44 47.44a7.5 7.5 0 0 0 3.37 12.55A85.7 85.7 0 1 1 189.56 258l34.74-34.74a7.53 7.53 0 0 0-10.65-10.65l-34.73 34.73a100.23 100.23 0 0 0-17.73 24l-2.39.64a182.64 182.64 0 0 0-81.82 47.24L18.59 377.6a17.49 17.49 0 0 0 0 24.75l3.91 3.91A38.68 38.68 0 0 0 71.21 411l91.44 91.48a32.56 32.56 0 0 0 46 0l27.95-28a7.5 7.5 0 0 0-10.61-10.6l-28 27.95a17.52 17.52 0 0 1-24.75 0l-10-10 65.09-65.09a101.62 101.62 0 0 0 45-.33l-22 22a7.5 7.5 0 1 0 10.61 10.6l58.78-58.78a100.72 100.72 0 0 0-32.63-165l38.9-38.89.19.19A7.5 7.5 0 0 0 337.82 176l-.44-.45 68-75.07 5.41 5.41a7.5 7.5 0 0 0 10.6-10.61ZM33.1 395.65l-3.91-3.91a2.51 2.51 0 0 1 0-3.54l58.46-58.43A167.83 167.83 0 0 1 153.9 289a101.31 101.31 0 0 0-4.25 35.12 121.8 121.8 0 0 0-37.17 25.45l-48.5 48.2a23.62 23.62 0 0 1-30.88-2.12Zm119.55 75.65L82.33 401l21.1-21.09a17.07 17.07 0 0 0 1.64 1.89l66.81 66.82a18.19 18.19 0 0 0 1.89 1.64Zm33.37-33.3a2.5 2.5 0 0 1-3.53 0l-66.84-66.85a2.51 2.51 0 0 1 0-3.54l7.44-7.43a107 107 0 0 1 28.63-20.49 100.56 100.56 0 0 0 60.45 72.1Zm140.74-273.1-21.61-21.61 77.5-65.51 12.05 12ZM499.82 94.56v-.6a79.76 79.76 0 0 0-2.54-15.53 78.92 78.92 0 0 0-10-22.5 39.34 39.34 0 0 0-25.8-53.87c-26.4-7.07-57.5 6-69.65 12a10.05 10.05 0 0 0 .53 18.29 34 34 0 0 1 15.29 12.75l10.64 16.26a39.27 39.27 0 0 0 59.36 7.83 64.94 64.94 0 0 1 5.1 13.12 64.13 64.13 0 0 1 2.05 12.57v.6a7.5 7.5 0 0 0 7.48 7h.47a7.5 7.5 0 0 0 7.07-7.92Zm-54.58-30.95C438.91 62 434.45 58.46 430.73 53l-10.56-16.11a49 49 0 0 0-12.9-13.33c13.08-5.38 33.38-11.56 50.38-7.01a24.37 24.37 0 0 1 18 25.3 78.61 78.61 0 0 0-25-15.85 7.5 7.5 0 0 0-5.58 13.92 63.4 63.4 0 0 1 24 16.83 24.92 24.92 0 0 1-23.83 6.9Z"/>
    </symbol>
    <symbol id="item-2380">
      <title>orders</title>
<path fill="#eef5f6" d="m307.91 406.11-1.48-.95a15.74 15.74 0 0 0-17.06 0l-3.56 2.29a15.75 15.75 0 0 1-17.07 0l-3.56-2.29a15.74 15.74 0 0 0-17.06 0l-3.56 2.29a15.75 15.75 0 0 1-17.07 0l-3.56-2.29a15.74 15.74 0 0 0-17.06 0l-1.48.95a6.88 6.88 0 0 1-10.61-5.78V226.86h123.74v173.47a6.88 6.88 0 0 1-10.61 5.78ZM478.26 314.4l-1.62-.69a15.74 15.74 0 0 0-16.81 2.92l-3.12 2.87a15.76 15.76 0 0 1-16.81 2.92l-3.9-1.65a15.76 15.76 0 0 0-16.81 2.91l-3.12 2.87a15.74 15.74 0 0 1-16.81 2.92l-3.9-1.65a15.74 15.74 0 0 0-16.81 2.92l-1.3 1.2a6.88 6.88 0 0 1-11.44-3.89l-22.83-131.5 121.92-21.17 22.83 131.51a6.89 6.89 0 0 1-9.47 7.51ZM150.65 355.11l-1.48-.95a15.74 15.74 0 0 0-17.06 0l-3.56 2.29a15.75 15.75 0 0 1-17.07 0l-3.56-2.29a15.74 15.74 0 0 0-17.06 0l-3.56 2.29a15.75 15.75 0 0 1-17.07 0l-3.58-2.29a15.74 15.74 0 0 0-17.06 0l-1.48.95a6.88 6.88 0 0 1-10.61-5.78V186.86h123.71v162.47a6.88 6.88 0 0 1-10.56 5.78Z"/>
  <path fill="#678d98" d="M492.43 183.7H20.87A12.73 12.73 0 0 1 8.15 171v-56.23a12.72 12.72 0 0 1 12.72-12.72h471.56a12.71 12.71 0 0 1 12.72 12.72V171a12.72 12.72 0 0 1-12.72 12.7ZM480.39 221.87H35.19a9.27 9.27 0 0 1-9.27-9.27v-28.9h463.73v28.9a9.27 9.27 0 0 1-9.27 9.27Z"/>
  <path fill="#f6a96c" d="M492.43 102.05H20.87a12.72 12.72 0 0 0-12.72 12.72V171a12.73 12.73 0 0 0 12.72 12.7h471.56a12.72 12.72 0 0 0 12.72-12.7v-56.23a12.71 12.71 0 0 0-12.72-12.72Z"/>
  <path fill="#ea9b58" d="M492.43 102.05h-17.28V141a12.73 12.73 0 0 1-12.72 12.72H8.15V171a12.73 12.73 0 0 0 12.72 12.7h471.56a12.73 12.73 0 0 0 12.72-12.7v-56.23a12.71 12.71 0 0 0-12.72-12.72Z"/>
  <path fill="#678d98" d="M480.39 221.87H35.19a9.27 9.27 0 0 1-9.27-9.27v-28.9h463.73v28.9a9.27 9.27 0 0 1-9.27 9.27Z"/>
  <path d="M261.56 253.63h-37.18a7.5 7.5 0 0 0 0 15h37.18a7.5 7.5 0 0 0 0-15ZM291.93 253.63h-6.11a7.5 7.5 0 1 0 0 15h6.11a7.5 7.5 0 0 0 0-15ZM261.56 285.42h-37.18a7.5 7.5 0 1 0 0 15h37.18a7.5 7.5 0 0 0 0-15ZM291.93 285.42h-6.11a7.5 7.5 0 0 0 0 15h6.11a7.5 7.5 0 0 0 0-15ZM261.56 317.21h-37.18a7.5 7.5 0 1 0 0 15h37.18a7.5 7.5 0 0 0 0-15ZM291.93 317.21h-6.11a7.5 7.5 0 0 0 0 15h6.11a7.5 7.5 0 0 0 0-15ZM261.56 347.73h-37.18a7.5 7.5 0 0 0 0 15h37.18a7.5 7.5 0 1 0 0-15ZM291.93 347.73h-6.11a7.5 7.5 0 0 0 0 15h6.11a7.5 7.5 0 0 0 0-15ZM384.73 264l36.63-6.36a7.5 7.5 0 0 0-2.57-14.78l-36.63 6.36a7.5 7.5 0 0 0 1.28 14.89 7.18 7.18 0 0 0 1.29-.11ZM445.26 253.45l6-1a7.5 7.5 0 0 0-2.56-14.78l-6 1a7.51 7.51 0 0 0 1.28 14.9 7.12 7.12 0 0 0 1.28-.12ZM424.23 274.15l-36.58 6.36a7.5 7.5 0 0 0 1.27 14.89 8.25 8.25 0 0 0 1.3-.11l36.63-6.36a7.5 7.5 0 0 0-2.57-14.78ZM454.16 269l-6 1.05a7.5 7.5 0 0 0 1.28 14.89 8.22 8.22 0 0 0 1.29-.11l6-1a7.53 7.53 0 0 0-2.57-14.83ZM67.07 260.42h37.18a7.5 7.5 0 0 0 0-15H67.07a7.5 7.5 0 1 0 0 15ZM128.51 260.42h6.14a7.5 7.5 0 0 0 0-15h-6.11a7.5 7.5 0 1 0 0 15ZM67.07 292.21h37.18a7.5 7.5 0 0 0 0-15H67.07a7.5 7.5 0 0 0 0 15ZM128.51 292.21h6.14a7.5 7.5 0 0 0 0-15h-6.11a7.5 7.5 0 0 0 0 15ZM67.07 322.73h37.18a7.5 7.5 0 1 0 0-15H67.07a7.5 7.5 0 0 0 0 15ZM128.51 322.73h6.14a7.5 7.5 0 1 0 0-15h-6.11a7.5 7.5 0 0 0 0 15Z"/>
  <path d="M492.43 94.55H120.65a7.5 7.5 0 0 0 0 15h371.78a5.22 5.22 0 0 1 5.22 5.22V171a5.22 5.22 0 0 1-5.22 5.22H20.87a5.22 5.22 0 0 1-5.22-5.22v-56.23a5.22 5.22 0 0 1 5.22-5.22h64.78a7.5 7.5 0 0 0 0-15H20.87A20.24 20.24 0 0 0 .65 114.77V171a20.22 20.22 0 0 0 17.77 20v21.6a16.79 16.79 0 0 0 11.55 15.93v120.8a14.38 14.38 0 0 0 22.17 12.09l1.48-1a8.27 8.27 0 0 1 8.94 0l3.56 2.3a23.3 23.3 0 0 0 25.19 0l3.56-2.3a8.27 8.27 0 0 1 8.94 0l3.56 2.3a23.34 23.34 0 0 0 25.19 0l3.56-2.3a8.27 8.27 0 0 1 8.94 0l1.48 1a14.38 14.38 0 0 0 22.17-12.09v-120h18.57v171a14.38 14.38 0 0 0 22.17 12.09l1.48-1a8.27 8.27 0 0 1 8.94 0l3.56 2.3a23.34 23.34 0 0 0 25.19 0l3.56-2.3a8.27 8.27 0 0 1 8.94 0l3.56 2.3a23.3 23.3 0 0 0 25.19 0l3.56-2.3a8.27 8.27 0 0 1 8.94 0l1.48 1a14.38 14.38 0 0 0 22.17-12.09v-52.9a7.5 7.5 0 1 0-15 0v51.77l-.53-.35a23.32 23.32 0 0 0-25.19 0l-3.56 2.3a8.25 8.25 0 0 1-8.93 0l-3.56-2.3a23.32 23.32 0 0 0-25.19 0l-3.56 2.3a8.27 8.27 0 0 1-8.94 0l-3.56-2.3a23.32 23.32 0 0 0-25.19 0l-.53.35V229.37h108.74v83.06a7.5 7.5 0 0 0 15 0v-83.06h15l17.36 100a14.36 14.36 0 0 0 9.54 11.16 14.55 14.55 0 0 0 4.63.77 14.36 14.36 0 0 0 9.74-3.81l1.3-1.2a8.25 8.25 0 0 1 8.8-1.52l3.9 1.65a23.31 23.31 0 0 0 24.82-4.31l3.11-2.87a8.27 8.27 0 0 1 8.81-1.53l3.9 1.65a23.29 23.29 0 0 0 24.86-4.36l3.11-2.87a8.29 8.29 0 0 1 8.81-1.52l1.63.68a14.37 14.37 0 0 0 19.77-15.7l-13.24-76.3a16.8 16.8 0 0 0 15.29-16.7v-22A20.24 20.24 0 0 0 512.65 171v-56.23a20.24 20.24 0 0 0-20.22-20.22ZM153.71 348.19l-.53-.34a23.3 23.3 0 0 0-25.19 0l-3.56 2.3a8.25 8.25 0 0 1-8.93 0l-3.56-2.3a23.3 23.3 0 0 0-25.19 0l-3.56 2.3a8.27 8.27 0 0 1-8.94 0l-3.6-2.3a23.3 23.3 0 0 0-25.19 0l-.53.35V229.37h108.78Zm325.85-41.39a23.29 23.29 0 0 0-24.81 4.31l-3.1 2.89a8.26 8.26 0 0 1-8.81 1.53l-3.9-1.65a23.27 23.27 0 0 0-24.81 4.31l-3.14 2.81a8.27 8.27 0 0 1-8.81 1.53l-3.9-1.65a23.27 23.27 0 0 0-24.81 4.31l-.47.43-16.71-96.28h110.36l13.48 77.68Zm2.6-94.2a1.77 1.77 0 0 1-1.77 1.77H35.19a1.77 1.77 0 0 1-1.77-1.77v-21.4h448.74Z"/>
    </symbol>
    <symbol id="item-2381">
      <title>synagogue</title>
<path fill="#d8ecfe" d="M256.65 74.86 102.91 189.75v279h305.83V174.42Z"/>
  <path fill="#c4e2ff" d="M104.77 468.77V174.42l49.88-32.63a35.17 35.17 0 0 1 1.61 59 5 5 0 0 0-2.21 4.14v78a5 5 0 0 0 2.94 4.59 35.28 35.28 0 0 1 21.18 32.28 34.89 34.89 0 0 1-3.52 15.2 35.59 35.59 0 0 1-8.23 11 5 5 0 0 0-1.65 3.7v119.07ZM408.74 468.77V174.42l-49.85-32.63a35.16 35.16 0 0 0-1.6 59 5 5 0 0 1 2.2 4.14v78a5 5 0 0 1-2.93 4.59 35.46 35.46 0 0 0-17.72 17.08 35.07 35.07 0 0 0 0 30.4 35.44 35.44 0 0 0 8.23 11 5 5 0 0 1 1.64 3.7v119.07Z"/>
  <path fill="#8ac9fe" d="M292.35 399.71v60.82h-71.4v-60.82a35.72 35.72 0 0 1 28.3-34.94c2.39-.5 4.86 3 7.4 3s5.15-3.48 7.6-2.95a35.71 35.71 0 0 1 28.1 34.89ZM376.65 460.53l-54-6.77V387a23 23 0 0 1 26-22.82c11.29 1.48 21.3 28.86 21.3 40.55Z"/>
  <path fill="#60b7ff" d="M368.72 387a23 23 0 0 0-20-22.82V457l27.9 3.5Z"/>
  <path fill="#8ac9fe" d="m190.83 453.76-58.61 18.49 12.56-75.41c0-11.69 8.72-31.19 20-32.67A23.31 23.31 0 0 1 190.83 387Z"/>
  <path fill="#69777c" d="m367.1 165.48-22.74-6.23-86-61.16a3 3 0 0 0-3.48 0l-85.77 61.16-48.46 8.26L146.09 138l108.77-80.25a3 3 0 0 1 3.56 0l109 80.27 23 33.8Z"/>
  <path fill="#5e6c70" d="m362.04 171.82 38.05-9.74L367.42 138a35.4 35.4 0 0 0-23.06 21.23Z"/>
  <path fill="#69777c" d="m384.65 328.87-45.8 6.13h-164.2l-46-6.15c-8.39 0-15.2-.66-15.2-9.05s6.81-9.52 15.2-9.52l46-5.68h164.19l45.8 6.67c8.4 0 15.2.13 15.2 8.53s-6.81 9.05-15.2 9.05Z"/>
  <path fill="#5e6c70" d="M399.84 319.82a15.19 15.19 0 0 0-15.2-15.2h-45.8a35.07 35.07 0 0 0 0 30.4h45.81a15.21 15.21 0 0 0 15.19-15.2Z"/>
  <path fill="#60b7ff" d="M144.78 387a23.07 23.07 0 0 1 20-22.86V457l-27.9 3.5Z"/>
  <path fill="#5e6c70" d="m151.47 171.82-38-9.74L146.09 138a35.38 35.38 0 0 1 23.05 21.23ZM113.65 319.82a15.2 15.2 0 0 1 15.21-15.2h45.79a35.12 35.12 0 0 1 0 30.4h-45.78a15.21 15.21 0 0 1-15.22-15.2Z"/>
  <path fill="#eaf6ff" d="M466.55 157.59c0-23.72-11.12-43.93-30-58.22l-10.71-10.46a3 3 0 0 0-3.62 0l-8.19 4.93-4.48 3.39a75.63 75.63 0 0 0-30.06 60.36v12.68h87.06v-12.68Z"/>
  <path fill="#d8ecfe" d="m438.51 97.23-12.67-9.57a3 3 0 0 0-3.62 0l-8.19 6.18 4.48 3.39a75.62 75.62 0 0 1 30.05 60.36v12.68h20v-12.68a75.63 75.63 0 0 0-30.05-60.36Z"/>
  <path fill="#eaf6ff" d="M379.49 170.27h83.54V317h-83.54Z"/>
  <path fill="#d8ecfe" d="M448.56 170.27h20V317h-20Z"/>
  <path fill="#eaf6ff" d="M368.72 317H472.5v147.21H368.72Z"/>
  <path fill="#d8ecfe" d="M459.33 317h20v147.21h-20Z"/>
  <path fill="#7a8c98" d="m470.82 185-18 2h-75.58a15.21 15.21 0 1 1 0-30.41h75.58l18 2c8.4 0 13.2 4.81 13.2 13.2s-4.8 13.21-13.2 13.21Z"/>
  <path fill="#69777c" d="M470.82 156.62h-20a15.2 15.2 0 0 1 0 30.4h20a15.2 15.2 0 0 0 0-30.4Z"/>
  <path fill="#7a8c98" d="m477.48 333-18 2h-88.9a15.2 15.2 0 0 1 0-30.4h88.89l18 2c8.39 0 13.2 4.8 13.2 13.2s-4.8 13.2-13.19 13.2Z"/>
  <path fill="#69777c" d="M477.48 304.61h-20a15.21 15.21 0 1 1 0 30.41h20a15.21 15.21 0 0 0 0-30.41Z"/>
  <path fill="#7a8c98" d="M436.32 275.62h-24.58a3 3 0 0 1-3-3v-41.31a15.29 15.29 0 0 1 30.58 0v41.31a3 3 0 0 1-3 3ZM436.32 423.62h-24.58a3 3 0 0 1-3-3V379.3a15.29 15.29 0 1 1 30.58 0v41.32a3 3 0 0 1-3 3Z"/>
  <path fill="#eaf6ff" d="M132 157.59c0-23.72-11.13-43.93-30.06-58.22L91.28 88.91a3 3 0 0 0-3.61 0l-8.19 4.93-4.49 3.39a75.65 75.65 0 0 0-30.05 60.36v12.68H132v-12.68Z"/>
  <path fill="#d8ecfe" d="m103.96 97.23-12.68-9.57a3 3 0 0 0-3.61 0l-8.2 6.18 4.49 3.39a75.65 75.65 0 0 1 30.05 60.36v12.68h20v-12.68a75.62 75.62 0 0 0-30.05-60.36Z"/>
  <path fill="#eaf6ff" d="M44.94 170.27h83.54V317H44.94Z"/>
  <path fill="#d8ecfe" d="M114.01 170.27h20V317h-20Z"/>
  <path fill="#eaf6ff" d="M34.17 317h103.77v147.21H34.17Z"/>
  <path fill="#d8ecfe" d="M124.78 317h20v147.21h-20Z"/>
  <path fill="#7a8c98" d="m136.27 185-18 2H42.65a15.21 15.21 0 0 1 0-30.41h75.59l18 2c8.4 0 13.2 4.81 13.2 13.2S144.65 185 136.27 185Z"/>
  <path fill="#69777c" d="M136.27 156.62h-20a15.2 15.2 0 0 1 0 30.4h20a15.2 15.2 0 0 0 0-30.4Z"/>
  <path fill="#7a8c98" d="m142.92 333-18 2H36.03a15.2 15.2 0 1 1 0-30.4h88.89l18 2c8.4 0 13.2 4.8 13.2 13.2s-4.8 13.2-13.2 13.2Z"/>
  <path fill="#69777c" d="M142.92 304.61h-20a15.21 15.21 0 0 1 0 30.41h20a15.21 15.21 0 0 0 0-30.41Z"/>
  <path fill="#7a8c98" d="m489.95 482.16-18 2H23.35a15.2 15.2 0 1 1 0-30.4h448.59l18 2c8.39 0 13.2 4.8 13.2 13.2s-4.8 13.2-13.19 13.2Z"/>
  <path fill="#69777c" d="M489.95 453.76h-20a15.2 15.2 0 0 1 0 30.4h20a15.2 15.2 0 0 0 0-30.4Z"/>
  <path fill="#7a8c98" d="M101.77 275.62H77.19a3 3 0 0 1-3-3v-41.31a15.29 15.29 0 0 1 30.58 0v41.31a3 3 0 0 1-3 3ZM101.77 423.62H77.19a3 3 0 0 1-3-3V379.3a15.29 15.29 0 0 1 30.58 0v41.32a3 3 0 0 1-3 3Z"/>
  <path d="M424.03 208.52a22.81 22.81 0 0 0-22.79 22.79v44.31a7.5 7.5 0 0 0 7.5 7.5h30.58a7.5 7.5 0 0 0 7.5-7.5v-44.31a22.81 22.81 0 0 0-22.79-22.79Zm7.79 59.6h-15.58v-36.81a7.79 7.79 0 0 1 15.58 0Z"/>
  <path d="M489.95 446.26h-3.11v-43.6a7.5 7.5 0 0 0-15 0v43.6h-95.62V342.52h95.62v25.14a7.5 7.5 0 0 0 15 0v-27.17a22.7 22.7 0 0 0-9.36-43.38h-1.41v-103.2a22.7 22.7 0 0 0-.39-44.26 82.84 82.84 0 0 0-32.65-58.41l-11.5-8.69V57.66a7.5 7.5 0 1 0-15 0v24.89l-11.5 8.69a82.83 82.83 0 0 0-29.78 43.23l-40.23-29.62a7.5 7.5 0 1 0-8.9 12.08L371.03 150a22.79 22.79 0 0 0-13 9.77l-97-69a7.51 7.51 0 0 0-8.7 0l-96.82 69a22.77 22.77 0 0 0-13-9.76l114.14-84.25 41.3 30.41a7.5 7.5 0 0 0 8.9-12.08l-42.7-31.43V27.84a7.5 7.5 0 1 0-15 0v24.8l-110.9 81.82a82.83 82.83 0 0 0-29.77-43.22l-11.5-8.68v-24.9a7.5 7.5 0 0 0-15 0v24.89l-11.51 8.69a82.84 82.84 0 0 0-32.65 58.41 22.7 22.7 0 0 0-.38 44.26v43.15a7.5 7.5 0 0 0 15 0v-42.53h74.07v102.58H52.44v-25.05a7.5 7.5 0 0 0-15 0v25.05h-1.41a22.7 22.7 0 0 0-9.38 43.38v105.77h-3.3a22.7 22.7 0 1 0 0 45.4h134.78a7.5 7.5 0 0 0 0-15H23.35a7.7 7.7 0 1 1 0-15.4h466.6a7.7 7.7 0 1 1 0 15.4H193.13a7.5 7.5 0 1 0 0 15h296.82a22.7 22.7 0 1 0 0-45.4Zm-240.7-44.88h-3.82a7.5 7.5 0 1 0 0 15h3.82v29.88h-20.8v-46.55a28.25 28.25 0 0 1 20.8-27.21Zm15 15h3.82a7.5 7.5 0 0 0 0-15h-3.82v-28.82a28.25 28.25 0 0 1 20.6 27.15v46.55h-20.6Zm-7.6-59.87a43.25 43.25 0 0 0-43.2 43.2v46.55h-15.13V387a30.49 30.49 0 0 0-46-26.26v-18.22h208.9v18.25a30.49 30.49 0 0 0-46 26.26v59.23h-15.37v-46.55a43.25 43.25 0 0 0-43.2-43.2ZM152.28 387a15.52 15.52 0 1 1 31 0v59.23h-31V387Zm12-59.51a22.82 22.82 0 0 0 0-15.41h185a22.66 22.66 0 0 0 0 15.41ZM330.18 387a15.52 15.52 0 1 1 31 0v59.23h-31Zm155-67.21a7.72 7.72 0 0 1-7.7 7.7h-106.9a7.71 7.71 0 0 1 0-15.41h106.9a7.72 7.72 0 0 1 7.7 7.74Zm-98.19-22.71V194.53h74.08v102.58Zm27.08-193.9 10-7.52 10 7.52a67.91 67.91 0 0 1 26.53 45.91h-73a67.82 67.82 0 0 1 26.53-45.91Zm-36.83 60.91h93.58a7.71 7.71 0 0 1 0 15.41h-93.58a7.71 7.71 0 1 1 0-15.41ZM79.51 103.21l10-7.52 10 7.52a67.8 67.8 0 0 1 26.52 45.91h-73a67.86 67.86 0 0 1 26.48-45.91Zm-44.53 68.61a7.72 7.72 0 0 1 7.7-7.7h93.59a7.71 7.71 0 0 1 0 15.41H42.65a7.72 7.72 0 0 1-7.67-7.71Zm106.53 22.09A22.74 22.74 0 0 0 158.58 176l98.07-69.94L354.92 176a22.77 22.77 0 0 0 17.07 17.94v103.2H141.51V193.91ZM36.03 312.11h106.89a7.71 7.71 0 1 1 0 15.41H36.03a7.71 7.71 0 0 1 0-15.41Zm5.62 30.41h95.61v103.74H41.65Z"/>
  <path d="M104.77 283.12a7.5 7.5 0 0 0 7.5-7.5v-44.31a22.79 22.79 0 0 0-45.58 0v44.31a7.5 7.5 0 0 0 7.5 7.5Zm-23.12-51.81a7.79 7.79 0 0 1 15.58 0v36.81H81.65ZM89.48 356.51a22.82 22.82 0 0 0-22.83 22.79v44.32a7.5 7.5 0 0 0 7.5 7.5h30.58a7.5 7.5 0 0 0 7.5-7.5V379.3a22.82 22.82 0 0 0-22.75-22.79Zm7.79 59.61H81.65V379.3a7.79 7.79 0 0 1 15.58 0ZM401.24 379.3v44.32a7.5 7.5 0 0 0 7.5 7.5h30.58a7.5 7.5 0 0 0 7.5-7.5V379.3a22.79 22.79 0 1 0-45.58 0Zm30.58 0v36.82h-15.58V379.3a7.79 7.79 0 1 1 15.58 0ZM186.5 246.77a7.49 7.49 0 0 0 6.49 3.75h38.18l19.09 33.06a7.5 7.5 0 0 0 13 0l19.09-33.06h38.17a7.5 7.5 0 0 0 6.5-11.25l-19.09-33.06 19.09-33.06a7.5 7.5 0 0 0-6.5-11.25h-38.18l-19.09-33.06a7.5 7.5 0 0 0-13 0l-19.08 33.06h-38.18a7.5 7.5 0 0 0-6.49 11.25l19.09 33.06-19.09 33.06a7.5 7.5 0 0 0 0 7.5Zm70.25 18.06-8.26-14.31h16.53Zm-16.92-29.31-16.92-29.31 16.92-29.31h33.82l17 29.31-17 29.31Zm67.69 0H291l8.26-14.31Zm0-58.62-8.26 14.31L291 176.9Zm-50.77-29.32 8.27 14.32h-16.53Zm-50.77 29.32h16.53l-8.26 14.31Zm16.53 58.62h-16.53l8.27-14.31Z"/>
    </symbol>
    <symbol id="item-2382">
      <title>tomato sauce</title>
<path fill="#f47c7c" d="M357.79 76.93V29H155.51v47.93a23.25 23.25 0 0 1-15.25 21.94 49.37 49.37 0 0 0-32.68 46.46v308.93a49.37 49.37 0 0 0 49.38 49.37h199.38a49.37 49.37 0 0 0 49.37-49.37V145.33a49.35 49.35 0 0 0-32.68-46.46 23.26 23.26 0 0 1-15.24-21.94Z"/>
  <path fill="#ee6161" d="M373.03 98.87a23.26 23.26 0 0 1-15.24-21.94V29h-43.63v60.19a23.25 23.25 0 0 0 15.25 21.94 49.38 49.38 0 0 1 32.68 46.46v296.67a49.37 49.37 0 0 1-49.37 49.37h43.62a49.37 49.37 0 0 0 49.37-49.37V145.33a49.35 49.35 0 0 0-32.68-46.46Z"/>
  <path fill="#f9f7f8" d="M405.71 382.91V195.13h-38.65a13.63 13.63 0 0 1-13.18-10.2 57.12 57.12 0 0 0-33.45-38.29l-51-21.07a33.44 33.44 0 0 0-25.47 0l-51 21.07a57.12 57.12 0 0 0-33.45 38.29 13.64 13.64 0 0 1-13.18 10.2h-38.75v187.78h40.38a13.51 13.51 0 0 1 12.74 8.67A51 51 0 0 0 208.65 425h96a51.06 51.06 0 0 0 48-33.42 13.49 13.49 0 0 1 12.73-8.67Z"/>
  <path fill="#efedef" d="M405.71 195.13h-38.65a13.52 13.52 0 0 1-5-.95V383.3a13.51 13.51 0 0 1 3.25-.39h40.37Z"/>
  <path fill="#0681af" d="M121.49 25.58v9.65a17.22 17.22 0 0 0 17.22 17.22h235.88a17.22 17.22 0 0 0 17.22-17.22v-9.65a17.22 17.22 0 0 0-17.22-17.22H138.71a17.22 17.22 0 0 0-17.22 17.22Z"/>
  <path fill="#017297" d="M374.59 8.36h-42.37a17.22 17.22 0 0 1 17.22 17.22v9.65a17.22 17.22 0 0 1-17.22 17.22h42.37a17.22 17.22 0 0 0 17.22-17.22v-9.65a17.22 17.22 0 0 0-17.22-17.22Z"/>
  <path d="M375.86 91a14.87 14.87 0 0 1-9.71-14V60.81h8.44a25.61 25.61 0 0 0 25.58-25.58v-9.65A25.62 25.62 0 0 0 374.59 0H207.65a8.36 8.36 0 0 0 0 16.72h166.94a8.88 8.88 0 0 1 8.86 8.86v9.65a8.87 8.87 0 0 1-8.86 8.86H138.71a8.86 8.86 0 0 1-8.86-8.86v-9.65a8.87 8.87 0 0 1 8.86-8.86h29.94a8.36 8.36 0 1 0 0-16.72h-29.94a25.61 25.61 0 0 0-25.58 25.58v9.65a25.6 25.6 0 0 0 25.58 25.58h8.44v16.12A14.87 14.87 0 0 1 137.43 91a57.9 57.9 0 0 0-38.21 54.34v308.92A57.8 57.8 0 0 0 156.95 512h199.39a57.8 57.8 0 0 0 57.74-57.74V145.33A57.9 57.9 0 0 0 375.86 91Zm21.5 283.56h-32a21.91 21.91 0 0 0-20.61 14.14 42.84 42.84 0 0 1-40.1 27.94h-96a42.86 42.86 0 0 1-40.07-27.95A21.9 21.9 0 0 0 148 374.55h-32v-171h30.3a22 22 0 0 0 21.27-16.45 49 49 0 0 1 28.55-32.68l51-21.07a24.87 24.87 0 0 1 19.09 0l51 21.07a49 49 0 0 1 28.55 32.68 22 22 0 0 0 21.27 16.45h30.32v171Zm-41 120.73H156.95a41.06 41.06 0 0 1-41-41v-63h32a5.14 5.14 0 0 1 4.89 3.2 59.63 59.63 0 0 0 55.81 38.87h96a59.64 59.64 0 0 0 55.76-38.89 5.14 5.14 0 0 1 4.89-3.2h32v63a41.07 41.07 0 0 1-40.96 41.01Zm41-308.51h-30.3a5.3 5.3 0 0 1-5.1-4 65.81 65.81 0 0 0-38.31-43.87l-51.05-21.07a41.51 41.51 0 0 0-31.85 0l-51 21.07a65.85 65.85 0 0 0-38.35 43.9 5.29 5.29 0 0 1-5.09 4h-30.3v-41.48a41.11 41.11 0 0 1 27.14-38.59 31.64 31.64 0 0 0 20.79-29.8V60.81h185.49v16.12a31.63 31.63 0 0 0 20.78 29.8 41.12 41.12 0 0 1 27.15 38.6v41.44Z"/>
  <circle cx="257.74" cy="295.4" r="61.98" fill="#f47c7c"/>
  <path fill="#ee6161" d="M257.65 233.53a62.91 62.91 0 0 0-11.15 1 62 62 0 0 1 0 122 62 62 0 1 0 11.15-123Z"/>
  <path fill="#97da7b" d="M287.97 232.56c5.35-8.44 8.94-18.49 8.46-27.47a2.22 2.22 0 0 0-3.94-1.3c-8.2 10.21-26.47 20.27-36.54 21.21-14.21 1.25-33.8-3.56-42.91-13.83a2.22 2.22 0 0 0-3.86 1.51c.31 11.81 7.83 22 18.72 28.28a4.37 4.37 0 0 1 1.75 5.7 49.53 49.53 0 0 0-4.52 27.4 2.7 2.7 0 0 0 5 1c6.67-11.81 21.56-24.53 29.71-26.8 10.59 8.27 39.55 14.54 56.57 3.24a2.23 2.23 0 0 0-.82-4.05c-7.34-1.32-16.93-3.61-26.1-8.67a4.36 4.36 0 0 1-1.55-6.16Z"/>
  <path d="M313.23 258.53a38 38 0 0 0 5.84-3.12 7 7 0 0 0-2.61-12.7c-6.19-1.12-15.41-3.15-24.26-8 6.2-9.89 9.47-20.78 9-29.92a7 7 0 0 0-12.41-4c-6.93 8.65-21.55 16.93-30.61 19a33.41 33.41 0 0 1 1.39-12.92c2.42-7.76 7.28-13.54 13.67-16.28a4.76 4.76 0 0 0-3.75-8.75c-9 3.85-15.74 11.73-19 22.19a42.9 42.9 0 0 0-1.84 16.33c-13.83-.56-26.64-6.25-32.1-12.39a7 7 0 0 0-12.17 4.79c.28 10.74 5.65 20.68 15 28.1a66.74 66.74 0 1 0 82.19 104.93 4.76 4.76 0 0 0-6.26-7.16 57.23 57.23 0 1 1-72.17-88.74 54.81 54.81 0 0 0-2.75 24.67 7.46 7.46 0 0 0 13.9 2.78c5.51-9.77 17.62-20.55 24.86-23.82 10 6.45 28.41 10.83 44.45 7.86a57.27 57.27 0 0 1 4.4 61.41 4.76 4.76 0 1 0 8.36 4.54 66.74 66.74 0 0 0-3.14-68.8Zm-50.43-14.08a4.76 4.76 0 0 0-4.2-.83c-8.44 2.34-21.22 13-29 23.64a44.85 44.85 0 0 1 4.39-18.59 9.08 9.08 0 0 0-3.06-11.49l-.4-.26-.19-.12c-7.68-4.47-13-10.62-15.19-17.49a55.08 55.08 0 0 0 16.12 7.61 73 73 0 0 0 19.52 3 31.37 31.37 0 0 0 2.86 6.08 4.76 4.76 0 0 0 4 2.22 4.69 4.69 0 0 0 2.53-.73 4.77 4.77 0 0 0 1.5-6.56 20.32 20.32 0 0 1-1.03-1.93c9.67-2.31 22.19-9.31 30.61-17a50.38 50.38 0 0 1-7.3 18 9.11 9.11 0 0 0 3.28 12.88 81.75 81.75 0 0 0 20.34 7.68c-14.27 5.12-35.9.81-44.77-6.12Z"/>
    </symbol>
    <symbol id="item-2383">
      <title>e-mail</title>
<path fill="#fec108" d="M504.12 170.7 303.84 337.1l-9.13 7.6a59.76 59.76 0 0 1-76.12 0l-9.13-7.6L9.18 170.7l76.8-54.44 91.82-65 28.33-20.14c.09 0 .17-.09.26-.09l12.2-8.7a59.51 59.51 0 0 1 76.12 0l40.79 28.93 91.82 65Z"/>
  <path fill="#ffdc00" d="m487.05 187.77-200.28 166.4-.42.34a59.31 59.31 0 0 1-59.23-9.81l-9.13-7.6L17.72 170.7l76.8-54.44 91.82-65 28.31-20.16c.08 0 .17-.09.25-.09a59.41 59.41 0 0 1 62.75 8.37l40.79 28.92 91.82 65Z"/>
  <path fill="#cfd8dc" d="M427.32 59.77v349.87H85.98V59.77a9.07 9.07 0 0 1 9.48-8.53h322.38a9.07 9.07 0 0 1 9.48 8.53Z"/>
  <path fill="#f5f5f5" d="M401.72 59.77v349.87H85.98V59.77a9.07 9.07 0 0 1 9.48-8.53h296.78a9.07 9.07 0 0 1 9.48 8.53Z"/>
  <path fill="#f57c00" d="M504.12 170.7v315.74a16.7 16.7 0 0 1-5.55 12.46 16.44 16.44 0 0 1-11.52 4.6H26.25a16.44 16.44 0 0 1-11.52-4.6 16.7 16.7 0 0 1-5.55-12.46V170.7l200.28 166.4 9.13 7.6a59.81 59.81 0 0 0 76.12 0l9.13-7.6 174.68-145.15Z"/>
  <path fill="#ff9801" d="M478.52 191.95v294.49a16.7 16.7 0 0 1-5.55 12.46 16.44 16.44 0 0 1-11.52 4.6H26.25a16.44 16.44 0 0 1-11.52-4.6 16.7 16.7 0 0 1-5.55-12.46V162.17l174.68 154.54 9.13 7.59c14.59 12.12 33.45 28.09 50.86 24.16 17.41 3.93 36.27 8.36 50.86-3.76l9.13-7.6Z"/>
  <path fill="#d84315" d="M498.57 498.9a16.44 16.44 0 0 1-11.52 4.6H26.25a16.44 16.44 0 0 1-11.52-4.6l182.1-151.3 12.63-10.5 9.13 7.6a59.78 59.78 0 0 0 72.28 2.9c1.28-.94 2.56-1.88 3.84-2.9l9.13-7.6Z"/>
  <path fill="#ff5722" d="M472.97 498.9a16.44 16.44 0 0 1-11.52 4.6H26.25a16.44 16.44 0 0 1-11.52-4.6l182.1-151.3a59.13 59.13 0 0 0 47 9.39 59.13 59.13 0 0 0 47-9.39Z"/>
  <path d="M267.22 290.09a188.81 188.81 0 0 1-56.36-8.89 85.25 85.25 0 0 1-56.63-64.54c-6.42-30.95 5.29-63.67 32.12-89.77q4.32-4.22 9-8.06a108.73 108.73 0 0 1 99-21.37 82.9 82.9 0 0 1 57.66 76.26 78.52 78.52 0 0 1-18.36 55.51 43.16 43.16 0 0 1-42.21 15.5 24.34 24.34 0 0 1-15.68-10.88 23.18 23.18 0 0 1-2.24-18c7.46-28.21 15-71.08 15.12-71.51a8.54 8.54 0 1 1 16.81 3c-.32 1.79-7.79 44-15.43 72.91a6.12 6.12 0 0 0 .38 4.85 7.6 7.6 0 0 0 4.95 3.05 26.51 26.51 0 0 0 25.47-10.13 61.47 61.47 0 0 0 14.16-43.41 66 66 0 0 0-45.7-60.85 91.33 91.33 0 0 0-83.06 18.22 149.63 149.63 0 0 0-8 7.15c-13.26 12.91-34.45 39.68-27.31 74.07a69.08 69.08 0 0 0 45.1 51.75c40 12.77 97.53 14.31 127.83-23.37a8.53 8.53 0 0 1 13.3 10.69c-22.41 27.87-56.5 37.84-89.95 37.84Z"/>
  <path d="M238 245.84a39.22 39.22 0 0 1-24.91-8.37c-16.38-13.11-16.83-35.88-12.24-51.39a78.55 78.55 0 0 1 6.2-14.89 69.9 69.9 0 0 1 29.31-30.42 40.35 40.35 0 0 1 47.48 7.64 63.88 63.88 0 0 1 13.6 23.44 8.53 8.53 0 0 1-16.08 5.72 47.59 47.59 0 0 0-9.86-17.37 23.11 23.11 0 0 0-27.6-4.12 53.56 53.56 0 0 0-21.89 23.32 61.25 61.25 0 0 0-4.8 11.57c-3.32 11.21-2.59 25.85 6.56 33.18 10 8 26.88 4.64 36.37-3.55a95 95 0 0 0 18-22 8.53 8.53 0 1 1 14.5 9 111.89 111.89 0 0 1-21.35 25.84 52.43 52.43 0 0 1-33.33 12.35Z"/>
  <path d="M487.05 512.02H26.25a25.64 25.64 0 0 1-25.6-25.58V170.7a8.54 8.54 0 0 1 14-6.56l209.38 174a51.25 51.25 0 0 0 65.27 0l209.35-174a8.53 8.53 0 0 1 14 6.56v315.74a25.64 25.64 0 0 1-25.6 25.58ZM17.72 188.89v297.55a8.53 8.53 0 0 0 8.53 8.58h460.8a8.53 8.53 0 0 0 8.53-8.53v-297.6L300.19 351.28a68.34 68.34 0 0 1-87.07 0Z"/>
  <path d="M9.19 179.24a8.53 8.53 0 0 1-4.94-15.5l76.8-54.44a8.53 8.53 0 0 1 9.87 13.92l-76.8 54.45a8.52 8.52 0 0 1-4.93 1.57ZM504.11 179.24a8.52 8.52 0 0 1-4.93-1.57l-76.8-54.45a8.53 8.53 0 0 1 9.87-13.92l76.8 54.44a8.53 8.53 0 0 1-4.94 15.5ZM335.49 59.77a8.55 8.55 0 0 1-4.93-1.57l-40.79-28.93a51.29 51.29 0 0 0-65.73-.39l-41.3 29.32a8.53 8.53 0 0 1-9.87-13.92l40.78-28.93a67.94 67.94 0 0 1 86.5.39l40.28 28.53a8.54 8.54 0 0 1-5 15.5ZM14.73 507.43a8.54 8.54 0 0 1-5.46-15.1L204 330.54a8.54 8.54 0 1 1 10.91 13.13L20.18 505.46a8.54 8.54 0 0 1-5.45 2ZM498.56 507.43a8.49 8.49 0 0 1-5.44-2L298.39 343.67a8.53 8.53 0 1 1 10.9-13.13l194.73 161.79a8.54 8.54 0 0 1-5.46 15.1Z"/>
  <path d="M427.32 243.07a8.54 8.54 0 0 1-8.54-8.54V59.84c0 .18-.36-.06-.94-.07H95.46a1.4 1.4 0 0 0-1 .37l.09 174.39a8.54 8.54 0 1 1-17.07 0V59.77a17.58 17.58 0 0 1 18-17.07h322.36a17.58 17.58 0 0 1 18 17.07v174.76a8.53 8.53 0 0 1-8.52 8.54Z"/>
    </symbol>
    <symbol id="item-2384">
      <title>cupid</title>
<path fill="#ffe76c" d="M487.05 224.43H376.12a8.53 8.53 0 1 1 0-17.06h110.93a8.53 8.53 0 1 1 0 17.06Z"/>
  <path fill="#95573a" d="M316.38 28.17a33.9 33.9 0 0 0-21.15 7.36 42.67 42.67 0 0 0-75-4 34.14 34.14 0 0 0-31.32 60.64A34.13 34.13 0 1 0 239.58 122h51.2l12.16-28.35a34.14 34.14 0 1 0 13.44-65.51Z"/>
  <path fill="#e9eef2" d="M213.98 207.37S128.65 164.7 103.05 96.43c0 0-93.87 51.2-93.87 102.4 0 34.14 42.67 17.07 59.74 0 0 0-17.07 59.74 42.66 25.6 0 0-8.53 51.2 51.2 25.6Z"/>
  <path fill="#f7cca9" d="M128.65 335.37 61.2 432.79a17.08 17.08 0 0 0 3.79 23.37l41.47 31.1a17.07 17.07 0 0 0 23.9-3.41l5.12-6.83a17.07 17.07 0 0 0-3.42-23.89l-20.48-15.36 76.8-68.27Z"/>
  <path fill="#f7cca9" d="M418.79 215.9a25.6 25.6 0 0 1-25.6 25.6H290.78s0 76.8-51.2 102.4l28.26 49.45a17.08 17.08 0 0 1-1.71 19.39l-35.08 42.09 18.87 9.44a17.06 17.06 0 0 1 7.63 22.9l-2.14 4.28a17.06 17.06 0 0 1-22.19 8l-44.65-19.84a17.07 17.07 0 0 1-8.66-22.61 15.73 15.73 0 0 1 .78-1.53l24.76-43.34s-102.4-59.74-93.87-110.94 68.27-59.73 93.87-102.4 25.6-59.73 25.6-59.73l-9.3-14a17.05 17.05 0 0 1 2.13-21.53l3.64-3.64a17.05 17.05 0 0 1 24.13.11l13.53 13.53 19.67-19.7a17.06 17.06 0 0 1 29 9.76 272.18 272.18 0 0 1 2.55 35.51c0 34.13-42.66 51.2-42.66 51.2h119.45a25.6 25.6 0 0 1 25.6 25.6Z"/>
  <path fill="#e9eef2" d="M239.57 343.89c-1 1.38-51.26-13.33-97.67 19.48-18.89-19.05-33.79-41.3-30.32-62.14 4.46-26.77 22.93-41.87 43.18-56.3Z"/>
  <path fill="#eb423f" d="M457.31 186.76a18.8 18.8 0 0 0 0 24.14l4.39 5-4.39 5a18.8 18.8 0 0 0 0 24.14 13.75 13.75 0 0 0 19.34 1.84 14 14 0 0 0 1.85-1.84l25.6-29.14-25.6-29.14a13.75 13.75 0 0 0-19.36-1.84 12.87 12.87 0 0 0-1.83 1.84Z"/>
  <path d="M484.93 181.13a22.78 22.78 0 0 0-17-7.9 22.78 22.78 0 0 0-17 7.9 26.69 26.69 0 0 0-6.51 17.7 27.53 27.53 0 0 0 1.35 8.54h-19.5a34.13 34.13 0 0 0-8.77-15.43c6.53-13.61 9.85-25.62 9.85-35.77 0-16.7-9-30-16.19-40.72-4.84-7.18-9.41-14-9.41-19 0-13 5.88-19.39 6.13-19.66l-.1.1a8.56 8.56 0 0 0-12.13-12.09c-1 1.07-10 10.62-10.91 28.78l-63 88.19h-18.46c11.17-9.73 21.64-23.86 21.64-42.67a277.86 277.86 0 0 0-2.37-34.59 42.67 42.67 0 0 0-6.17-84.88 42.2 42.2 0 0 0-18.28 4.1 51.49 51.49 0 0 0-41.45-21.16 50.81 50.81 0 0 0-39.55 18.67 42.67 42.67 0 0 0-42.11 70.93 42.67 42.67 0 0 0 30.46 72.53 43.48 43.48 0 0 0 9-.94A277.75 277.75 0 0 1 200.79 190c-25.57-16-72.4-50.3-89.74-96.56a8.54 8.54 0 0 0-11-5 8.28 8.28 0 0 0-1.09.5 347.88 347.88 0 0 0-48.25 32.89C17.49 149 .65 174.92.65 198.83c0 17.38 9.35 23.85 14.92 26.17 12.23 5.06 29 .16 42.63-7.64.37 7.92 2.61 16.26 9.27 21.48 8.18 6.42 19.92 6.26 35.68-.57.92 6.11 3.2 13 8.32 18.44a27.12 27.12 0 0 0 9.16 6.36 73.55 73.55 0 0 0-17.46 36.78c-2.18 13.09 1.35 27.15 10.48 42.15l-59.5 85.94A25.53 25.53 0 0 0 59.87 463l41.47 31.1a25.47 25.47 0 0 0 15.31 5.11 26.42 26.42 0 0 0 3.67-.26 25.43 25.43 0 0 0 16.86-10l5.12-6.83a25.62 25.62 0 0 0-5.12-35.84l-12.12-9.09L169.17 398c10 7.49 18.91 13.39 24.77 17.12l-20.66 36.16a25.6 25.6 0 0 0 9.52 34.93 25 25 0 0 0 2.31 1.17l44.64 19.84a25.55 25.55 0 0 0 33.29-11.95l2.14-4.28a25.59 25.59 0 0 0-11.44-34.34L244.5 452l28.15-33.8a25.71 25.71 0 0 0 2.56-29.09l-24-42.05c38.45-24.93 46.17-76.55 47.71-97h22.83l63 88.19c.9 18.13 9.9 27.68 10.9 28.75a8.53 8.53 0 1 0 12.07-12.07c-.06-.06-6-6.61-6-19.56 0-5.07 4.57-11.84 9.41-19 7.21-10.7 16.19-24 16.19-40.72 0-10.15-3.32-22.16-9.85-35.77a34.13 34.13 0 0 0 8.77-15.43h19.5a27.53 27.53 0 0 0-1.35 8.54 26.69 26.69 0 0 0 6.51 17.7 22.27 22.27 0 0 0 31.4 2.63 21.78 21.78 0 0 0 2.63-2.63l25.6-29.13a8.54 8.54 0 0 0 0-11.27Zm-279.48-33.5a25.6 25.6 0 0 1-12.39-48 8.52 8.52 0 0 0 0-14.92 25.61 25.61 0 0 1 23.47-45.5 8.53 8.53 0 0 0 11-3.23 33.93 33.93 0 0 1 29.12-16.35 34.32 34.32 0 0 1 30.87 19.55 8.53 8.53 0 0 0 11.36 4.06 9 9 0 0 0 1.64-1 25.32 25.32 0 0 1 15.86-5.52 25.6 25.6 0 0 1 0 51.2h-1.21a25.65 25.65 0 0 0-36.28-.18l-.07.07-13.64 13.64-7.53-7.52a25.64 25.64 0 0 0-36.21 0l-3.64 3.64a25.68 25.68 0 0 0-3.2 32.31l7.55 11.32v.24a25.37 25.37 0 0 1-16.7 6.19ZM120 225.84a8.54 8.54 0 0 0-12.65-8.84c-22 12.59-28.31 9.19-29.34 8.38-4.07-3.18-3.11-16.35-.89-24.22a8.53 8.53 0 0 0-14.24-8.38c-11.44 11.45-32.41 19.88-40.78 16.42-1.08-.45-4.38-1.82-4.38-10.39 0-18.24 15.08-40.25 43.61-63.64a339.34 339.34 0 0 1 37.62-26.45c21.2 45.85 66.52 79.23 92.26 95.36-9.77 11.66-22.67 20.74-35.24 29.57-6.86 4.81-13.78 9.68-20.28 15-5.34.2-9.28-1-11.74-3.59-4.91-5.2-4.51-15.67-3.95-19.22Zm0 76.8c3.49-20.95 16.72-33.78 33.4-46.18l65.92 76.92c-19-.93-47.71 1.19-76.2 18.94-15.14-16.44-25.71-34.11-23.12-49.68Zm-14.09 128.75a8.54 8.54 0 0 0-.7 12.05 9.07 9.07 0 0 0 1.25 1.15L126.94 460a8.55 8.55 0 0 1 1.71 11.9l-5.12 6.83a8.54 8.54 0 0 1-11.95 1.7l-41.47-31.1a8.5 8.5 0 0 1-1.89-11.68l56.06-81a220.18 220.18 0 0 0 25.44 25.66q2.91 2.54 5.82 4.93Zm154.52-33.81a8.56 8.56 0 0 1-.85 9.69l-35.08 42.1a8.53 8.53 0 0 0 1.09 12 8.41 8.41 0 0 0 1.64 1.07l18.87 9.44a8.53 8.53 0 0 1 3.82 11.45l-2.14 4.28a8.51 8.51 0 0 1-11.09 4l-44.65-19.84a8.53 8.53 0 0 1-4.33-11.26 6.18 6.18 0 0 1 .39-.77l24.76-43.34a8.53 8.53 0 0 0-3.11-11.6 340.68 340.68 0 0 1-54.1-40.05c33.32-19 66.88-14.37 78.53-12.75h.25Zm136.55-90.78c-2.3 3.41-4.55 6.75-6.49 10.11L342.72 250h50.47a34 34 0 0 0 9.56-1.37c4.92 10.57 7.5 19.8 7.5 27 0 11.49-6.75 21.5-13.27 31.18Zm-3.79-73.8H290.78a8.53 8.53 0 0 0-8.53 8.53c0 .68-.49 65.75-40.76 91.51l-74.14-86.54c16.8-11.8 34-24.19 45.42-43.28 26.06-43.44 26.81-62.13 26.81-64.12a8.48 8.48 0 0 0-1.43-4.73l-9.3-14a8.55 8.55 0 0 1 1.06-10.77l3.64-3.6a8.54 8.54 0 0 1 12.1 0l13.53 13.53a8.52 8.52 0 0 0 12.07 0l19.67-19.67a8.52 8.52 0 0 1 14.48 4.86 261.87 261.87 0 0 1 2.48 34.38c0 27.87-36.94 43.13-37.3 43.28a8.53 8.53 0 0 0 3.17 16.45h119.44a17.07 17.07 0 0 1 0 34.14Zm9.56-49.83a34 34 0 0 0-9.56-1.37h-50.47l47.77-66.88c1.94 3.36 4.19 6.7 6.49 10.11 6.52 9.67 13.27 19.68 13.27 31.17 0 7.14-2.6 16.37-7.5 26.94Zm69.36 56.26a5.24 5.24 0 0 1-8.39 0 10.27 10.27 0 0 1 0-12.87l4.39-5a8.54 8.54 0 0 0 0-11.27l-4.39-5a10.27 10.27 0 0 1 0-12.87 5.25 5.25 0 0 1 7.35-1.05 5.45 5.45 0 0 1 1 1.05l20.65 23.5Z"/>
    </symbol>
    <symbol id="item-2385">
      <title>speedometer</title>
<path fill="#eceaec" d="M256.65 116c-2.32 0-4.63 0-7 .1-135.06 3.69-241 117.9-241 253.07A26.85 26.85 0 0 0 35.48 396h442.34a26.85 26.85 0 0 0 26.83-26.83V364c0-137-111-248-248-248Z"/>
  <path fill="#dad8db" d="M80.65 337.16c0-88.4 45.35-167.84 114.53-213.26C87.16 152.09 8.65 252.85 8.65 369.17A26.85 26.85 0 0 0 35.48 396h442.34a26.85 26.85 0 0 0 26.83-26.83V364H107.48a26.85 26.85 0 0 1-26.83-26.84Z"/>
  <path fill="#6f6571" d="M256.65 148C140.1 148 45.11 240.3 40.79 355.79a8 8 0 0 0 8 8.22h415.67a8 8 0 0 0 8.05-8.22C468.19 240.3 373.2 148 256.65 148Z"/>
  <path fill="#857e87" d="M69.39 337a8.15 8.15 0 0 0 6.26 2.9h362a8.15 8.15 0 0 0 6.23-2.9 7.47 7.47 0 0 0 1.71-6.13 190.45 190.45 0 0 0-29.55-74.14l-12 2.93c-11.39-14.37-23.63-29.73-38.59-40.25l-5.18-17.2a192.07 192.07 0 0 0-103.62-30.11c-93.75 0-173.22 66.77-189 158.77a7.47 7.47 0 0 0 1.74 6.13Z"/>
  <path fill="#ffe07d" d="m126.57 233.93 22.68 22.68A151.28 151.28 0 0 1 256.65 212v-32a183.36 183.36 0 0 0-130.08 53.94Z"/>
  <path fill="#ffa95f" d="m364.05 256.61 22.68-22.68A183.31 183.31 0 0 0 256.65 180v32a151.28 151.28 0 0 1 107.4 44.61Z"/>
  <path fill="#e5646e" d="M435.79 322a183.83 183.83 0 0 0-49.06-88.07l-22.68 22.68a151.85 151.85 0 0 1 39.72 69.28 8 8 0 0 0 7.72 6.11h16.54a8.06 8.06 0 0 0 7.76-10Z"/>
  <path fill="#ccf49f" d="M85.27 332h16.54a8 8 0 0 0 7.72-6.11 151.9 151.9 0 0 1 39.72-69.28l-22.68-22.68A183.83 183.83 0 0 0 77.51 322a8.06 8.06 0 0 0 7.76 10Z"/>
  <path fill="#c8c5c9" d="M256.65 324a40 40 0 0 0-40 40h80a40 40 0 0 0-40-40Z"/>
  <path fill="#b6b1b7" d="M256.65 348a16 16 0 0 0-16 16h32a16 16 0 0 0-16-16Z"/>
  <path fill="#fff" d="m272.45 323.8 24.51 24.27L384.65 236Z"/>
  <path d="M437.65 183a254.35 254.35 0 0 0-181-75c-2.38 0-4.8 0-7.19.1-67.14 1.9-129.92 30.17-176.81 79.76a263 263 0 0 0-72 181.31A34.86 34.86 0 0 0 35.48 404h442.34a34.86 34.86 0 0 0 34.83-34.83V364a254.33 254.33 0 0 0-75-181Zm59 186.18A18.88 18.88 0 0 1 477.82 388H35.48a18.88 18.88 0 0 1-18.83-18.84A247.11 247.11 0 0 1 84.3 198.82c43.91-46.48 102.72-73 165.6-74.75 2.24-.06 4.52-.1 6.75-.1a240 240 0 0 1 240 240.03Z"/>
  <path d="M256.65 140a224 224 0 0 0-224 224 8 8 0 0 0 8 8h24a8 8 0 1 0 0-16H48.77c4.21-111 95.88-200 207.88-200s203.67 89 207.88 200H303.96c-.18-1.06-.39-2.1-.64-3.13l87.63-112a8 8 0 0 0-11.21-11.21l-112 87.62a48 48 0 0 0-58.4 38.72H96.65a8 8 0 0 0 0 16h376a8 8 0 0 0 8-8 224 224 0 0 0-224-224Zm81.38 142.61-42.13 53.84a48.2 48.2 0 0 0-11.7-11.71ZM256.65 332a32.08 32.08 0 0 1 31 24h-62a32.08 32.08 0 0 1 31-24Z"/>
  <path d="M142.89 229.7a176 176 0 0 1 215.2-9.55 8 8 0 0 0 9.22-13A192 192 0 0 0 67.65 330.62a8 8 0 0 0 7.82 9.38h32.61a8 8 0 0 0 7.81-6.31 144 144 0 0 1 216.56-92.15 8 8 0 1 0 8.43-13.54 160 160 0 0 0-239.12 96H85.24a176.49 176.49 0 0 1 57.65-94.3ZM392.65 279.78a8 8 0 0 0-13.57 8.41 143.16 143.16 0 0 1 18.34 45.49 8 8 0 0 0 7.81 6.31h32.61a8 8 0 0 0 7.86-9.36 189.75 189.75 0 0 0-32.76-78.1 8 8 0 1 0-13 9.28A173.87 173.87 0 0 1 428.06 324h-16.52a159 159 0 0 0-18.89-44.22Z"/>
    </symbol>
    <symbol id="item-2386">
      <title>finger gun</title>
<path fill="#ffcebf" d="m42.3 45.35 1.77-1.77a25.1 25.1 0 0 1 35.48 0l130.84 130.85a25.08 25.08 0 0 1 0 35.48l-1.74 1.77a25.1 25.1 0 0 1-35.48 0L42.3 80.83a25.08 25.08 0 0 1 0-35.48Z"/>
  <path fill="#ffcebf" d="M88.41 15.2a26.33 26.33 0 0 1 37.25 0l121.09 121.09a26.34 26.34 0 0 1-37.25 37.25L88.41 52.45a26.33 26.33 0 0 1 0-37.25Z"/>
  <path fill="#ffb09e" d="M246.75 136.29 125.65 15.2a26.33 26.33 0 0 0-43.68 10.55 26.33 26.33 0 0 1 26.68 6.44l121.09 121.1a26.3 26.3 0 0 1 6.44 26.7 26.35 26.35 0 0 0 10.55-43.7Z"/>
  <path fill="#ffcebf" d="m229.88 119.43 128 128 84.24 84.24-121.57 134.82-70.26-70.26a70.76 70.76 0 0 0-29.55-17.69l-16.78-5.07a65.63 65.63 0 0 1-26.87-15.86l-76.54-74.48c-12.74-12.44-11.65-21.68-11.56-39.49l.06-12.77Z"/>
  <path fill="#ffb09e" d="M442.13 331.68 320.55 466.49l-.87-.88 105.47-116.94-214.23-214.23 19-15 128 128ZM194.44 158.48 79.55 43.59a25.08 25.08 0 0 0-35.48 0l-1.77 1.76a25 25 0 0 0-5.9 9.33 25.08 25.08 0 0 1 26.16 5.9l102.67 102.67a17.28 17.28 0 0 0 24.44 0Z"/>
  <path fill="#ffcebf" d="M67.16 211.07a27.34 27.34 0 0 1 38.67 0l36 36a27.34 27.34 0 1 1-38.67 38.67l-36-36a27.36 27.36 0 0 1 0-38.67Z"/>
  <path fill="#ffb09e" d="m141.85 247.09-36-36a27.35 27.35 0 0 0-45.2 10.44 27.37 27.37 0 0 1 28.21 6.53l36 36a27.35 27.35 0 0 1 6.53 28.21 27.35 27.35 0 0 0 10.46-45.2Z"/>
  <path fill="#ffcebf" d="m96.89 161.75.76-.75a28.55 28.55 0 0 1 40.39 0l59.12 59.12a28.57 28.57 0 0 1 0 40.39l-.77.77a28.55 28.55 0 0 1-40.38 0l-59.12-59.15a28.55 28.55 0 0 1 0-40.38Z"/>
  <path fill="#ffb09e" d="M197.17 220.1 138.05 161a28.55 28.55 0 0 0-40.4 0l-.77.76a28.51 28.51 0 0 0-6.41 9.82 28.54 28.54 0 0 1 30.58 6.42l59.13 59.12a28.58 28.58 0 0 1 6.41 30.58 28.47 28.47 0 0 0 9.81-6.41l.77-.77a28.57 28.57 0 0 0 0-40.39Z"/>
  <path fill="#ffcebf" d="m259.65 178.14-32.6 15.14 116.2 116.23 38.4-38.36-11.91-11.91a53.09 53.09 0 0 1-15.55-36.57l-1.21-64.88a68.42 68.42 0 0 1 2.67-20.47l10.44-35.64A13.87 13.87 0 0 0 362.65 88a28.68 28.68 0 0 0-42.32 1.93l-7 8.45a91 91 0 0 0-14.05 23.18l-11.41 27.28a56.22 56.22 0 0 1-28.22 29.3Z"/>
  <path fill="#ffb09e" d="M369.7 259.24a53.09 53.09 0 0 1-15.55-36.57l-1.2-64.88a68.09 68.09 0 0 1 2.7-20.47l10.44-35.65A13.86 13.86 0 0 0 362.65 88a28.68 28.68 0 0 0-42.32 1.93l-7 8.44c-.39.48-.77 1-1.16 1.46a28.69 28.69 0 0 1 33.48 5.17 13.87 13.87 0 0 1 3.5 13.7l-10.44 35.64a68.15 68.15 0 0 0-2.75 20.47l1.21 64.88a53.09 53.09 0 0 0 15.55 36.57l11.93 11.88 17-17Z"/>
  <path fill="#cde2ff" d="M328.99 500.76 474.45 355.3a12.8 12.8 0 0 0 0-18.09l-27.35-27.34a12.78 12.78 0 0 0-18.09 0L283.55 455.33a12.78 12.78 0 0 0 0 18.09l27.34 27.34a12.8 12.8 0 0 0 18.1 0Z"/>
  <path fill="#b3dafe" d="m474.45 337.21-27.35-27.34a12.78 12.78 0 0 0-18.09 0L283.55 455.33l128.47-128.47a12.78 12.78 0 0 1 18.09 0l27.34 27.34a12.78 12.78 0 0 1 0 18.09l17-17a12.79 12.79 0 0 0 0-18.09Z"/>
  <path d="m479.75 331.91-27.34-27.35c-6.44-6.62-19.43-8.4-27.7-.91L375 253.93a45.38 45.38 0 0 1-13.35-31.4l-1.21-64.88a61 61 0 0 1 2.44-18.22l10.45-35.64a21.35 21.35 0 0 0-5.4-21.11 36.16 36.16 0 0 0-53.38 2.44c-8.43 9.64-17.13 20.88-22.24 33.53l-11.41 27.28a53.63 53.63 0 0 1-10.25 15.4 122.75 122.75 0 0 0-24.1 49.21c-6.34 27.35-7.78 48.35-4.28 62.42a7.51 7.51 0 0 0 7.27 5.69 7.61 7.61 0 0 0 1.82-.22 7.5 7.5 0 0 0 5.47-9.09c-2.88-11.58-1.38-30.74 4.33-55.41a107.55 107.55 0 0 1 21-42.91 63.65 63.65 0 0 0 12.59-19.3l11.41-27.29c3.74-9.91 12.51-21.28 19.92-29.72a21.17 21.17 0 0 1 31.25-1.43 6.37 6.37 0 0 1 1.61 6.29l-10.44 35.64a75.54 75.54 0 0 0-3 22.72l1.2 64.88a60.3 60.3 0 0 0 17.74 41.73l49.67 49.67L296.47 431.8l-40.88-40.88a78.49 78.49 0 0 0-32.69-19.56l-16.77-5.07a58.29 58.29 0 0 1-23.81-14.06l-53.07-51.64a34.75 34.75 0 0 0 27.71-29c13 8.61 34 7.08 45.51-5.76a36.09 36.09 0 0 0 0-51l-59.12-59.16a37.13 37.13 0 0 0-26.15-10.54l-69.55-69.6c-7.17-7-6.5-19.9 1.77-26.64a17.6 17.6 0 0 1 24.87 0l115.48 115.52a7.5 7.5 0 1 0 10.6-10.61L93.72 47.15a18.84 18.84 0 0 1 26.63-26.65l126.08 126.07a7.5 7.5 0 0 0 10.6-10.6L130.96 9.9a33.82 33.82 0 0 0-57.62 21 32.63 32.63 0 0 0-34.58 7.42c-13.88 12-15.17 34.55-1.77 47.86l63.45 63.45a41.54 41.54 0 0 0-8.85 6.85 36.12 36.12 0 0 0-7.83 39.26A34.82 34.82 0 0 0 61.86 255a7.5 7.5 0 1 0 10.61-10.6 19.84 19.84 0 0 1 28.06-28.06l36 36a19.83 19.83 0 0 1-27 29l-12.09-12A7.52 7.52 0 1 0 86.82 280l85 83a73.51 73.51 0 0 0 29.93 17.67l16.78 5.07a63.37 63.37 0 0 1 26.41 15.81l40.88 40.88-7.57 7.57a20.3 20.3 0 0 0 0 28.7l27.34 27.35a20.33 20.33 0 0 0 28.7 0l145.46-145.44a20.32 20.32 0 0 0 0-28.7ZM102.2 167.05a22.38 22.38 0 0 1 15.65-6.94 20.91 20.91 0 0 1 14.89 6.17l59.13 59.13a21.07 21.07 0 0 1 0 29.77c-7.06 8.05-21.9 9.71-30.55.77l-59.12-59.12a21.08 21.08 0 0 1 0-29.78ZM469.14 350 323.65 495.46a5.3 5.3 0 0 1-7.48 0l-27.32-27.34a5.31 5.31 0 0 1 0-7.49l145.46-145.46c1.26-.91 3.77-2.86 7.49 0l27.34 27.34a5.29 5.29 0 0 1 0 7.49Z"/>
  <circle cx="328.51" cy="455.8" r="9"/>
    </symbol>
    <symbol id="item-2387">
      <title>nicotine patch</title>
<path fill="#ffccbc" d="M350.08 313a53 53 0 0 1 12.74-34.79 140 140 0 0 0 34.39-92.11V71.76a28.12 28.12 0 0 0-28.11-28.11 28.12 28.12 0 0 0-28.12 28.11V43.65a28.11 28.11 0 0 0-28.11-28.11 28.12 28.12 0 0 0-28.11 28.11v-8A28.11 28.11 0 0 0 256.65 7.5a28.11 28.11 0 0 0-28.11 28.11v10.15a28.11 28.11 0 0 0-28.11-28.11 28.1 28.1 0 0 0-28.11 28.11v71.07h-28.11a28.11 28.11 0 0 0-28.12 28.11v41.17a140 140 0 0 0 34.39 92.11A53 53 0 0 1 163.22 313v191.5h186.86Z"/>
  <path fill="#ff8a65" d="M397.21 71.76a28.12 28.12 0 0 0-28.11-28.11 28 28 0 0 0-12.39 2.88 28.13 28.13 0 0 1 .5 5.24v114.34a140 140 0 0 1-34.39 92.11A53 53 0 0 0 310.08 293v105a86.46 86.46 0 0 1-86.43 86.5h-60.4v20h186.83V313a53 53 0 0 1 12.74-34.79 140 140 0 0 0 34.39-92.11Z"/>
  <path fill="#ffccbc" d="M228.54 45.76v43a28.12 28.12 0 0 1-28.11 28.11 28.11 28.11 0 0 1-28.11-28.11v-43a28.1 28.1 0 0 1 28.11-28.11 28.11 28.11 0 0 1 28.11 28.11ZM340.98 43.68v43a28.11 28.11 0 0 1-28.11 28.12 28.12 28.12 0 0 1-28.11-28.12v-43a28.12 28.12 0 0 1 28.11-28.11 28.11 28.11 0 0 1 28.11 28.11Z"/>
  <path fill="#ffccbc" d="M397.21 71.75v43a28.11 28.11 0 0 1-28.11 28.11 28.11 28.11 0 0 1-28.12-28.11v-43a28.12 28.12 0 0 1 28.12-28.11 28.12 28.12 0 0 1 28.11 28.11ZM284.76 35.61v43a28.11 28.11 0 0 1-28.11 28.07 28.1 28.1 0 0 1-28.11-28.11v-43A28.11 28.11 0 0 1 256.65 7.5a28.12 28.12 0 0 1 28.11 28.11Z"/>
  <path fill="#ff8a65" d="M207.65 18.58a28.32 28.32 0 0 1 .93 7.18v43a28.13 28.13 0 0 1-35.3 27.18 28.12 28.12 0 0 0 55.3-7.18v-43a28.12 28.12 0 0 0-20.93-27.18ZM320.05 16.5a27.93 27.93 0 0 1 .93 7.18v43a28.11 28.11 0 0 1-28.11 28.12 28.32 28.32 0 0 1-7.18-.93 28.12 28.12 0 0 0 27.18 20.93 28.11 28.11 0 0 0 28.11-28.12v-43a28.12 28.12 0 0 0-20.93-27.18ZM376.28 44.57a28.38 28.38 0 0 1 .93 7.18v43a28.12 28.12 0 0 1-28.12 28.12 28.38 28.38 0 0 1-7.18-.93 28.13 28.13 0 0 0 27.18 20.93 28.12 28.12 0 0 0 28.12-28.12v-43a28.13 28.13 0 0 0-20.93-27.18ZM263.83 8.43a27.88 27.88 0 0 1 .93 7.18v43a28.11 28.11 0 0 1-28.11 28.07 27.88 27.88 0 0 1-7.18-.93 28.11 28.11 0 0 0 27.18 20.93 28.11 28.11 0 0 0 28.11-28.11v-43a28.11 28.11 0 0 0-20.93-27.14Z"/>
  <circle cx="256.65" cy="391.86" r="70.14" fill="#ffe082"/>
  <path fill="#ffca28" d="M266.38 322.4A70.14 70.14 0 0 1 216.65 442a71.12 71.12 0 0 1-9.74-.69 70.14 70.14 0 1 0 59.47-118.91Z"/>
  <circle cx="256.65" cy="391.86" r="43.14" fill="#ffe082"/>
  <path fill="#ffca28" d="M275.48 353a43.16 43.16 0 0 1-57.66 57.65A43.15 43.15 0 1 0 275.48 353Z"/>
  <path d="M369.09 36.14a35.41 35.41 0 0 0-20.63 6.62 35.58 35.58 0 0 0-60.64-24.35 35.59 35.59 0 0 0-63.06 1.38 35.59 35.59 0 0 0-59.94 26v63.57H144.2a35.65 35.65 0 0 0-35.61 35.61v8.77a7.5 7.5 0 0 0 15 0v-8.77a20.63 20.63 0 0 1 20.61-20.61h95a20.61 20.61 0 0 1 0 41.22h-62.55a7.5 7.5 0 0 0 0 15 30.32 30.32 0 1 1 0 60.63 7.5 7.5 0 0 0 0 15 45.29 45.29 0 0 0 33.66-75.63h28.92a35.6 35.6 0 0 0 17.89-66.38 35.52 35.52 0 0 0 24.57-10.32 35.58 35.58 0 0 0 51.81 11.79 35.56 35.56 0 0 0 56.19 28.08v42.39a133 133 0 0 1-32.54 87.19A60.46 60.46 0 0 0 342.58 313v87a7.5 7.5 0 0 0 15 0v-87a45.51 45.51 0 0 1 10.91-29.87 148 148 0 0 0 36.22-97V71.75a35.66 35.66 0 0 0-35.62-35.61Zm-136.77 68.4a36.17 36.17 0 0 0 6.41 4.79h-9.29a35.56 35.56 0 0 0 2.88-4.79Zm-31.89-79.39a20.63 20.63 0 0 1 20.61 20.61v43a20.61 20.61 0 1 1-41.22 0v-43a20.63 20.63 0 0 1 20.61-20.61Zm56.22 74a20.63 20.63 0 0 1-20.61-20.61v-43a20.61 20.61 0 0 1 41.22 0v43a20.63 20.63 0 0 1-20.61 20.64Zm56.22 8.08a20.64 20.64 0 0 1-20.61-20.62v-43a20.61 20.61 0 1 1 41.22 0v43a20.63 20.63 0 0 1-20.61 20.65Zm56.22 28.06a20.63 20.63 0 0 1-20.61-20.61v-43a20.62 20.62 0 0 1 41.23 0v43a20.63 20.63 0 0 1-20.62 20.64Z"/>
  <path d="M350.08 427.5a7.5 7.5 0 0 0-7.5 7.5v62H170.72V313a60.46 60.46 0 0 0-14.57-39.71 133 133 0 0 1-32.55-87.14 7.5 7.5 0 0 0-15 0 148.62 148.62 0 0 0 36.22 97A45.42 45.42 0 0 1 155.71 313v191.5a7.5 7.5 0 0 0 7.5 7.5h186.87a7.5 7.5 0 0 0 7.5-7.5V435a7.5 7.5 0 0 0-7.5-7.5Z"/>
  <path d="M334.29 391.86a77.64 77.64 0 1 0-77.64 77.64 77.73 77.73 0 0 0 77.64-77.64Zm-140.28 0a62.64 62.64 0 1 1 62.64 62.64 62.72 62.72 0 0 1-62.64-62.64Z"/>
  <path d="M307.29 391.86a50.44 50.44 0 0 0-3.37-18.22 7.5 7.5 0 0 0-14 5.4 35.63 35.63 0 1 1-20.45-20.45 7.5 7.5 0 0 0 5.39-14 50.65 50.65 0 1 0 32.43 47.27Z"/>
  <circle cx="255.7" cy="370.94" r="7.5" transform="rotate(-80.78 256.04 370.56)"/>
  <circle cx="255.7" cy="412.77" r="7.5" transform="rotate(-80.78 256.04 412.4)"/>
  <circle cx="235.74" cy="391.55" r="7.5"/>
  <circle cx="277.56" cy="391.55" r="7.5"/>
    </symbol>
    <symbol id="item-2388">
      <title>ttt</title>

    </symbol>
    <symbol id="item-2389">
      <title>uuu</title>

    </symbol>
    <symbol id="item-2390">
      <title>vvv</title>

    </symbol>
    <symbol id="item-2391">
      <title>www</title>

    </symbol>
    <symbol id="item-2392">
      <title>xxx</title>

    </symbol>
    <symbol id="item-2393">
      <title>yyy</title>

    </symbol>
    <symbol id="item-2394">
      <title>zzz</title>

    </symbol>
    <symbol id="item-2395">
      <title>aaa</title>

    </symbol>
    <symbol id="item-2396">
      <title>bbb</title>

    </symbol>
    <symbol id="item-2397">
      <title>ccc</title>

    </symbol>
    <symbol id="item-2398">
      <title>ddd</title>

    </symbol>
    <symbol id="item-2399">
      <title>eee</title>

    </symbol>
    <symbol id="item-2400">
      <title>fff</title>

    </symbol>
    <symbol id="item-2401">
      <title>ggg</title>

    </symbol>
    <symbol id="item-2402">
      <title>hhh</title>

    </symbol>
    <symbol id="item-2403">
      <title>iii</title>

    </symbol>
    <symbol id="item-2404">
      <title>jjj</title>

    </symbol>
    <symbol id="item-2405">
      <title>kkk</title>

    </symbol>
    <symbol id="item-2406">
      <title>lll</title>

    </symbol>
    <symbol id="item-2407">
      <title>mmm</title>

    </symbol>
    <symbol id="item-2408">
      <title>nnn</title>

    </symbol>
    <symbol id="item-2409">
      <title>ooo</title>

    </symbol>
    <symbol id="item-2410">
      <title>ppp</title>

    </symbol>
    <symbol id="item-2411">
      <title>qqq</title>

    </symbol>
    <symbol id="item-2412">
      <title>rrr</title>

    </symbol>
    <symbol id="item-2413">
      <title>sss</title>

    </symbol>
    <symbol id="item-2414">
      <title>ttt</title>

    </symbol>
    <symbol id="item-2415">
      <title>uuu</title>

    </symbol>
    <symbol id="item-2416">
      <title>vvv</title>

    </symbol>
    <symbol id="item-2417">
      <title>www</title>

    </symbol>
    <symbol id="item-2418">
      <title>xxx</title>

    </symbol>
    <symbol id="item-2419">
      <title>yyy</title>

    </symbol>
    <symbol id="item-2420">
      <title>zzz</title>

    </symbol>
    <symbol id="item-2421">
      <title>aaa</title>

    </symbol>
    <symbol id="item-2422">
      <title>bbb</title>

    </symbol>
    <symbol id="item-2423">
      <title>ccc</title>

    </symbol>
    <symbol id="item-2424">
      <title>ddd</title>

    </symbol>
    <symbol id="item-2425">
      <title>eee</title>

    </symbol>
    <symbol id="item-2426">
      <title>fff</title>

    </symbol>
    <symbol id="item-2427">
      <title>ggg</title>

    </symbol>
    <symbol id="item-2428">
      <title>hhh</title>

    </symbol>
    <symbol id="item-2429">
      <title>iii</title>

    </symbol>
    <symbol id="item-2430">
      <title>jjj</title>

    </symbol>
    <symbol id="item-2431">
      <title>kkk</title>

    </symbol>
    <symbol id="item-2432">
      <title>lll</title>

    </symbol>
  </defs>
</svg>
