<svg xmlns="http://www.w3.org/2000/svg" viewBox="0 0 512 512">
  <defs>
    <symbol id="item-0">
      <title>mark</title>
      <path fill="#ff5f7a" d="M120.39 7.5H57a8 8 0 0 0-8 8.36l15.3 352.71a8 8 0 0 0 8 7.67h19.9l24.19-84 12-276.42a8 8 0 0 0-8-8.36ZM128.77 464.42a40.09 40.09 0 1 1-40.08-40.08 40.08 40.08 0 0 1 40.08 40.08ZM345.2 464.42a40.08 40.08 0 1 1-40.08-40.08 40.07 40.07 0 0 1 40.08 40.08ZM461 145.44c-10-58.6-55-109.53-113.53-125.91A159.7 159.7 0 0 0 303 13.15c-49.92 0-91.74 23.51-115.75 47.19a8 8 0 0 0 .32 11.78l43.18 38.11a7.94 7.94 0 0 0 10.95-.36c12.48-12.51 34.43-27.73 62.2-27.73 8.81-.43 17.86-.06 26.06 2.48 38.22 11.87 55.36 37.52 55.36 37.52A94 94 0 0 1 401 157a99.43 99.43 0 0 1-3.09 54.11c-6 17.37-18.11 32.06-31.72 45-26.19 24.83-86.58 20.59-86.09 84.46l.75 27.88a8 8 0 0 0 8 7.8h32.44a8 8 0 0 0 8-7.82l.57-22.85c1.31-18.28 18.13-19.78 31.6-25.51 14.11-6 26.28-11.9 37.92-20.42a157.12 157.12 0 0 0 52.64-67.9 158.93 158.93 0 0 0 8.94-86.3Zm0 0"/>
      <path fill="#fb4455" d="M98.21 425.6a39.78 39.78 0 0 1-40 64.56 40 40 0 1 0 40-64.56ZM314.65 425.6a39.78 39.78 0 0 1-40 64.56 40 40 0 1 0 40-64.56ZM120.39 7.5H104.7L90.38 336.85a16 16 0 0 1-16 15.34H63.59l.71 16.38a8 8 0 0 0 8 7.67h32.75a8 8 0 0 0 8-7.67L128.4 15.86a8 8 0 0 0-8-8.36ZM361.51 320.06c14.11-6 26.28-11.9 37.92-20.42a157.12 157.12 0 0 0 52.64-67.9 158.93 158.93 0 0 0 8.94-86.3C451 86.84 406 35.91 347.47 19.53A160.08 160.08 0 0 0 303 13.14c-2.69 0-5.35.11-8 .23A25.17 25.17 0 0 0 317.57 38 139.31 139.31 0 0 1 341 42.68c49 13.72 87.72 56.67 96.32 106.88a134.23 134.23 0 0 1-7.56 73.24 132.08 132.08 0 0 1-44.52 57.43c-9.78 7.16-20.32 12.25-33.13 17.71-2.07.87-4.24 1.62-6.61 2.43-12.13 4.2-37.39 12.95-39.62 44.6a7.35 7.35 0 0 1-7.41 7.22h-18l.44 16.25a8 8 0 0 0 8 7.81h32.44a8 8 0 0 0 8-7.82l.57-22.86c1.31-18.28 18.13-19.78 31.6-25.51Zm0 0"/>
      <path d="M72.31 383.74h32.75a15.48 15.48 0 0 0 15.5-14.84l1.06-24.39a7.5 7.5 0 1 0-15-.66l-1.07 24.4a.51.51 0 0 1-.51.49H72.31a.51.51 0 0 1-.51-.49L56.46 15.54A.51.51 0 0 1 57 15h63.42a.49.49 0 0 1 .38.16.5.5 0 0 1 .14.38l-12.56 288.23a7.5 7.5 0 1 0 15 .65L135.9 16.19A15.53 15.53 0 0 0 120.39 0H57a15.53 15.53 0 0 0-15.5 16.19L56.81 368.9a15.48 15.48 0 0 0 15.5 14.84ZM88.69 416.84a47.58 47.58 0 1 0 47.58 47.58 47.64 47.64 0 0 0-47.58-47.58Zm0 80.16a32.58 32.58 0 1 1 32.58-32.58A32.62 32.62 0 0 1 88.69 497ZM305.12 416.84a47.58 47.58 0 1 0 47.58 47.58 47.63 47.63 0 0 0-47.58-47.58Zm0 80.16a32.58 32.58 0 1 1 32.58-32.58A32.62 32.62 0 0 1 305.12 497ZM468.4 144.18C457.8 82.23 410 29.24 349.56 12.33A167.73 167.73 0 0 0 303 5.64c-65.9 0-109.31 37.78-121 49.36a15.53 15.53 0 0 0 .62 22.73l43.18 38.11a15.51 15.51 0 0 0 21.22-.68c7.66-7.68 28.53-25.53 56.89-25.53h.38a84.74 84.74 0 0 1 23.9 2.28h.17A80.82 80.82 0 0 1 357 104.66a7.5 7.5 0 0 0 8.55-12.33 95.68 95.68 0 0 0-33.91-15 100.16 100.16 0 0 0-27.92-2.67c-33.88.07-58.37 21-67.33 29.94a.45.45 0 0 1-.67 0l-43.23-38.11a.49.49 0 0 1-.19-.39.56.56 0 0 1 .18-.42c10.71-10.57 50.33-45 110.47-45a152.79 152.79 0 0 1 42.5 6.1c55.05 15.41 98.52 63.61 108.17 120a150.78 150.78 0 0 1-8.51 82.22A148.63 148.63 0 0 1 395 293.59c-11.05 8.09-22.56 13.68-36.42 19.57-2.4 1-5 1.91-7.68 2.86-11.42 4-27.06 9.38-28.47 29v.35l-.57 22.85a.51.51 0 0 1-.52.5h-32.45a.51.51 0 0 1-.51-.5l-.75-27.81c-.27-38.56 23.83-48.72 49.34-59.48 12.35-5.21 25.13-10.6 34.42-19.4 17.29-16.39 28-31.63 33.63-47.92a107.3 107.3 0 0 0 3.34-58.19 102 102 0 0 0-17-37.69 7.5 7.5 0 0 0-12.16 8.78 87 87 0 0 1 14.51 32.13 92.16 92.16 0 0 1-2.85 50c-4.84 14-14.31 27.31-29.79 42-7.31 6.93-18.3 11.56-29.93 16.47-26.23 11.06-58.88 24.83-58.51 73.48v.15l.75 27.89a15.43 15.43 0 0 0 15.51 15.09h32.44a15.42 15.42 0 0 0 15.51-15.13l.57-22.67c.51-6.84 2.42-10.21 18.41-15.75 2.83-1 5.75-2 8.63-3.22 12.83-5.46 26.48-11.81 39.42-21.28A163.58 163.58 0 0 0 459 234.54a165.68 165.68 0 0 0 9.37-90.36Zm0 0"/>
    </symbol>
  </defs>
</svg>
