<svg xmlns="http://www.w3.org/2000/svg" viewBox="0 0 512 512">
  <defs>
    <symbol id="item-0">
      <title>TD</title>
      <path fill="#3a7ca5" d="m256 267-11.73 11.73-94.72 94.72a16.61 16.61 0 0 0 0 23.45l94.72 94.72a16.6 16.6 0 0 0 23.46 0L377.44 381.9a31.84 31.84 0 0 1-15-8.46z"/>
      <path fill="#22698c" d="M362.45 373.44 267 278l-11-11-11 11-.74.73-94.72 94.72a16.61 16.61 0 0 0 0 23.45l11 11a16.59 16.59 0 0 1 0-23.45l94.72-94.72.74-.73 95.45 95.45a31.91 31.91 0 0 0 15 8.46l7.75-7.75 3.24-3.24a31.84 31.84 0 0 1-14.99-8.48z"/>
      <path fill="#44bba4" d="m373.44 149.55-89.22 89.23-5.5 5.49-5.5 5.5L267 256l106.44 106.45a16.61 16.61 0 0 0 23.45 0l5.5-5.49 89.22-89.22a16.6 16.6 0 0 0 0-23.46L381.9 134.56a31.84 31.84 0 0 1-8.46 14.99z"/>
      <path fill="#32a58f" d="m373.44 149.55-89.22 89.23-5.5 5.49-5.5 5.5L267 256l11 11 6.23-6.23 5.49-5.49 5.5-5.5 89.22-89.22a31.91 31.91 0 0 0 8.46-15l-11-11a31.84 31.84 0 0 1-8.46 14.99z"/>
      <path fill="#f2e863" d="M244.27 20.39 134.56 130.1a31.84 31.84 0 0 1 15 8.46l89.23 89.22 5.49 5.5 5.5 5.5L256 245l11.73-11.73 94.72-94.72a16.61 16.61 0 0 0 0-23.45l-5.5-5.5-89.22-89.21a16.6 16.6 0 0 0-23.46 0z"/>
      <path fill="#cebf38" d="m244.27 20.39-98.72 98.72-11 11c.66.17 1.32.35 2 .56.33.1.66.23 1 .35l.92.32c.45.18.9.37 1.34.57l.53.22c.51.24 1 .5 1.52.77l.28.14c.55.3 1.09.62 1.63.95l.12.07c.56.36 1.12.73 1.67 1.12a33.61 33.61 0 0 1 3.24 2.66c.25.24.51.46.75.71l89.23 89.22 5.49 5.5 5.5 5.5L256 245l11-11-6.23-6.23-5.49-5.49-5.5-5.5-89.22-89.22c-.25-.25-.51-.47-.76-.71l95.48-95.48a16.61 16.61 0 0 1 23.45 0l-11-11a16.6 16.6 0 0 0-23.46.02z"/>
      <path fill="#f45b69" d="M122 145.43a16.5 16.5 0 0 0-6.87 4.12l-5.5 5.5-89.24 89.22a16.6 16.6 0 0 0 0 23.46l94.72 94.72a16.61 16.61 0 0 0 23.45 0l89.22-89.23 5.5-5.49 5.5-5.5L245 256l-11.73-11.73-94.72-94.72a16.59 16.59 0 0 0-16.55-4.12z"/>
      <path d="M233.28 9.39 104.12 138.56 9.4 233.28a32.17 32.17 0 0 0 0 45.44l94.73 94.72a32 32 0 0 0 25.15 9.29 32 32 0 0 0 9.29 25.15l94.72 94.72a32.16 32.16 0 0 0 45.44 0l129.15-129.16 94.72-94.72a32.18 32.18 0 0 0 0-45.44L373.44 104.12 278.72 9.39a32.18 32.18 0 0 0-45.44 0zm258.33 234.88a16.6 16.6 0 0 1 0 23.46L402.39 357l-5.5 5.49a16.61 16.61 0 0 1-23.45 0L267 256l6.23-6.23 5.5-5.5 5.5-5.49 89.22-89.23a31.84 31.84 0 0 0 8.46-15zM267.73 491.61a16.6 16.6 0 0 1-23.46 0l-94.72-94.72a16.61 16.61 0 0 1 0-23.45l94.72-94.72L256 267l106.45 106.44a31.84 31.84 0 0 0 15 8.46zM115.11 362.45l-94.72-94.72a16.6 16.6 0 0 1 0-23.46l89.22-89.22 5.5-5.5a16.61 16.61 0 0 1 23.45 0l94.72 94.72L245 256l-6.23 6.23-5.5 5.5-5.5 5.49-89.22 89.23a16.61 16.61 0 0 1-23.44 0zM267.73 20.39 357 109.61l5.5 5.5a16.61 16.61 0 0 1 0 23.45l-94.72 94.72L256 245l-6.23-6.23-5.5-5.5-5.49-5.5-89.23-89.22a31.84 31.84 0 0 0-15-8.46l109.72-109.7a16.6 16.6 0 0 1 23.46 0z"/>
    </symbol>
  </defs>
</svg>
