<svg xmlns="http://www.w3.org/2000/svg" viewBox="0 0 512 512">
  <defs>
    <symbol id="item-2113">
      <title>circle</title>
        <circle cx="256" cy="256" r="248.5" fill="#ffab56"/>
  <path fill="#ff982a" d="M256 7.5a251 251 0 0 0-23.06 1.08C359.36 20.21 458.37 126.54 458.37 256s-99 235.79-225.43 247.42A251 251 0 0 0 256 504.5c137.24 0 248.5-111.26 248.5-248.5S393.24 7.5 256 7.5Z"/>
  <path d="M484.47 354.13a7.5 7.5 0 0 0-10 3.63C435.05 442.35 349.28 497 256 497 123.11 497 15 388.89 15 256A239.69 239.69 0 0 1 83.32 87.91a7.5 7.5 0 1 0-10.75-10.46A256 256 0 1 0 488.1 364.1a7.49 7.49 0 0 0-3.63-10ZM437 75A256 256 0 0 0 94.64 57.27a7.5 7.5 0 1 0 9.46 11.64A241.51 241.51 0 0 1 256 15c132.89 0 241 108.11 241 241a240.91 240.91 0 0 1-12.09 75.55 7.5 7.5 0 0 0 4.77 9.47 7.41 7.41 0 0 0 2.35.38 7.5 7.5 0 0 0 7.12-5.15A256.28 256.28 0 0 0 437 75Z"/>
    </symbol>
    <symbol id="item-2114">
      <title>square</title>
<path fill="#ffab56" d="M496.46 504.5H15.54a8 8 0 0 1-8-8V15.54a8 8 0 0 1 8-8h480.92a8 8 0 0 1 8 8v480.92a8 8 0 0 1-8 8Z"/>
  <path fill="#ff982a" d="M496.46 7.5h-35a8 8 0 0 1 8 8v480.96a8 8 0 0 1-8 8h35a8 8 0 0 0 8-8V15.54a8 8 0 0 0-8-8Z"/>
  <path d="M504.5 458.52A7.5 7.5 0 0 0 497 466v31H15V15h36.88a7.5 7.5 0 0 0 0-15H7.5A7.5 7.5 0 0 0 0 7.5v497a7.5 7.5 0 0 0 7.5 7.5h497a7.5 7.5 0 0 0 7.5-7.5V466a7.5 7.5 0 0 0-7.5-7.48ZM504.5 0H80.88a7.5 7.5 0 0 0 0 15H497v422a7.5 7.5 0 0 0 15 0V7.5a7.5 7.5 0 0 0-7.5-7.5Z"/>
    </symbol>
    <symbol id="item-2115">
      <title>triangle</title>
<path fill="#ff982a" d="m256 40.79-17.32 30L256 256l213.86 215.21h34.64Z"/>
  <path fill="#ffab56" d="M7.5 471.21h462.36L238.68 70.79Z"/>
  <path d="M511 467.46 262.49 37a7.5 7.5 0 0 0-13 0L132.75 239.26a7.5 7.5 0 1 0 13 7.5L256 55.79l235.51 407.92h-471l110.26-191a7.5 7.5 0 0 0-13-7.5L1 467.46a7.5 7.5 0 0 0 6.5 11.25h497a7.5 7.5 0 0 0 6.5-11.25Z"/>
    </symbol>
    <symbol id="item-2116">
      <title>sphere</title>
<circle cx="256" cy="256" r="248.5" fill="#ffab56"/>
  <path fill="#ff982a" d="M256 7.5c-7.12 0-14.17.32-21.14.9C362.21 19.13 462.23 125.88 462.23 256s-100 236.87-227.37 247.6c7 .58 14 .9 21.14.9 137.24 0 248.5-111.26 248.5-248.5S393.24 7.5 256 7.5Z"/>
  <path d="M474.58 122.67a7.5 7.5 0 0 0-12.8 7.83A240.52 240.52 0 0 1 497 256c0 6-14.08 19.21-66.87 30.6-46.43 10-108.27 15.55-174.13 15.55-34.61 0-68.11-1.53-98.85-4.43a571.3 571.3 0 0 1-1.52-41.72c0-65.37 11-126.72 31-172.73C205.44 39.88 230.73 15 256 15a239.77 239.77 0 0 1 189.68 92.31 7.5 7.5 0 0 0 11.8-9.26 258.64 258.64 0 0 0-87.64-71.41A256.05 256.05 0 0 0 0 256a253.49 253.49 0 0 0 26.57 113.66A7.5 7.5 0 1 0 40 363a237.78 237.78 0 0 1-23.92-83.8q19.55 12.75 62.61 22.08a637.32 637.32 0 0 0 64.57 10.11c4.49 46.29 14.61 88.86 29.57 123.32 11.06 25.46 24.17 45.08 38.61 58.18a240.53 240.53 0 0 1-157.15-105 7.5 7.5 0 0 0-12.55 8.23 256 256 0 0 0 432.84-273.45ZM81.87 286.6C29.08 275.21 15 262 15 256 15 138.33 99.77 40.09 211.44 19.13 197 32.23 183.89 51.84 172.85 77.3c-20.78 47.85-32.22 111.32-32.22 178.7 0 13.58.47 27 1.38 40.16-21.92-2.47-42.18-5.68-60.14-9.56ZM256 497c-25.27 0-50.56-24.88-69.4-68.27-14-32.34-23.64-72.26-28.11-115.82 30.51 2.78 63.51 4.24 97.51 4.24 66.89 0 129.86-5.64 177.3-15.88q43-9.28 62.59-22.07C484.18 401.25 381.06 497 256 497Z"/>
    </symbol>
    <symbol id="item-2117">
      <title>cube</title>
<path fill="#ff982a" d="M336.09 479.38 179.38 129.53 504.5 32.62V361.2Z"/>
  <path fill="#ff7e3d" d="M7.5 150.8 175.91 32.62H504.5L336.09 150.8l-164.3 128.34Z"/>
  <path fill="#ffab56" d="M7.5 150.8h328.59v328.58H7.5Z"/>
  <path d="M510.78 28.51a7.53 7.53 0 0 0-6.37-3.39H336.09a7.5 7.5 0 0 0 0 15h144.66l-147 103.18H31.24l147-103.18h128.28a7.5 7.5 0 1 0 0-15h-130.6a7.45 7.45 0 0 0-4.31 1.36L3.25 144.62A7.49 7.49 0 0 0 0 150.78v247.36a7.5 7.5 0 0 0 15 0V158.3h313.59v313.58H15v-44.17a7.5 7.5 0 0 0-15 0v51.67a7.5 7.5 0 0 0 7.5 7.5h328.76a7.75 7.75 0 0 0 4.16-1.37l113.11-79.38a7.5 7.5 0 1 0-8.61-12.28L343.59 465V154.7L497 47v310.3l-27.79 19.5a7.5 7.5 0 1 0 8.62 12.28l31-21.74a7.5 7.5 0 0 0 3.17-6.14V32.62a7.46 7.46 0 0 0-1.22-4.1Z"/>
    </symbol>
    <symbol id="item-2118">
      <title>pyramid</title>
<path fill="#ffab56" d="M256 504.51V7.43L7.46 378.77Z"/>
  <path fill="#ff982a" d="M256 504.51V7.43l248.54 371.34Z"/>
  <path fill="#ff7e3d" d="m467.18 397.67 37.36-18.9L256 7.43Z"/>
  <path d="M510.77 374.59 262.23 3.26a7.58 7.58 0 0 0-12.51.08l-50.25 75.07c-5.4 8.06 7.07 16.41 12.46 8.35l36.57-54.63v460.18L18.41 375.9l171.7-256.54c5.4-8.06-7.07-16.4-12.47-8.34L1.23 374.59q-3.46 6.72 2.85 10.87L252.61 511.2a7.63 7.63 0 0 0 6.78 0l53.66-27.15c8.66-4.38 1.88-17.77-6.77-13.39l-42.78 21.65V32.13L493.59 375.9l-153 77.39c-8.9 4.5-1.48 17.56 6.77 13.39l160.53-81.22q6.31-4.15 2.85-10.87Z"/>
    </symbol>
    <symbol id="item-2119">
      <title>hexagon</title>
<path fill="#ffab56" d="M471.21 377.78V134.22a4.3 4.3 0 0 0-2.14-3.71L258.14 8.73a4.3 4.3 0 0 0-4.28 0L42.93 130.51a4.3 4.3 0 0 0-2.14 3.71v243.56a4.3 4.3 0 0 0 2.14 3.71l210.93 121.78a4.3 4.3 0 0 0 4.28 0l210.93-121.78a4.3 4.3 0 0 0 2.14-3.71Z"/>
  <path fill="#ff982a" d="M469.07 130.52 258.14 8.74a4.25 4.25 0 0 0-4.28 0l-18.32 10.57 192.61 111.21a4.27 4.27 0 0 1 2.14 3.7v243.56a4.27 4.27 0 0 1-2.14 3.7L235.54 492.69l18.32 10.57a4.25 4.25 0 0 0 4.28 0l210.93-121.78a4.27 4.27 0 0 0 2.14-3.7V134.22a4.3 4.3 0 0 0-2.14-3.71Z"/>
  <path d="M475 125.25 259.75 1a7.5 7.5 0 0 0-7.5 0l-63.52 36.68a7.5 7.5 0 0 0 7.5 13L256 16.16l207.71 119.92v239.84L329.33 453.5a7.5 7.5 0 1 0 7.5 13L475 386.74a7.48 7.48 0 0 0 3.75-6.49v-248.5a7.52 7.52 0 0 0-3.75-6.5ZM304.08 468.08 256 495.84 48.29 375.92V136.08L171 65.25a7.5 7.5 0 0 0-7.5-13l-126.5 73a7.51 7.51 0 0 0-3.75 6.5v248.5a7.48 7.48 0 0 0 3.75 6.49L252.25 511a7.47 7.47 0 0 0 7.5 0l51.83-29.92a7.5 7.5 0 1 0-7.5-13Z"/>
    </symbol>
    <symbol id="item-2120">
      <title>cylinder</title>
<path fill="#ffab56" d="M97.65 69.75v372.49c0 34.39 70.9 62.26 158.35 62.26s158.35-27.87 158.35-62.26V69.76Z"/>
  <ellipse cx="256" cy="69.76" fill="#ff7e3d" rx="158.35" ry="62.26"/>
  <path d="M370.72 18.75C340 6.66 299.21 0 256 0a387.3 387.3 0 0 0-60.31 4.58A7.5 7.5 0 0 0 198 19.4a371.81 371.81 0 0 1 58-4.4c41.38 0 80.17 6.29 109.23 17.71 26.45 10.4 41.62 23.9 41.62 37.05s-15.17 26.64-41.62 37c-29.06 11.42-67.85 17.71-109.23 17.71s-80.17-6.29-109.23-17.71c-26.45-10.4-41.62-23.9-41.62-37 0-17 24.93-34.08 65.06-44.59a7.5 7.5 0 1 0-3.8-14.51C118 23.35 90.15 44.89 90.15 69.76v372.48c0 19.93 18.16 38 51.13 51C172.05 505.34 212.79 512 256 512c34 0 66.65-4.13 94.31-11.94a7.5 7.5 0 1 0-4.08-14.44C319.88 493.07 288.67 497 256 497c-41.38 0-80.17-6.29-109.23-17.71-26.45-10.4-41.62-23.9-41.62-37.05V99.59c8.59 8 20.75 15.12 36.13 21.17 30.77 12.09 71.51 18.75 114.72 18.75s83.95-6.66 114.72-18.75c15.38-6.05 27.54-13.22 36.13-21.17v342.65c0 11.66-12.42 24-34.07 33.85a7.5 7.5 0 1 0 6.22 13.65c28-12.76 42.85-29.18 42.85-47.5V69.76c0-19.93-18.16-38-51.13-51Z"/>
    </symbol>
    <symbol id="item-2121">
      <title>rectangle</title>
<path fill="#ffab56" d="M499.57 408.51H12.43a4.93 4.93 0 0 1-4.93-4.92V108.41a4.93 4.93 0 0 1 4.93-4.92h487.14a4.93 4.93 0 0 1 4.93 4.92v295.18a4.93 4.93 0 0 1-4.93 4.92Z"/>
  <path fill="#ff982a" d="M499.57 103.49h-24.7a4.92 4.92 0 0 1 4.92 4.92v295.18a4.92 4.92 0 0 1-4.92 4.92h24.7a4.93 4.93 0 0 0 4.93-4.92V108.41a4.93 4.93 0 0 0-4.93-4.92Z"/>
  <path d="M504.5 96H91.16a7.5 7.5 0 0 0 0 15H497v290h-67a7.5 7.5 0 0 0 0 15h74.5a7.5 7.5 0 0 0 7.5-7.5v-305a7.5 7.5 0 0 0-7.5-7.5ZM401 401H15V111h47.16a7.5 7.5 0 0 0 0-15H7.5a7.5 7.5 0 0 0-7.5 7.5v305a7.5 7.5 0 0 0 7.5 7.5H401a7.5 7.5 0 0 0 0-15Z"/>
    </symbol>
    <symbol id="item-2122">
      <title>rhombus</title>
<path fill="#ffab56" d="M253 500.31 82 258.09a3.64 3.64 0 0 1 0-4.18L253 11.69a3.63 3.63 0 0 1 5.92 0L430 253.91a3.64 3.64 0 0 1 0 4.18L259 500.31a3.63 3.63 0 0 1-5.92 0Z"/>
  <path fill="#ff982a" d="M430 253.91 259 11.69a3.63 3.63 0 0 0-5.92 0l-13.56 19.2L397 253.91a3.61 3.61 0 0 1 0 4.18l-157.51 223L253 500.31a3.63 3.63 0 0 0 5.92 0L430 258.09a3.64 3.64 0 0 0 0-4.18Z"/>
  <path d="M437.63 251.67 262.13 3.17a7.51 7.51 0 0 0-12.26 0l-38.46 54.46a7.51 7.51 0 1 0 12.26 8.66L256 20.5 422.32 256 300.23 428.87a7.5 7.5 0 1 0 12.25 8.65l125.15-177.19a7.48 7.48 0 0 0 0-8.66ZM293.89 450.85a7.49 7.49 0 0 0-10.45 1.79L256 491.49 89.68 256 206.87 90.06a7.5 7.5 0 0 0-12.25-8.65L74.37 251.67a7.48 7.48 0 0 0 0 8.66l175.5 248.5a7.51 7.51 0 0 0 12.26 0l33.56-47.53a7.49 7.49 0 0 0-1.8-10.45Z"/>
    </symbol>
    <symbol id="item-2123">
      <title>parallelepiped</title>
<path fill="#ffab56" d="M342.92 370.89H7.26L70 206.27h335.61Z"/>
  <path fill="#ff7e3d" d="m70 206.27 99.13-65.16h335.61l-99.13 65.16Z"/>
  <path fill="#ff982a" d="m342.92 370.89 62.69-164.62 99.13-65.16-62.69 164.62Z"/>
  <path d="M511.68 139.07a7.48 7.48 0 0 0-7.17-5.35H235.45a7.5 7.5 0 0 0 0 15h244l-76.24 50.12H95.16l76.24-50.12h35.08a7.5 7.5 0 0 0 0-15h-37.32A7.56 7.56 0 0 0 165 135l-99 65.07a7.44 7.44 0 0 0-2.87 3.58L.49 368.12a7.49 7.49 0 0 0 7 10.16h48.14a7.5 7.5 0 1 0 0-15H18.36l56.93-149.47H394.6l-56.92 149.48H84.61a7.5 7.5 0 1 0 0 15h258.23a7.44 7.44 0 0 0 4.09-1.22c.86-.51-7 4.61 99.07-65.12a7.49 7.49 0 0 0 2.88-3.59l7.12-18.63a7.49 7.49 0 1 0-14-5.33l-6.23 16.35-77.65 51 53.52-140.54 77.64-51-37 97.08a7.49 7.49 0 0 0 14 5.33C517 129.37 511.07 145.1 511.52 143.84a7.4 7.4 0 0 0 .16-4.77Z"/>
    </symbol>
    <symbol id="item-2124">
      <title>golden ratio</title>
<path fill="#c8cbda" d="M426 444.68H86a17.33 17.33 0 0 1-17.3-17.34V84.66A17.33 17.33 0 0 1 86 67.32h340a17.34 17.34 0 0 1 17.34 17.34v342.68A17.34 17.34 0 0 1 426 444.68Z"/>
  <path d="M336.91 343.92h-22.06a7.5 7.5 0 0 1 0-15h22.06a7.5 7.5 0 0 1 0 15Z"/>
  <path fill="#ecedf5" d="M480.7 101.31H31.3A23.62 23.62 0 0 0 7.77 125v262a23.62 23.62 0 0 0 23.53 23.7h449.41a23.61 23.61 0 0 0 23.52-23.7V125a23.61 23.61 0 0 0-23.53-23.69Z"/>
  <path d="M481 94.83h-30.2V84.66A24.86 24.86 0 0 0 426 59.82H86a24.86 24.86 0 0 0-24.8 24.84v10.17H31.05A31.09 31.09 0 0 0 0 125.88v260.24c0 1.74.35 7.19 1.28 8.8a31.1 31.1 0 0 0 29.77 22.25H61.2v10.17A24.87 24.87 0 0 0 86 452.18h340a24.87 24.87 0 0 0 24.83-24.84v-10.17H481a31.09 31.09 0 0 0 31-31.05V125.88a31.09 31.09 0 0 0-31.05-31Zm16 31.05v91.39a198.33 198.33 0 0 0-107-107.44h91a16.07 16.07 0 0 1 16.05 16Zm-482 0a16.07 16.07 0 0 1 16.05-16h59.32a7.5 7.5 0 0 0 0-15H76.2V84.66a9.84 9.84 0 0 1 9.8-9.84h340a9.85 9.85 0 0 1 9.83 9.84v10.17H125.9a7.5 7.5 0 0 0 0 15h92.58A315.85 315.85 0 0 0 15 312.58Zm.4 263.76C25.59 235 152.78 113.6 307.33 109.93v154.85a7.5 7.5 0 0 0 15 0V110c94.37 4 170.39 80.09 174.23 174.5h-77.47a7.5 7.5 0 1 0 0 15h77.42A109.57 109.57 0 0 1 395.1 401.89v-31.75a7.5 7.5 0 0 0-15 0v31.62a65.4 65.4 0 0 1-57.66-57.84h14.47a7.5 7.5 0 0 0 0-15h-14.14a36.68 36.68 0 0 1 35.91-29.41 21.18 21.18 0 0 1 21.15 21.15v.34a8 8 0 0 1-8 8 7.5 7.5 0 0 0 0 15 23 23 0 0 0 23-23v-.28a36.2 36.2 0 0 0-36.16-36.16 51.68 51.68 0 0 0-51.62 51.63v.75a80.23 80.23 0 0 0 33.64 65.28H31.05a16.07 16.07 0 0 1-15.65-12.58Zm420.4 37.7a9.85 9.85 0 0 1-9.83 9.84H86a9.84 9.84 0 0 1-9.83-9.84v-10.17H435.8v10.17Zm45.2-25.17h-30.2v-2.46a125.28 125.28 0 0 0 46.2-48.28v34.69a16.07 16.07 0 0 1-16 16.05Z"/>
    </symbol>
    <symbol id="item-2125">
      <title>silencer</title>
<path fill="#7a8c98" d="M315.34 236.81v60A26.61 26.61 0 0 0 342 323.35h81.69v-29.76h-66a12.39 12.39 0 0 1-12.4-12.37v-44.41Z"/>
  <path fill="#e19974" d="m488.25 353-22.4-116.18h-73.37l21.38 121.06a13.5 13.5 0 0 0 13.3 11.12H475a13.48 13.48 0 0 0 13.25-16Z"/>
  <path fill="#dd7f66" d="m488.25 353-22.4-116.18h-30L458.25 353A13.48 13.48 0 0 1 445 369h30a13.48 13.48 0 0 0 13.25-16Z"/>
  <path fill="#b6c4cf" d="M504.5 201.1v23a12.73 12.73 0 0 1-12.74 12.71H239.53V149a6 6 0 0 1 6-6h161a14.31 14.31 0 0 1 12.22 6.83l13.37 21.79A35.15 35.15 0 0 0 462 188.38h29.74a12.73 12.73 0 0 1 12.76 12.72Z"/>
  <path fill="#9facba" d="M491.77 188.39H462a35.15 35.15 0 0 1-29.95-16.76l-13.37-21.79a14.31 14.31 0 0 0-12.19-6.84h-30a14.33 14.33 0 0 1 12.22 6.83l13.37 21.79A35.15 35.15 0 0 0 432 188.38h29.74a12.73 12.73 0 0 1 12.76 12.72v23a12.73 12.73 0 0 1-12.74 12.71h30a12.73 12.73 0 0 0 12.74-12.71v-23a12.73 12.73 0 0 0-12.73-12.71Z"/>
  <path fill="#7a6d79" d="M315.33 274.81h-62.88a12.92 12.92 0 0 1-12.92-12.93v-25.07h75.8v38Z"/>
  <path fill="#9facba" d="M189.14 155.18h50.39v43.64h-50.39Z"/>
  <path fill="#7a6d79" d="M183.11 211H13.53a6 6 0 0 1-6-6v-56a6 6 0 0 1 6-6h169.58a6 6 0 0 1 6 6v56a6 6 0 0 1-6 6Z"/>
  <path fill="#685e68" d="M183.08 143h-30a6 6 0 0 1 6.06 6v56a6 6 0 0 1-6.06 6h30a6 6 0 0 0 6.06-6v-56a6 6 0 0 0-6.06-6Z"/>
  <path d="M491.77 180.89H462a27.86 27.86 0 0 1-23.57-13.18l-13.33-21.8a22 22 0 0 0-18.59-10.41h-161a13.52 13.52 0 0 0-13.44 12.18h-35.5a13.55 13.55 0 0 0-13.46-12.18H71.83c-9.93.34-9.92 14.66 0 15h109.81v53H15v-53h22.5c9.93-.34 9.92-14.66 0-15h-24A13.55 13.55 0 0 0 0 149v56a13.55 13.55 0 0 0 13.53 13.5h169.58a13.55 13.55 0 0 0 13.46-12.18H232v55.56a20.45 20.45 0 0 0 20.42 20.43h55.38v14.46a34.15 34.15 0 0 0 34.2 34.08h59.5l5 28.32a21 21 0 0 0 20.68 17.33H475a21 21 0 0 0 20.63-24.94l-3.83-19.76a7.5 7.5 0 1 0-14.72 2.84l3.81 19.77a5.86 5.86 0 0 1-1.26 4.91 5.94 5.94 0 0 1-4.63 2.18h-47.84a6 6 0 0 1-5.91-4.94l-19.83-112.25h58.24l10.82 56.14a7.5 7.5 0 0 0 14.73-2.84l-10.28-53.3h16.83A20.25 20.25 0 0 0 512 224.1v-23a20.25 20.25 0 0 0-20.23-20.21Zm-295.13 10.43v-28.64H232v28.64Zm111.19 76h-55.38a5.43 5.43 0 0 1-5.42-5.43v-17.58h60.8ZM342 315.85a19.13 19.13 0 0 1-19.14-19.08v-52.46h15v36.91a19.91 19.91 0 0 0 19.9 19.87h38.51l2.6 14.76Zm31-71.54c.29 5.63-.46 12.51-4.9 16.65-7.05 7 2.77 17.5 10.22 11 5.1-4.74 8.25-11.37 9.32-19.33l5.92 33.49h-35.85a4.9 4.9 0 0 1-4.9-4.87v-36.94Zm124-20.21a5.23 5.23 0 0 1-5.24 5.21H247V150.5h159.51a6.87 6.87 0 0 1 5.81 3.25l13.37 21.79A42.92 42.92 0 0 0 462 195.88h29.73a5.23 5.23 0 0 1 5.27 5.22Z"/>
  <path d="M273.33 163.75a7.5 7.5 0 0 0-7.5 7.5v38.34c.35 9.93 14.66 9.92 15 0v-38.34a7.5 7.5 0 0 0-7.5-7.5ZM297.67 163.75a7.5 7.5 0 0 0-7.5 7.5v38.34c.34 9.93 14.66 9.92 15 0v-38.34a7.5 7.5 0 0 0-7.5-7.5ZM322 163.75a7.5 7.5 0 0 0-7.5 7.5v38.34c.34 9.93 14.66 9.92 15 0v-38.34a7.5 7.5 0 0 0-7.5-7.5Z"/>
    </symbol>
    <symbol id="item-2126">
      <title>cloves</title>
<path fill="#c86d35" fill-rule="evenodd" d="M404.45 188c-8.48-3.13-15.46-4-29.21 5.53l-38.75 129.19c-4.29 15.91 2 23.47 9.82 27 8.2 2.32 17.91.62 24.86-14.31l53.53-123.86c3.29-9.55-6.86-18.65-15.37-21.72Z"/>
  <path fill="#ffd772" fill-rule="evenodd" d="m31.12 350.2 76.52-13.86-7.92-82.22c-35.23-18-66.64-7.76-82.1 13.92S2.64 322.7 31.12 350.2Z"/>
  <path fill="#c86d35" fill-rule="evenodd" d="M128.75 340.34c-5.28 7.34-7.77 22.33-5.4 35.53l114.16 71.87c14.17 8.39 23.13 4.32 28.6-2.23 4.43-7.31 5.38-17.11-7.15-27.79L154 333.05c-15-5.38-25.21 7.29-25.21 7.29ZM209.33 232.58l49.35 125.55c6.45 15.17 16.07 17.18 24.39 15.15 7.89-3.27 14.45-10.58 10.68-26.62l-34.37-130.45c-7.4-27.21-53.64-17.21-50 16.37Z"/>
  <path fill="#ffd772" fill-rule="evenodd" d="m150.3 157.23 74.18 36.3 38-73c-17.69-35.41-49.08-45.73-74.35-37.47s-44.5 35.15-37.86 74.18Z"/>
  <path fill="#d87e49" fill-rule="evenodd" d="m188 162.2-37.72-5-18.13-2.4c-3.29 56.8 35.26 80.54 77.16 77.75a107.24 107.24 0 0 0 50-16.37c35.49-22.49 52.56-64.45 16.35-108.33l-13.22 12.64L235 146.82l-28.79-8.51Z"/>
  <path fill="#c86d35" fill-rule="evenodd" d="M203 232.81c2.12 0 4.26-.09 6.38-.23a107.24 107.24 0 0 0 50-16.37c35.49-22.49 52.56-64.45 16.35-108.33l-13.22 12.63-10.1 9.66c20.53 37.74 3.57 72.31-27.48 92a108.41 108.41 0 0 1-22 10.63Z"/>
  <path fill="#ac5d2c" fill-rule="evenodd" d="m209.33 232.58 6.36 16.18c4.33 1.54 13.9-.19 25.64-4.38 9.35-3.32 9 3.46 11.75 14L283 372l.25 1.17c7.81-3.29 14.23-10.63 10.49-26.53l-34.36-130.43a107.24 107.24 0 0 1-50 16.37Z"/>
  <path fill="#fbba58" fill-rule="evenodd" d="M171.53 105.48c24.22-7.93 54 1.25 72 33.14l8.85-8.45 10.1-9.66c-17.69-35.4-49.07-45.72-74.35-37.46a55.54 55.54 0 0 0-34 31.91 54.51 54.51 0 0 1 17.4-9.48Z"/>
  <path d="M301 344.75 268 219.5c16.2-11.48 27.8-26.71 32.72-43.76 4.81-16.68 5.38-42.83-19.21-72.64a7.54 7.54 0 0 0-5.35-2.71 7.43 7.43 0 0 0-5.62 2.07l-6.25 6c-20.9-33.23-53.67-40.62-78.47-32.51s-46.91 33.42-44.11 72.6l-8.57-1.13a7.51 7.51 0 0 0-8.47 7c-2.23 38.58 13.68 59.34 27.43 70s31.39 16 50.63 16h1.57l47.4 120.45a1.08 1.08 0 0 1 .08.19c7 16.52 17.62 20.38 26 20.38a30.11 30.11 0 0 0 7.09-.88 8 8 0 0 0 1.08-.35c8-3.3 20.53-12.26 15.12-35.27v-.19ZM190.49 90.18c19.66-6.43 46.09.26 62.71 28.86L233 138.4l-24.62-7.28a7.51 7.51 0 0 0-8.1 2.65l-15.55 20.42-27.75-3.66c-3.51-32.92 13.87-53.93 33.55-60.35Zm-29.21 122.31c-13.91-10.75-21.36-27.63-21.79-49.13l47.51 6.27a7.5 7.5 0 0 0 7-2.89L209 147l23.87 7a7.5 7.5 0 0 0 7.31-1.78l34.68-33.15c12.36 17.59 16.32 35.61 11.45 52.49-6.13 21.27-26.55 40-53.23 48.79-26.77 8.65-54.29 5.65-71.8-7.86Zm119.45 153.63c-4.58 1-10.31.37-15.1-10.84l-45.74-116.34a119.92 119.92 0 0 0 17.85-4.31 117.8 117.8 0 0 0 16.88-7l31.85 120.88c2.76 11.83-1.47 15.7-5.74 17.61Z"/>
  <path fill="#ffd772" fill-rule="evenodd" d="M375.35 97.78 408 175.51l78.26-37.28c7.95-38.78-10.32-66.29-35.32-75.41s-56.72.17-75.58 35Z"/>
  <path fill="#d87e49" fill-rule="evenodd" d="m401.94 125-26.59-27.2-12.8-13.09c-37.66 42.66-22 85.15 12.69 108.84a107.5 107.5 0 0 0 49.47 18c41.79 4.21 81.12-18.22 79.76-75.11l-18.22 1.79-37.86 3.68L431 117.45Z"/>
  <path fill="#c86d35" fill-rule="evenodd" d="M370.05 189.73c1.68 1.31 3.41 2.57 5.19 3.8a107.52 107.52 0 0 0 49.46 18c41.8 4.21 81.13-18.22 79.76-75.1l-18.21 1.78-13.9 1.34c-7.17 42.45-41.87 59.11-78.44 55.45a108.13 108.13 0 0 1-23.86-5.25Z"/>
  <path fill="#ac5d2c" fill-rule="evenodd" d="m375.24 193.53-5 16.65c2.42 3.85 11 8.43 22.85 12.39 9.4 3.15 4.91 8.26.55 18.3L347 348.7l-.51 1.06c8.18 2.23 17.75.41 24.64-14.37l53.57-123.84a107.82 107.82 0 0 1-49.46-18Z"/>
  <path fill="#fbba58" fill-rule="evenodd" d="M424 70.21c23.94 8.74 41.73 34.32 36.21 70.56l12.16-1.2 13.9-1.34c7.95-38.78-10.33-66.29-35.32-75.41a55.62 55.62 0 0 0-46.48 4.1A54.37 54.37 0 0 1 424 70.21Z"/>
  <path d="M512 136.27a7.49 7.49 0 0 0-8.22-7.29l-8.62.84c4.11-39-17.1-65.1-41.62-74S396 53.1 374 85.65l-6.06-6.2a7.5 7.5 0 0 0-11 .28c-25.6 29-25.9 55.12-21.65 72 4.34 17.2 15.42 32.81 31.23 44.82l-37.2 124.06a1.17 1.17 0 0 0-.06.2c-6.4 23.69 7.64 32.91 14 35.77a7.73 7.73 0 0 0 1 .38A28.71 28.71 0 0 0 352 358c7.91 0 18.58-3.48 26-19.44 0-.06 0-.12.08-.19l13.36-30.94a7.5 7.5 0 1 0-13.77-5.94l-13.32 30.84c-5.17 11-10.9 11.45-15.43 10.31-4.22-2.05-8.34-6.06-5.19-17.85l35.91-119.73a116.36 116.36 0 0 0 34.32 12.5l-23.26 53.7a7.5 7.5 0 1 0 13.77 5.95l25-57.74c1.68.09 3.35.14 5 .14 17.92 0 34.55-4.84 47.73-14.33 14.1-10.14 30.72-30.36 29.79-69Zm-63.6-66.4c19.44 7.09 36.09 28.67 31.48 61.44L452 134l-14.88-20.9a7.5 7.5 0 0 0-8-2.91l-24.86 6.44-19.55-20c17.58-28.06 44.21-33.85 63.65-26.75Zm25.05 123.24c-18 12.93-45.56 15-72 5.46-26.41-9.72-46.19-29.09-51.6-50.55-4.31-17 .26-34.92 13.21-52.09l33.54 34.29a7.49 7.49 0 0 0 7.24 2l24.05-6.22 14.39 20.25a7.49 7.49 0 0 0 6.84 3.12l47.74-4.66c-1.15 21.5-9.17 38.13-23.45 48.4Z"/>
  <path fill="#d87e49" fill-rule="evenodd" d="M64.43 331.85 31.12 350.2l-16 8.82c31.05 47.71 76.19 44 108.27 16.85a108 108 0 0 0 18-19.5A109.75 109.75 0 0 0 154 333.05c15.2-39.17 4.1-83.06-51.08-97l-3.16 18-6.55 37.5-28.28 10.28Z"/>
  <path fill="#c86d35" fill-rule="evenodd" d="M118.3 379.86a64.38 64.38 0 0 0 5-4 108 108 0 0 0 18-19.5 110 110 0 0 0 12.7-23.31c15.2-39.17 4.1-83.06-51.08-97l-3.16 18-2.4 13.76c38.89 18.24 45.73 56.13 32.42 90.39a107.45 107.45 0 0 1-11.44 21.59Z"/>
  <path fill="#ac5d2c" fill-rule="evenodd" d="m123.35 375.87 14.7 9.26c4.38-1.28 11.08-8.37 18-18.69 5.56-8.23 9.27-2.54 17.78 4.33l91.44 73.76c.31.25.62.5.93.78 4.32-7.31 5.13-17-7.29-27.59L154 333.05a109.54 109.54 0 0 1-12.64 23.32 108 108 0 0 1-18 19.5Z"/>
  <path fill="#fbba58" fill-rule="evenodd" d="M17.54 296c14.81-20.76 44.24-31.05 77.66-16l2.12-12.06 2.4-13.75c-35.23-18-66.65-7.76-82.1 13.92a55.57 55.57 0 0 0-8.45 45.87A53.73 53.73 0 0 1 17.54 296Z"/>
  <path d="m263.83 412-.16-.13-100.83-81.3c6.23-18.85 6.55-38 .4-54.64-6-16.29-21.06-37.69-58.54-47.11a7.49 7.49 0 0 0-9.21 6L94 243.33c-36.55-14.38-67.32-.89-82.48 20.35s-17.92 54.71 7.53 84.59l-7.59 4.18a7.52 7.52 0 0 0-2.67 10.66C29.87 395.52 55 402.8 72.36 403.2h1.6c17.22 0 34.62-6.47 50-18.13l31.5 19.93a7.39 7.39 0 0 0 4 1.16 7.5 7.5 0 0 0 4-13.85l-27.81-17.52a119.36 119.36 0 0 0 11.8-14 120.92 120.92 0 0 0 9.42-15.79l97.3 78.46c9.26 7.93 8.12 13.57 5.81 17.64-3.1 3.5-8.06 6.4-18.56.2L197 413.39l-5-3.2a7.5 7.5 0 0 0-8.05 12.66l5.08 3.22 44.53 28 .17.11c7.07 4.19 13.2 5.74 18.38 5.74 10.27 0 16.84-6.08 19.8-9.62a8.35 8.35 0 0 0 .65-.91c3.6-5.94 10-21.47-8.69-37.39ZM23.73 272.4c8.21-11.5 22.58-19.95 40.54-19.95a67.79 67.79 0 0 1 27.08 6L86.53 286l-24.15 8.73a7.53 7.53 0 0 0-5 6.93L57 327.37l-24.5 13.5c-22.32-24.43-20.79-51.63-8.77-68.47Zm111.5 79.6c-16.43 22.86-40.4 36.73-62.52 36.22-17.57-.41-33.58-9.59-46.67-26.66l42-23.13a7.49 7.49 0 0 0 3.89-6.43l.42-24.85 23.37-8.45a7.52 7.52 0 0 0 4.84-5.76l8.26-47.27c20.38 6.84 34.26 19 40.35 35.49 7.67 20.74 2.32 47.91-13.94 70.84Z"/>
    </symbol>
    <symbol id="item-2127">
      <title>basil</title>
<path fill="#3bc3a4" fill-rule="evenodd" d="M255.77 256c0-27.32-27.7-56.38-93.45-75.53-29.25.6-65.95 15.45-108.4 53.22-16 14.2-16 30.35 0 44.58 42.45 37.73 79.18 52.56 108.42 53.07 55.46-5.02 88-31.34 93.43-75.34ZM349.46 180.49c-21.15 0-75.47 2.62-93.26 75.5 14.07 48.31 37.55 69.66 93.23 75.38 29.3-.46 66.08-15.22 108.65-53.08 16-14.23 16-30.35 0-44.58-42.57-37.86-79.32-52.68-108.62-53.22Z"/>
  <path fill="#a7e9a6" fill-rule="evenodd" d="M256.2 256c42.33-.09 84.53-27.44 93.26-75.5 7.22-39.7-8.39-93.51-65.55-157.79C266 2.53 245.6 2.53 227.63 22.7 170.5 87 155 140.76 162.32 180.46c8.84 48.09 51.14 75.44 93.45 75.53ZM255.77 256c-42.22.11-84.47 27.4-93.43 75.35-7.39 39.7 8.08 93.6 65.29 158 18 20.17 38.35 20.17 56.28 0 57.25-64.36 72.8-118.23 65.52-157.93-8.78-48-50.95-75.27-93.23-75.38Z"/>
  <path fill="#7fdbae" fill-rule="evenodd" d="M320.16 182.33c-6.32 34.72-35.74 58.64-64.39 69.26a93.5 93.5 0 0 1-12.07 3.63 95.66 95.66 0 0 0 12.07.77h.43c42.33-.09 84.53-27.44 93.26-75.5 7.22-39.7-8.39-93.52-65.55-157.79C269 5.93 252.37 3.09 236.9 14.23c55.83 18.68 92.55 117 83.26 168.1Z"/>
  <path fill="#7fdbae" fill-rule="evenodd" d="M255.77 257.66c32.34 8.81 60.22 33.83 67.19 71.86 7.29 39.71-8.3 93.58-65.51 157.93-5.42 6.1-11.06 10.35-16.78 12.76 14.4 8.16 29.53 4.5 43.24-10.91 57.24-64.36 72.8-118.23 65.52-157.93-8.79-48-50.95-75.27-93.23-75.38h-.43c-2 0-4.08.08-6.12.22 2.04.43 4.11.91 6.12 1.45Z"/>
  <path fill="#3bc3a4" fill-rule="evenodd" d="M256.2 256c15 0 29.95-9.72 33-26.75 2.55-14.06-3-33.13-23.21-55.89-6.37-7.17-13.57-7.17-19.95 0-20.23 22.76-25.73 41.83-23.15 55.89 3.14 17 18.14 26.72 33.13 26.75Z"/>
  <path fill="#3bc3a4" fill-rule="evenodd" d="M256.2 256c-15 .05-29.93 9.72-33 26.75-2.55 14.08 3 33.15 23.23 55.91 6.35 7.17 13.58 7.17 19.92 0 20.27-22.76 25.76-41.83 23.16-55.88-3.12-17-18.11-26.73-33.1-26.78Z"/>
  <path fill="#00a887" fill-rule="evenodd" d="M255.77 260.24a31.8 31.8 0 0 1 16.41 22.53c2.27 12.35-1.7 28.56-16.41 47.75-2 2.66-4.28 5.35-6.74 8.13a17.69 17.69 0 0 1-1.33 1.35 13.12 13.12 0 0 0 8.07 4c3.6.22 7.2-1.56 10.55-5.36 20.26-22.76 25.75-41.83 23.15-55.88a32.19 32.19 0 0 0-4.71-11.88c-6.23-9.49-17.14-14.76-28.08-14.88a1.78 1.78 0 0 0-.31 0h-.31a1.41 1.41 0 0 1-.29 0 34.94 34.94 0 0 0-5 .45c-1 .17-2.1.37-3.12.62a36.42 36.42 0 0 1 8.13 3.18Z"/>
  <path fill="#00a887" fill-rule="evenodd" d="M255.77 256a1.41 1.41 0 0 0 .29 0Zm.6 0c13.74-.09 27.4-8.28 31.91-22.79a36.37 36.37 0 0 0 1-4c2.55-14.06-3-33.13-23.21-55.89-3.29-3.68-6.77-5.47-10.26-5.38-2.83.08-5.67 1.42-8.36 4 .43.43.88.88 1.31 1.39 2.58 2.89 4.93 5.76 7.05 8.53 14.48 19 18.39 35.11 16.18 47.36a31.66 31.66 0 0 1-15.81 22.21c-.11.09-.25.15-.37.23a34.62 34.62 0 0 1-8.3 3.23 34.43 34.43 0 0 0 8.3 1.08h.6Z"/>
  <path d="M463.11 228.06c-36.6-32.56-72.71-51.29-105-54.61 2.29-22.37-2.07-46.66-13-72.36a7.57 7.57 0 0 0-13.98 5.91c11.16 26.21 14.87 50.47 10.87 72.14-5.64 31-25.49 51.06-48.42 61.23a40.17 40.17 0 0 0 3.1-9.78c2.35-12.94-.09-34.25-25-62.27a24.59 24.59 0 0 0-8.35-6.33V145.3q16.71-2.84 34.69-15.16a7.57 7.57 0 0 0-8.57-12.48c-9.24 6.35-17.89 10.42-26.12 12.23v-24.33c6.57-2 13.22-6.28 20.12-12.89A7.57 7.57 0 1 0 273 81.74a47.32 47.32 0 0 1-9.63 7.38v-27.3a7.57 7.57 0 1 0-15.14 0v28.31a29.68 29.68 0 0 1-8.89-7.75A7.57 7.57 0 1 0 227.63 92c6.35 7.69 13.25 12.43 20.57 14.15v24.46c-8.85-1.2-17.25-5.34-25.43-12.45a7.57 7.57 0 1 0-9.93 11.44q16.69 14.5 35.36 16.29v16.35a24.86 24.86 0 0 0-7.78 6.06c-24.91 28-27.31 49.34-24.94 62.29a40.53 40.53 0 0 0 3.19 9.9c-23.1-10.13-43.17-30.21-48.91-61.42-5.56-30.2 1-81 63.53-151.35 7.44-8.36 15-12.6 22.49-12.6 7.48 0 15 4.24 22.46 12.6a354.29 354.29 0 0 1 36.88 48.78A7.57 7.57 0 1 0 328 68.58a369.12 369.12 0 0 0-38.45-50.91C279.3 6.12 267.62 0 255.8 0 244 0 232.27 6.11 222 17.67c-61.37 69-71.85 121.69-68.31 155.77-32.27 3.38-68.29 22.1-104.79 54.56-9.5 8.44-14.53 18.1-14.53 27.93s5 19.5 14.52 28c36.53 32.48 72.56 51.16 104.8 54.46-1.91 18.09.55 37.52 7.34 57.89a7.57 7.57 0 0 0 14.36-4.78c-7-21.12-8.92-40.89-5.6-58.76 5.82-31.2 26-51.25 49.13-61.34a40.21 40.21 0 0 0-3.21 10c-2.35 13 .09 34.28 25 62.28a24.9 24.9 0 0 0 7.47 5.93v16.49q-18.63 1.79-35.36 16.29a7.57 7.57 0 0 0 9.93 11.43c8.18-7.1 16.59-11.25 25.43-12.45v24.46c-7.32 1.72-14.23 6.46-20.57 14.16a7.57 7.57 0 1 0 11.69 9.63 29.54 29.54 0 0 1 8.88-7.75v28.3a7.57 7.57 0 1 0 15.14 0v-27.3a47.71 47.71 0 0 1 9.64 7.39 7.57 7.57 0 0 0 10.48-10.93c-6.9-6.61-13.55-10.87-20.12-12.89v-24.35c8.23 1.82 16.88 5.89 26.11 12.25a7.58 7.58 0 0 0 8.57-12.48q-18-12.36-34.7-15.18v-16.54a24.18 24.18 0 0 0 8.63-6.46c25-28 27.34-49.35 24.94-62.28a40.1 40.1 0 0 0-3.05-9.65c22.78 10.21 42.48 30.15 48.12 61 5.54 30.21-1 81-63.73 151.53-7.42 8.36-15 12.59-22.46 12.6-7.48 0-15.05-4.24-22.49-12.6-19.25-21.63-34.51-43.06-45.35-63.67a7.57 7.57 0 0 0-13.4 7.05c11.41 21.7 27.37 44.14 47.44 66.69 10.29 11.56 22 17.67 33.8 17.67 11.82 0 23.5-6.12 33.77-17.67 61.46-69.1 72-121.81 68.51-155.9 32.33-3.25 68.43-21.93 105-54.49 9.5-8.45 14.52-18.12 14.52-27.94s-5-19.49-14.52-27.94ZM192 269.69a96.18 96.18 0 0 0-35.66 53.75c-29.28-2.6-62.8-20.07-97.4-50.83-6.25-5.61-9.43-11.19-9.43-16.61s3.18-11 9.45-16.61c34.57-30.76 68.07-48.27 97.36-51a96 96 0 0 0 35.6 53.87 103.41 103.41 0 0 0 9.1 6.13h-36.17c-2.35-9.2-8.15-18.57-17.56-28.37a7.57 7.57 0 0 0-10.92 10.49q9.1 9.5 12.52 17.88h-29.57c-1.81-5.19-5.26-10.42-10.43-15.81A7.57 7.57 0 1 0 98 243.06a43.29 43.29 0 0 1 4.41 5.33H82.86a7.57 7.57 0 1 0 0 15.14h20.28a26.58 26.58 0 0 1-4.52 4.6 7.57 7.57 0 0 0 9.62 11.7c6.1-5 10-10.48 11.66-16.3h30.18c-1.7 5.77-6 11.46-13.06 17.27a7.57 7.57 0 1 0 9.62 11.69c10.88-8.95 17.23-18.68 18.94-29h35.6a99 99 0 0 0-9.18 6.2Zm59.72-91.31c1.6-1.8 3.18-2.83 4.32-2.83s2.71 1 4.31 2.83c16.28 18.31 23.89 35.89 21.42 49.5-2.55 14.08-15.05 20.51-25.59 20.54h-.51c-10.47-.18-22.74-6.63-25.31-20.54-2.5-13.61 5.09-31.19 21.36-49.49Zm8.91 155.25c-1.59 1.8-3.16 2.83-4.29 2.83s-2.71-1-4.31-2.85c-16.3-18.3-23.91-35.89-21.44-49.51 2.57-14 15.06-20.49 25.59-20.54h1.2c10.33.46 22.13 6.94 24.62 20.57s-5 31.18-21.35 49.5Zm192.39-61c-34.66 30.83-68.24 48.3-97.6 50.85A95.82 95.82 0 0 0 320 269.69a100.15 100.15 0 0 0-9.12-6.13h35.59c1.71 10.28 8.06 20 18.94 29a7.57 7.57 0 1 0 9.59-11.73c-7.06-5.81-11.37-11.5-13.07-17.27h30.17c1.65 5.81 5.55 11.27 11.64 16.29a7.57 7.57 0 1 0 9.63-11.68 27.35 27.35 0 0 1-4.52-4.61h20.3a7.58 7.58 0 1 0 0-15.15h-19.54a43.58 43.58 0 0 1 4.39-5.29 7.57 7.57 0 0 0-10.92-10.49c-5.08 5.29-8.55 10.57-10.38 15.78h-29.58c2.27-5.56 6.44-11.53 12.51-17.84a7.57 7.57 0 0 0-10.92-10.49c-9.41 9.79-15.21 19.15-17.56 28.34h-36.27a102.72 102.72 0 0 0 9.13-6.16 95.7 95.7 0 0 0 35.46-53.86c29.35 2.64 62.92 20.15 97.57 51 6.27 5.58 9.45 11.18 9.45 16.63s-3.18 11.05-9.45 16.63Z"/>
    </symbol>
    <symbol id="item-2128">
      <title>rosemary</title>
<path fill="#41c47d" d="M158.27 334.08a176.69 176.69 0 0 1-1.12-26.08l.16-4.82a194.12 194.12 0 0 0-12.58-75.27l-36-94.78c-4.2-11-20.69-7.07-19.41 4.67l11 100.8a194.11 194.11 0 0 0 23 72.76l2.33 4.22a176.82 176.82 0 0 1 15.87 39.26Z"/>
  <path fill="#3cb372" d="m141.51 354.79 16.76-20.71a176.69 176.69 0 0 1-1.12-26.08l.16-4.82a194.15 194.15 0 0 0-12.58-75.27l-22.68-59.62-3.65 28.52a211.7 211.7 0 0 0 5.89 83.44l1.28 4.64a158.4 158.4 0 0 1 5.66 41.75 177.39 177.39 0 0 1 10.28 28.2Z"/>
  <path fill="#41c47d" d="M251.86 253.25v-8.74a176.69 176.69 0 0 1 6.33-46.86l1.28-4.65a194 194 0 0 0 5.37-76.13L252 16.28c-1.5-11.71-18.46-11.71-20 0l-12.88 100.59A194 194 0 0 0 224.5 193l1.28 4.65a177.09 177.09 0 0 1 6.32 46.86v8.74a9.88 9.88 0 1 0 19.76 0Z"/>
  <path fill="#3cb372" d="M251.86 253.25v-8.74a176.69 176.69 0 0 1 6.33-46.86l1.28-4.65a194 194 0 0 0 5.37-76.13l-.72-5.64-4.59 7.89a186.46 186.46 0 0 0-23.86 69.78l-.55 4.16a135.16 135.16 0 0 1-5.27 23.44 176.17 176.17 0 0 1 2.25 28v8.74a9.88 9.88 0 1 0 19.76 0Z"/>
  <path fill="#41c47d" d="M226.66 263.88h8.73a176.7 176.7 0 0 1 46.87 6.32l4.65 1.28a194.22 194.22 0 0 0 76.09 5.38L463.62 264c11.72-1.5 11.72-18.47 0-20L363 231.13a194.22 194.22 0 0 0-76.13 5.38l-4.65 1.28a176.71 176.71 0 0 1-46.87 6.33h-8.73a9.88 9.88 0 1 0 0 19.76Z"/>
  <path fill="#3cb372" d="m405 236.51-42-5.37a194 194 0 0 0-76.13 5.37l-4.65 1.28a176.71 176.71 0 0 1-46.87 6.33h-8.73a9.88 9.88 0 1 0 0 19.76h8.73a176.4 176.4 0 0 1 33.7 3.26 157.51 157.51 0 0 1 25.56-2.49l4.82-.07a211.59 211.59 0 0 0 81.75-17.69Z"/>
  <path fill="#41c47d" d="m376.67 370.88-100.08-36.3a203.93 203.93 0 0 0-79.23-12l-5.05.24a183.05 183.05 0 0 1-22.59-.32l-19.4 19.4a185.48 185.48 0 0 1 34.54 14.1l4.47 2.38a203.77 203.77 0 0 0 76.75 23l106 9.91c12.34 1.16 16.24-16.22 4.59-20.45Z"/>
  <path fill="#3cb372" d="m292.46 366.49 63.4-3.15-79.27-28.76a203.72 203.72 0 0 0-79.22-12l-5.06.24a185 185 0 0 1-22.59-.32l-19.39 19.4c.91.27 1.81.56 2.72.84l10.79.84a157.83 157.83 0 0 1 41.36 8.9l4.54 1.63a211.54 211.54 0 0 0 82.72 12.36Z"/>
  <path fill="#41c47d" d="M275.89 487.14 199 427.67a186 186 0 0 0-65.55-32.51L129 394a170 170 0 0 1-19.55-6.57l-22.31 11.42a169.07 169.07 0 0 1 26.09 21.91l3.23 3.31a186 186 0 0 0 60.33 41.4l89.41 38.17c10.41 4.45 18.64-9.58 9.69-16.5Z"/>
  <path fill="#3cb372" d="M242.21 461.09 199 427.67a186 186 0 0 0-65.55-32.51L129 394a170 170 0 0 1-19.55-6.57l-22.31 11.42A168.2 168.2 0 0 1 109.45 417a142.41 142.41 0 0 1 20.33 10.18l3.77 2.28a194.74 194.74 0 0 0 72.45 26.2Z"/>
  <path fill="#50e28f" d="m394.37 323-99.29-20.65a194.08 194.08 0 0 0-76.31-.55l-4.74.92a176.52 176.52 0 0 1-31.09 3.16l-19.09 19.09 1.44.11a176.91 176.91 0 0 1 46.23 9.92l4.53 1.64a194.15 194.15 0 0 0 75.49 11.26l101.28-5c11.79-.59 13.11-17.5 1.55-19.9ZM305.29 433.45l-85.16-36.37a177.22 177.22 0 0 0-68.22-14.25h-4.4A161.93 161.93 0 0 1 119.1 380l-20.53 13.67 1.26.36a161.25 161.25 0 0 1 39.6 17.24l3.77 2.28a177.12 177.12 0 0 0 65.54 23.69L300.31 451c10.67 1.6 14.89-13.3 5-17.54Z"/>
  <path fill="#50e28f" d="M169.6 335.51v-8.74a176.64 176.64 0 0 1 6.33-46.86l1.28-4.65a194 194 0 0 0 5.37-76.13L169.7 98.54c-1.5-11.71-18.46-11.71-20 0l-12.84 100.59a194.24 194.24 0 0 0 5.38 76.13l1.28 4.65a176.63 176.63 0 0 1 6.32 46.86v8.74a9.88 9.88 0 0 0 19.76 0ZM97.92 384.41a147.39 147.39 0 0 1-2.18-30.33l.13-4a161.46 161.46 0 0 0-10.49-62.63l-30-78.86c-3.49-9.19-17.21-5.88-16.15 3.89l9.18 83.88a161.52 161.52 0 0 0 19.19 60.53l1.94 3.52a147.26 147.26 0 0 1 14.25 36.68l.29 1.19ZM239.22 255.52l8.39-2.44a176.3 176.3 0 0 1 46.76-7l4.82-.08a193.94 193.94 0 0 0 74.59-16.14l93-40.51c10.82-4.72 6.07-21-5.59-19.16L361 185.93a194.11 194.11 0 0 0-71.58 26.46l-4.11 2.53a176.43 176.43 0 0 1-43.22 19.19l-8.39 2.44a9.88 9.88 0 0 0 5.53 19Z"/>
  <path fill="#50e28f" d="m255.64 248.92 3-7a154 154 0 0 1 21-35.43l2.6-3.3A168.85 168.85 0 0 0 312.27 144L336 59c2.77-9.9-10.83-15.65-16-6.77l-44.42 76.28a168.93 168.93 0 0 0-21.49 62.85l-.55 4.16a153.69 153.69 0 0 1-10.82 39.72l-3 7a8.6 8.6 0 0 0 15.84 6.7Z"/>
  <path fill="#ffbe87" d="m69.15 426.4-6.61-6.61a13.9 13.9 0 0 1 0-19.66L339.1 123.58a18.57 18.57 0 0 1 26.26 26.26L88.81 426.4a13.9 13.9 0 0 1-19.66 0Z"/>
  <path fill="#ffb06b" d="m72.67 410.26 276.56-276.55a18.55 18.55 0 0 1 20.18-4.05 18.3 18.3 0 0 0-4.05-6.08 18.55 18.55 0 0 0-26.26 0L62.54 400.13a13.9 13.9 0 0 0 0 19.66l6.61 6.61a13.81 13.81 0 0 0 1.93 1.6 13.9 13.9 0 0 1 1.59-17.73Z"/>
  <path d="m464.58 236.58-67.64-8.66 72.8-31.73a17.56 17.56 0 0 0-9.74-33.45l-100.18 15.78q-7.9 1.24-15.63 3.1l8.08-8.08a7.5 7.5 0 1 0-10.6-10.61L83.5 421.09a6.41 6.41 0 0 1-9 0l-6.61-6.61a6.41 6.41 0 0 1 0-9.05L344.4 128.88a11.07 11.07 0 1 1 15.66 15.66 7.5 7.5 0 0 0 10.61 10.61 26.08 26.08 0 0 0-36.88-36.88l-9.08 9.08L343.26 61a16.26 16.26 0 0 0-29.71-12.56l-40.94 70.31c-.11-1-.21-1.89-.33-2.83L259.4 15.33a17.56 17.56 0 0 0-34.84 0l-12.88 100.59a200.41 200.41 0 0 0 5.59 79.08l1.27 4.65a168.92 168.92 0 0 1 5.26 28.63l-36.33 36.32a200 200 0 0 0 2.53-66.42L177.14 97.59a17.56 17.56 0 0 0-34.84 0l-12.88 100.59a200.41 200.41 0 0 0 5.58 79.07l1.28 4.65a169.05 169.05 0 0 1 5.24 28.63l-6.52 6.58q-1.34-2.62-2.76-5.2l-2.33-4.22a185.62 185.62 0 0 1-22.14-69.95l-11-100.81a2.57 2.57 0 0 1 5-1.19l10.13 26.65a7.5 7.5 0 0 0 14-5.33l-10.13-26.65a17.57 17.57 0 0 0-33.88 8.15l11 100.81a200.5 200.5 0 0 0 23.93 75.57l2.33 4.22q2.48 4.5 4.67 9.16l-20.42 20.35a168.23 168.23 0 0 0-11-63.9l-30-78.86a15.55 15.55 0 0 0-18.56-9.79 15.55 15.55 0 0 0-12.06 17.16l9.18 83.88A168.08 168.08 0 0 0 61 360.51l2 3.49a139 139 0 0 1 8 17.11l-13.76 13.72a21.39 21.39 0 0 0 0 30.26l6.6 6.61a21.43 21.43 0 0 0 30.27 0l23.37-23.36a152.73 152.73 0 0 1 18.06 9.34l3.77 2.28a183.8 183.8 0 0 0 68.32 24.7l1.33.2 62.34 48.21a2.15 2.15 0 0 1-2.16 3.67l-89.41-38.17a178.17 178.17 0 0 1-49.52-31.66A7.5 7.5 0 1 0 120.16 438a193.25 193.25 0 0 0 53.68 34.33l89.41 38.17a17.7 17.7 0 0 0 7 1.46 17.22 17.22 0 0 0 10.24-30.8l-41.09-31.77 59.82 9a17.55 17.55 0 0 0 2.68.2 16.7 16.7 0 0 0 6.35-32.05l-85.15-36.38a183.85 183.85 0 0 0-71.1-14.83h-1.48l18.57-18.57c4.17 1.82 8.27 3.78 12.28 5.92l4.47 2.38a210.31 210.31 0 0 0 79.57 23.84l106 9.91c.62.06 1.24.09 1.85.09a18.07 18.07 0 0 0 6-35.06l-31-11.24 45-2.24a17.56 17.56 0 0 0 2.7-34.74L296.61 295a200.35 200.35 0 0 0-62.71-3.05l19.55-19.55a169.05 169.05 0 0 1 26.82 5.06l4.65 1.28a200.58 200.58 0 0 0 53.33 7.26 202.57 202.57 0 0 0 25.75-1.7l18.05-2.3a7.5 7.5 0 1 0-1.91-14.88l-18.05 2.31a185.8 185.8 0 0 1-73.19-5.17l-4.65-1.26q-8.67-2.39-17.52-3.89l3.39-3.39a169.74 169.74 0 0 1 24.36-2.16l4.82-.07a200.6 200.6 0 0 0 70.52-13.89l92.85 11.89a2.56 2.56 0 0 1 0 5.08l-55.8 7.14a7.5 7.5 0 1 0 1.9 14.88l55.8-7.14a17.56 17.56 0 0 0 0-34.84ZM326.52 56a1 1 0 0 1 .92-.69 1.7 1.7 0 0 1 .65.16c1 .43.85 1 .73 1.5l-23.77 85c-.68 2.45-1.43 4.87-2.22 7.27l-41 41a160.54 160.54 0 0 1 20.23-57.93ZM233 195.66l-1.27-4.66a185.8 185.8 0 0 1-5.17-73.19l12.88-100.57a2.56 2.56 0 0 1 5.08 0l12.88 100.58a186.3 186.3 0 0 1 1.48 27.47 175.91 175.91 0 0 0-12.19 45.07l-.55 4.16c-.62 4.69-1.47 9.35-2.54 13.95l-6.43 6.42a181.45 181.45 0 0 0-4.17-19.23Zm-82.26 82.26-1.28-4.65a185.8 185.8 0 0 1-5.17-73.19L157.18 99.5a2.57 2.57 0 0 1 5.09 0l12.88 100.58a185.8 185.8 0 0 1-5.15 73.19l-1.28 4.65c-.67 2.41-1.26 4.84-1.83 7.27l-11.94 11.95a183.32 183.32 0 0 0-4.18-19.22Zm-74.65 78.85-2-3.51a153.44 153.44 0 0 1-18.29-57.73l-9.18-83.88c-.05-.44-.08-.77.66-.94a1.61 1.61 0 0 1 .39-.06c.41 0 .51.26.64.59l30 78.87a153.13 153.13 0 0 1 10 59.72l-.13 4q-.15 5 0 10l-5.84 5.85q-2.78-6.61-6.25-12.91Zm71.36 33.53h4.4a168.92 168.92 0 0 1 65.33 13.7l85.16 36.38a1.69 1.69 0 0 1-.91 3.23l-91.58-13.75a169.14 169.14 0 0 1-62.77-22.69l-3.76-2.29a166.54 166.54 0 0 0-14.54-7.82l7.25-7.24c3.81.29 7.62.48 11.42.51Zm226.66-12.37a3.07 3.07 0 0 1-1.33 5.94l-106-9.92a195.25 195.25 0 0 1-73.93-22.15l-4.47-2.38c-2.63-1.39-5.3-2.72-8-4l9.08-9.09a165.48 165.48 0 0 1 19.5 5.71l4.54 1.63a200.36 200.36 0 0 0 68.25 12c3.38 0 6.76-.09 10.15-.25l17.62-.88Zm-153.92-68.8a185.69 185.69 0 0 1 73.37.52l99.28 20.65a2.56 2.56 0 0 1-.4 5.07l-101.28 5a185.52 185.52 0 0 1-72.56-10.83l-4.54-1.64q-6.06-2.14-12.26-3.9l14-14Zm78.89-70.67-4.83.08c-2.42 0-4.84.14-7.25.28l34.09-34.09a185.77 185.77 0 0 1 41.07-11.4l100.17-15.78a3.86 3.86 0 0 1 .58 0 2.25 2.25 0 0 1 2.28 1.86 2.32 2.32 0 0 1-1.44 3.07l-93 40.51-3 1.24-.44-.06-.81.58a185.26 185.26 0 0 1-67.42 13.71Z"/>
    </symbol>
    <symbol id="item-2129">
      <title>brussel sprouts</title>
<path fill="#a2e62e" d="M291.91 128.13c9.8 3.16 19.57 11.52 22.83 13.38 9.69 5.54 21.95-10.95 25-57.8a102.18 102.18 0 0 0-106.21-38.13 107.45 107.45 0 0 1 58.38 82.55Z"/>
  <path fill="#bbec6c" d="M214.83 171.8A214.09 214.09 0 0 0 252.6 202c7.94-13.61 14.18-29.44 15.16-46.45 1.6-27.76 12.9-31 24.15-27.38a107.51 107.51 0 0 0-70.34-87.69 4.91 4.91 0 0 0-3.34 0 107.75 107.75 0 0 0-55.18 44.72c8 29.79 25.54 60.4 51.78 86.64Z"/>
  <path fill="#a2e62e" d="M219.36 242.74c8.15-7.53 22.31-22 33.24-40.78a213.72 213.72 0 0 1-37.77-30.16c-26.77-26.76-44.49-58.08-52.25-88.43a5 5 0 0 0-9.11-1.37 109.7 109.7 0 0 0-15.63 57.82c.54 49.68 34.46 91.77 80.24 104.8a4.89 4.89 0 0 1 1.28-1.89Z"/>
  <path fill="#97d729" d="M219.36 242.74A197.4 197.4 0 0 0 234 227.66c-45.5-13.22-79.13-55.17-79.66-104.66a109.83 109.83 0 0 1 7.5-41.28 5 5 0 0 0-8.37.26 109.7 109.7 0 0 0-15.63 57.82c.54 49.68 34.45 91.77 80.24 104.8a4.89 4.89 0 0 1 1.28-1.89Z"/>
  <path fill="#97d729" d="M221.46 251.23a5 5 0 0 1-2.1-8.49c14.07-13 46.07-46.78 48.4-87.23 3-52 40-18 47-14 9.7 5.55 22-11 25-58s76.61 57.44-1 137.92c-42.65 44.23-96.54 35.4-117.26 29.76Z"/>
  <path fill="#a2e62e" d="M342.76 73.57c13.14 28.81 18.4 82.87-26.13 129.05-30 31.07-65.46 36-91.12 34.17-2.28 2.3-4.36 4.29-6.15 6a5 5 0 0 0 2.1 8.49c20.72 5.64 74.61 14.47 117.26-29.76 69.45-72.07 17.81-163.23 4.04-147.95Z"/>
  <path d="M344.12 226.67a137.6 137.6 0 0 0 26.26-38 7.5 7.5 0 0 0-13.62-6.26 122.76 122.76 0 0 1-23.44 33.84c-37.1 38.48-83.42 34-105.53 28.83l.64-.63c2 .09 4.11.15 6.26.15 25.6 0 58.82-7.21 87.34-36.78 36.12-37.46 42-81 35-114.4 1 2 2 4.24 2.94 6.74a106.26 106.26 0 0 1 5.81 50.8 7.5 7.5 0 0 0 14.88 1.89c5.33-41.9-11.47-75.47-24.51-85-6.84-5-12.3-3.65-14.94-2.41a12.78 12.78 0 0 0-4.36 3.37 109.35 109.35 0 0 0-102.4-31.12c-3.36-1.59-6.8-3-10.35-4.31a12.49 12.49 0 0 0-8.4 0A114.64 114.64 0 0 0 162.35 73a12.6 12.6 0 0 0-2.82-.75 12.43 12.43 0 0 0-12.53 5.9 118 118 0 0 0 63.87 172.13 12.47 12.47 0 0 0 8.58 8.18 143.84 143.84 0 0 0 37.46 5c26.1 0 58.9-7.48 87.17-36.8Zm.15-117a108.34 108.34 0 0 1-14.07 62.6 35.2 35.2 0 0 0-8.37-13.33 7.5 7.5 0 1 0-10.61 10.61 20.51 20.51 0 0 1 3.7 23.91 135.37 135.37 0 0 1-3.69 4q-3.48 3.6-7.06 6.71a35.23 35.23 0 0 0-10.12-20.65 7.5 7.5 0 0 0-10.6 10.61 20.44 20.44 0 0 1 4.74 21.53 103.88 103.88 0 0 1-45.77 13.71 182.6 182.6 0 0 0 11.79-15.76c12.87-19.38 20-38.77 21-57.63.95-16.36 5.24-20.13 7-21 6.16-2.94 19.37 6.53 24.34 10.1 1.86 1.33 3.2 2.3 4.39 3a14.51 14.51 0 0 0 14.53.15c10.07-5.42 15.65-21.24 18.72-38.55Zm-86.39-59.52A94.41 94.41 0 0 1 332 86.09c-3 40.52-12.34 48.06-13.61 48.88a47.71 47.71 0 0 1-3-2.11 114.82 114.82 0 0 0-13-8.37 33.38 33.38 0 0 1 9.69-21.35 7.5 7.5 0 0 0-10.6-10.6 48 48 0 0 0-7.94 10.46 115.31 115.31 0 0 0-6.94-15.61 33.43 33.43 0 0 1 8.45-14.21 7.5 7.5 0 0 0-10.6-10.61 48.58 48.58 0 0 0-7.52 9.72A115.27 115.27 0 0 0 255 50.2c1 0 1.93-.05 2.9-.05Zm-38-2.34a100.15 100.15 0 0 1 62.85 71.7 20.36 20.36 0 0 0-6.92 1.91c-9.42 4.49-14.51 15.5-15.55 33.65-.75 12.9-4.82 25.15-10.37 36.17a209.21 209.21 0 0 1-29.17-24.14 33.48 33.48 0 0 1 4.37-42 7.5 7.5 0 1 0-10.61-10.61 48.16 48.16 0 0 0-14 29.37 199.33 199.33 0 0 1-12.84-19.43 33.46 33.46 0 0 1 8.41-33.29 7.5 7.5 0 0 0-10.55-10.58A48.34 48.34 0 0 0 174.7 97q-1.95-5.25-3.49-10.52a99.78 99.78 0 0 1 48.69-38.67ZM215.61 236c-40.29-13.6-69.78-51.74-70.27-96.23A102.6 102.6 0 0 1 157 91.15c6.68 22.59 18.51 45 34.29 65.24a41.15 41.15 0 0 0-27.71 12.1 7.5 7.5 0 1 0 10.61 10.61 26.38 26.38 0 0 1 37.35 0 9.45 9.45 0 0 0 .76.66 222.45 222.45 0 0 0 30.14 24.47A180.9 180.9 0 0 1 215.61 236Z"/>
  <path fill="#a2e62e" d="M398.47 290.56a106 106 0 0 1 22.81 53.57l.08.63.61.2c7.11 2.29 14.15 7.34 18.81 10.69 1.64 1.17 2.94 2.1 3.82 2.61a8.34 8.34 0 0 0 4.16 1.16c8.84 0 19.27-15.44 22.22-58.58a102.14 102.14 0 0 0-108.58-39 106.67 106.67 0 0 1 36.06 28.73Z"/>
  <path fill="#bbec6c" d="M345.2 387.68a214.18 214.18 0 0 0 37.8 30.16c7.94-13.61 14.18-29.44 15.16-46.46 1.6-27.76 12.9-31 24.14-27.37a107.49 107.49 0 0 0-70.33-87.7 5 5 0 0 0-3.34 0A107.72 107.72 0 0 0 293.42 301c8 29.78 25.54 60.4 51.78 86.64Z"/>
  <path fill="#a2e62e" d="M349.72 458.61c8.16-7.52 22.32-22 33.25-40.77a214.18 214.18 0 0 1-37.77-30.16c-26.77-26.77-44.49-58.09-52.25-88.43a5 5 0 0 0-9.11-1.36 109.65 109.65 0 0 0-15.63 57.82c.54 49.67 34.45 91.76 80.24 104.79a5 5 0 0 1 1.27-1.89Z"/>
  <path fill="#97d729" d="M349.72 458.61a193.17 193.17 0 0 0 14.61-15.06C319 430.22 285.57 388.36 285 339a109.93 109.93 0 0 1 7.4-41 5 5 0 0 0-8.6-.12 109.65 109.65 0 0 0-15.63 57.82c.54 49.67 34.45 91.76 80.24 104.79a5 5 0 0 1 1.27-1.89Z"/>
  <path fill="#97d729" d="M351.83 467.1a5 5 0 0 1-2.11-8.49c14.08-13 46.08-46.78 48.41-87.23 3-52 40-18 47-14 9.71 5.54 22-11 25-58s76.61 57.44-1 137.92c-42.65 44.23-96.54 35.41-117.26 29.76Z"/>
  <path fill="#a2e62e" d="M473.13 289.44c13.13 28.82 18.4 82.87-26.13 129.06-30 31.07-65.46 36-91.12 34.16-2.28 2.3-4.36 4.3-6.16 5.95a5 5 0 0 0 2.11 8.49c20.72 5.65 74.61 14.47 117.26-29.76 69.44-72 17.81-163.18 4-147.9Z"/>
  <path d="M498.72 298.62c-7.55-13.36-16.55-19.95-24.7-18.08a12.32 12.32 0 0 0-6.8 4.2 109.29 109.29 0 0 0-102.38-31.18q-5.07-2.4-10.37-4.31a12.49 12.49 0 0 0-8.4 0 114.66 114.66 0 0 0-53.35 39.62 12.1 12.1 0 0 0-2.82-.76 12.41 12.41 0 0 0-12.49 5.89 118 118 0 0 0 63.87 172.13 12.49 12.49 0 0 0 8.58 8.18 144.71 144.71 0 0 0 37.46 5c26.1 0 58.9-7.48 87.17-36.8 52.65-54.61 38.88-118 24.23-143.93Zm-24.08 26.88a108.39 108.39 0 0 1-14.07 62.61 35.28 35.28 0 0 0-8.37-13.34 7.5 7.5 0 0 0-10.61 10.61 20.51 20.51 0 0 1 3.68 23.95 113.53 113.53 0 0 1-10.76 10.73 35.27 35.27 0 0 0-10.09-20.66 7.5 7.5 0 1 0-10.61 10.6 20.5 20.5 0 0 1 4.73 21.54 104.19 104.19 0 0 1-45.8 13.72c14.8-17.78 31.17-43.81 32.88-73.41.94-16.36 5.23-20.12 7-21 6.16-2.95 19.36 6.53 24.33 10.09a60.57 60.57 0 0 0 4.39 3 14.53 14.53 0 0 0 14.54.16c10.07-5.43 15.65-21.25 18.72-38.56Zm-124.37-61.81a100 100 0 0 1 42.31 29.95 7.5 7.5 0 1 0 11.54-9.59 115.43 115.43 0 0 0-18.75-18c1 0 1.91-.06 2.88-.06a94.42 94.42 0 0 1 74.14 36c-3 40.52-12.34 48-13.62 48.88a54.5 54.5 0 0 1-3-2.11c-4.2-3-10.12-7.26-16.69-10.17a113.93 113.93 0 0 0-6-22.2 7.5 7.5 0 1 0-14 5.37 99.51 99.51 0 0 1 4.12 13.64 20.8 20.8 0 0 0-7 1.91c-9.41 4.5-14.5 15.51-15.55 33.66-.74 12.9-4.81 25.15-10.36 36.17A208.71 208.71 0 0 1 351.11 383a33.46 33.46 0 0 1 4.37-42 7.5 7.5 0 0 0-10.61-10.61 48.14 48.14 0 0 0-14 29.37 201 201 0 0 1-12.78-19.33 33.5 33.5 0 0 1 8.35-33.4 7.5 7.5 0 0 0-10.61-10.6 48.18 48.18 0 0 0-10.79 16.47q-1.95-5.28-3.5-10.57a99.73 99.73 0 0 1 48.69-38.65ZM346 451.85c-40.3-13.59-69.78-51.73-70.27-96.22A102.66 102.66 0 0 1 287.31 307c6.69 22.61 18.54 45 34.32 65.28a41.22 41.22 0 0 0-27.73 12.07A7.52 7.52 0 0 0 304.51 395a26.45 26.45 0 0 1 37.35 0 7.8 7.8 0 0 0 .76.66 223.3 223.3 0 0 0 30.14 24.48A181.2 181.2 0 0 1 346 451.85Zm117.71-19.71c-37.1 38.47-83.43 34-105.54 28.82l.64-.63q3 .15 6.27.15c25.59 0 58.82-7.21 87.34-36.78 36.12-37.46 42-81 35-114.41a87.53 87.53 0 0 1 5.77 15.36c5 18 12.1 64.35-29.49 107.49Z"/>
  <path fill="#a2e62e" d="M161.57 344c9.8 3.15 19.57 11.52 22.83 13.38 9.69 5.54 21.95-11 25-57.81a102.18 102.18 0 0 0-106.18-38.13A107.48 107.48 0 0 1 161.57 344Z"/>
  <path fill="#bbec6c" d="M84.49 387.68a214.54 214.54 0 0 0 37.77 30.16c7.94-13.61 14.18-29.44 15.16-46.46 1.6-27.76 12.9-31 24.15-27.37a107.51 107.51 0 0 0-70.34-87.7 5 5 0 0 0-3.34 0A107.66 107.66 0 0 0 32.72 301c8 29.78 25.53 60.4 51.77 86.64Z"/>
  <path fill="#a2e62e" d="M89 458.61c8.15-7.52 22.31-22 33.24-40.77a214.54 214.54 0 0 1-37.77-30.16C57.73 360.91 40 329.59 32.24 299.25a5 5 0 0 0-9.11-1.36 109.64 109.64 0 0 0-15.62 57.82C8.05 405.38 42 447.47 87.74 460.5a5 5 0 0 1 1.26-1.89Z"/>
  <path fill="#97d729" d="M89 458.61a195 195 0 0 0 14.61-15.06C58.32 430.22 24.87 388.36 24.34 339a109.88 109.88 0 0 1 7.4-41 5 5 0 0 0-8.61-.13 109.64 109.64 0 0 0-15.62 57.84C8.05 405.38 42 447.47 87.74 460.5a5 5 0 0 1 1.26-1.89Z"/>
  <path fill="#97d729" d="M91.12 467.1a5 5 0 0 1-2.1-8.49c14.07-13 46.07-46.78 48.4-87.23 3-52 40-18 47-14 9.7 5.54 22-11 25-58s76.61 57.44-1 137.92c-42.65 44.23-96.54 35.41-117.26 29.76Z"/>
  <path fill="#a2e62e" d="M212.42 289.44c13.14 28.82 18.41 82.87-26.13 129.06-30 31.07-65.46 36-91.12 34.16a118.2 118.2 0 0 1-6.17 5.95 5 5 0 0 0 2.1 8.49c20.73 5.65 74.61 14.47 117.26-29.76 69.45-72 17.82-163.18 4-147.9Z"/>
  <path d="M213.31 280.54a12.27 12.27 0 0 0-6.79 4.2 109.33 109.33 0 0 0-102.4-31.18c-3.36-1.59-6.81-3-10.36-4.31a12.49 12.49 0 0 0-8.4 0 118.16 118.16 0 0 0-12.42 5.3A7.51 7.51 0 0 0 79.63 268a99.45 99.45 0 0 1 9.93-4.29 100.12 100.12 0 0 1 62.85 71.69 20.59 20.59 0 0 0-6.92 1.91c-9.42 4.5-14.51 15.51-15.55 33.66-.75 12.9-4.81 25.15-10.37 36.17A209.87 209.87 0 0 1 90.4 383a33.48 33.48 0 0 1 4.37-42 7.5 7.5 0 0 0-10.6-10.6 48 48 0 0 0-14 29.37 199.29 199.29 0 0 1-12.79-19.33A33.53 33.53 0 0 1 65.77 307a7.5 7.5 0 0 0-10.6-10.61 48 48 0 0 0-10.79 16.48q-2-5.32-3.53-10.66a100.42 100.42 0 0 1 12.4-15.19 7.5 7.5 0 0 0-10.65-10.53A116.84 116.84 0 0 0 32 288.84a12.75 12.75 0 0 0-2.76-.73A12.44 12.44 0 0 0 16.7 294a118 118 0 0 0 63.87 172.16 12.51 12.51 0 0 0 8.58 8.18 144.71 144.71 0 0 0 37.46 5c26.1 0 58.9-7.48 87.17-36.8 52.66-54.61 38.88-118 24.24-143.93-7.55-13.36-16.56-19.95-24.71-18.08Zm-88.67-14.46c1 0 1.93-.06 2.9-.06a94.42 94.42 0 0 1 74.14 36c-3 40.51-12.33 48-13.61 48.88a47.71 47.71 0 0 1-3-2.11c-4.21-3-10.13-7.27-16.71-10.19a115.12 115.12 0 0 0-5-19.34 39.13 39.13 0 0 1 10-16.92 7.5 7.5 0 0 0-10.6-10.6 54.83 54.83 0 0 0-7.58 9.49 115.34 115.34 0 0 0-30.48-35.1Zm20.27 105.73c.94-16.36 5.24-20.12 7-21 6.16-2.95 19.37 6.53 24.33 10.09 1.87 1.34 3.21 2.31 4.4 3a14.51 14.51 0 0 0 14.53.16c10.08-5.43 15.66-21.28 18.73-38.61a108.34 108.34 0 0 1-14.06 62.63 35.37 35.37 0 0 0-8.39-13.31 7.5 7.5 0 0 0-10.61 10.61 20.45 20.45 0 0 1 3.71 23.9q-1.78 2-3.7 4a111.02 111.02 0 0 1-7.09 6.74 35.21 35.21 0 0 0-10.09-20.67 7.5 7.5 0 1 0-10.6 10.6 20.53 20.53 0 0 1 4.72 21.55A104 104 0 0 1 112 445.22c14.8-17.77 31.17-43.81 32.88-73.41Zm-59.64 80C45 438.26 15.49 400.12 15 355.63A102.55 102.55 0 0 1 26.61 307c6.69 22.61 18.53 45 34.32 65.28a41.23 41.23 0 0 0-27.74 12.07A7.52 7.52 0 1 0 43.8 395a26.44 26.44 0 0 1 37.35 0 7.8 7.8 0 0 0 .76.66 223.3 223.3 0 0 0 30.14 24.48 180.77 180.77 0 0 1-26.78 31.74ZM203 432.14c-37.1 38.47-83.43 34-105.54 28.82l.64-.63c2 .1 4.12.15 6.27.15 25.6 0 58.82-7.21 87.34-36.78 36.13-37.46 42-81 35-114.41a87.53 87.53 0 0 1 5.77 15.36c5 18 12.11 64.35-29.49 107.49Z"/>
    </symbol>
    <symbol id="item-2130">
      <title>kart</title>
<path fill="#2d2d30" d="M478.5 335.6h-19.76a26.08 26.08 0 0 1-26-26v-12.39a26.08 26.08 0 0 1 26-26h19.76a26.08 26.08 0 0 1 26 26v12.39a26.08 26.08 0 0 1-26 26Z"/>
  <path fill="#1d1d1f" d="M484.38 271.74a25.48 25.48 0 0 0-5.12-.53H458a25.32 25.32 0 0 0-25.24 25.24v13.91A25.32 25.32 0 0 0 458 335.6h21.28a24.78 24.78 0 0 0 5.12-.53Z"/>
  <path fill="#2d2d30" d="m219.13 223.93 58.66-22.2 7.83 20.7-58.66 22.2z"/>
  <path fill="#3e3d42" d="M295.42 241.68a11.77 11.77 0 0 1-15.13-6.83L266 197.22a11.77 11.77 0 0 1 6.83-15.13 11.77 11.77 0 0 1 15.17 6.82l14.24 37.64a11.78 11.78 0 0 1-6.82 15.13ZM448.5 331.43a11.1 11.1 0 0 1-11.07-11.06V133a11.1 11.1 0 0 1 11.07-11.07A11.1 11.1 0 0 1 459.56 133v187.37a11.1 11.1 0 0 1-11.06 11.06Z"/>
  <path fill="#2d2d30" d="m287.88 284.63 17.79-15.2a60.41 60.41 0 0 1 29.48-13.68l39.68-6.47A48.25 48.25 0 0 0 404 232.69L438.25 192a12.07 12.07 0 0 1 21.31 7.77V324.2H287.88Z"/>
  <path fill="#1d1d1f" d="M331.83 300.49a60.27 60.27 0 0 1 29.48-13.67l39.69-6.48a48.25 48.25 0 0 0 29.19-16.59l29.39-35v-29.03a12.07 12.07 0 0 0-21.33-7.72L404 232.69a48.25 48.25 0 0 1-29.19 16.59l-39.68 6.47a60.41 60.41 0 0 0-29.48 13.68l-17.79 15.2v39.57H314v-8.51Z"/>
  <path fill="#ff0c38" d="m226.17 227 19 10.73a30.86 30.86 0 0 1 14.89 20l7.7 33.66h-41.59V227Z"/>
  <path fill="#ff3f62" d="M41.3 331.43v-46.1A43 43 0 0 1 47 264l13.34-23.26A42.92 42.92 0 0 1 84 221.35l138.7-46.13a14.75 14.75 0 0 1 19.21 16.42l-11 66a50.92 50.92 0 0 0 1 21.59l14 52.17Z"/>
  <path fill="#ff0c38" d="M105.85 245.6 123 215.67a55.38 55.38 0 0 1 7-9.63l-46 15.31a42.92 42.92 0 0 0-23.69 19.37L47 264a43 43 0 0 0-5.68 21.35v46.1h57.21v-58.37a55.2 55.2 0 0 1 7.32-27.48Z"/>
  <path fill="#d1e7f8" d="M298.5 275.29h-74.88a20.06 20.06 0 0 0-20 20v27a20.06 20.06 0 0 0 20 20h74.88a20.06 20.06 0 0 0 20-20v-27a20.06 20.06 0 0 0-20-20Z"/>
  <path fill="#b9d8f4" d="M252.38 322.84V294.7a19.46 19.46 0 0 1 19.41-19.41H223a19.47 19.47 0 0 0-19.42 19.41v28.14A19.47 19.47 0 0 0 223 342.25h48.75a19.46 19.46 0 0 1-19.37-19.41Z"/>
  <path fill="#d1e7f8" d="m239.24 207.67-66.19 29.13c-8.59 3.78-6.93 16.44 2.34 17.87l54.9 8.5a51.32 51.32 0 0 1 .61-5.5Z"/>
  <path fill="#b9d8f4" d="m235.76 228.51 3.48-20.84-66.19 29.13c-8.59 3.78-6.93 16.44 2.34 17.87Z"/>
  <circle cx="153.05" cy="335.6" r="54.52" fill="#3e3d42"/>
  <path fill="#898890" d="M153.05 361a25.4 25.4 0 1 1 25.4-25.4 25.43 25.43 0 0 1-25.4 25.4Z"/>
  <path fill="#787680" d="M153.05 335.6a25.43 25.43 0 0 1 12.7-22 25.41 25.41 0 1 0 0 44 25.42 25.42 0 0 1-12.7-22Z"/>
  <circle cx="368.55" cy="335.6" r="54.52" fill="#3e3d42"/>
  <path fill="#898890" d="M368.55 361A25.4 25.4 0 1 1 394 335.6a25.44 25.44 0 0 1-25.45 25.4Z"/>
  <path fill="#787680" d="M368.55 335.6a25.42 25.42 0 0 1 12.71-22 25.41 25.41 0 1 0 0 44 25.4 25.4 0 0 1-12.71-22Z"/>
  <path fill="#57565c" d="M469.62 308.77h-19.95a44 44 0 0 0-29.58 11.14 76.68 76.68 0 0 1-103.07 0 44 44 0 0 0-29.58-11.14h-53.28a44 44 0 0 0-29.58 11.14 76.67 76.67 0 0 1-103.06 0 44 44 0 0 0-29.58-11.14h-47a17.44 17.44 0 0 0-17.18 20.44L11.05 348a17.43 17.43 0 0 0 17.18 14.43h441.39a14.75 14.75 0 0 0 14.76-14.75v-24.16a14.76 14.76 0 0 0-14.76-14.75Z"/>
  <path fill="#3e3d42" d="M86 326.72a24.14 24.14 0 0 1 2.17-15 45.51 45.51 0 0 0-16.26-3h-47a17.44 17.44 0 0 0-17.15 20.49L11.05 348a17.43 17.43 0 0 0 17.18 14.43h66.31a24.13 24.13 0 0 1-3.94-9.59Z"/>
  <path d="M335.14 263.26a8.48 8.48 0 0 0 1.22-.1l9.68-1.58a7.5 7.5 0 1 0-2.41-14.81l-9.63 1.58a7.5 7.5 0 0 0 1.19 14.91Z"/>
  <path d="M479.26 263.71h-12.2V133a18.57 18.57 0 1 0-37.13 0v57.2l-31.65 37.67a40.87 40.87 0 0 1-24.66 14l-9.91 1.62a7.5 7.5 0 1 0 2.42 14.8l9.9-1.61a55.83 55.83 0 0 0 33.73-19.17L444 196.78a4.57 4.57 0 0 1 8.07 2.94v101.55h-2.39a52.16 52.16 0 0 0-25.62 6.62 62 62 0 0 0-98.34-17.16 27 27 0 0 0-11.61-18.36 53.14 53.14 0 0 1 5.45-3.44 7.5 7.5 0 0 0-7.19-13.17 67.82 67.82 0 0 0-11.56 8l-4.75 4.07h-26L267.37 256a38.39 38.39 0 0 0-7.7-15.72l12.81-4.85s7.77 19.54 25.59 13.26c10-3.52 14.94-14.88 11.19-24.8L295 186.26a19.35 19.35 0 0 0-18-12.43 17.46 17.46 0 0 0-6.78 1.24c-17.83 7.56-10.87 25.63-10.87 25.63l-12.1 4.58 2.07-12.4a22.26 22.26 0 0 0-29-24.78L81.64 214.23A50.37 50.37 0 0 0 53.82 237l-13.34 23.25a50.48 50.48 0 0 0-6.68 25.08v15.94h-8.86A24.94 24.94 0 0 0 .38 330.51l3.28 18.77a24.9 24.9 0 0 0 24.57 20.64h73.16a62 62 0 0 0 103.32 0H316.9a62.29 62.29 0 0 0 51.66 27.7 61.61 61.61 0 0 0 51.66-27.7h49.4a22.28 22.28 0 0 0 22.26-22.25v-7.12A32.91 32.91 0 0 0 512 310.36v-13.91a32.78 32.78 0 0 0-32.74-32.74Zm-34.33-83.42V133a3.57 3.57 0 1 1 7.13 0v47.7a19.57 19.57 0 0 0-7.13-.41Zm-76.38 108.28a47 47 0 0 1 43.25 28.53 69.79 69.79 0 0 1-12.13 7.81 32.9 32.9 0 0 0-62.23 0 81.39 81.39 0 0 1-12.44-7.74s10.83-28.6 43.55-28.6Zm17.06 41.59a68.72 68.72 0 0 1-34.11 0 17.9 17.9 0 0 1 34.11 0Zm-174.49-23.64V294.7A11.93 11.93 0 0 1 223 282.79h76a11.92 11.92 0 0 1 12 11.91v12.09a52.39 52.39 0 0 0-23.56-5.52h-53.28a52.47 52.47 0 0 0-23.04 5.25Zm12.69-51.94-47.27-7.32a1.89 1.89 0 0 1-.47-3.6l53.49-23.54Zm13.93 13.21a43.33 43.33 0 0 1 .56-8.88l2.51-15.07s9.56 5.79 11.94 15.5l1.93 8.45Zm37.78-78.69a4.44 4.44 0 0 1 5.46 2.47l14.24 37.63a4.27 4.27 0 0 1-2.46 5.46c-.47.18-3.39 1.46-5.46-2.46l-14.24-37.64a4.5 4.5 0 0 1 2.46-5.46Zm-10.87 25.63 2.52 6.67-21.31 8.06-2.42-1.37.94-5.69ZM48.8 285.33a35.47 35.47 0 0 1 4.69-17.62l13.34-23.26a35.4 35.4 0 0 1 19.55-16l138.69-46.13a7.25 7.25 0 0 1 9.44 8.08l-2 12L170 229.93a16.89 16.89 0 0 0 4.22 32.15l42.17 6.53a27 27 0 0 0-20.06 22.56 62 62 0 0 0-90.14 3.76 7.5 7.5 0 0 0 11.32 9.84 47.06 47.06 0 0 1 35.51-16.2c31.45 0 43.08 28.66 43.08 28.66a69.74 69.74 0 0 1-12 7.68 32.89 32.89 0 0 0-62.22 0 69.58 69.58 0 0 1-15.39-10.56 51.29 51.29 0 0 0-34.61-13.08H48.8v-15.94Zm121.3 44.83a68.68 68.68 0 0 1-34.1 0 17.89 17.89 0 0 1 34.1 0Zm-17 52.46a47 47 0 0 1-32.11-12.7h64.19a47.2 47.2 0 0 1-32.13 12.7Zm215.5 0a47.16 47.16 0 0 1-32.08-12.7h64.24a46.68 46.68 0 0 1-32.21 12.7Zm108.33-34.95a7.26 7.26 0 0 1-7.26 7.25H28.23a9.92 9.92 0 0 1-9.79-8.22l-3.29-18.78a9.94 9.94 0 0 1 9.79-11.65h47a36.4 36.4 0 0 1 24.54 9.19 84.16 84.16 0 0 0 113.14 0 36.35 36.35 0 0 1 24.54-9.19h53.28a36.38 36.38 0 0 1 24.56 9.19 84.16 84.16 0 0 0 113.14 0 36.36 36.36 0 0 1 24.55-9.19h19.95a7.26 7.26 0 0 1 7.26 7.25v24.15ZM497 310.36a17.76 17.76 0 0 1-5.14 12.44 22.28 22.28 0 0 0-22.24-21.53h-2.56v-22.56h12.2A17.76 17.76 0 0 1 497 296.45v13.91Z"/>
    </symbol>
    <symbol id="item-2131">
      <title>race track</title>
<path fill="#655e67" d="m281.15 478.75-143.31 23.92a112 112 0 0 1-92.94-194L358.32 30a87.84 87.84 0 1 1 109.33 137.18l-58.6 41.69A107.54 107.54 0 0 0 369.57 331a113 113 0 0 1-88.42 147.76Z"/>
  <path fill="#544f56" d="M481.11 36a87.48 87.48 0 0 0-60.19-28.07 88.49 88.49 0 0 0-19.36 1.2 87.81 87.81 0 0 1 36.09 158.05l-58.6 41.69A107.55 107.55 0 0 0 339.56 331a113 113 0 0 1-88.41 147.76l-143.31 23.91c-1.08.18-2.15.32-3.23.47a111 111 0 0 0 33.23-.47l143.31-23.92A113 113 0 0 0 369.56 331a107.55 107.55 0 0 1 39.49-122.12l58.6-41.69A87.78 87.78 0 0 0 481.11 36Z"/>
  <path fill="#b3e59f" d="M79.73 347.81A59.55 59.55 0 0 0 129.16 451l143.31-23.92A60.69 60.69 0 0 0 320 347.74a159.86 159.86 0 0 1 58.71-181.57l58.59-41.68a35.4 35.4 0 0 0 5.43-52.9 35.61 35.61 0 0 0-49.53-2.44Z"/>
  <path fill="#95d6a4" d="M442.68 71.59a35.42 35.42 0 0 0-27-11.28 35.39 35.39 0 0 1-8.43 49.18l-58.6 41.68a159.9 159.9 0 0 0-58.71 181.57 60.42 60.42 0 0 1-21.74 68.54 61.07 61.07 0 0 1-25.73 10.8L99.16 436a59.08 59.08 0 0 1-20.34-.17A59.9 59.9 0 0 0 129.16 451l143.31-23.92A60.69 60.69 0 0 0 320 347.74a159.86 159.86 0 0 1 58.71-181.57l58.59-41.68a35.4 35.4 0 0 0 5.43-52.9Z"/>
  <path d="M147.42 242.15 112.75 273a7.5 7.5 0 1 0 10 11.21l34.67-30.83a7.5 7.5 0 0 0-10-11.21Zm-93.59 108a77.43 77.43 0 0 1 14.93-18l15.44-13.71a7.5 7.5 0 0 0-10-11.21L58.79 321A92.48 92.48 0 0 0 41 342.41a7.5 7.5 0 0 0 12.85 7.73ZM185.32 218.5a7.51 7.51 0 0 0 10.59.62l34.66-30.82a7.5 7.5 0 1 0-10-11.21l-34.67 30.82a7.5 7.5 0 0 0-.62 10.59ZM486.61 30.93a95.31 95.31 0 0 0-133.28-6.55L202.9 158.13a7.5 7.5 0 1 0 10 11.21L363.3 35.59a80.34 80.34 0 1 1 100 125.48l-58.59 41.69a115 115 0 0 0-42.25 130.64 105.49 105.49 0 0 1-82.55 138l-39.67 6.6-8.16-36.55 41.62-6.94a68.2 68.2 0 0 0 53.35-89.14 151.28 151.28 0 0 1-7.47-62.85 7.5 7.5 0 0 0-14.93-1.39 166 166 0 0 0 8.19 69 53.17 53.17 0 0 1-41.61 69.53l-143.3 23.94a52.05 52.05 0 0 1-43.22-90.19L398.13 74.75a28.07 28.07 0 0 1 39 1.93 27.9 27.9 0 0 1-4.27 41.7l-58.59 41.68a166.11 166.11 0 0 0-62.2 84.84 7.5 7.5 0 0 0 14.28 4.62A151.23 151.23 0 0 1 383 172.28l58.6-41.68a42.9 42.9 0 0 0 6.58-64.11 43.15 43.15 0 0 0-60-2.95L74.75 342.2a67.08 67.08 0 0 0 55.65 116.2l29-4.85 8.17 36.55-31 5.17a104.47 104.47 0 0 1-86.73-181l137-121.8a7.5 7.5 0 1 0-10-11.21L39.92 303a119.44 119.44 0 0 0 79.74 208.63 117.94 117.94 0 0 0 19.41-1.6l143.31-23.92a120.51 120.51 0 0 0 94.29-157.56A100 100 0 0 1 413.4 215l58.6-41.71a95.28 95.28 0 0 0 14.61-142.36ZM174.24 451.08l14.1-2.35 2.22 9.94-14.1 2.33Zm8.16 36.55-2.67-11.94 14.11-2.36 2.67 11.94Zm20.76-41.38 14.1-2.35 2.23 10-14.11 2.35Zm8.16 36.55-2.66-11.94 14.1-2.35 2.67 11.93ZM32.17 388.08a7.5 7.5 0 0 0-7.08 7.92 93.55 93.55 0 0 0 12.45 41.69 90.35 90.35 0 0 0 3.48 5.54 7.5 7.5 0 0 0 12.41-8.43c-1-1.5-2-3.07-2.92-4.64a78.45 78.45 0 0 1-10.44-35 7.49 7.49 0 0 0-7.9-7.07Zm320-151.95a7.5 7.5 0 0 0-9.89 3.84 140.34 140.34 0 0 0-11.6 47.37 7.5 7.5 0 1 0 15 1A125.29 125.29 0 0 1 356 246a7.49 7.49 0 0 0-3.84-9.88Zm59.08-69-22.58 16.07a140.29 140.29 0 0 0-15.22 12.52 7.5 7.5 0 0 0 10.32 10.89 126.59 126.59 0 0 1 13.6-11.19l22.58-16.06a7.5 7.5 0 0 0-8.7-12.23ZM121.13 485.81a92.12 92.12 0 0 0 15.19-1.26h.19a7.5 7.5 0 1 0-2.51-14.82h-.18a77.21 77.21 0 0 1-12.71 1.05 78.11 78.11 0 0 1-28.86-5.52 7.5 7.5 0 0 0-5.51 14 93.37 93.37 0 0 0 34.37 6.56ZM346 391.66a7.54 7.54 0 0 0 8.9-5.77 94.59 94.59 0 0 0-2.82-49.7 7.5 7.5 0 0 0-14.24 4.74 79.49 79.49 0 0 1 2.39 41.83 7.49 7.49 0 0 0 5.77 8.9Zm-28.34 32.49a80 80 0 0 1-36.77 20.12 7.5 7.5 0 1 0 3.49 14.58A94.67 94.67 0 0 0 328.07 435a7.5 7.5 0 1 0-10.39-10.81Zm133.47-287.78A7.5 7.5 0 1 0 460.6 148a69.48 69.48 0 0 0 24.65-42.2c.12-.67.23-1.35.32-2a7.5 7.5 0 1 0-14.85-2.1l-.25 1.59a54.47 54.47 0 0 1-19.34 33.09ZM421.08 27.89a7.5 7.5 0 0 0-1 15 54.37 54.37 0 0 1 36 17A7.5 7.5 0 0 0 467 49.58a69.37 69.37 0 0 0-45.92-21.69Zm-152 126.16 34.67-30.82a7.5 7.5 0 1 0-10-11.21l-34.66 30.82a7.5 7.5 0 0 0 10 11.21ZM342.28 89 377 58.16A7.5 7.5 0 0 0 367 47l-34.69 30.77a7.5 7.5 0 0 0 10 11.21Z"/>
    </symbol>
    <symbol id="item-2132">
      <title>date</title>
<path fill="#ff4755" d="M37.85 348.75v-154a15.18 15.18 0 1 0-30.35 0v151.82a2.19 2.19 0 0 0 2.18 2.18Z"/>
  <path fill="#ff646f" d="M24.12 363.65h114.5a20.19 20.19 0 1 0 0-40.38H31.3a23.78 23.78 0 0 0-23.78 23.78 16.6 16.6 0 0 0 16.6 16.6Z"/>
  <path fill="#ff4755" d="M138.62 323.27h-20.55v20.19a20.19 20.19 0 0 1-20.19 20.19h40.74a20.19 20.19 0 1 0 0-40.38ZM474.15 348.75v-154a15.18 15.18 0 1 1 30.35 0v151.82a2.19 2.19 0 0 1-2.18 2.18Z"/>
  <path fill="#ff646f" d="M487.88 363.65h-114.5a20.19 20.19 0 1 1 0-40.38H480.7a23.78 23.78 0 0 1 23.78 23.78 16.6 16.6 0 0 1-16.6 16.6Z"/>
  <path fill="#ff4755" d="M504.48 347.05a23.78 23.78 0 0 0-23.78-23.78h-16.83v20.19a20.18 20.18 0 0 1-20.19 20.19h44.2a16.6 16.6 0 0 0 16.6-16.6Z"/>
  <path fill="#b78b7a" d="M279.88 482.56h-47.76a9.2 9.2 0 0 1-9.12-10.18l17.5-163.82h31.06L289 472.38a9.2 9.2 0 0 1-9.12 10.18Z"/>
  <path fill="#b78b7a" d="M256 319.34a29.82 29.82 0 0 1-29.82-29.83v-29.82h59.64v29.82A29.82 29.82 0 0 1 256 319.34Z"/>
  <path fill="#986b54" d="M245.2 259.69v29.82a29.75 29.75 0 0 1-9.51 21.84 29.82 29.82 0 0 0 50.13-21.84v-29.82Z"/>
  <path fill="#fdabdf" d="M289.17 29.44C263.5 29.44 256 49.82 256 49.82s-8.4-20.38-33.17-20.38a42.09 42.09 0 0 0-42.08 42.09c0 43.25 50.32 70.82 68.66 79.44a15.51 15.51 0 0 0 13.18 0c18.34-8.62 68.66-36.19 68.66-79.44a42.09 42.09 0 0 0-42.09-42.09Z"/>
  <path fill="#fc90d2" d="M289.17 29.44a37.36 37.36 0 0 0-20.1 5.35 42.07 42.07 0 0 1 21.57 36.74c0 34.84-32.66 59.5-54.95 72.28a191.16 191.16 0 0 0 13.73 7.16 15.48 15.48 0 0 0 13.17 0c18.34-8.62 68.66-36.19 68.66-79.44a42.09 42.09 0 0 0-42.08-42.09Z"/>
  <path fill="#986b54" d="M427.81 269.35H84.19a14.75 14.75 0 1 1 0-29.5h343.62a14.75 14.75 0 0 1 0 29.5Z"/>
  <path fill="#845c47" d="M427.81 239.85h-25.87v19.88a9.62 9.62 0 0 1-9.62 9.62h35.49a14.75 14.75 0 0 0 0-29.5Z"/>
  <path fill="#ff4755" d="M157.55 183.91v-18.59a4.65 4.65 0 0 0-4.65-4.65h-37a4.65 4.65 0 0 0-4.65 4.65v18.59a31.59 31.59 0 0 0 11.63 24.48l7.37 6a6.56 6.56 0 0 0 8.28 0l7.37-6a31.59 31.59 0 0 0 11.65-24.48ZM400.73 183.91v-18.59a4.65 4.65 0 0 0-4.65-4.65h-37a4.65 4.65 0 0 0-4.65 4.65v18.59a31.59 31.59 0 0 0 11.63 24.48l7.37 6a6.56 6.56 0 0 0 8.28 0l7.37-6a31.59 31.59 0 0 0 11.65-24.48Z"/>
  <path d="M138.62 315.77H45.35V194.7a22.68 22.68 0 1 0-45.35 0v151.87a6 6 0 0 0 0 .64 24.12 24.12 0 0 0 24.09 23.94h6.44L15 481.51a7.5 7.5 0 1 0 14.85 2.09l15.86-112.45H112l15.79 112.45a7.5 7.5 0 1 0 14.85-2.09l-15.55-110.36h11.53a27.69 27.69 0 1 0 0-55.38ZM15 194.7a7.68 7.68 0 1 1 15.35 0v121.09A31.17 31.17 0 0 0 15 320.36Zm123.62 161.45H24.12a9.11 9.11 0 0 1-9.1-9.1 16.29 16.29 0 0 1 16.28-16.28h107.32a12.69 12.69 0 1 1 0 25.38ZM489.32 172a22.7 22.7 0 0 0-22.67 22.68v121.09h-93.27a27.69 27.69 0 1 0 0 55.38h11.52l-15.54 110.36a7.5 7.5 0 0 0 14.85 2.09l15.84-112.45h66.24l15.84 112.45a7.5 7.5 0 1 0 14.87-2.09l-15.56-110.36h6.44a24.13 24.13 0 0 0 24.1-24V194.7a22.7 22.7 0 0 0-22.66-22.7Zm-1.44 184.13h-114.5a12.69 12.69 0 1 1 0-25.38H480.7a16.29 16.29 0 0 1 16.3 16.3 9.11 9.11 0 0 1-9.12 9.1Zm9.12-35.77a31.17 31.17 0 0 0-15.35-4.57V194.7a7.68 7.68 0 1 1 15.35 0Z"/>
  <path d="M280.08 318a37.27 37.27 0 0 0 13.25-28.49v-12.66h134.48a22.25 22.25 0 0 0 0-44.5h-42.72v-11.17c1.43-.91 1.2-.88 8.75-7a38.93 38.93 0 0 0 14.39-30.29v-18.57a12.16 12.16 0 0 0-12.15-12.15h-37A12.17 12.17 0 0 0 347 165.32v18.59a38.91 38.91 0 0 0 14.4 30.29c7.38 6 7.3 6.07 8.74 7v11.17H141.91v-11.19c1.44-.91 1.24-.92 8.74-7a38.91 38.91 0 0 0 14.4-30.29v-18.57a12.16 12.16 0 0 0-12.15-12.15h-37a12.16 12.16 0 0 0-12.15 12.15v18.59a38.91 38.91 0 0 0 14.4 30.29c7.38 6 7.3 6.07 8.74 7v11.17h-42.7a22.25 22.25 0 1 0 0 44.5h14.63a7.5 7.5 0 0 0 0-15H84.19a7.25 7.25 0 1 1 0-14.5h343.62a7.25 7.25 0 0 1 0 14.5h-293.9a7.5 7.5 0 1 0 0 15h84.77v12.66A37.26 37.26 0 0 0 231.92 318l-16.4 153.58a16.7 16.7 0 0 0 16.6 18.48h47.77a16.72 16.72 0 0 0 16.6-18.48ZM134.41 208.09l-6.77-5.52a24 24 0 0 1-8.87-18.66v-15.74h31.28v15.74a24 24 0 0 1-8.87 18.66Zm243.18 0-6.77-5.52a24 24 0 0 1-8.82-18.66v-15.74h31.28v15.74a24 24 0 0 1-8.87 18.66Zm-143.91 68.76h44.64v12.66a22.32 22.32 0 1 1-44.64 0Zm46.2 198.21h-47.76a1.7 1.7 0 0 1-1.69-1.88l15.77-147.66a37 37 0 0 0 19.6 0l15.77 147.66a1.69 1.69 0 0 1-1.69 1.88Z"/>
  <path d="M246.23 157.75a22.89 22.89 0 0 0 19.54 0c13.48-6.32 46.6-24 63.06-51.7a7.5 7.5 0 1 0-12.89-7.67c-14.34 24.1-44.32 40.06-56.54 45.8a8 8 0 0 1-6.8 0c-15.09-7.09-64.35-33.29-64.35-72.65a34.63 34.63 0 0 1 34.59-34.59c19.21 0 26 15.15 26.23 15.74a7.5 7.5 0 0 0 14-.27c.06-.15 5.93-15.47 26.13-15.47a34.78 34.78 0 0 1 34.46 31.58 7.5 7.5 0 1 0 14.94-1.28 49.59 49.59 0 0 0-49.4-45.3c-16.95 0-27.35 7.47-33.32 14.3-6.09-6.8-16.55-14.3-33-14.3a49.64 49.64 0 0 0-49.59 49.59c0 39.52 37.2 69.42 73 86.22Z"/>
    </symbol>
    <symbol id="item-2133">
      <title>return arrow</title>
<path fill="#d8d8d8" d="M353.26 144.78H104.41l43.27-43.28-35.63-35.64L8.06 170l104 104.12 35.63-35.64-43.27-43.28h248.84a100.29 100.29 0 0 1 0 200.57H175.37v50.39h177.89a150.68 150.68 0 1 0 0-301.35Z"/>
  <path fill="#bababa" d="M446.07 176.74a150.69 150.69 0 0 1-116 246.87h-154.7v22.52h177.89a150.68 150.68 0 0 0 92.81-269.39Z"/>
  <path fill="#bababa" d="M353.26 195.17a99.86 99.86 0 0 1 57.39 18 100.14 100.14 0 0 0-80.57-40.56H125a20.15 20.15 0 0 0-20.16 20.13v2.77Z"/>
  <path d="M353.26 137.22h-79.62a7.56 7.56 0 0 0 0 15.12h79.62c78.92 0 143.12 64.2 143.12 143.12s-64.2 143.12-143.12 143.12H182.93V403.3h85.8a7.56 7.56 0 0 0 0-15.12h-93.36a7.56 7.56 0 0 0-7.56 7.56v50.4a7.56 7.56 0 0 0 7.56 7.56h177.89c87.25 0 158.24-71 158.24-158.24s-70.99-158.24-158.24-158.24Z"/>
  <path d="M122.66 202.73h230.6a92.73 92.73 0 1 1 0 185.45h-48.88a7.56 7.56 0 0 0 0 15.12h48.88a107.85 107.85 0 1 0 0-215.69H104.41a7.56 7.56 0 0 0-5.35 12.91L137 238.45l-24.94 24.94L18.74 170l93.31-93.41L137 101.5l-37.94 37.93a7.55 7.55 0 0 0 5.35 12.9h133.78a7.56 7.56 0 1 0 0-15.11H122.66L153 106.84a7.56 7.56 0 0 0 0-10.69l-35.6-35.63a7.58 7.58 0 0 0-5.35-2.22 7.56 7.56 0 0 0-5.35 2.22L2.71 164.63a7.56 7.56 0 0 0 0 10.69l104 104.11a7.6 7.6 0 0 0 5.35 2.22 7.58 7.58 0 0 0 5.35-2.22L153 243.8a7.57 7.57 0 0 0 0-10.69Z"/>
    </symbol>
    <symbol id="item-2134">
      <title>vvv</title>

    </symbol>
    <symbol id="item-2135">
      <title>www</title>

    </symbol>
    <symbol id="item-2136">
      <title>xxx</title>

    </symbol>
    <symbol id="item-2137">
      <title>yyy</title>

    </symbol>
    <symbol id="item-2138">
      <title>zzz</title>

    </symbol>
    <symbol id="item-2139">
      <title>aaa</title>

    </symbol>
    <symbol id="item-2140">
      <title>bbb</title>

    </symbol>
    <symbol id="item-2141">
      <title>ccc</title>

    </symbol>
    <symbol id="item-2142">
      <title>ddd</title>

    </symbol>
    <symbol id="item-2143">
      <title>eee</title>

    </symbol>
    <symbol id="item-2144">
      <title>fff</title>

    </symbol>
    <symbol id="item-2145">
      <title>ggg</title>

    </symbol>
    <symbol id="item-2146">
      <title>hhh</title>

    </symbol>
    <symbol id="item-2147">
      <title>iii</title>

    </symbol>
    <symbol id="item-2148">
      <title>jjj</title>

    </symbol>
    <symbol id="item-2149">
      <title>kkk</title>

    </symbol>
    <symbol id="item-2150">
      <title>lll</title>

    </symbol>
    <symbol id="item-2151">
      <title>mmm</title>

    </symbol>
    <symbol id="item-2152">
      <title>nnn</title>

    </symbol>
    <symbol id="item-2153">
      <title>ooo</title>

    </symbol>
    <symbol id="item-2154">
      <title>ppp</title>

    </symbol>
    <symbol id="item-2155">
      <title>qqq</title>

    </symbol>
    <symbol id="item-2156">
      <title>rrr</title>

    </symbol>
    <symbol id="item-2157">
      <title>sss</title>

    </symbol>
    <symbol id="item-2158">
      <title>ttt</title>

    </symbol>
    <symbol id="item-2159">
      <title>uuu</title>

    </symbol>
    <symbol id="item-2160">
      <title>vvv</title>

    </symbol>
    <symbol id="item-2161">
      <title>www</title>

    </symbol>
    <symbol id="item-2162">
      <title>xxx</title>

    </symbol>
    <symbol id="item-2163">
      <title>yyy</title>

    </symbol>
    <symbol id="item-2164">
      <title>zzz</title>

    </symbol>
    <symbol id="item-2165">
      <title>aaa</title>

    </symbol>
    <symbol id="item-2166">
      <title>bbb</title>

    </symbol>
    <symbol id="item-2167">
      <title>ccc</title>

    </symbol>
    <symbol id="item-2168">
      <title>ddd</title>

    </symbol>
    <symbol id="item-2169">
      <title>eee</title>

    </symbol>
    <symbol id="item-2170">
      <title>fff</title>

    </symbol>
    <symbol id="item-2171">
      <title>ggg</title>

    </symbol>
    <symbol id="item-2172">
      <title>hhh</title>

    </symbol>
    <symbol id="item-2173">
      <title>iii</title>

    </symbol>
    <symbol id="item-2174">
      <title>jjj</title>

    </symbol>
    <symbol id="item-2175">
      <title>kkk</title>

    </symbol>
    <symbol id="item-2176">
      <title>lll</title>

    </symbol>
  </defs>
</svg>
