<svg xmlns="http://www.w3.org/2000/svg" viewBox="0 0 170.82 170.82">
  <path fill="#3a93a5" d="m46.94 123.92 44.44-44.44 44.44 44.44-44.48 44.44a8.38 8.38 0 0 1-11.85 0l-32.55-32.59a8.37 8.37 0 0 1 0-11.85Z"/>
  <path fill="#5cbb60" d="M123.94 123.92 79.5 79.48l44.44-44.44 44.44 44.44a8.37 8.37 0 0 1 0 11.85l-32.58 32.59a8.38 8.38 0 0 1-11.86 0Z"/>
  <path fill="#f2ad63" d="M123.94 46.89 79.5 91.33 35.04 46.89 79.49 2.45a8.38 8.38 0 0 1 11.85 0l32.6 32.59a8.37 8.37 0 0 1 0 11.85Z"/>
  <path fill="#f478ac" d="m85.41 85.41-38.47 38.51a8.37 8.37 0 0 1-11.85 0L2.46 91.33a8.37 8.37 0 0 1 0-11.85l32.59-32.59a8.38 8.38 0 0 1 11.85 0Z"/>
  <path fill="#272929" d="m60.05 63.71-10 46.29H39.72l10.22-47.74h-.86c-7.64 0-13.56 3-13.56 14.56 0 3.68.94 4.26 1 4.91-5 0-7.71-1.81-7.71-7 0-9.59 6.78-18.74 24.58-18.74 8.73 0 11.39 1.66 18.46 1.66a23.43 23.43 0 0 0 8.36-1.52c-.14 6.27-3.24 9.16-9 9.16a52.45 52.45 0 0 1-11.16-1.58Z"/>
  <path fill="#272929" d="m90.32 62.71-8.65 40.45a6.79 6.79 0 0 0 4.11 1.44c8.58 0 13.84-17.16 13.84-31.72 0-9.81-4.25-13.63-10.52-13.63-10.74 0-18.89 6.56-18.89 17.52a10 10 0 0 0 1 4.9c-4.76 0-7.72-1.8-7.72-6.7 0-9.88 12.19-19 26.82-19 14 0 19.25 9.73 19.25 20.76 0 16.58-9.3 34.25-20 34.25-2.74 0-5.69-1.16-8.79-3.82l-.58 2.88H69.85l9.8-45.86ZM128.03 109.99h-10.39l10.46-49c-6.27 2.6-10.1 8-10.1 15.72a10 10 0 0 0 1 4.9c-5 0-7.71-1.8-7.71-7 0-9.59 13.26-18.74 25.31-18.74 1 0 1.94.07 2.88.14Z"/>
</svg>
